<svg version="1.1" xmlns="http://www.w3.org/2000/svg" xmlns:xlink="http://www.w3.org/1999/xlink" width="552.78441" height="68.25791" viewBox="0,0,552.78441,68.25791"><g transform="translate(-75.76735,-27.81453)"><g data-paper-data="{&quot;isPaintingLayer&quot;:true}" fill="#f7f7f7" fill-rule="nonzero" stroke="none" stroke-width="0" stroke-linecap="butt" stroke-linejoin="miter" stroke-miterlimit="10" stroke-dasharray="" stroke-dashoffset="0" style="mix-blend-mode: normal"><g><path d="M120.25886,61.81337c0,10.53086 -9.95977,19.0678 -22.24576,19.0678c-12.28599,0 -22.24576,-8.53694 -22.24576,-19.06779c0,-10.53085 9.95977,-19.0678 22.24577,-19.0678c12.286,0 22.24576,8.53694 22.24576,19.0678z"/><path d="M140.7391,56.86987c0,10.92088 -12.96351,19.77401 -28.95481,19.77401c-15.99129,0 -28.9548,-8.85313 -28.9548,-19.77401c0,-10.92089 12.96351,-19.77401 28.9548,-19.77401c15.9913,0 28.95481,8.85312 28.95481,19.77401z"/><path d="M164.7504,66.40376c0,11.89597 -12.64733,21.53955 -28.24859,21.53955c-15.60127,0 -28.24859,-9.64358 -28.24859,-21.53954c0,-11.89596 12.64732,-21.53955 28.24859,-21.53955c15.60127,0 28.24859,9.64359 28.24859,21.53955z"/><path d="M200.06113,56.51676c0,12.67603 -14.54442,22.95197 -32.48587,22.95197c-17.94146,0 -32.48588,-10.27595 -32.48588,-22.95197c0,-12.67602 14.54442,-22.95198 32.48588,-22.95198c17.94145,0 32.48587,10.27596 32.48587,22.95198z"/><path d="M224.77865,61.46026c0,13.45609 -12.01495,24.36441 -26.83615,24.36441c-14.8212,0 -26.83616,-10.90832 -26.83616,-24.3644c0,-13.45609 12.01496,-24.3644 26.83616,-24.3644c14.8212,0 26.83615,10.90832 26.83615,24.36441z"/></g><g><path d="M302.55143,53.40517c-0.98604,10.48459 -11.7014,18.05145 -23.93342,16.90107c-12.23202,-1.15038 -21.34869,-10.58239 -20.36264,-21.06698c0.98604,-10.48459 11.7014,-18.05146 23.93342,-16.90108c12.23202,1.15038 21.34868,10.58239 20.36264,21.06698z"/><path d="M323.40457,50.40102c-1.02256,10.87291 -14.75807,18.47332 -30.67911,16.97599c-15.92104,-1.49732 -27.99864,-11.52538 -26.97608,-22.39828c1.02256,-10.87291 14.75807,-18.47332 30.67911,-16.97599c15.92104,1.49732 27.99865,11.52538 26.97608,22.39828z"/><path d="M346.41768,62.1413c-1.11386,11.8437 -14.60859,20.2607 -30.14131,18.79989c-15.53272,-1.4608 -27.22152,-12.24623 -26.10765,-24.08994c1.11386,-11.8437 14.60859,-20.2607 30.14131,-18.7999c15.53272,1.4608 27.22152,12.24624 26.10766,24.08994z"/><path d="M382.49904,55.604c-1.1869,12.62034 -16.6296,21.48929 -34.49223,19.80937c-17.86263,-1.67993 -31.38098,-13.27258 -30.19408,-25.89291c1.1869,-12.62034 16.6296,-21.4893 34.49223,-19.80937c17.86263,1.67993 31.38098,13.27258 30.19408,25.89292z"/><path d="M406.64508,62.84018c-1.25994,13.39697 -14.2435,23.13236 -28.99959,21.7446c-14.75609,-1.38776 -25.69687,-13.37316 -24.43693,-26.77014c1.25994,-13.39697 14.24351,-23.13236 28.99959,-21.7446c14.75609,1.38776 25.69687,13.37316 24.43693,26.77013z"/></g><g data-paper-data="{&quot;index&quot;:null}"><path d="M503.9967,91.54876c-12.23202,1.15039 -22.94738,-6.41648 -23.93342,-16.90107c-0.98604,-10.48459 8.13063,-19.91659 20.36264,-21.06697c12.23202,-1.15038 22.94737,6.41648 23.93341,16.90107c0.98604,10.48459 -8.13062,19.91659 -20.36264,21.06698z"/><path d="M518.23639,95.88423c-15.92104,1.49733 -29.65654,-6.10308 -30.67911,-16.97599c-1.02256,-10.8729 11.05504,-20.90096 26.97608,-22.39828c15.92104,-1.49732 29.65655,6.10309 30.67912,16.97599c1.02256,10.8729 -11.05505,20.90096 -26.97609,22.39828z"/><path d="M542.11794,85.83561c-15.53273,1.46081 -29.02744,-6.9562 -30.14131,-18.7999c-1.11386,-11.8437 10.57493,-22.62913 26.10765,-24.08993c15.53272,-1.46081 29.02745,6.95619 30.14132,18.79989c1.11386,11.84371 -10.57493,22.62914 -26.10766,24.08994z"/><path d="M574.11288,94.17587c-17.86264,1.67992 -33.30533,-7.18903 -34.49223,-19.80937c-1.18691,-12.62033 12.33144,-24.21299 30.19408,-25.89291c17.86264,-1.67992 33.30533,7.18903 34.49224,19.80937c1.1869,12.62034 -12.33144,24.213 -30.19408,25.89292z"/><path d="M604.01607,87.81692c-14.75609,1.38777 -27.73965,-8.34762 -28.9996,-21.74459c-1.25995,-13.39697 9.68085,-25.38237 24.43693,-26.77013c14.75608,-1.38777 27.73964,8.34762 28.99959,21.74459c1.25995,13.39698 -9.68084,25.38237 -24.43692,26.77014z"/></g></g></g></svg>