<svg version="1.1" xmlns="http://www.w3.org/2000/svg" xmlns:xlink="http://www.w3.org/1999/xlink" width="16.29015" height="25.72454" viewBox="0,0,16.29015,25.72454"><g transform="translate(-231.85493,-167.13773)"><g data-paper-data="{&quot;isPaintingLayer&quot;:true}" fill-rule="nonzero" stroke="none" stroke-width="1" stroke-linecap="butt" stroke-linejoin="miter" stroke-miterlimit="10" stroke-dasharray="" stroke-dashoffset="0" style="mix-blend-mode: normal"><g><path d="M232.04958,192.7344c-0.46994,-0.46994 0,-24.63275 0.46994,-24.94604c0.70491,-0.39162 11.31775,-0.86156 13.35416,-0.54827c2.11474,0.31329 2.27139,0.62658 2.27139,4.54276v2.62384l-1.56647,0.62659c-0.97904,0.39162 -2.74133,0.62658 -4.5036,0.62658c-2.34971,0 -2.93713,0.11749 -2.93713,0.58743c0,0.46994 0.58743,0.58743 2.89797,0.58743c2.27138,0 2.93713,0.11749 3.13294,0.62659c0.35245,0.90072 0.27413,4.58192 -0.11749,5.20851c-0.19581,0.27413 -1.6448,0.70491 -3.32875,0.93988l-2.9763,0.43078v3.9945c0,2.663 -0.15665,4.11199 -0.46994,4.3078c-0.58743,0.39162 -5.91343,0.70491 -6.22672,0.39162z" fill="#000000"/><path d="M233.89018,180.47677c-0.23497,-8.02816 -0.15664,-10.10373 0.23497,-10.3387c0.27413,-0.19581 3.01545,-0.35245 6.03091,-0.35245c5.99175,0 6.03091,0 6.03091,2.15389c0,0.8224 -0.23497,0.93988 -2.23222,1.17486c-1.25317,0.11749 -3.32875,0.35245 -4.62109,0.5091l-2.34971,0.27413l-0.11749,1.80144c-0.07832,1.3315 0.07832,2.03641 0.74408,2.85881c0.8224,1.05737 0.97904,1.09653 3.1721,0.86156c2.23222,-0.27413 2.27138,-0.27413 2.27138,0.74408c0,0.54827 -0.11748,0.97904 -0.23497,0.97904c-1.37066,0 -5.91342,0.97904 -6.10923,1.3315c-0.15665,0.23497 -0.3133,2.15389 -0.3133,4.26863v3.79869h-1.09653h-1.13569z" fill="#f9f9f9"/></g></g></g></svg>