<svg version="1.1" xmlns="http://www.w3.org/2000/svg" xmlns:xlink="http://www.w3.org/1999/xlink" width="368.54586" height="133.59858" viewBox="0,0,368.54586,133.59858"><defs><linearGradient x1="454.48956" y1="176.85947" x2="466.05881" y2="176.85947" gradientUnits="userSpaceOnUse" id="color-1"><stop offset="0" stop-color="#d6d6d6"/><stop offset="1" stop-color="#909090"/></linearGradient><linearGradient x1="321.32979" y1="117.3005" x2="321.32979" y2="186.31657" gradientUnits="userSpaceOnUse" id="color-2"><stop offset="0" stop-color="#d6d6d6"/><stop offset="1" stop-color="#a1a1a1"/></linearGradient><linearGradient x1="431.06383" y1="117.1941" x2="431.06383" y2="143.65697" gradientUnits="userSpaceOnUse" id="color-3"><stop offset="0" stop-color="#d6d6d6"/><stop offset="1" stop-color="#909090"/></linearGradient><linearGradient x1="210.19565" y1="117.3179" x2="210.19565" y2="143.78077" gradientUnits="userSpaceOnUse" id="color-4"><stop offset="0" stop-color="#d6d6d6"/><stop offset="1" stop-color="#a1a1a1"/></linearGradient><linearGradient x1="243.00552" y1="164.97881" x2="254.50449" y2="164.97881" gradientUnits="userSpaceOnUse" id="color-5"><stop offset="0" stop-color="#838383"/><stop offset="1" stop-color="#a1a1a1"/></linearGradient><linearGradient x1="398.42431" y1="164.81752" x2="386.92533" y2="164.81752" gradientUnits="userSpaceOnUse" id="color-6"><stop offset="0" stop-color="#838383"/><stop offset="1" stop-color="#a1a1a1"/></linearGradient><linearGradient x1="504.97196" y1="204.03386" x2="504.97196" y2="212.83847" gradientUnits="userSpaceOnUse" id="color-7"><stop offset="0" stop-color="#d6d6d6"/><stop offset="1" stop-color="#a1a1a1"/></linearGradient><linearGradient x1="504.24559" y1="250.79268" x2="504.24559" y2="241.98806" gradientUnits="userSpaceOnUse" id="color-8"><stop offset="0" stop-color="#d6d6d6"/><stop offset="1" stop-color="#a1a1a1"/></linearGradient></defs><g transform="translate(-175.31771,-117.1941)"><g data-paper-data="{&quot;isPaintingLayer&quot;:true}" fill-rule="nonzero" stroke="none" stroke-linecap="butt" stroke-linejoin="miter" stroke-miterlimit="10" stroke-dasharray="" stroke-dashoffset="0" style="mix-blend-mode: normal"><path d="M466.05881,212.74579h-11.56925v-71.77264h11.56925z" fill="url(#color-1)" stroke-width="1"/><path d="M244.69653,186.31657v-69.01607h153.26652v69.01607z" fill="url(#color-2)" stroke-width="1"/><path d="M396.18589,143.65697v-26.46287h69.75588v26.46287z" fill="url(#color-3)" stroke-width="1"/><path d="M175.31771,143.78077v-26.46287h69.75588v26.46287z" data-paper-data="{&quot;index&quot;:null}" fill="url(#color-4)" stroke-width="1"/><path d="M175.38551,143.49988h11.56925v22.84866h-11.56925z" data-paper-data="{&quot;index&quot;:null}" fill="#a1a1a1" stroke-width="1"/><path d="M274.85497,186.68901v-2.17822h96.43564v2.17822z" fill="#00f3ff" stroke-width="0"/><path d="M276.83516,187.6791v-1.58416h91.48515v1.58416z" fill="#2a00ff" stroke-width="0"/><path d="M279.60744,188.86722v-1.58416h86.53465v1.58416z" fill="#00ff16" stroke-width="0"/><path d="M243.00552,186.1287v-42.2998h11.49898v42.2998z" fill="url(#color-5)" stroke-width="0"/><path d="M386.92533,186.15539v-42.67573h11.49897v42.67573z" data-paper-data="{&quot;index&quot;:null}" fill="url(#color-6)" stroke-width="0"/><path d="M543.85327,212.83847h-77.76267v-8.80461h77.76267z" fill="url(#color-7)" stroke-width="1"/><path d="M543.86357,250.79268h-79.23603v-8.80462h79.23603z" data-paper-data="{&quot;index&quot;:null}" fill="url(#color-8)" stroke-width="1"/></g></g></svg>