<svg version="1.1" xmlns="http://www.w3.org/2000/svg" xmlns:xlink="http://www.w3.org/1999/xlink" width="5.43368" height="16.51273" viewBox="0,0,5.43368,16.51273"><g transform="translate(-237.28316,-171.74363)"><g data-paper-data="{&quot;isPaintingLayer&quot;:true}" fill="#000000" fill-rule="nonzero" stroke="none" stroke-width="1" stroke-linecap="butt" stroke-linejoin="miter" stroke-miterlimit="10" stroke-dasharray="" stroke-dashoffset="0" style="mix-blend-mode: normal"><g><path d="M237.28317,187.9566c0,-0.11749 0.43078,-0.58743 0.97904,-1.01821c0.78323,-0.58743 0.90072,-0.90072 0.58743,-1.48815c-0.23497,-0.39162 -0.39162,-1.44899 -0.39162,-2.31054c0,-1.29234 0.19581,-1.72312 1.01821,-2.27139c0.93988,-0.58743 1.13569,-0.58742 2.07557,-0.07832c0.78323,0.43078 1.05737,0.93988 1.13569,2.07557c0.11749,1.40982 -0.03916,1.68396 -1.95809,3.44624c-1.76228,1.60563 -3.44624,2.42803 -3.44624,1.6448z"/><path d="M238.45802,175.6598c-0.90072,-0.90072 -0.97905,-1.52731 -0.3133,-2.93713c0.35245,-0.78323 0.70491,-0.97904 1.91893,-0.97904c1.60563,0 2.31055,0.74408 2.31055,2.31055c0,1.05737 -1.3315,2.38887 -2.34971,2.38887c-0.43078,0 -1.13569,-0.35246 -1.56647,-0.78324z"/></g></g></g></svg>