<svg version="1.1" xmlns="http://www.w3.org/2000/svg" xmlns:xlink="http://www.w3.org/1999/xlink" width="12.61266" height="21.17007" viewBox="0,0,12.61266,21.17007"><g transform="translate(-233.69367,-169.41497)"><g data-paper-data="{&quot;isPaintingLayer&quot;:true}" fill="#000000" fill-rule="nonzero" stroke="none" stroke-width="1" stroke-linecap="butt" stroke-linejoin="miter" stroke-miterlimit="10" stroke-dasharray="" stroke-dashoffset="0" style="mix-blend-mode: normal"><path d="M236.47659,190.01407c-1.8406,-0.8224 -2.50635,-2.03641 -2.50635,-4.58193c0,-1.8406 0.19581,-2.46719 1.0182,-3.44624l1.01821,-1.21401l-1.01821,-1.17486c-1.25317,-1.52731 -1.60563,-3.44624 -1.0182,-5.36516c1.01821,-3.05462 3.13294,-4.8169 5.87426,-4.8169c2.78048,0 3.4854,0.35246 4.38612,2.11474c1.01821,1.95809 1.05737,4.26863 0.15665,6.03091c-0.66575,1.25317 -0.62659,1.3315 0.31329,2.42803c2.11474,2.54552 2.1539,5.20852 0.03916,7.94984c-1.8406,2.46719 -5.36516,3.32875 -8.26313,2.07558zM241.84175,185.19717c0.46994,-0.90072 0.43078,-1.05737 -0.39162,-1.72312c-0.5091,-0.39162 -1.01821,-0.74407 -1.17486,-0.74407c-0.58743,0.03916 -2.3497,1.8406 -2.46719,2.54551c-0.07832,0.62659 0.15664,0.8224 1.25317,0.97904c1.76228,0.31329 2.11473,0.15665 2.78048,-1.05736zM240.78438,175.4459c0.78323,-1.6448 0.66575,-1.91893 -0.70491,-1.56647c-1.29234,0.31329 -2.03641,1.6448 -1.37066,2.42803c0.74407,0.90072 1.3315,0.62659 2.07557,-0.86156z"/></g></g></svg>