<svg version="1.1" xmlns="http://www.w3.org/2000/svg" xmlns:xlink="http://www.w3.org/1999/xlink" width="31.33111" height="39.10445" viewBox="0,0,31.33111,39.10445"><g transform="translate(-366.11312,-164.37136)"><g data-paper-data="{&quot;isPaintingLayer&quot;:true}" fill="#000000" fill-rule="nonzero" stroke="none" stroke-width="1" stroke-linecap="butt" stroke-linejoin="miter" stroke-miterlimit="10" stroke-dasharray="" stroke-dashoffset="0" style="mix-blend-mode: normal"><g data-paper-data="{&quot;index&quot;:null}"><path d="M379.10959,164.38713c0,-0.03455 0.05654,-0.00942 0.10993,0.04711c0.03141,0.03455 0.06596,0.05339 0.08166,0.04397c0.02827,-0.0157 0.18845,0.05968 0.25442,0.1225c0.02198,0.02198 0.09109,0.07224 0.15076,0.10679c0.06282,0.03769 0.14448,0.09423 0.17903,0.12878c0.03769,0.03141 0.10679,0.08481 0.15391,0.11936c0.33293,0.23557 1.38514,1.26578 1.86256,1.81859c0.14763,0.17275 0.2764,0.32038 0.28583,0.3298c0.03769,0.03455 0.43973,0.56851 0.43973,0.58421c0,0.00628 0.02827,0.04711 0.06282,0.08481c0.0691,0.07224 0.5371,0.84805 0.65959,1.0899c0.04083,0.07852 0.10993,0.24499 0.15705,0.37377c0.04711,0.12877 0.09423,0.21672 0.10679,0.19473c0.03455,-0.05339 0.08166,-0.04083 0.08166,0.02199c0,0.07538 -0.11936,0.28582 -0.25127,0.44601c-0.05968,0.07224 -0.14762,0.20102 -0.19159,0.28268c-0.10679,0.20102 -0.36749,0.59049 -0.47428,0.70671c-0.04711,0.05025 -0.08166,0.09737 -0.07538,0.10051c0.00315,0.00628 0.11307,-0.00315 0.24185,-0.02199c0.34236,-0.04397 1.12444,-0.03769 1.50764,0.0157c0.70042,0.09109 1.20611,0.25756 2.02589,0.66273c0.37691,0.18531 0.98625,0.56222 1.08048,0.66901c0.00942,0.01257 0.09737,0.07852 0.19473,0.15391c0.16647,0.1225 0.81036,0.74754 0.99881,0.9674c0.61876,0.72241 0.97682,1.27521 1.33489,2.06986c0.30153,0.67215 0.45229,1.36316 0.40832,1.88455c-0.01256,0.14763 -0.03455,0.2607 -0.05025,0.24813c-0.01571,-0.00943 -0.02827,0.0157 -0.02827,0.05654c0,0.0691 0.02513,0.07852 0.33608,0.14448c0.66901,0.1382 0.90773,0.16647 1.74949,0.22615c0.93914,0.06282 2.86766,-0.02199 3.48642,-0.15705c0.30781,-0.0691 0.38005,-0.10051 0.17903,-0.07852c-0.16018,0.01571 -0.17275,-0.03141 -0.01256,-0.05968c0.1382,-0.02198 0.4994,-0.18845 0.70042,-0.32665c0.07538,-0.05339 0.14763,-0.09109 0.15391,-0.08166c0.00942,0.00628 -0.01256,0.03455 -0.05025,0.05968c-0.06596,0.04397 -0.18845,0.35178 -0.19159,0.4837c-0.00314,0.04083 -0.02827,0.10365 -0.06282,0.14134c-0.03141,0.03455 -0.13506,0.2073 -0.22615,0.38005c-0.32666,0.61562 -0.51825,0.91715 -0.86689,1.38515c-0.52767,0.70671 -1.36944,1.45424 -2.0573,1.82801c-0.09423,0.05025 -0.23557,0.12878 -0.31723,0.17589c-0.27012,0.15076 -0.90773,0.43031 -1.2281,0.5371c-0.50569,0.16961 -1.01766,0.2607 -1.52335,0.2764c-0.18846,0.00628 -0.223,0.0157 -0.2073,0.05339c0.00942,0.02513 0.10365,0.27326 0.2073,0.54966c0.10365,0.27326 0.20102,0.52767 0.21986,0.55908c0.04711,0.08795 0.32037,0.19788 0.61876,0.24185c0.61248,0.09423 1.47309,-0.05339 2.23319,-0.38319c0.22929,-0.09737 0.70671,-0.35492 0.87003,-0.468c0.07224,-0.05025 0.1382,-0.09109 0.14448,-0.09109c0.02198,0 0.63132,-0.41146 0.79151,-0.5371c0.21044,-0.16019 0.48056,-0.38005 0.63132,-0.51511c0.10051,-0.08795 0.45543,-0.43345 0.57793,-0.56851l0.14134,-0.14762l-0.1225,0.09737c-0.17589,0.1382 -0.18531,0.09423 -0.0157,-0.07538c0.2607,-0.26384 0.45229,-0.49627 0.52453,-0.64075c0.06596,-0.12878 0.28268,-0.36121 0.31095,-0.33294c0.05968,0.05968 0.03141,1.58302 -0.03769,2.00391c-0.00628,0.04083 -0.02827,0.22615 -0.04711,0.41774c-0.08166,0.80722 -0.31409,1.94737 -0.50254,2.48132c-0.03455,0.10365 -0.06282,0.1916 -0.06282,0.19788c0.00315,0.00314 -0.02512,0.08795 -0.06282,0.18845c-0.03769,0.09737 -0.07224,0.1916 -0.07852,0.21044c-0.00942,0.05026 -0.04711,0.14449 -0.12564,0.3298c-0.11622,0.27012 -0.15077,0.35806 -0.16019,0.40832c-0.00628,0.02512 -0.02199,0.05025 -0.04083,0.05654c-0.0157,0.00628 -0.02512,0.02827 -0.0157,0.05025c0.02513,0.06596 -0.17903,0.42402 -0.40518,0.70985c-0.11622,0.14448 -0.21044,0.28268 -0.21044,0.30153c0,0.02198 -0.02198,0.04397 -0.04711,0.05654c-0.02512,0.00943 -0.04711,0.03769 -0.04711,0.06596c0,0.02512 -0.00943,0.04711 -0.02513,0.04711c-0.01256,0 -0.05654,0.05339 -0.10051,0.11936c-0.04397,0.06282 -0.09423,0.12878 -0.11622,0.14134c-0.02199,0.01256 -0.04083,0.03769 -0.04083,0.05339c0,0.0157 -0.03141,0.06282 -0.07224,0.10365c-0.09423,0.09737 -0.17903,0.2073 -0.17903,0.22615c0,0.06596 -0.78522,0.83548 -0.98625,0.9674c-0.04711,0.03141 -0.10993,0.08166 -0.14134,0.10993c-0.06596,0.06596 -0.45229,0.32351 -0.59992,0.3989c-0.10993,0.05654 -0.10993,0.05654 -0.03141,0.07852c0.08795,0.02513 0.28896,0.1225 0.31409,0.15391c0.00942,0.01256 0.10679,0.09423 0.21986,0.18217c0.11307,0.09109 0.23243,0.19788 0.27012,0.23557c0.15077,0.16333 0.3989,0.48998 0.47742,0.6219c0.04397,0.07852 0.09737,0.16332 0.11622,0.18845c0.04397,0.05339 0.26698,0.46486 0.38319,0.70042c0.21672,0.44287 0.48998,1.24694 0.61876,1.81231c0.11935,0.53081 0.2607,1.28777 0.23871,1.28777c-0.03141,0 -0.12564,-0.10993 -0.12564,-0.14762c0,-0.05025 -0.48998,-0.49627 -0.80093,-0.73183c-0.15705,-0.11622 -0.32666,-0.24813 -0.37691,-0.29525c-0.0534,-0.04397 -0.10365,-0.08166 -0.11622,-0.08166c-0.01257,0 -0.04083,-0.01884 -0.06596,-0.04397c-0.02513,-0.02512 -0.14134,-0.10993 -0.2607,-0.18845c-0.31409,-0.21044 -0.37377,-0.25127 -0.38319,-0.27954c-0.00628,-0.01257 -0.02513,-0.02199 -0.04397,-0.02199c-0.0157,0 -0.10365,-0.04711 -0.19159,-0.10679c-0.30781,-0.20102 -0.59364,-0.36434 -0.63761,-0.36434c-0.02513,0 -0.04397,-0.01257 -0.04397,-0.02827c0,-0.0157 -0.03141,-0.04083 -0.07224,-0.05339c-0.03769,-0.00943 -0.09423,-0.04083 -0.1225,-0.06596c-0.13192,-0.11621 -0.09423,0 0.09109,0.28897c0.10993,0.17275 0.21672,0.34236 0.23243,0.37691c0.01571,0.03455 0.08481,0.14763 0.15391,0.25127c0.0691,0.10365 0.18217,0.29525 0.25756,0.42403c0.07224,0.12878 0.16019,0.27954 0.19788,0.3298c0.03455,0.05339 0.16018,0.28583 0.2764,0.51825c0.11936,0.23243 0.22929,0.44601 0.24499,0.47114c0.08166,0.1382 0.38633,0.8292 0.54338,1.24066c0.10051,0.25756 0.19474,0.4994 0.21044,0.53395c0.05968,0.13192 0.24185,0.72869 0.26384,0.85433c0.01256,0.07538 0.03141,0.14134 0.04711,0.15076c0.01885,0.01256 0.04397,0.14134 0.07852,0.40832c0.03141,0.22615 0.05654,0.37377 0.09423,0.50254c0.02512,0.08481 0.04711,0.18531 0.04711,0.21986c0.00314,0.16647 0.02827,0.46485 0.04397,0.5371c0.01256,0.04711 0.01884,0.2607 0.01884,0.48056c-0.00314,0.21672 -0.00314,0.42402 -0.00314,0.45857c0.00314,0.05968 -0.04711,0.5371 -0.07852,0.76953c-0.01884,0.11936 -0.10051,0.44915 -0.13506,0.54966c-0.0157,0.03455 -0.05025,0.14134 -0.08166,0.23557c-0.02827,0.09423 -0.0691,0.2073 -0.08795,0.25127c-0.01885,0.04397 -0.03455,0.08481 -0.03455,0.09423c-0.00942,0.03769 -0.18531,0.37377 -0.26698,0.50254l-0.08481,0.14134l-12.20874,0.00942l-12.20874,0.00628l-0.07538,-0.15076c-0.17903,-0.35178 -0.24813,-0.65959 -0.24813,-1.12131c-0.00314,-0.56222 0.16333,-1.22182 0.4837,-1.89711c0.08481,-0.17903 0.15391,-0.3298 0.15391,-0.33608c0,-0.00628 -0.07224,-0.11936 -0.16019,-0.25442c-0.08795,-0.13506 -0.22929,-0.37377 -0.31409,-0.53395c-0.0848,-0.15705 -0.19473,-0.31095 -0.23871,-0.34236c-0.44287,-0.28897 -1.39457,-1.76205 -1.89711,-2.93362c-0.41774,-0.97369 -0.84805,-2.77343 -0.68786,-2.87394c0.01571,-0.00942 0.03141,0.00942 0.03141,0.04083c0,0.07538 0.22929,0.30467 0.64389,0.64075c0.11936,0.09737 0.2607,0.21672 0.31409,0.26384c0.05025,0.04397 0.17903,0.14762 0.28268,0.22615c0.10365,0.07852 0.223,0.17903 0.26698,0.21986c0.04083,0.04083 0.10365,0.08795 0.13506,0.10365c0.05339,0.03141 0.05654,0.01885 0.03769,-0.18217c-0.04711,-0.56851 -0.05654,-0.65331 -0.09423,-0.7444c-0.11935,-0.28583 -0.1539,-1.28777 -0.05968,-1.79346c0.0534,-0.29839 0.16333,-0.70671 0.24499,-0.91715c0.02827,-0.07538 0.07224,-0.19473 0.09737,-0.26384c0.10993,-0.29525 0.59364,-1.04278 0.81664,-1.26893c0.2607,-0.26384 0.57479,-0.43031 1.0365,-0.54966c0.29839,-0.07852 0.36435,-0.08795 0.68158,-0.09109l0.2764,-0.00314l-0.05968,-0.15076c-0.08795,-0.21986 -0.14134,-0.52139 -0.18217,-0.99567c-0.03769,-0.43973 -0.02513,-1.72437 0.01884,-2.0416c0.02198,-0.15704 0.04711,-0.33922 0.05339,-0.40832c0.00942,-0.0691 0.02827,-0.17589 0.04083,-0.23557c0.01571,-0.05968 0.02827,-0.13192 0.03141,-0.15705c0.00314,-0.16018 0.30466,-1.17156 0.45857,-1.54847c0.0157,-0.03769 0.00628,-0.05339 -0.03455,-0.05339c-0.12563,0 -0.4994,-0.16332 -0.85119,-0.36434c-0.25127,-0.14763 -1.01766,-0.67844 -1.12759,-0.77895c-0.01884,-0.01884 -0.11936,-0.10365 -0.21986,-0.19159c-0.29839,-0.25127 -0.9831,-0.95484 -1.2281,-1.25951c-0.12564,-0.1539 -0.30467,-0.37691 -0.40204,-0.49626c-0.09423,-0.11936 -0.17275,-0.22615 -0.17275,-0.24185c0,-0.01257 -0.01884,-0.04397 -0.04083,-0.06596c-0.04711,-0.04397 -0.10051,-0.12564 -0.3989,-0.58107c-0.22615,-0.3455 -0.59049,-1.0365 -0.77581,-1.46052c-0.21044,-0.48998 -0.21358,-0.49941 -0.33922,-0.77895c-0.06282,-0.14762 -0.13506,-0.31095 -0.16019,-0.3612c-0.09109,-0.21044 -0.24185,-0.64075 -0.30153,-0.86375c-0.15076,-0.56536 -0.24499,-1.382 -0.19159,-1.6427l0.01884,-0.08795l0.08166,0.07224c0.20102,0.17903 0.59049,0.44287 0.97682,0.65959c0.07852,0.04397 0.1916,0.10679 0.25127,0.14134c0.19159,0.10679 0.85747,0.43659 0.97368,0.48056c0.05968,0.02199 0.1225,0.0534 0.14134,0.06596c0.14762,0.10679 1.76833,0.57793 2.19864,0.64075c0.45857,0.06596 0.69728,0.09423 0.7444,0.08481c0.05025,-0.00942 0.07538,-0.07852 0.10051,-0.27326c0.09737,-0.74754 0.5528,-2.35569 0.74754,-2.63209c0.03455,-0.04711 0.0691,-0.14762 0.07852,-0.21986c0.02198,-0.16961 0.0691,-0.25756 0.22615,-0.42088c0.38947,-0.40832 1.41027,-0.81664 2.2646,-0.90459c0.18845,-0.01884 0.21358,-0.03141 0.27954,-0.12878c0.12878,-0.18845 0.53395,-0.54652 0.8449,-0.74754c0.51825,-0.33294 1.15586,-0.57793 2.06358,-0.78837c0.41774,-0.09737 0.57165,-0.11936 0.91087,-0.12564c0.79779,-0.01885 1.51392,0.07538 2.09185,0.27012c0.51197,0.16961 1.1213,0.46799 1.28777,0.62818c0.07538,0.07224 0.14134,0.11307 0.14762,0.09423c0.03455,-0.10365 -0.55908,-1.30976 -1.45424,-2.9556c-0.32352,-0.59677 -0.42717,-0.79151 -0.55594,-1.02708c-0.06596,-0.12564 -0.14762,-0.27326 -0.17903,-0.3298c-0.03455,-0.05654 -0.09109,-0.16018 -0.12564,-0.22929c-0.0691,-0.13506 -0.1225,-0.22929 -0.42088,-0.73183c-0.26384,-0.43659 -0.26698,-0.44601 -0.50569,-0.83234c-0.11307,-0.18531 -0.2073,-0.3455 -0.2073,-0.35178zM376.08174,176.74661c-0.00942,0 -0.08795,0.223 -0.17275,0.49312c-0.08481,0.27326 -0.21358,0.70671 -0.28583,0.9674c-0.14449,0.51511 -0.22615,0.77895 -0.29211,0.97368c-0.02513,0.0691 -0.05654,0.18217 -0.06596,0.25127l-0.02199,0.12564l0.12564,-0.14134c0.0691,-0.07852 0.12564,-0.15391 0.12878,-0.16961c0.00314,-0.07852 0.42088,-0.55908 0.65017,-0.74754l0.10051,-0.08166l-0.10365,-0.24499c-0.05654,-0.1382 -0.11307,-0.2764 -0.12878,-0.31095c-0.01571,-0.03455 -0.03141,-0.09737 -0.03455,-0.14134c-0.00628,-0.04397 -0.01885,-0.12564 -0.03141,-0.18217c-0.0157,-0.07852 -0.00942,-0.10051 0.03141,-0.10051c0.02827,0 0.04083,-0.01884 0.03141,-0.04397c-0.0157,-0.04083 0.01885,-0.32037 0.0691,-0.56222c0.01256,-0.04711 0.01256,-0.08481 0,-0.08481zM380.21518,177.46905c-0.00628,0.04397 -0.02513,0.09423 -0.03769,0.10993c-0.02512,0.03141 -0.1539,0.56222 -0.27954,1.14643c-0.08166,0.38319 -0.08795,0.42402 -0.10993,0.80093c-0.01256,0.17275 -0.02827,0.3989 -0.03455,0.50254c-0.02512,0.34864 -0.04711,0.78209 -0.05339,1.16842l-0.00942,0.38005l-0.10679,-0.11307c-0.28583,-0.31095 -0.81978,-1.12759 -0.99881,-1.52963c-0.20416,-0.45858 -0.23557,-0.53081 -0.24499,-0.56537c-0.00314,-0.0157 -0.01571,-0.05654 -0.03141,-0.08795c-0.01256,-0.02827 -0.05025,-0.13506 -0.08166,-0.23557c-0.03141,-0.09737 -0.05654,-0.15705 -0.05968,-0.13192c-0.01884,0.27954 -0.06282,0.54966 -0.08481,0.55594c-0.03769,0.01256 -0.0157,0.914 0.02513,0.98625c0.03455,0.0691 0.00314,0.09737 -0.07224,0.05654c-0.03141,-0.0157 -0.07224,-0.02198 -0.08795,-0.01256c-0.05968,0.03769 -0.23557,-0.09737 -0.53395,-0.40832c-0.31095,-0.32352 -0.48684,-0.5371 -0.56851,-0.69414c-0.04083,-0.07538 -0.08166,-0.1382 -0.09109,-0.1382c-0.00942,0.00314 -0.05339,0.05654 -0.09737,0.1225c-0.09109,0.13192 -0.38633,0.37063 -0.58421,0.47428c-0.0691,0.03455 -0.25756,0.10051 -0.41774,0.14448c-0.26384,0.0691 -0.29838,0.07224 -0.36434,0.02827c-0.03769,-0.02513 -0.08166,-0.07852 -0.09423,-0.11622c-0.01571,-0.05654 -0.03141,-0.02513 -0.07852,0.14762c-0.03455,0.12249 -0.0691,0.26698 -0.07852,0.32665c-0.00942,0.05968 -0.03141,0.1382 -0.04397,0.17903c-0.03141,0.07538 0.02198,0.1382 0.2764,0.33608c0.13506,0.10679 0.1382,0.10679 0.26698,0.06282c0.07224,-0.02512 0.15077,-0.06596 0.16961,-0.09423c0.02199,-0.02827 0.04083,-0.04397 0.04083,-0.03141c0,0.01256 0.02512,0.00942 0.05654,-0.00628c0.02827,-0.0157 0.16019,-0.03769 0.29211,-0.05025c0.35178,-0.03141 0.71299,0.05026 1.07734,0.24499c0.21044,0.10993 0.39576,0.27954 0.39576,0.35492c0,0.02827 0.02827,0.10051 0.06596,0.15705c0.03455,0.05968 0.07224,0.18217 0.08166,0.27954c0.0157,0.16019 0.01256,0.17589 -0.07852,0.26384c-0.16647,0.1539 -0.48684,0.16018 -0.70356,0.01884c-0.16332,-0.10993 -0.27954,-0.27954 -0.4994,-0.73183c-0.12564,-0.25756 -0.20416,-0.38319 -0.24185,-0.38633c-0.02827,-0.00314 -0.14762,-0.00314 -0.26384,-0.00314c-0.17589,0 -0.22615,0.01256 -0.31723,0.08166c-0.15704,0.12249 -0.47113,0.23871 -0.63446,0.23871c-0.10679,0 -0.14134,0.01256 -0.14134,0.05025c0,0.02513 -0.00943,0.04083 -0.02513,0.03455c-0.01256,-0.00943 -0.01884,0.10051 -0.01256,0.23871c0.00628,0.22301 -0.02513,0.63447 -0.0691,0.90144c-0.05968,0.36749 -0.0691,1.06791 -0.01884,1.49822c0.04397,0.39576 0.223,0.94227 0.29211,0.8983c0.01884,-0.00943 0.02198,-0.00314 0.00942,0.0157c-0.01256,0.01885 0.00942,0.09423 0.04711,0.16647c0.19159,0.38005 0.67529,0.90458 0.97996,1.06791c0.10679,0.05654 0.20102,0.10993 0.21044,0.11936c0.04397,0.05654 0.35493,0.2607 0.54966,0.36434c0.64703,0.33922 1.44796,0.58107 2.48132,0.74754c0.09109,0.0157 0.90144,-0.1225 1.25637,-0.21358c0.56537,-0.14448 1.42284,-0.42088 1.78718,-0.57479c0.28583,-0.11621 0.37691,-0.17275 0.51511,-0.31409c0.09423,-0.09109 0.17589,-0.16019 0.18531,-0.15391c0.01884,0.01884 -0.07224,0.19473 -0.16019,0.31409c-0.03769,0.05025 -0.06596,0.12878 -0.06596,0.17589c0,0.05968 -0.05339,0.14762 -0.16961,0.27954c-0.09109,0.10679 -0.18217,0.19473 -0.20416,0.19473c-0.01885,0 -0.15391,0.1225 -0.30153,0.27326c-0.14762,0.14763 -0.24499,0.2607 -0.21672,0.25127c0.02827,-0.00942 0.21986,-0.07538 0.42403,-0.14762c0.2073,-0.07224 0.45858,-0.17589 0.56222,-0.22929c0.10365,-0.05025 0.223,-0.11307 0.26698,-0.13506c0.04397,-0.02199 0.24813,-0.11307 0.45543,-0.20102c0.2073,-0.09109 0.38005,-0.16647 0.38319,-0.16961c0.00314,-0.00314 -0.05025,-0.07538 -0.11936,-0.16019c-0.61562,-0.76952 -0.71927,-1.67725 -0.32665,-2.85823c0.13506,-0.40518 0.54024,-1.20925 0.61248,-1.21239c0.02827,0 0.0157,-0.0157 -0.03141,-0.03769c-0.14134,-0.06596 -0.43345,-0.3455 -0.5371,-0.51511c-0.06596,-0.10365 -0.06596,-0.10365 -0.30781,-0.10365h-0.24499l0.00314,0.18845c0,0.17275 -0.00942,0.19474 -0.10365,0.28897l-0.10679,0.10365l-0.36434,-0.00314c-0.32665,0 -0.38633,-0.00942 -0.57793,-0.08795c-0.23871,-0.10051 -0.4146,-0.25442 -0.54338,-0.48056c-0.04711,-0.08481 -0.16961,-0.26698 -0.27012,-0.40518l-0.18531,-0.25756l-0.25756,0.05654c-0.34236,0.07538 -0.43031,0.04083 -0.24185,-0.09423c0.31095,-0.21986 0.91401,-0.27326 1.46052,-0.12564c0.35178,0.09423 0.86061,0.32666 1.01766,0.468l0.10365,0.09423l0.17903,-0.14762l0.17903,-0.14762l-0.01256,-0.16647c-0.00943,-0.08795 0,-0.16333 0.0157,-0.16333c0.01571,0 0.03141,-0.05025 0.03455,-0.11622c0.01256,-0.18845 0.12249,-0.53081 0.23557,-0.74754c0.05968,-0.11307 0.10051,-0.21044 0.08795,-0.21672c-0.00942,-0.00314 -0.16647,-0.04711 -0.34864,-0.09737c-0.18217,-0.04712 -0.35806,-0.09737 -0.39261,-0.10993c-0.22929,-0.09109 -0.33922,-0.12564 -0.35492,-0.10993c-0.00943,0.00942 0,0.0157 0.01884,0.0157c0.0157,0 0.06282,0.05026 0.10051,0.11307c0.08795,0.1382 0.05654,0.23243 -0.10051,0.31723c-0.15705,0.08166 -0.59992,0.07224 -0.91401,-0.02199c-0.13192,-0.03769 -0.24185,-0.08166 -0.24185,-0.09423c0,-0.01256 -0.03455,-0.03455 -0.07538,-0.04397c-0.04083,-0.00942 -0.15077,-0.07538 -0.24185,-0.14448c-0.09109,-0.0691 -0.17589,-0.12878 -0.18531,-0.13192c-0.04397,-0.01885 -0.31723,-0.40518 -0.3612,-0.50883c-0.02512,-0.05968 -0.04711,-0.18217 -0.04711,-0.27012c0,-0.1382 0.0157,-0.17589 0.09109,-0.25442c0.10679,-0.10365 0.13506,-0.10993 0.31723,-0.04397c0.07224,0.02512 0.1382,0.04711 0.14134,0.04711c0.00629,0 -0.08166,-0.08795 -0.19473,-0.19788c-0.19473,-0.18217 -0.60306,-0.74754 -0.65645,-0.90773l-0.02513,-0.07224l-0.01256,0.07852zM396.41288,177.76741c-0.10679,0.05025 -0.10679,0.05025 -0.01256,0.03141c0.05025,-0.01256 0.10679,-0.03455 0.1225,-0.05025c0.04397,-0.04083 0.00942,-0.03455 -0.10993,0.01884zM382.04633,179.31903c0.07538,0.07224 0.16961,0.12878 0.23243,0.14134c0.05968,0.00942 0.10051,0.01256 0.09109,0.00314c-0.02199,-0.02512 -0.4146,-0.26384 -0.43345,-0.26698c-0.00942,0 0.04083,0.05339 0.10993,0.1225zM382.54888,179.54203c-0.01885,-0.03141 -0.07852,-0.04397 -0.07852,-0.01884c0,0.00628 0.02198,0.02199 0.05025,0.03141c0.02513,0.00943 0.03769,0.00628 0.02827,-0.01256zM387.21001,180.26444c-0.00942,0 -0.02827,0.06596 -0.03769,0.14762c-0.00942,0.08481 -0.02827,0.17903 -0.04083,0.21358c-0.01256,0.03455 -0.00942,0.05339 0.00314,0.03769c0.0157,-0.01256 0.05654,-0.00314 0.09109,0.02199c0.03769,0.02199 0.11622,0.0534 0.17589,0.06596c0.30153,0.06596 0.58107,0.38947 0.66273,0.76638c0.05654,0.27326 -0.05025,0.81978 -0.16333,0.81978c-0.02198,0 -0.02512,-0.02198 -0.01256,-0.05654c0.05654,-0.14763 0.08481,-0.56222 0.05025,-0.72869c-0.07538,-0.36434 -0.34236,-0.66901 -0.66901,-0.76638c-0.09109,-0.02513 -0.16647,-0.04397 -0.16961,-0.04083c-0.00314,0.00314 -0.03455,0.06596 -0.0691,0.13506l-0.06596,0.13192l0.0691,0.01884c0.30153,0.08166 0.47742,0.67216 0.36434,1.21868c-0.0534,0.25127 -0.11622,0.42716 -0.24185,0.66901c-0.11936,0.223 -0.14763,0.26384 -0.29839,0.44287l-0.09109,0.10679l0.10679,0.14762c0.05968,0.08481 0.12249,0.18845 0.14448,0.23557c0.07538,0.17589 0.20102,0.09109 0.5371,-0.35806c0.33922,-0.45857 0.54652,-0.90773 0.64703,-1.40399c0.13506,-0.66273 -0.08481,-1.16528 -0.70671,-1.62699c-0.14763,-0.10679 -0.2764,-0.19788 -0.28583,-0.19788zM374.94159,180.86121c-0.00314,0 -0.02199,0.05968 -0.04083,0.13192c-0.02827,0.09737 -0.04397,0.11936 -0.06596,0.08481c-0.02199,-0.03455 -0.02827,-0.03141 -0.02827,0.0157c0,0.05025 0.01885,0.05654 0.16333,0.04083c0.28583,-0.02827 0.29839,-0.04711 0.12878,-0.16647c-0.08481,-0.05968 -0.15391,-0.10679 -0.15705,-0.10679zM396.91857,181.09364c0,-0.02513 -0.02513,-0.00942 -0.06596,0.04083c-0.04083,0.05025 -0.03769,0.05339 0.00942,0.01256c0.03141,-0.02198 0.05654,-0.04711 0.05654,-0.05339zM386.68546,181.32921c-0.13192,0.13192 -0.27954,0.27012 -0.32665,0.30781c-0.04397,0.03769 -0.09109,0.05968 -0.10051,0.05025c-0.00942,-0.01257 -0.01884,-0.00628 -0.01884,0.01256c0,0.03769 -0.13506,0.09737 -0.26698,0.11307c-0.06596,0.00942 -0.05025,0.01256 0.04711,0.0157c0.31723,0.00942 0.71927,-0.12878 1.03022,-0.35178c0.09109,-0.06596 0.16333,-0.10993 0.16333,-0.10051c0,0.00942 -0.02512,0.07852 -0.05339,0.15076c-0.08795,0.22615 -0.2607,0.47114 -0.4837,0.691c-0.20102,0.19474 -0.21672,0.21986 -0.21044,0.33608c0.00314,0.1382 -0.05968,0.25756 -0.17903,0.33608c-0.04397,0.02827 -0.07852,0.06282 -0.07852,0.07538c0,0.01256 0.0534,0.05968 0.11622,0.10051c0.06596,0.04397 0.18845,0.14448 0.2764,0.223c0.08481,0.07852 0.16333,0.1382 0.17589,0.12878c0.04397,-0.02512 0.28897,-0.45857 0.37377,-0.66273c0.10051,-0.24185 0.18845,-0.62818 0.18845,-0.83862c0,-0.35178 -0.14762,-0.71299 -0.32037,-0.78523c-0.09109,-0.04083 -0.09737,-0.03455 -0.33294,0.19788zM383.36865,181.4894c-0.00314,0 -0.08795,0.04397 -0.19159,0.09423c-0.18531,0.08795 -0.19159,0.13506 -0.0157,0.11622c0.16333,-0.02199 0.25127,-0.05968 0.25127,-0.11307c0,-0.04397 -0.02827,-0.10051 -0.04397,-0.09737zM379.41425,187.57335c0.02198,0.00628 0.06596,0.00628 0.09423,0c0.03141,-0.00942 0.01256,-0.0157 -0.03769,-0.0157c-0.05339,0 -0.07538,0.00628 -0.05654,0.0157zM375.78019,187.80896c-0.28268,-0.04083 -0.75382,-0.01571 -1.07105,0.05968c-0.48684,0.11307 -0.98625,0.35178 -1.30348,0.6219c-0.05339,0.04397 -0.13506,0.11307 -0.18531,0.15076c-0.14134,0.10993 -0.11307,0.11935 0.48056,0.15076c0.43345,0.02198 0.55908,0.05654 0.80407,0.21986c0.27012,0.17903 0.2764,0.22615 0.01256,0.08166c-0.30781,-0.16961 -0.38005,-0.18846 -0.77895,-0.2073c-0.61248,-0.03141 -1.17784,-0.08166 -1.26579,-0.11622c-0.10365,-0.04083 -0.7601,0.01256 -1.15271,0.08795c-0.71299,0.14134 -1.04593,0.33922 -1.52335,0.90459c-0.21986,0.25756 -0.27326,0.35806 -0.43345,0.80407c-0.1539,0.42716 -0.18845,0.55908 -0.18217,0.71299c0.00314,0.05654 -0.00943,0.10365 -0.02513,0.10365c-0.0157,0 -0.02198,0.02512 -0.0157,0.05339c0.00942,0.03141 -0.00628,0.19788 -0.03141,0.37063c-0.03769,0.24185 -0.04397,0.5371 -0.03455,1.30348c0.00628,0.54338 0.02199,1.05221 0.03141,1.13073c0.00942,0.07852 0.03141,0.28268 0.05025,0.45543c0.03769,0.33922 0.21672,1.28463 0.29211,1.53591c0.02513,0.08481 0.04083,0.16647 0.03141,0.17903c-0.0157,0.02513 0.04083,0.36435 0.13506,0.8135c0.02512,0.12878 0.05654,0.27012 0.06282,0.31409c0.07538,0.42403 0.25127,0.97054 0.44915,1.39771c0.31095,0.67215 0.46172,0.936 0.52139,0.91401c0.03141,-0.01257 0.04397,0.00628 0.04397,0.05968c0,0.04397 0.02512,0.10993 0.05339,0.14762c0.1225,0.14763 0.3989,0.44915 0.43973,0.47428c0.02199,0.01256 0.04083,0.03769 0.04083,0.05339c0,0.05654 0.53395,0.53396 0.71299,0.64075c0.02513,0.01256 0.05339,-0.02827 0.08481,-0.13192c0.02513,-0.08481 0.05968,-0.18217 0.07538,-0.21358c0.01884,-0.03455 0.08166,-0.17903 0.1382,-0.32665c0.08795,-0.21986 0.10051,-0.28897 0.08166,-0.39261c-0.02827,-0.15391 -0.02199,-0.83863 0.00942,-0.98939c0.01256,-0.05968 0.05339,-0.25756 0.09109,-0.43973c0.03769,-0.18217 0.11622,-0.47428 0.17589,-0.65017c0.05968,-0.17589 0.10679,-0.34864 0.10679,-0.38319c0,-0.03455 0.01257,-0.07224 0.03141,-0.08166c0.01571,-0.00943 0.03141,-0.00314 0.03141,0.0157c0,0.01884 0.01257,0.02512 0.03141,0.0157c0.05339,-0.03455 0.03455,-0.07852 -0.03455,-0.07852c-0.09737,0 -0.24813,-0.16646 -0.24813,-0.2764c0,-0.05025 0.03141,-0.1539 0.07224,-0.23243l0.07224,-0.14134l-0.1225,-0.0691c-0.2607,-0.15076 -0.75068,-0.51825 -0.77581,-0.58107c-0.01256,-0.03455 -0.05339,-0.09423 -0.09109,-0.12878c-0.19473,-0.17275 -0.5685,-0.78523 -0.63446,-1.03336c-0.01257,-0.0534 -0.04711,-0.18218 -0.07538,-0.28583c-0.10993,-0.42717 -0.05339,-1.01137 0.15391,-1.56418c0.04711,-0.11622 0.08166,-0.21672 0.08166,-0.223c0,-0.00314 -0.05654,-0.02512 -0.1225,-0.04711c-0.07538,-0.02198 -0.15705,-0.07852 -0.20416,-0.1382c-0.07538,-0.09423 -0.07852,-0.11936 -0.07852,-0.50883c0,-0.223 0,-0.42403 0,-0.44287c-0.00315,-0.01884 -0.03141,-0.06596 -0.06596,-0.10679c-0.10993,-0.12564 -0.0691,-0.13506 0.0691,-0.0157c0.18218,0.1539 0.4146,0.25755 0.64075,0.28268c0.17275,0.02199 0.19788,0.01571 0.27012,-0.05025c0.04083,-0.04083 0.12564,-0.15705 0.18531,-0.25756c0.05654,-0.09737 0.11622,-0.17903 0.12878,-0.17903c0.03141,0 0.03455,-0.01571 -0.05339,0.23243c-0.04397,0.11936 -0.07852,0.2607 -0.07852,0.31095c0,0.05339 0.05654,0.19788 0.12564,0.32351c0.1225,0.22615 0.15704,0.35806 0.09423,0.35806c-0.01884,0 -0.06282,-0.05026 -0.09737,-0.10993c-0.03769,-0.05968 -0.08166,-0.10993 -0.10051,-0.10993c-0.02198,0 -0.0691,-0.00942 -0.10365,-0.01884c-0.08166,-0.02198 -0.11307,0.03769 -0.1225,0.25127c-0.00628,0.08166 -0.02513,0.16647 -0.04397,0.18531c-0.02512,0.02512 0.00628,0.05025 0.11622,0.09109c0.18531,0.07224 0.26384,0.07538 0.17589,0.00942c-0.05654,-0.04398 -0.05025,-0.04398 0.05025,-0.02199c0.23557,0.04711 0.57479,0.02513 0.72555,-0.05025c0.20416,-0.10051 0.4146,-0.31095 0.39261,-0.39576c-0.05025,-0.2073 -0.1225,-1.2972 -0.08795,-1.31918c0.03141,-0.01884 0.19788,0.97997 0.20416,1.21868c0.00314,0.09737 0.01571,0.17589 0.02827,0.17589c0.01571,0 0.02513,-0.01571 0.02513,-0.03455c0,-0.01884 0.02198,-0.02827 0.04711,-0.01884c0.05968,0.02512 0.33294,-0.16333 0.55908,-0.38005c0.17589,-0.17275 0.18217,-0.18531 0.16647,-0.30467c-0.09109,-0.62504 -0.13506,-1.24066 -0.09109,-1.24066c0.01884,0 0.04083,0.06596 0.05339,0.14762c0.03141,0.22929 0.11307,0.98939 0.11307,1.07105c0,0.04083 0.01257,0.06282 0.03141,0.05339c0.04397,-0.02827 0.04083,0.02513 -0.00628,0.07224c-0.06596,0.06596 0.02198,0.04397 0.23243,-0.06282c0.30153,-0.15077 0.49312,-0.38633 0.44915,-0.55594c-0.05025,-0.19159 -0.11307,-0.98625 -0.10679,-1.36944l0.00314,-0.25127l0.02827,0.18845c0.0157,0.10365 0.04083,0.223 0.05968,0.26698c0.0157,0.04397 0.03769,0.13192 0.04397,0.20102c0.00943,0.06596 0.01885,0.1225 0.02513,0.12878c0.02512,0.02513 0.40518,0.16961 0.54338,0.2073c0.09737,0.02513 0.32351,0.04397 0.58107,0.04397c0.46485,0 0.62818,-0.0157 0.62818,-0.05654c0,-0.0157 0.02198,-0.02198 0.04711,-0.01256c0.02199,0.00942 0.07224,-0.00628 0.10993,-0.03455c0.05968,-0.05026 0.06282,-0.0691 0.03769,-0.24185c-0.01884,-0.10365 -0.01884,-0.20416 -0.00628,-0.21986c0.01256,-0.01884 0.03455,-0.08166 0.04711,-0.14134c0.01257,-0.05968 0.06282,-0.16332 0.11622,-0.22929c0.07852,-0.09737 0.08481,-0.11936 0.04083,-0.13506c-0.05025,-0.01885 -0.09423,0.00314 -0.09423,0.04711c0,0.01256 -0.05654,0.07852 -0.12564,0.14762c-0.0691,0.0691 -0.15076,0.1539 -0.17903,0.19473c-0.08795,0.10993 -0.2921,0.09737 -0.45543,-0.02827c-0.14134,-0.10993 -0.14449,-0.16333 -0.02513,-0.29525c0.04083,-0.04083 0.06596,-0.08481 0.05339,-0.09109c-0.01256,-0.00628 -0.11307,-0.02827 -0.223,-0.05025c-0.40832,-0.07224 -1.09618,-0.33922 -1.12759,-0.43659c-0.00942,-0.02827 0.0157,-0.02513 0.09109,0.0157c0.16332,0.08166 0.78837,0.29838 0.81035,0.27954c0.00943,-0.00942 0,-0.02827 -0.01884,-0.04083c-0.02512,-0.0157 0.01257,-0.10051 0.11936,-0.26698c0.08481,-0.13506 0.15391,-0.24813 0.15391,-0.25442c0,-0.00628 0.10051,-0.18531 0.22615,-0.3989c0.1225,-0.21358 0.25756,-0.44915 0.29839,-0.52139l0.07538,-0.12878l-0.17903,-0.05339c-0.10051,-0.02827 -0.24499,-0.05654 -0.32351,-0.06596c-0.07852,-0.00628 -0.223,-0.02199 -0.31723,-0.03769zM386.41221,188.16382c-0.25442,-0.05025 -1.39143,-0.04083 -1.60187,0.01256c-0.0691,0.0157 -0.17589,0.04083 -0.23557,0.05025c-0.18845,0.03141 -0.48684,0.11307 -0.50254,0.1382c-0.0157,0.02199 -0.40832,0.24185 -0.70042,0.38947c-0.06282,0.03141 -0.11622,0.07224 -0.11622,0.08795c0,0.01571 -0.0157,0.02827 -0.03769,0.02827c-0.04397,0 -0.4837,0.27954 -0.72869,0.46486c-0.10365,0.07538 -0.20416,0.14134 -0.22615,0.14448c-0.09737,0.01571 -0.06596,0.04397 0.11622,0.10993c0.28268,0.10365 0.70671,0.30467 0.73498,0.34864c0.0157,0.02512 0.00628,0.02827 -0.03455,0.00628c-0.43031,-0.22929 -1.19041,-0.43973 -1.66154,-0.46172c-0.17275,-0.00942 -0.47742,-0.02199 -0.67529,-0.03141c-0.19788,-0.00942 -0.40204,-0.02513 -0.45229,-0.03455c-0.05968,-0.01571 -0.08481,-0.00943 -0.0691,0.01256c0.00942,0.01885 -0.00314,0.02827 -0.03455,0.02199c-0.41146,-0.08481 -0.69728,-0.10993 -0.8449,-0.07538c-0.0534,0.00943 -0.1225,0.00628 -0.15391,-0.01256c-0.03455,-0.01884 -0.04711,-0.01884 -0.03769,0c0.02198,0.03455 -0.68472,0.29839 -1.04278,0.38947c-0.12878,0.03141 -0.28582,0.05968 -0.35178,0.05968c-0.0691,0 -0.14134,0.02198 -0.17275,0.05339c-0.06596,0.06596 -0.01256,0.09109 0.08795,0.04083c0.04397,-0.02198 0.02513,0.00942 -0.05654,0.08481c-0.0691,0.06596 -0.14449,0.15705 -0.16333,0.20416c-0.05025,0.11622 -0.14763,0.11307 -0.29839,-0.00942c-0.10993,-0.09109 -0.11622,-0.10365 -0.07224,-0.15076c0.02827,-0.03141 0.05025,-0.08166 0.05025,-0.11307c0,-0.11622 -0.09423,0.02198 -0.15705,0.23557c-0.08481,0.28268 -0.05654,0.468 0.10051,0.65959c0.04711,0.05968 0.18531,0.15705 0.21986,0.15705c0.02198,0 0.07538,-0.21358 0.06282,-0.2607c-0.00314,-0.01257 0.00629,-0.02199 0.02199,-0.02199c0.0157,0 0.03769,-0.02827 0.05025,-0.05968c0.00943,-0.03455 0.04083,-0.0691 0.06596,-0.07852c0.03769,-0.01256 0.04711,-0.00628 0.03141,0.02827c-0.03141,0.08166 0.00314,0.0534 0.07538,-0.06282c0.11936,-0.19474 0.48684,-0.35178 0.691,-0.29839c0.05968,0.01571 0.10051,0 0.17275,-0.06282c0.25127,-0.22929 0.55594,-0.38005 0.68158,-0.33922c0.02199,0.00942 0.07224,-0.02513 0.10993,-0.07224c0.12564,-0.14762 0.56851,-0.30467 0.6219,-0.21986c0.01256,0.02199 -0.01571,0.03455 -0.07852,0.03455c-0.11936,0 -0.32666,0.09737 -0.47114,0.21986c-0.05968,0.05339 -0.12877,0.08795 -0.15076,0.07852c-0.06282,-0.02199 -0.30781,0.09423 -0.49312,0.23243c-0.22615,0.16961 -0.29524,0.20102 -0.45543,0.20416c-0.17275,0.00628 -0.39576,0.10993 -0.59049,0.27954c-0.14134,0.1225 -0.14448,0.12564 -0.05339,0.10993c0.08481,-0.01884 0.08795,-0.0157 0.03455,0.02513c-0.03141,0.02199 -0.0691,0.03455 -0.08166,0.02827c-0.1225,-0.07538 -0.14448,0.61248 -0.04397,1.36316c0.05654,0.41774 0.09737,0.56851 0.17903,0.65645c0.09109,0.09737 0.21986,0.16333 0.32037,0.16333c0.06596,0 0.07852,-0.0157 0.07852,-0.09109c0,-0.05339 0.02512,-0.11307 0.05339,-0.13506c0.11307,-0.08166 0.18531,-0.22615 0.16647,-0.32351c-0.00942,-0.05339 -0.02827,-0.09109 -0.04083,-0.08481c-0.01257,0.00628 -0.06282,-0.00628 -0.11307,-0.02827l-0.08795,-0.04083l0.0157,-0.3612c0.00942,-0.27326 0.00314,-0.40518 -0.03455,-0.53081c-0.02827,-0.08795 -0.03769,-0.16333 -0.02513,-0.16333c0.01257,0 0.08481,0.1225 0.16333,0.27012c0.08166,0.16647 0.17589,0.30153 0.23871,0.34864c0.05654,0.04397 0.10365,0.10365 0.10365,0.13192c0,0.17903 0.53396,0.41774 1.382,0.61562c0.32037,0.07538 0.9831,0.29525 1.00823,0.33608c0.01256,0.01885 0.0157,0.05026 0.00628,0.06596c-0.00942,0.01256 0.00942,0.02198 0.03769,0.0157c0.10365,-0.01884 0.12564,0.07852 0.08481,0.37377c-0.05025,0.38947 -0.06282,0.44601 -0.16647,0.90459c-0.05025,0.22301 -0.10679,0.47114 -0.1225,0.54966c-0.01571,0.07852 -0.05025,0.23243 -0.07538,0.3455c-0.02513,0.11307 -0.05654,0.25442 -0.06596,0.31409c-0.00942,0.05968 -0.03141,0.16019 -0.04711,0.21986c-0.05654,0.22301 -0.18845,0.91087 -0.18845,0.98939c0,0.05654 -0.01256,0.07538 -0.04083,0.05968c-0.01884,-0.01256 -0.02827,-0.01256 -0.0157,0.00314c0.01257,0.01257 0.00942,0.04397 -0.00942,0.06596c-0.04083,0.05025 -0.05654,1.4354 -0.01884,1.88141c0.05654,0.65645 0.07538,0.81664 0.13506,1.09932c0.02513,0.11936 0.07538,0.35492 0.10993,0.51825c0.07852,0.35807 0.15076,0.59678 0.18531,0.59678c0.01256,0 0.03141,0.06596 0.04083,0.14762c0.00942,0.09109 0.03769,0.16332 0.07538,0.19473c0.03455,0.02827 0.08795,0.11936 0.11936,0.2073c0.02827,0.08481 0.07538,0.18845 0.09737,0.22615c0.02513,0.04083 0.04397,0.07852 0.04397,0.08795c-0.00314,0.07538 0.40832,0.73811 0.55594,0.89202c0.04711,0.05339 0.12878,0.13506 0.17589,0.18845c0.05654,0.05654 0.11307,0.08795 0.15076,0.08166c0.12564,-0.02513 0.70042,-0.40204 1.11188,-0.72869c0.06282,-0.05025 0.40832,-0.33922 0.42403,-0.35492c0.02827,-0.02827 0.45543,-0.3989 0.53081,-0.45857c0.03769,-0.03141 0.10679,-0.11307 0.14762,-0.17589c0.04083,-0.06282 0.24185,-0.30467 0.44601,-0.53395c0.3612,-0.40518 0.59992,-0.69728 0.69728,-0.84176c0.02513,-0.03769 0.06282,-0.08795 0.08166,-0.10679c0.03141,-0.03455 0.39261,-0.56222 0.47428,-0.69414c0.13506,-0.223 0.20416,-0.35806 0.21986,-0.43345c0.00942,-0.04711 0.02827,-0.08481 0.04083,-0.08481c0.01885,0 0.223,-0.43345 0.37691,-0.80093c0.10051,-0.23871 0.23871,-0.64703 0.34864,-1.0365c0.12878,-0.45543 0.16019,-0.56851 0.17275,-0.62818c0.00628,-0.03455 0.04711,-0.21986 0.09109,-0.4146c0.04397,-0.1916 0.07852,-0.44287 0.07852,-0.55594c0,-0.4837 0.21358,-1.19983 0.67529,-2.2646c0.33922,-0.78209 0.38319,-0.91401 0.41146,-1.21554c0.01256,-0.13506 0.03141,-0.23557 0.04711,-0.22929c0.01256,0.00942 0.01884,-0.26384 0.01256,-0.60306c-0.00943,-0.68158 -0.09109,-1.26579 -0.20416,-1.50136c-0.03455,-0.07224 -0.06282,-0.15076 -0.06282,-0.17903c0,-0.02827 -0.04397,-0.08166 -0.09737,-0.1225c-0.05339,-0.04083 -0.13506,-0.10365 -0.17903,-0.14134c-0.35492,-0.28268 -0.91087,-0.52767 -1.40399,-0.62504zM378.13589,188.34287c-0.05968,0 -0.08481,0.00628 -0.05654,0.0157c0.03141,0.00628 0.08166,0.00628 0.10993,0c0.03141,-0.00942 0.00628,-0.0157 -0.05339,-0.0157zM388.21824,189.13753c-0.05654,-0.06596 -0.07224,-0.05968 -0.03141,0.01884c0.02198,0.03455 0.04397,0.05654 0.05339,0.04711c0.00942,-0.00943 0,-0.03769 -0.02199,-0.06596zM377.14965,189.80968c-0.01256,0.0157 0.00942,0.02198 0.04397,0.01256c0.07224,-0.01884 0.08166,-0.04083 0.01884,-0.04083c-0.02512,0 -0.05339,0.01257 -0.06282,0.02827zM377.16221,190.08294c0,-0.05654 -0.01884,-0.06596 -0.04711,-0.02199c-0.00943,0.0157 -0.00314,0.03769 0.0157,0.05025c0.01571,0.00942 0.03141,-0.00314 0.03141,-0.02827zM369.09948,191.51519c0.00942,0.02513 0.01884,0.01571 0.01884,-0.01884c0.00314,-0.03455 -0.00628,-0.05339 -0.0157,-0.04083c-0.00942,0.00942 -0.01256,0.03769 -0.00314,0.05968zM374.86307,191.60314c-0.01885,0.11936 -0.05025,0.16961 -0.21044,0.31409c-0.13192,0.1225 -0.19473,0.2073 -0.21986,0.29839c-0.05025,0.18217 -0.20416,0.44287 -0.25442,0.43031c-0.03455,-0.00942 -0.03455,0 0.00314,0.04711c0.18531,0.23557 0.48998,0.38633 0.75068,0.37377c0.21358,-0.01256 0.31723,-0.05968 0.41146,-0.18845c0.06282,-0.08166 0.07538,-0.13506 0.07538,-0.33294c0,-0.28268 -0.07538,-0.46171 -0.29839,-0.70671c-0.07852,-0.08795 -0.16332,-0.2073 -0.18845,-0.26698l-0.04397,-0.10993l-0.02513,0.14134zM369.06807,191.68795c0.00942,0.03141 0.0157,0.01256 0.0157,-0.03769c0,-0.05339 -0.00628,-0.07538 -0.0157,-0.05654c-0.00628,0.02198 -0.00628,0.06596 0,0.09423zM369.03666,191.92351c0.00628,0.04083 0.01256,0.01571 0.01256,-0.05339c0.00314,-0.0691 -0.00314,-0.10051 -0.01256,-0.07224c-0.00628,0.03141 -0.00628,0.08795 0,0.12564zM369.00526,192.2062c0.00942,0.02198 0.0157,0.00628 0.0157,-0.03769c0,-0.04397 -0.00628,-0.05968 -0.0157,-0.04083c-0.00628,0.02199 -0.00628,0.05968 0,0.07852zM368.97385,192.52029c-0.00628,0.03141 -0.00628,0.08166 0,0.10993c0.00942,0.03141 0.0157,0.00628 0.0157,-0.05339c0,-0.05968 -0.00628,-0.08481 -0.0157,-0.05654zM379.65296,192.75272c0.00942,0.00942 0.03769,0.01256 0.05968,0.00314c0.02513,-0.00942 0.01571,-0.01884 -0.01884,-0.01884c-0.03455,-0.00314 -0.05339,0.00628 -0.04083,0.0157zM369.87529,198.76443c0,0.01571 0.01571,0.03141 0.03455,0.03141c0.0157,0 0.02198,-0.01571 0.01256,-0.03141c-0.00942,-0.01885 -0.02513,-0.03141 -0.03455,-0.03141c-0.00628,0 -0.01256,0.01257 -0.01256,0.03141z"/><path d="M375.51951,183.05672c0.31723,-0.14763 0.66901,-0.23243 0.66901,-0.15705c0,0.0157 -0.04711,0.03769 -0.10365,0.04711c-0.05339,0.00942 -0.24813,0.07538 -0.43031,0.14448c-0.37377,0.14134 -0.3455,0.13506 -0.3455,0.09737c0,-0.0157 0.09423,-0.07538 0.21044,-0.13192z"/><path d="M375.08606,183.10069c0.10365,-0.07538 0.53082,-0.23243 0.54966,-0.20102c0.01571,0.02198 -0.38633,0.19788 -0.54652,0.23557l-0.07852,0.02199l0.07538,-0.05654z"/><path d="M375.80848,183.22319c0.24813,-0.14134 0.75382,-0.29525 0.64389,-0.20102c-0.01571,0.0157 -0.12564,0.05968 -0.24499,0.10051c-0.11936,0.03769 -0.27954,0.10365 -0.35492,0.14134c-0.16647,0.09109 -0.2073,0.05025 -0.04397,-0.04083z"/><path d="M382.86925,183.03787c0.02199,-0.00943 0.04083,-0.00314 0.04083,0.01256c0,0.0157 -0.16019,0.08166 -0.35492,0.14762c-0.19159,0.06282 -0.49312,0.17275 -0.66587,0.23871c-0.35806,0.1382 -0.45543,0.16961 -0.45543,0.14448c0,-0.03455 0.64075,-0.30153 0.72555,-0.30153c0.02513,0 0.05968,-0.01257 0.07538,-0.02827c0.01884,-0.01571 0.15704,-0.06596 0.31409,-0.11307c0.1539,-0.04711 0.30153,-0.09423 0.32037,-0.10051z"/><path d="M382.10601,183.11639c0.00943,0.01884 0.00314,0.04397 -0.0157,0.05339c-0.04711,0.03141 -0.07852,-0.00942 -0.03769,-0.05025c0.02198,-0.02198 0.04083,-0.02198 0.05339,-0.00314z"/><path d="M381.27681,183.40535c-0.06282,0.04083 -0.13506,0.04083 -0.10993,0c0.00942,-0.01885 0.05025,-0.03141 0.08795,-0.03141c0.05654,0 0.05968,0.00628 0.02199,0.03141z"/><path d="M376.76017,184.31622c0.02512,0 0.07224,0.02198 0.10679,0.04711c0.11622,0.09109 0.37691,0.14134 0.77895,0.15705c0.223,0.00628 0.41146,0.02199 0.42088,0.03141c0.0691,0.0691 -0.2764,0.11936 -0.65331,0.09423c-0.20416,-0.01256 -0.30781,-0.03769 -0.43659,-0.10365c-0.17589,-0.08795 -0.30781,-0.22615 -0.21672,-0.22615z"/><path d="M378.51909,184.52352c-0.02199,-0.02199 0.15076,-0.01571 0.35492,0.01256c0.0848,0.01256 0.31095,0.04711 0.50254,0.07852c0.4837,0.07852 0.94541,0.08166 1.05849,0.00314c0.05025,-0.03141 0.08795,-0.04397 0.08795,-0.02513c0,0.10679 -0.38947,0.2073 -0.70985,0.17903c-0.3298,-0.02513 -1.24695,-0.20416 -1.29406,-0.24813z"/><path d="M383.09855,189.79083c0,-0.03141 0.0691,0.00628 0.21986,0.12564c0.4837,0.38005 0.87317,0.92029 1.17156,1.62385c0.11936,0.28268 0.33608,0.98939 0.38005,1.24066c0.00942,0.05025 0.03141,0.16647 0.04711,0.25442c0.0157,0.08795 0.04083,0.30153 0.05339,0.47742c0.0157,0.21986 0.03141,0.31095 0.05654,0.29839c0.01885,-0.01256 0.01257,0.00628 -0.01256,0.03769c-0.03455,0.04397 -0.03455,0.05339 -0.00314,0.03455c0.03455,-0.02198 0.03769,0.05339 0.02199,0.47114c-0.01256,0.2764 -0.02827,0.55594 -0.03455,0.62504c-0.00628,0.0691 -0.02199,0.28896 -0.03141,0.48684c-0.02827,0.55908 -0.1225,1.68353 -0.15705,1.85314c-0.00942,0.04397 -0.02513,0.13506 -0.03455,0.20416c-0.02199,0.1382 -0.03455,0.16333 -0.06596,0.12878c-0.01885,-0.01885 0.05339,-1.16214 0.10051,-1.5736c0.00942,-0.08166 -0.00628,-0.05025 -0.04083,0.08481c-0.02827,0.11621 -0.06282,0.21986 -0.07852,0.23243c-0.03141,0.03455 -0.02827,-0.01884 0.02513,-0.26698c0.02513,-0.11936 0.05968,-0.34864 0.07852,-0.51197c0.01884,-0.16018 0.04083,-0.34236 0.05025,-0.40204c0.03141,-0.21986 0.03769,-1.34117 0.01256,-1.61757c-0.10365,-1.05221 -0.48684,-2.18922 -0.97682,-2.91791c-0.09423,-0.1382 -0.30781,-0.39261 -0.47742,-0.56537c-0.16647,-0.17275 -0.30467,-0.32037 -0.30467,-0.32351zM384.83547,195.84966c0.00942,0.02513 0.01884,0.01571 0.01884,-0.01884c0.00314,-0.03455 -0.00628,-0.05339 -0.0157,-0.04083c-0.00942,0.00942 -0.01256,0.03769 -0.00314,0.05968z"/><path d="M380.3471,196.87046c-0.03141,0.12564 -0.04397,0.12878 -0.04397,0.0157c0,-0.05654 0.01571,-0.10051 0.03141,-0.10051c0.01884,0 0.02512,0.03455 0.01256,0.08481z"/></g></g></g></svg>