<svg version="1.1" xmlns="http://www.w3.org/2000/svg" xmlns:xlink="http://www.w3.org/1999/xlink" width="15.01122" height="24.23242" viewBox="0,0,15.01122,24.23242"><g transform="translate(-232.49439,-167.88379)"><g data-paper-data="{&quot;isPaintingLayer&quot;:true}" fill="#000000" fill-rule="nonzero" stroke="none" stroke-width="1" stroke-linecap="butt" stroke-linejoin="miter" stroke-miterlimit="10" stroke-dasharray="" stroke-dashoffset="0" style="mix-blend-mode: normal"><path d="M238.8912,190.98053c-0.23497,-0.66575 -0.97904,-1.40983 -1.76228,-1.76228c-3.13294,-1.52731 -5.09103,-3.6812 -4.54276,-5.13019c0.39162,-0.97904 1.72312,-1.13569 2.85881,-0.31329c0.54827,0.43078 1.40982,0.97904 1.91893,1.25317c0.86156,0.43078 0.86156,0.43078 0.86156,-1.72312c0,-1.6448 -0.15665,-2.1539 -0.58743,-2.1539c-0.31329,0 -1.29234,-0.27414 -2.15389,-0.62659c-2.58468,-1.01821 -3.4854,-3.83785 -2.11474,-6.54001c0.93988,-1.8406 2.85881,-3.72037 4.11198,-3.9945c0.70491,-0.15665 1.13569,-0.54826 1.21402,-1.09653c0.07832,-0.58743 0.43078,-0.90072 1.17485,-0.97904c0.90072,-0.11749 1.09654,0.07832 1.37067,1.05736c0.23497,0.86156 0.78323,1.44899 2.07557,2.11474c1.91893,1.01821 2.85881,2.663 2.03641,3.4854c-0.35245,0.35245 -0.8224,0.27414 -1.99725,-0.39162c-0.8224,-0.46994 -1.60563,-0.86156 -1.76228,-0.86156c-0.11749,0 -0.23497,1.13569 -0.23497,2.50635v2.50635l1.68396,0.43078c2.38887,0.58743 3.60288,1.68395 4.19031,3.6812c0.39162,1.48815 0.39162,1.91893 -0.19581,3.05462c-0.97904,1.91893 -2.46719,3.40707 -3.9945,3.91618c-0.70491,0.23497 -1.29234,0.66575 -1.29234,0.93988c0,0.70491 -1.09653,1.76228 -1.8406,1.76228c-0.31329,0 -0.78323,-0.5091 -1.01821,-1.13569zM242.92486,185.38039c0.43078,-0.46994 0.78323,-1.17486 0.78323,-1.52731c0,-0.66575 -1.37066,-1.91893 -2.03641,-1.91893c-0.35245,0 -0.43078,2.78049 -0.07832,3.68121c0.31329,0.78323 0.35245,0.78323 1.3315,-0.23497zM238.22545,175.58995l-0.03916,-2.07558l-0.74408,0.93988c-1.21401,1.44899 -0.97904,2.9763 0.5091,3.13294c0.15665,0.03916 0.27414,-0.90072 0.27414,-1.99725z"/></g></g></svg>