<svg version="1.1" xmlns="http://www.w3.org/2000/svg" xmlns:xlink="http://www.w3.org/1999/xlink" width="20.60455" height="26.63041" viewBox="0,0,20.60455,26.63041"><g transform="translate(-229.69772,-166.68479)"><g data-paper-data="{&quot;isPaintingLayer&quot;:true}" fill-rule="nonzero" stroke="none" stroke-width="1" stroke-linecap="butt" stroke-linejoin="miter" stroke-miterlimit="10" stroke-dasharray="" stroke-dashoffset="0" style="mix-blend-mode: normal"><g><path d="M237.08247,192.75694c-3.75953,-1.17486 -6.85331,-5.24768 -7.32325,-9.63379c-0.43078,-4.46444 1.44899,-10.80865 4.15115,-13.98075c1.8406,-2.1539 6.89247,-3.09378 10.80865,-1.99725c1.48815,0.43078 4.54277,3.1721 4.5036,4.07282c-0.03916,0.62659 -2.9763,3.72037 -3.56372,3.72037c-0.31329,0 -1.48815,-0.35245 -2.62384,-0.78323c-2.50635,-0.93988 -3.36791,-0.97904 -4.77774,-0.11749c-3.28959,1.91893 -3.1721,9.90793 0.19581,12.10099c1.48815,0.97904 3.64204,0.39162 4.62109,-1.29234l0.74408,-1.29234h-1.56647c-0.86156,0 -1.76228,-0.23497 -2.03641,-0.58742c-0.58743,-0.70491 -0.11748,-5.48265 0.62659,-6.10924c0.39162,-0.31329 1.56647,-0.31329 4.54277,0.03916c2.23222,0.23497 4.15115,0.58743 4.30779,0.74408c0.19581,0.15665 0.43077,1.60563 0.54826,3.21126c0.74407,8.77224 -5.36516,14.29404 -13.15835,11.90518z" fill="#000000"/><path d="M236.22091,189.85896c-3.32875,-2.11474 -4.42528,-4.73857 -4.11199,-9.59463c0.31329,-4.85606 2.19306,-9.12469 4.77774,-10.69116c0.86156,-0.5091 1.95809,-0.70491 4.11199,-0.70491c4.54277,0 6.50085,1.17486 4.89522,2.93713c-0.54827,0.62659 -0.74407,0.62659 -2.81965,-0.07832c-5.48265,-1.87976 -9.04637,1.01821 -9.43798,7.59738c-0.15665,2.74132 -0.07832,3.25043 1.01821,5.56097c1.44899,3.05462 2.89797,4.15115 5.60013,4.15115c3.09378,0 5.8351,-2.70216 5.8351,-5.75678c0,-1.72312 -0.86156,-2.46719 -2.50635,-2.19306c-1.25317,0.19581 -1.3315,0.15665 -1.29234,-0.8224c0.07832,-1.05737 0.11749,-1.05737 2.81965,-0.93988l2.74132,0.11749v3.36791c0,3.01546 -0.11748,3.56372 -1.09653,4.97355c-2.19306,3.32875 -7.04912,4.30779 -10.53451,2.07557z" fill="#f9f9f9"/></g></g></g></svg>