<svg version="1.1" xmlns="http://www.w3.org/2000/svg" xmlns:xlink="http://www.w3.org/1999/xlink" width="493.99878" height="259.13746" viewBox="0,0,493.99878,259.13746"><g transform="translate(-78.18336,-47.19033)"><g data-paper-data="{&quot;isPaintingLayer&quot;:true}" fill-rule="nonzero" stroke="#365b00" stroke-width="3" stroke-linejoin="miter" stroke-miterlimit="10" stroke-dasharray="" stroke-dashoffset="0" style="mix-blend-mode: normal"><path d="M85.68896,298.34926v-249.65893h484.99318v249.65894z" fill="#000000" stroke-linecap="butt"/><path d="M104.88184,57.5v246.94444" fill="none" stroke-linecap="round"/><path d="M80.93738,82.75775h464.8763h18.03703" fill="none" stroke-linecap="round"/><path d="M132.71516,304.44444v-246.94444" fill="none" stroke-linecap="round"/><path d="M160.21516,57.5v246.94444" fill="none" stroke-linecap="round"/><path d="M187.71517,57.5v246.94444" fill="none" stroke-linecap="round"/><path d="M213.38184,57.5v246.94444" fill="none" stroke-linecap="round"/><path d="M238.78184,57.48334v246.94444" fill="none" stroke-linecap="round"/><path d="M263.18181,304.42778v-246.94444" fill="none" stroke-linecap="round"/><path d="M287.18181,304.42778v-246.94444" fill="none" stroke-linecap="round"/><path d="M310.18181,304.42778v-246.94444" fill="none" stroke-linecap="round"/><path d="M333.58182,57.48334v246.94444" fill="none" stroke-linecap="round"/><path d="M356.58184,57.48334v246.94444" fill="none" stroke-linecap="round"/><path d="M379.58184,57.28334v246.94445" fill="none" stroke-linecap="round"/><path d="M402.78184,57.48334v246.94444" fill="none" stroke-linecap="round"/><path d="M426.38184,304.42778v-246.94444" fill="none" stroke-linecap="round"/><path d="M449.58184,57.48334v246.94444" fill="none" stroke-linecap="round"/><path d="M472.78184,57.68334v246.94444" fill="none" stroke-linecap="round"/><path d="M495.78184,57.68334v246.94444" fill="none" stroke-linecap="round"/><path d="M518.98182,304.82779v-246.94445" fill="none" stroke-linecap="round"/><path d="M544.98182,57.48334v246.94444" fill="none" stroke-linecap="round"/><path d="M80.57832,108.65807h464.8763h18.03703" fill="none" stroke-linecap="round"/><path d="M79.68336,134.02249h464.8763h18.03704" fill="none" stroke-linecap="round"/><path d="M563.30945,158.851h-18.03703h-464.8763" fill="none" stroke-linecap="round"/><path d="M80.03705,183.67951h464.8763h18.03703" fill="none" stroke-linecap="round"/><path d="M563.12724,206.36439h-18.03703h-464.8763" fill="none" stroke-linecap="round"/><path d="M563.30409,230.12109h-18.03704h-464.8763" fill="none" stroke-linecap="round"/><path d="M563.48093,253.87779h-18.03703h-464.8763" fill="none" stroke-linecap="round"/><path d="M563.12191,275.49087h-18.03704h-464.8763" fill="none" stroke-linecap="round"/><path d="M562.76283,295.49622h-18.03704h-464.8763" fill="none" stroke-linecap="round"/></g></g></svg>