<svg version="1.1" xmlns="http://www.w3.org/2000/svg" xmlns:xlink="http://www.w3.org/1999/xlink" width="17.27852" height="26.45856" viewBox="0,0,17.27852,26.45856"><g transform="translate(-231.36074,-166.77072)"><g data-paper-data="{&quot;isPaintingLayer&quot;:true}" fill-rule="nonzero" stroke="none" stroke-width="1" stroke-linecap="butt" stroke-linejoin="miter" stroke-miterlimit="10" stroke-dasharray="" stroke-dashoffset="0" style="mix-blend-mode: normal"><g><path d="M233.36617,193.0791l-1.37066,-0.27414l-0.23497,-2.74132c-0.15665,-1.48815 -0.31329,-7.04912 -0.35245,-12.29679c-0.11749,-10.80864 -0.27413,-10.33871 3.01546,-10.84781c2.70216,-0.39162 9.12469,0.03916 10.76948,0.74408c3.64204,1.52731 4.11199,7.12744 0.86156,10.49535l-0.93988,0.97904l1.0182,0.90072c1.17486,1.01821 2.50635,3.72037 2.50635,5.13019c0,1.40982 -1.6448,4.69942 -2.9763,5.95259c-0.62659,0.58743 -1.64479,1.25317 -2.31054,1.48815c-1.37066,0.5091 -8.06732,0.8224 -9.98625,0.46994zM241.00271,186.18664c0.70491,-0.5091 0.70491,-0.54827 -0.11749,-0.97904c-1.25317,-0.66575 -2.42803,-0.54826 -2.42803,0.27414c0,1.3315 1.21402,1.68395 2.54552,0.70491zM240.37612,174.2423c0.43078,-0.27413 0.39162,-0.43078 -0.27413,-0.78323c-0.78323,-0.43078 -2.42803,-0.58743 -2.42803,-0.27414c0,1.25317 1.48815,1.8406 2.70216,1.05737z" fill="#000000"/><path d="M233.99275,190.61192c-0.07832,-0.31329 -0.27413,-5.16935 -0.43078,-10.80864l-0.23497,-10.26038l1.48815,-0.31329c0.8224,-0.15665 2.89797,-0.3133 4.62109,-0.27414c4.46444,0 6.6575,1.29234 6.57918,3.83785c-0.07832,2.1539 -1.13569,3.68121 -3.52456,5.01271c-1.95809,1.09653 -2.11473,1.25317 -1.3315,1.56647c1.3315,0.46994 3.9945,2.74132 4.58192,3.91618c0.78323,1.48815 0.66575,2.62384 -0.35245,4.38612c-1.48815,2.663 -2.42803,3.09378 -7.08828,3.28959c-3.28959,0.15665 -4.19031,0.07832 -4.30779,-0.35245zM242.45169,187.63562c1.60563,-1.44899 1.13569,-3.32875 -1.05737,-4.26863c-1.37066,-0.54827 -3.52456,-0.39162 -3.9945,0.35245c-0.5091,0.8224 -0.07833,3.9945 0.58742,4.5036c0.8224,0.66575 3.4854,0.31329 4.46444,-0.58743zM240.8069,175.69128c2.11474,-1.05737 2.3497,-1.91893 1.0182,-3.25043c-0.90072,-0.86156 -1.29234,-1.01821 -3.09378,-0.90072l-2.03641,0.11749l0.11749,1.95808c0.03916,1.09653 0.19581,2.19306 0.27413,2.46719c0.27413,0.74407 1.80144,0.54827 3.72037,-0.39162z" fill="#f9f9f9"/></g></g></g></svg>