<svg version="1.1" xmlns="http://www.w3.org/2000/svg" xmlns:xlink="http://www.w3.org/1999/xlink" width="12.76875" height="21.52762" viewBox="0,0,12.76875,21.52762"><g transform="translate(-233.61562,-169.23619)"><g data-paper-data="{&quot;isPaintingLayer&quot;:true}" fill="#000000" fill-rule="nonzero" stroke="none" stroke-width="1" stroke-linecap="butt" stroke-linejoin="miter" stroke-miterlimit="10" stroke-dasharray="" stroke-dashoffset="0" style="mix-blend-mode: normal"><path d="M235.6138,190.34352c-0.74407,-0.74407 -0.58743,-1.3315 1.48815,-4.34696c1.09653,-1.60563 1.95809,-2.9763 1.95809,-3.09378c0,-0.11749 -0.78324,-0.43078 -1.72312,-0.66575c-2.38887,-0.58743 -3.48539,-2.19306 -3.6812,-5.326c-0.11749,-1.87976 0,-2.78049 0.66575,-4.03366c2.31054,-4.5036 9.63379,-4.93438 11.6702,-0.70491c1.21401,2.58468 -0.5091,9.3205 -3.48539,13.78494c-1.52731,2.31054 -2.34971,3.13294 -3.87702,3.87702c-2.1539,1.13569 -2.38887,1.13569 -3.01546,0.5091zM241.01812,177.92923c0.58743,-1.13569 0.46994,-3.79869 -0.15665,-4.34696c-0.97904,-0.78323 -3.28959,0.58743 -3.60288,2.1539c-0.35245,1.87976 0.35245,2.93713 1.99725,2.93713c0.93988,0 1.48815,-0.23497 1.76228,-0.74408z"/></g></g></svg>