<svg version="1.1" xmlns="http://www.w3.org/2000/svg" xmlns:xlink="http://www.w3.org/1999/xlink" width="157.18235" height="54.41236" viewBox="0,0,157.18235,54.41236"><g transform="translate(-241.40884,-161.1419)"><g data-paper-data="{&quot;isPaintingLayer&quot;:true}" fill-rule="nonzero" stroke="none" stroke-width="1" stroke-linecap="butt" stroke-linejoin="miter" stroke-miterlimit="10" stroke-dasharray="" stroke-dashoffset="0" style="mix-blend-mode: normal"><path d="M256.01563,199.81384c-4.24955,-1.32548 -8.77893,1.09137 -12.86127,-2.36891c-3.41124,-2.89175 -0.22407,-9.76662 4.5851,-10.05089c-0.61536,-6.35092 0.22296,-12.27712 7.60395,-13.55801c8.72319,-1.51722 16.49546,0 25.38586,1.04344c16.49546,1.99212 22.42165,0 38.91822,0c0,-4.78799 1.22961,-12.98835 1.22961,-12.98835c0,0 14.31494,9.86138 14.87345,12.98723c0.3924,2.18832 14.98493,-2.27527 21.02483,-2.27527c10.12113,0 16.15879,0.56966 24.93772,4.93069c4.13808,2.03671 5.31306,3.74344 7.94061,7.20596c2.23737,2.93857 1.28646,6.92058 5.36657,6.92058c4.13919,8.53144 -5.36656,10.28723 -12.52348,11.37637c-7.10229,1.09137 -3.85827,-9.57488 -10.28834,-12.42092c-8.0532,-3.60075 -14.93142,-3.08126 -21.35926,2.37115c-4.08123,3.46029 -3.80253,7.96402 -4.47474,12.70408c-24.04255,-3.22395 -41.76873,-2.17941 -59.83046,-2.17941c-0.6711,-2.9408 -1.17387,-4.26739 -2.23626,-7.20596c-1.78923,-4.83594 -5.53491,-7.49246 -11.40647,-8.2494c-8.55485,-1.13596 -16.88563,4.4112 -16.88563,11.75762z" fill="#cc1d1d"/><path d="M337.04147,174.08128c7.52033,-0.88849 25.75708,-3.61414 34.98526,-1.72681c12.81221,2.62086 16.72065,8.44115 21.77285,18.09295c1.46929,-0.14827 2.77135,-0.12262 3.62639,1.04678c1.52614,2.08576 1.68667,6.17702 -0.32217,8.13235c-2.84716,2.76467 -14.14104,3.74901 -18.42515,4.44129c-0.80599,-1.70674 -2.01776,-11.26155 -9.93718,-13.80326c-4.95187,-1.58968 -11.21027,-0.12932 -15.21569,2.58741c-5.20047,3.5294 -5.43457,8.2494 -5.87603,13.44876c-3.22172,0.13266 -6.69985,-0.8595 -9.93049,-1.17052c-17.43745,-1.66995 -34.99196,-1.63762 -52.5119,-0.72573c0.30991,-2.24517 -0.91859,-9.08214 -5.31975,-12.85903c-5.57058,-4.78131 -20.76954,-1.87507 -22.74939,4.75789c-0.51949,1.73572 -0.28427,2.78585 -0.33555,4.55055c-2.9631,0.3322 -5.45129,0.272 -8.40213,-0.05909c-5.43234,-0.60755 -6.15138,-3.57957 -6.76674,-5.73779c-0.59195,-2.0735 -0.06689,-4.70439 2.18832,-5.88383c0.53956,-0.28315 1.30207,-0.65104 1.72346,0.02341c0.73575,1.18167 -1.32993,2.42242 -1.49381,3.69216c-0.75136,5.83701 6.01649,6.34646 11.18463,5.78573c-0.22407,-9.00745 16.18666,-16.0997 24.80394,-9.45113c3.78357,2.91962 7.12905,7.97294 7.40329,13.33839c13.62266,-1.56627 41.33953,-0.99996 57.23746,1.80929c0.44369,-4.21612 2.72119,-9.9762 6.31414,-13.11766c4.39783,-3.84377 12.11101,-4.75456 16.9815,-3.77243c6.46352,1.29984 10.32067,8.11786 11.39756,13.38298c1.32437,0.04013 10.99511,-0.709 12.45436,-1.15492c4.19828,-1.29315 3.44691,-6.56273 3.44691,-6.56273c0,0 -3.39675,0.40466 -3.8605,-0.02787c-0.46152,-0.43476 -1.21065,-3.35438 -1.21065,-3.35438l-10.1267,1.10363l-1.28869,-8.09668l6.75782,-1.10586c-11.68962,-12.04524 -49.01148,-5.1425 -49.60343,-5.29523c-4.23284,-4.57842 -13.2938,-12.72526 -14.14215,-12.65726c-0.84947,0.068 -1.56516,8.48908 -1.64654,12.75759c-1.79257,0.25528 -14.89797,0.58526 -19.75286,0.51837c-11.64838,-0.16276 -23.23544,-1.21177 -34.80021,-2.32321c-6.28738,-0.6031 -13.63939,-0.00446 -16.88786,5.33089c1.53172,0.79818 6.9518,2.00661 6.9518,2.00661l-0.43923,6.38994l-9.56373,-0.71234c-1.96982,-2.14039 -1.23964,-5.25175 0.03122,-7.55043c1.0702,-1.93861 3.86384,-5.10236 6.02763,-6.20711c6.81802,-3.47701 23.51414,-0.48048 27.38913,-0.06243c10.84462,1.17052 34.70211,1.22292 38.62281,0.9052c0.6109,-0.42362 0.50277,-13.23806 2.60637,-13.61597c2.10471,-0.37679 16.70169,12.9315 16.70169,12.9315z" fill="#272525"/><path d="M333.38608,176.33649l-11.22142,0.204c0,0 -0.38348,-10.31844 0.6031,-10.60271c0.98658,-0.2865 10.61831,10.39871 10.61831,10.39871z" fill="#272525"/><path d="M329.61143,174.84379l-5.28407,-0.01783c-0.20623,-1.84385 -0.61536,-5.14585 -0.03122,-5.33313c0.57969,-0.1884 3.66652,3.6119 5.31529,5.35097z" fill="#99ffff"/><path d="M295.56926,178.91275c-0.02675,1.13708 -0.21292,17.12532 -0.23076,18.00042c-0.01783,0.87622 -2.06681,1.16383 -2.06347,0.13935c0.00335,-1.02337 0.7168,-16.83101 0.68001,-17.97366c-0.03456,-1.14154 1.64208,-1.30095 1.61421,-0.1661z" fill="#272525"/><path d="M253.46723,185.82887l-5.43122,-0.46375l0.11593,-2.92407l5.27851,0.87176z" fill="#ffaa00"/><path d="M336.44061,178.85479c0.01337,0.76029 0.09253,16.86334 -0.07581,17.76631c-0.16722,0.90297 -1.91186,0.7391 -1.96425,-0.06466c-0.05128,-0.80376 0.57077,-16.7998 0.70009,-17.64034c0.13266,-0.84277 1.32993,-0.82048 1.33997,-0.06131z" fill="#272525"/><path d="M289.68545,197.40479c-0.74356,0.69451 -4.36884,-7.88933 -7.38545,-10.94607c-3.73453,-3.78581 -11.08096,-3.21949 -16.0763,-1.70116c-0.9654,0.29431 -3.82594,2.05343 -4.56615,2.01553c-0.58972,-0.02899 -0.2263,-0.63765 -0.04905,-0.80264c2.50046,-2.31652 6.99638,-3.64981 10.55143,-4.09349c11.55362,-1.43696 17.2747,6.90274 17.52552,15.52783z" fill="#272525"/><path d="M306.02038,183.1389l0.14938,4.32202l-9.13342,0.15496l0.02898,-4.33094z" fill="#272525"/><path d="M374.57179,187.59469c0.14047,0.63988 -1.34555,0.3021 -1.72903,-0.07246c-8.67971,-8.56934 -25.05031,-5.27739 -28.99999,10.0966c-0.19955,0.77255 -2.74906,0.39798 -2.49266,-0.94756c4.05782,-21.49973 31.5116,-16.85999 33.22168,-9.07657z" fill="#272525"/><path d="M304.80861,184.34398l-0.36565,2.24517l-5.93622,-0.02006l0.19174,-2.33436z" fill="#cbcbcb"/><path d="M389.69495,188.99935l-6.96071,0.71235l-0.58749,-4.7055c0,0 4.42903,-0.65327 5.21161,-0.31103c0.79372,0.34447 2.33659,4.30418 2.33659,4.30418z" fill="#fff400"/><path d="M255.25535,196.51631l-9.67744,-0.23633l0.63654,-5.80356l7.97071,0.25194z" fill="#272525"/><path d="M253.04139,192.38826l0.25752,2.25409l-6.36542,0.01114l0.5507,-2.87502z" fill="#fff400"/><path d="M345.81594,200.66891c0.78147,0.1962 0.14493,1.86392 -0.48381,1.65211c-2.89063,-0.95983 -15.15994,-2.13927 -17.10413,-2.2017c-13.90916,-0.44368 -28.00114,0.61648 -41.82669,1.83271c-0.61982,0.05574 -1.03452,-0.77812 -0.30545,-1.0936c2.5718,-1.11032 47.34264,-3.28638 59.72009,-0.18952z" fill="#272525"/><path d="M350.58514,209.93828c-2.02943,-4.00157 -0.03541,-9.85371 3.35543,-12.91033c8.71167,-7.8546 23.07011,-5.71352 21.08425,5.54425c-0.31466,1.78108 -0.5257,3.40474 -1.52825,5.06637c-5.4592,9.05657 -18.4778,11.03068 -22.91142,2.29974z" data-paper-data="{&quot;index&quot;:null}" fill="#272525"/><path d="M364.75732,212.86002c-6.23588,2.82752 -13.79152,-0.67437 -12.71691,-7.88387c1.12805,-7.57823 10.11951,-11.7257 16.61101,-9.66122c2.28473,0.72878 4.04433,4.66231 4.06514,6.88208c0.03972,3.7744 -4.11697,8.91998 -7.95921,10.66302z" data-paper-data="{&quot;index&quot;:null}" fill="#000000"/><path d="M354.82363,206.81818c-0.07581,-1.14367 -0.02755,-3.29294 1.79382,-5.96019c3.78184,-5.54794 11.98106,-3.88228 13.27215,0.34738c0.87092,2.85736 -0.82558,7.26656 -5.24319,9.52985c-3.52845,1.80443 -9.58654,-0.4122 -9.82279,-3.91704z" data-paper-data="{&quot;index&quot;:null}" fill="#272525"/><path d="M367.39034,201.47169c2.48917,4.8682 -5.69228,11.54752 -10.0256,5.97432c-0.89729,-1.15402 -1.24188,-2.49726 -0.74915,-4.09621c1.35978,-4.39993 8.85656,-5.63976 10.77475,-1.87809z" data-paper-data="{&quot;index&quot;:null}" fill="#ffffff"/><path d="M371.77633,201.6479l-17.32044,6.97118l-0.24455,-1.5089l17.13097,-6.1938z" data-paper-data="{&quot;index&quot;:null}" fill="#272525"/><path d="M363.24595,212.79886l-3.26177,-15.81149l1.70222,-0.28795l2.46294,15.66456z" data-paper-data="{&quot;index&quot;:null}" fill="#272525"/><path d="M258.65591,210.02164c-2.399,-3.78875 -0.96697,-9.80316 2.11873,-13.16991c7.93034,-8.64277 22.74337,-6.90836 21.83035,4.48671c-0.14272,1.80397 -0.51899,2.47993 -1.36002,4.22887c-4.57614,9.53 -17.35171,12.72694 -22.58907,4.45434z" data-paper-data="{&quot;index&quot;:null}" fill="#272525"/><path d="M273.03987,211.59157c-4.88894,2.50049 -13.79418,0.63116 -13.40574,-6.64763c0.40679,-7.65091 7.07616,-13.25331 15.62358,-11.18786c2.32526,0.5642 4.46843,4.25946 4.69917,6.46577c0.39511,3.75596 -3.16948,9.45334 -6.917,11.36971z" data-paper-data="{&quot;index&quot;:null}" fill="#000000"/><path d="M262.57897,206.51467c-0.18471,-1.12917 -0.33758,-3.27223 1.2216,-6.10239c3.24058,-5.88054 11.56142,-4.99788 13.24557,-0.90851c1.13774,2.76316 -0.13398,7.30985 -4.31906,9.98272c-3.34121,2.12917 -9.58259,0.49566 -10.14812,-2.97182z" data-paper-data="{&quot;index&quot;:null}" fill="#272525"/><path d="M274.79166,200.28709c2.18362,4.33908 -4.57842,12.03733 -9.417,6.89574c-1.00144,-1.06472 -1.47323,-2.36808 -1.13227,-4.00619c0.93631,-4.50902 8.64523,-6.67504 10.54927,-2.88956z" data-paper-data="{&quot;index&quot;:null}" fill="#ffffff"/><path d="M276.02061,195.6667l-10.36457,15.15218l-1.21464,-0.91059l10.71503,-14.49573z" data-paper-data="{&quot;index&quot;:null}" fill="#272525"/><path d="M276.04012,208.5314l-13.32885,-9.13213l1.28088,-1.21016l12.54286,9.49979z" data-paper-data="{&quot;index&quot;:null}" fill="#272525"/><path d="M266.23133,204.91053c-0.09099,-0.56557 -0.16834,-1.63645 0.61093,-3.05197c1.61951,-2.94039 5.77953,-2.50151 6.62246,-0.4547c0.56863,1.38313 -0.06515,3.65839 -2.15933,4.99258c-1.67204,1.06356 -4.79173,0.24816 -5.07405,-1.48591z" data-paper-data="{&quot;index&quot;:null}" fill="#272525"/><path d="M272.33815,201.79642c1.09104,2.16942 -2.29032,6.01809 -4.7085,3.44787c-0.50019,-0.5307 -0.73695,-1.1845 -0.56725,-2.00368c0.46939,-2.2547 4.32329,-3.33663 5.27575,-1.4442z" data-paper-data="{&quot;index&quot;:null}" fill="#a4b9bc"/><path d="M358.61165,205.56485c-0.04172,-0.5728 -0.01501,-1.64639 0.89646,-2.98306c1.89034,-2.77167 5.99026,-1.9416 6.63541,0.17475c0.43727,1.42955 -0.4108,3.63338 -2.62056,4.7656c-1.76546,0.90232 -4.79413,-0.20427 -4.9113,-1.95726z" data-paper-data="{&quot;index&quot;:null}" fill="#272525"/><path d="M364.98389,203.04146c0.4754,1.45229 -2.84883,5.77469 -5.01385,2.98648c-0.44626,-0.57518 -0.62017,-1.24846 -0.3742,-2.04639c0.67884,-2.20065 4.72636,-2.95979 5.38805,-0.9401z" data-paper-data="{&quot;index&quot;:null}" fill="#a4b9bc"/><text transform="translate(297.50727,195.17654) scale(0.15032,0.15032)" font-size="40" xml:space="preserve" fill="#272525" fill-rule="nonzero" stroke="none" stroke-width="1" stroke-linecap="butt" stroke-linejoin="miter" stroke-miterlimit="10" stroke-dasharray="" stroke-dashoffset="0" font-family="Sans Serif" font-weight="normal" text-anchor="start" style="mix-blend-mode: normal"><tspan x="0" dy="0">Placeholder</tspan></text></g></g></svg>