<svg version="1.1" xmlns="http://www.w3.org/2000/svg" xmlns:xlink="http://www.w3.org/1999/xlink" width="16.4086" height="22.3222" viewBox="0,0,16.4086,22.3222"><g transform="translate(-231.7957,-168.8389)"><g data-paper-data="{&quot;isPaintingLayer&quot;:true}" fill-rule="nonzero" stroke="none" stroke-width="1" stroke-linecap="butt" stroke-linejoin="miter" stroke-miterlimit="10" stroke-dasharray="" stroke-dashoffset="0" style="mix-blend-mode: normal"><g><path d="M235.55522,190.61284c-1.48815,-0.66575 -2.34971,-1.60563 -3.13294,-3.52456c-0.5091,-1.17486 -0.62658,-3.01545 -0.62658,-9.3205c0.03916,-5.28684 0.15665,-8.02817 0.46994,-8.38062c0.31329,-0.39162 1.37066,-0.54826 3.32875,-0.54826c2.78048,0 2.89797,0.03916 3.13294,1.0182c0.15665,0.58743 0.15665,2.663 0.03916,4.62109c-0.35245,5.40432 0.54827,8.92888 1.76228,6.85331c0.31329,-0.62659 0.58742,-2.89797 0.70491,-6.42253l0.19581,-5.48265h3.13294h3.13294l0.35245,3.91618c0.46994,5.40432 -0.15665,11.74853 -1.37066,13.98075c-1.3315,2.34971 -4.26864,3.83785 -7.55822,3.83785c-1.29234,-0.03916 -2.89797,-0.27414 -3.56372,-0.54827z" fill="#000000"/><path d="M235.90768,188.06732c-1.68395,-1.01821 -2.07557,-2.93713 -2.23222,-10.49535l-0.07832,-6.38336h1.44899h1.48815l-0.07832,4.8169c-0.03916,4.03366 0.07832,5.09103 0.70491,6.38336c0.66575,1.3315 0.93988,1.52731 2.27138,1.6448c3.05462,0.27413 4.15115,-1.99725 4.15115,-8.41978c0,-4.03366 0,-4.03366 0.97904,-4.03366c1.29234,0 1.52731,1.52731 1.29234,7.59738c-0.23497,5.326 -0.74407,6.97079 -2.62384,8.57643c-1.09653,0.90072 -1.64479,1.05737 -3.6812,1.05737c-1.68395,0 -2.78049,-0.23497 -3.64205,-0.74408z" fill="#f9f9f9"/></g></g></g></svg>