<svg version="1.1" xmlns="http://www.w3.org/2000/svg" xmlns:xlink="http://www.w3.org/1999/xlink" width="14.48497" height="16.45096" viewBox="0,0,14.48497,16.45096"><g transform="translate(-232.75751,-171.77452)"><g data-paper-data="{&quot;isPaintingLayer&quot;:true}" fill="#000000" fill-rule="nonzero" stroke="none" stroke-width="1" stroke-linecap="butt" stroke-linejoin="miter" stroke-miterlimit="10" stroke-dasharray="" stroke-dashoffset="0" style="mix-blend-mode: normal"><path d="M239.29266,187.96124c-0.15665,-0.11749 -0.27414,-0.93988 -0.27414,-1.76228c0,-1.29234 -0.11749,-1.48815 -0.90072,-1.48815c-0.5091,0 -1.0182,0.35245 -1.25317,0.86156c-0.23497,0.46994 -0.70491,1.01821 -1.09653,1.25318c-0.54827,0.35245 -0.8224,0.27413 -1.29234,-0.35246c-0.31329,-0.43078 -0.46995,-1.17485 -0.39162,-1.60563c0.15665,-0.62659 0,-0.90072 -0.54826,-1.05737c-1.17486,-0.31329 -0.97904,-1.76228 0.31329,-2.34971c2.07558,-0.90072 2.19306,-2.03641 0.27413,-2.85881c-2.27138,-0.93988 -1.48815,-2.07558 1.44899,-2.11474c0.93988,0 1.13569,-0.27413 1.91893,-2.34971c1.17486,-3.28959 2.50635,-3.09378 2.03641,0.27413c-0.19581,1.52731 -0.19581,1.56647 0.93988,1.40982c0.93988,-0.15665 1.25317,-0.5091 1.76228,-1.80144c0.78323,-2.19306 1.6448,-2.15389 1.80144,0.03916c0.11749,1.3315 0.27413,1.6448 0.90072,1.6448c1.21401,0 2.31054,0.74407 2.31054,1.56647c0,1.01821 -1.44899,1.95809 -3.01546,1.95809c-1.01821,0 -1.29234,0.15665 -1.29234,0.74408c0,0.58743 0.39162,0.8224 1.52731,1.01821c3.25043,0.54827 3.1721,2.62384 -0.15665,3.32875c-1.91893,0.39162 -2.11473,0.54826 -2.34971,1.68395c-0.15665,0.70491 -0.46994,1.48815 -0.66575,1.76228c-0.43078,0.5091 -1.56647,0.62658 -1.99725,0.19581zM240.19338,180.01141c0,-0.54827 -0.27413,-0.78324 -0.93988,-0.78324c-0.58743,0 -1.01821,0.27414 -1.13569,0.78324c-0.15665,0.66575 0,0.78323 0.93988,0.78323c0.86156,0 1.13569,-0.19581 1.13569,-0.78323z"/></g></g></svg>