<svg version="1.1" xmlns="http://www.w3.org/2000/svg" xmlns:xlink="http://www.w3.org/1999/xlink" width="16.05632" height="14.4065" viewBox="0,0,16.05632,14.4065"><g transform="translate(-231.97184,-172.79675)"><g data-paper-data="{&quot;isPaintingLayer&quot;:true}" fill="#000000" fill-rule="nonzero" stroke="none" stroke-width="1" stroke-linecap="butt" stroke-linejoin="miter" stroke-miterlimit="10" stroke-dasharray="" stroke-dashoffset="0" style="mix-blend-mode: normal"><path d="M238.55101,186.76495c-0.35245,-0.27413 -0.78323,-1.29234 -0.97904,-2.27139l-0.35246,-1.76228l-2.31054,-0.27413c-2.19306,-0.27413 -2.93713,-0.70491 -2.93713,-1.76228c0,-0.90072 1.52731,-2.07557 3.32875,-2.54551c1.60563,-0.43078 1.76228,-0.58743 1.95809,-1.87976c0.46994,-2.93713 0.70491,-3.32875 2.23222,-3.44624c1.68395,-0.15665 2.03641,0.31329 2.46719,3.1721l0.27413,1.8406h2.27138c2.50635,0 3.52456,0.70491 3.52456,2.46719c0,1.44899 -1.3315,2.23222 -3.79869,2.23222h-2.07558v1.72312c0,1.37066 -0.19581,1.87976 -0.86156,2.34971c-1.05737,0.74407 -1.91893,0.78324 -2.74132,0.15665z"/></g></g></svg>