<svg version="1.1" xmlns="http://www.w3.org/2000/svg" xmlns:xlink="http://www.w3.org/1999/xlink" width="21.14736" height="25.39438" viewBox="0,0,21.14736,25.39438"><g transform="translate(-229.42632,-167.30281)"><g data-paper-data="{&quot;isPaintingLayer&quot;:true}" fill-rule="nonzero" stroke="none" stroke-width="1" stroke-linecap="butt" stroke-linejoin="miter" stroke-miterlimit="10" stroke-dasharray="" stroke-dashoffset="0" style="mix-blend-mode: normal"><g><path d="M232.12848,191.28239c-1.72312,-1.8406 -2.70216,-3.25042 -2.70216,-3.95533c0,-0.31329 1.40983,-1.99726 3.13294,-3.75953c1.72312,-1.76228 3.13294,-3.36791 3.13294,-3.56372c0,-0.19581 -0.86156,-1.56647 -1.87976,-3.09378c-3.09378,-4.5036 -3.79869,-5.99175 -3.25043,-6.6575c0.54827,-0.66575 4.85606,-2.19306 6.18756,-2.19306c0.70491,0 1.17485,0.54827 2.27138,2.78048l1.40982,2.78048l2.9763,-3.21126c3.64204,-3.87702 4.42528,-4.03366 6.07007,-0.97904c1.68395,3.05462 1.52731,3.52456 -1.91893,6.73582l-3.05461,2.81965l1.01821,1.09653c2.07558,2.23222 5.05187,6.54001 5.05187,7.24493c0,0.97904 -3.79869,5.0127 -4.73857,5.0127c-0.70491,0 -0.97904,-0.31329 -3.64204,-4.07282c-0.86156,-1.21401 -1.76228,-2.19306 -2.03641,-2.19306c-0.23497,0 -1.48815,1.37067 -2.74133,3.05462c-3.28959,4.30779 -3.25043,4.30779 -5.28684,2.15389z" fill="#000000"/><path d="M232.71591,188.61939c-0.74407,-1.13569 -0.93988,-0.8224 3.72037,-5.79594l2.46719,-2.62384l-0.70491,-1.09653c-0.39162,-0.58743 -1.72312,-2.34971 -2.9763,-3.91618c-1.25317,-1.56647 -2.27138,-3.09378 -2.27138,-3.36791c0,-0.39162 2.38887,-1.56647 3.28959,-1.60563c0.15665,0 0.86156,1.40983 1.56647,3.13294c1.72312,4.26863 2.03641,4.26863 5.91342,0.03916c1.68395,-1.87976 3.1721,-3.36791 3.32875,-3.36791c0.19581,0 0.5091,0.54826 0.74408,1.17485c0.39162,1.13569 0.27413,1.29234 -2.70216,4.26863c-1.72312,1.72312 -3.13294,3.36792 -3.13294,3.68121c0,0.27413 0.39162,0.86156 0.8224,1.29234c1.60563,1.40982 5.13019,6.42253 4.97355,7.04912c-0.07832,0.35245 -0.46994,0.90072 -0.93988,1.17486c-0.74407,0.5091 -0.97904,0.35245 -3.52456,-2.58468c-1.48815,-1.68395 -2.93713,-3.13294 -3.21126,-3.13294c-0.27413,0 -0.8224,0.31329 -1.21402,0.70491c-0.90072,0.8224 -3.32874,3.9945 -3.91617,5.13019c-0.62659,1.09653 -1.44899,1.05736 -2.23222,-0.15665z" fill="#f9f9f9"/></g></g></g></svg>