<svg version="1.1" xmlns="http://www.w3.org/2000/svg" xmlns:xlink="http://www.w3.org/1999/xlink" width="8.30676" height="19.9725" viewBox="0,0,8.30676,19.9725"><g transform="translate(-235.84662,-170.01375)"><g data-paper-data="{&quot;isPaintingLayer&quot;:true}" fill="#000000" fill-rule="nonzero" stroke="none" stroke-width="1" stroke-linecap="butt" stroke-linejoin="miter" stroke-miterlimit="10" stroke-dasharray="" stroke-dashoffset="0" style="mix-blend-mode: normal"><path d="M240.03011,188.77223c-0.23497,-0.70491 -0.43078,-3.32875 -0.43078,-5.87427c0,-4.22947 -0.27413,-5.40432 -0.97904,-4.26863c-0.35245,0.58743 -1.99725,0.46994 -2.54552,-0.19581c-0.70491,-0.86156 0.23497,-2.97629 2.663,-5.91342c1.6448,-2.03641 2.27138,-2.50635 3.21126,-2.50635c2.27138,0 2.34971,0.35245 2.11474,9.51631c-0.11749,4.58192 -0.39162,8.77223 -0.62659,9.39882c-0.31329,0.86156 -0.66575,1.05737 -1.68396,1.05737c-1.09653,0 -1.37066,-0.19581 -1.72312,-1.21401z"/></g></g></svg>