<svg version="1.1" xmlns="http://www.w3.org/2000/svg" xmlns:xlink="http://www.w3.org/1999/xlink" width="157.18235" height="52.87895" viewBox="0,0,157.18235,52.87895"><g transform="translate(-241.40883,-161.80856)"><g data-paper-data="{&quot;isPaintingLayer&quot;:true}" fill-rule="nonzero" stroke="none" stroke-width="1" stroke-linecap="butt" stroke-linejoin="miter" stroke-miterlimit="10" stroke-dasharray="" stroke-dashoffset="0" style="mix-blend-mode: normal"><path d="M256.01561,200.4805c-4.24955,-1.32548 -8.77893,1.09137 -12.86127,-2.36891c-3.41124,-2.89175 -0.22407,-9.76662 4.5851,-10.05089c-0.61536,-6.35092 0.22296,-12.27712 7.60395,-13.55801c8.72319,-1.51722 16.49546,0 25.38586,1.04344c16.49546,1.99212 22.42165,0 38.91822,0c0,-4.78799 1.22961,-12.98835 1.22961,-12.98835c0,0 14.31494,9.86138 14.87345,12.98723c0.3924,2.18832 14.98493,-2.27527 21.02483,-2.27527c10.12113,0 16.15879,0.56966 24.93772,4.93069c4.13808,2.03671 5.31306,3.74344 7.94061,7.20596c2.23737,2.93857 1.28646,6.92058 5.36657,6.92058c4.13919,8.53144 -5.36656,10.28723 -12.52348,11.37637c-7.10229,1.09137 -3.85827,-9.57488 -10.28834,-12.42092c-8.0532,-3.60075 -14.93142,-3.08126 -21.35926,2.37115c-4.08123,3.46029 -3.80253,7.96402 -4.47474,12.70408c-24.04255,-3.22395 -41.76873,-2.17941 -59.83046,-2.17941c-0.6711,-2.9408 -1.17387,-4.26739 -2.23626,-7.20596c-1.78923,-4.83594 -5.53491,-7.49246 -11.40647,-8.2494c-8.55485,-1.13596 -16.88563,4.4112 -16.88563,11.75762z" fill="#cc1d1d"/><path d="M337.04145,174.74794c7.52033,-0.88849 25.75708,-3.61414 34.98526,-1.72681c12.81221,2.62086 16.72065,8.44115 21.77285,18.09295c1.46929,-0.14827 2.77135,-0.12262 3.62639,1.04678c1.52614,2.08576 1.68667,6.17702 -0.32217,8.13235c-2.84716,2.76467 -14.14104,3.74901 -18.42515,4.44129c-0.80599,-1.70674 -2.01776,-11.26155 -9.93718,-13.80326c-4.95187,-1.58968 -11.21027,-0.12932 -15.21569,2.58741c-5.20047,3.5294 -5.43457,8.2494 -5.87603,13.44876c-3.22172,0.13266 -6.69985,-0.8595 -9.93049,-1.17052c-17.43745,-1.66995 -34.99196,-1.63762 -52.5119,-0.72573c0.30991,-2.24517 -0.91859,-9.08214 -5.31975,-12.85903c-5.57058,-4.78131 -20.76954,-1.87507 -22.74939,4.75789c-0.51949,1.73572 -0.28427,2.78585 -0.33555,4.55055c-2.9631,0.3322 -5.45129,0.272 -8.40213,-0.05909c-5.43234,-0.60755 -6.15138,-3.57957 -6.76674,-5.73779c-0.59195,-2.0735 -0.06689,-4.70439 2.18832,-5.88383c0.53956,-0.28315 1.30207,-0.65104 1.72346,0.02341c0.73575,1.18167 -1.32993,2.42242 -1.49381,3.69216c-0.75136,5.83701 6.01649,6.34646 11.18463,5.78573c-0.22407,-9.00745 16.18666,-16.0997 24.80394,-9.45113c3.78357,2.91962 7.12905,7.97294 7.40329,13.33839c13.62266,-1.56627 41.33953,-0.99996 57.23746,1.80929c0.44369,-4.21612 2.72119,-9.9762 6.31414,-13.11766c4.39783,-3.84377 12.11101,-4.75456 16.9815,-3.77243c6.46352,1.29984 10.32067,8.11786 11.39756,13.38298c1.32437,0.04013 10.99511,-0.709 12.45436,-1.15492c4.19828,-1.29315 3.44691,-6.56273 3.44691,-6.56273c0,0 -3.39675,0.40466 -3.8605,-0.02787c-0.46152,-0.43476 -1.21065,-3.35438 -1.21065,-3.35438l-10.1267,1.10363l-1.28869,-8.09668l6.75782,-1.10586c-11.68962,-12.04524 -49.01148,-5.1425 -49.60343,-5.29523c-4.23284,-4.57842 -13.2938,-12.72526 -14.14215,-12.65726c-0.84947,0.068 -1.56516,8.48908 -1.64654,12.75759c-1.79257,0.25528 -14.89797,0.58526 -19.75286,0.51837c-11.64838,-0.16276 -23.23544,-1.21177 -34.80021,-2.32321c-6.28738,-0.6031 -13.63939,-0.00446 -16.88786,5.33089c1.53172,0.79818 6.9518,2.00661 6.9518,2.00661l-0.43923,6.38994l-9.56373,-0.71234c-1.96982,-2.14039 -1.23964,-5.25175 0.03122,-7.55043c1.0702,-1.93861 3.86384,-5.10236 6.02763,-6.20711c6.81802,-3.47701 23.51414,-0.48048 27.38913,-0.06243c10.84462,1.17052 34.70211,1.22292 38.62281,0.9052c0.6109,-0.42362 0.50277,-13.23806 2.60637,-13.61597c2.10471,-0.37679 16.70169,12.9315 16.70169,12.9315z" fill="#272525"/><path d="M333.38608,177.00315l-11.22142,0.204c0,0 -0.38348,-10.31844 0.6031,-10.60271c0.98658,-0.2865 10.61831,10.39871 10.61831,10.39871z" fill="#272525"/><path d="M329.61142,175.51045l-5.28407,-0.01783c-0.20623,-1.84385 -0.61536,-5.14585 -0.03122,-5.33313c0.57969,-0.1884 3.66652,3.6119 5.31529,5.35097z" fill="#99ffff"/><path d="M295.56926,179.57941c-0.02675,1.13708 -0.21292,17.12532 -0.23076,18.00042c-0.01783,0.87622 -2.06681,1.16383 -2.06347,0.13935c0.00335,-1.02337 0.7168,-16.83101 0.68001,-17.97366c-0.03456,-1.14154 1.64208,-1.30095 1.61421,-0.1661z" fill="#272525"/><path d="M253.46721,186.49553l-5.43122,-0.46375l0.11593,-2.92407l5.27851,0.87176z" fill="#ffaa00"/><path d="M336.44059,179.52145c0.01337,0.76029 0.09253,16.86334 -0.07581,17.76631c-0.16722,0.90297 -1.91186,0.7391 -1.96425,-0.06466c-0.05128,-0.80376 0.57077,-16.7998 0.70009,-17.64034c0.13266,-0.84277 1.32993,-0.82048 1.33997,-0.06131z" fill="#272525"/><path d="M289.68543,198.07145c-0.74356,0.69451 -4.36884,-7.88933 -7.38545,-10.94607c-3.73453,-3.78581 -11.08096,-3.21949 -16.0763,-1.70116c-0.9654,0.29431 -3.82594,2.05343 -4.56615,2.01553c-0.58972,-0.02899 -0.2263,-0.63765 -0.04905,-0.80264c2.50046,-2.31652 6.99638,-3.64981 10.55143,-4.09349c11.55362,-1.43696 17.2747,6.90274 17.52552,15.52783z" fill="#272525"/><path d="M306.02036,183.80556l0.14938,4.32202l-9.13342,0.15496l0.02898,-4.33094z" fill="#272525"/><path d="M374.57177,188.26135c0.14047,0.63988 -1.34555,0.3021 -1.72903,-0.07246c-8.67971,-8.56934 -25.05031,-5.27739 -28.99999,10.0966c-0.19955,0.77255 -2.74906,0.39798 -2.49266,-0.94756c4.05782,-21.49973 31.5116,-16.85999 33.22168,-9.07657z" fill="#272525"/><path d="M304.80859,185.01064l-0.36565,2.24517l-5.93622,-0.02006l0.19174,-2.33436z" fill="#cbcbcb"/><path d="M389.69493,188.99934l-6.96071,0.71235l-0.58749,-4.7055c0,0 4.42903,-0.65327 5.21161,-0.31103c0.79372,0.34447 2.33659,4.30418 2.33659,4.30418z" fill="#fff400"/><path d="M255.25533,197.18297l-9.67744,-0.23633l0.63654,-5.80356l7.97071,0.25194z" fill="#272525"/><path d="M253.04137,193.05492l0.25752,2.25409l-6.36542,0.01114l0.5507,-2.87502z" fill="#fff400"/><path d="M345.81592,200.6689c0.78147,0.1962 0.14493,1.86392 -0.48381,1.65211c-2.89063,-0.95983 -15.15994,-2.13927 -17.10413,-2.2017c-13.90916,-0.44368 -28.00114,0.61648 -41.82669,1.83271c-0.61982,0.05574 -1.03452,-0.77812 -0.30545,-1.0936c2.5718,-1.11032 47.34264,-3.28638 59.72009,-0.18952z" fill="#272525"/><path d="M376.78542,206.64306c-2.27834,9.52342 -15.39871,10.63553 -22.817,3.09941c-1.36196,-1.38245 -1.94534,-2.91232 -2.66615,-4.57113c-4.55311,-10.48572 8.91187,-15.9119 19.21326,-10.30216c4.00946,2.18287 7.31157,7.40969 6.26989,11.77387z" fill="#272525"/><path d="M363.68337,212.78505c-4.14253,-0.80028 -9.38329,-4.8363 -10.22369,-8.51617c-0.49673,-2.16358 0.2984,-6.39874 2.35057,-7.63958c5.83219,-3.51953 15.54233,-1.58016 18.40427,5.52697c2.7241,6.76098 -3.80821,11.92624 -10.53113,10.62876z" fill="#000000"/><path d="M371.93684,204.59584c0.5865,3.46348 -4.78877,7.03005 -8.64043,6.09698c-4.82324,-1.17223 -7.49996,-5.06508 -7.31845,-8.0467c0.27053,-4.41404 7.85637,-7.94344 12.8263,-3.42882c2.39248,2.16973 2.93995,4.24866 3.13258,5.37853z" fill="#272525"/><path d="M358.47052,202.32308c0.98938,-4.10497 8.56876,-4.64518 10.91587,-0.68291c0.85156,1.44023 0.82928,2.82679 0.22543,4.15805c-2.9162,6.42915 -12.42825,1.8389 -11.1413,-3.47515z" fill="#ffffff"/><path d="M354.49789,202.70341l18.1024,2.0338l0.11359,1.52436l-18.46771,-2.74568z" fill="#272525"/><path d="M364.15914,212.16103l-1.25295,-15.80742l1.72247,-0.1164l0.51031,16.13635z" fill="#272525"/><path d="M284.04371,205.43714c-2.39391,9.49395 -15.5291,10.4439 -22.85094,2.81812c-1.34485,-1.3991 -1.91329,-1.92386 -2.6119,-3.59318c-4.42377,-10.54094 9.10805,-16.81181 19.33965,-11.07577c3.98233,2.23555 7.2199,7.5026 6.12318,11.85083z" fill="#272525"/><path d="M270.86816,211.41783c-4.15843,-0.65106 -9.3231,-4.95137 -10.11995,-8.64303c-0.46937,-2.16812 0.41348,-6.34768 2.4465,-7.6094c7.47586,-4.6299 15.56059,-1.38883 18.33488,5.75297c2.64072,6.79398 -5.23629,11.34923 -10.66143,10.49947z" fill="#000000"/><path d="M279.22208,203.32971c0.54491,3.47078 -4.8749,6.97061 -8.71373,5.99057c-4.81023,-1.23322 -7.43743,-5.1559 -7.2189,-8.13612c0.32375,-4.41072 7.95349,-7.8462 12.86751,-3.27076c2.36458,2.20218 2.88819,4.28591 3.06511,5.41632z" fill="#272525"/><path d="M265.67581,201.22472c0.6275,-4.19065 8.62737,-4.53874 10.92416,-0.54717c0.83518,1.44987 0.79373,2.83538 0.1746,4.15946c-2.99223,6.39487 -11.8191,1.19155 -11.09876,-3.61229z" fill="#ffffff"/><path d="M263.80792,196.70752l14.70388,10.42755l-0.86978,1.24419l-14.57581,-11.16059z" fill="#272525"/><path d="M266.32961,208.80091l8.9515,-12.93986l1.59459,0.74995l-9.81298,12.83587z" fill="#272525"/><path d="M275.25149,202.94559c0.27298,1.73557 -2.4364,3.48388 -4.35685,2.99528c-2.40597,-0.61396 -3.71819,-2.57778 -3.60964,-4.06929c0.16203,-2.20765 3.97728,-3.92293 6.43358,-1.63485c1.18212,1.10161 1.44286,2.14314 1.53292,2.70886z" fill="#272525"/><path d="M268.47782,201.89293c0.31427,-2.09516 4.31332,-2.27007 5.46296,-0.27448c0.41689,0.7253 0.396,1.42034 0.08642,2.08063c-1.49524,3.19654 -5.90885,0.59542 -5.54938,-1.80614z" fill="#a4b9bc"/><path d="M367.96108,204.25921c0.29431,1.73208 -2.39336,3.51359 -4.32041,3.04725c-2.41268,-0.58645 -3.75069,-2.53217 -3.65837,-4.02425c0.13453,-2.20841 3.92839,-3.9705 6.41225,-1.71528c1.19771,1.08764 1.47371,2.12549 1.56654,2.69226z" fill="#272525"/><path d="M361.17638,203.28921c0.17312,-2.11826 4.28614,-2.32263 5.45884,-0.34059c0.42504,0.71871 0.41271,1.41397 0.11268,2.07727c-1.45614,3.21576 -5.69561,-0.21359 -5.57151,-1.73667z" fill="#a4b9bc"/><text transform="translate(297.50725,195.8432) scale(0.15032,0.15032)" font-size="40" xml:space="preserve" fill="#272525" fill-rule="nonzero" stroke="none" stroke-width="1" stroke-linecap="butt" stroke-linejoin="miter" stroke-miterlimit="10" stroke-dasharray="" stroke-dashoffset="0" font-family="Sans Serif" font-weight="normal" text-anchor="start" style="mix-blend-mode: normal"><tspan x="0" dy="0">Placeholder</tspan></text></g></g></svg>