<svg version="1.1" xmlns="http://www.w3.org/2000/svg" xmlns:xlink="http://www.w3.org/1999/xlink" width="385.74292" height="38" viewBox="0,0,385.74292,38"><g transform="translate(-151.1713,-161)"><g data-paper-data="{&quot;isPaintingLayer&quot;:true}" fill-rule="nonzero" stroke-linecap="butt" stroke-linejoin="miter" stroke-miterlimit="10" stroke-dasharray="" stroke-dashoffset="0" style="mix-blend-mode: normal"><path d="M217.26353,162c64.06306,0 317.23647,0 317.23647,0l-36,36c0,0 -293.07782,0 -343.48647,0c-15.13279,0 33.73828,-36 62.25,-36z" fill="#000000" stroke="#000000" stroke-width="2"/><g fill="#ffeb0a"><path d="M216.94426,195.86016c-2.27095,1.37149 -8.94315,-5.71756 -8.94315,-5.71756c0,0 -7.77476,5.86541 -9.78218,4.12872c-2.00914,-1.73661 2.67356,-10.27551 2.67356,-10.27551c0,0 -7.97959,-5.58216 -6.94833,-8.02765c1.03126,-2.44736 10.59789,-0.63233 10.59789,-0.63233c0,0 2.84097,-9.31367 5.48597,-9.091c2.64859,0.2244 3.87936,9.88542 3.87936,9.88542c0,0 9.73584,-0.17634 10.33788,2.40988c0.60736,2.58449 -8.20046,6.7417 -8.20046,6.7417c0,0 3.17581,9.20683 0.89946,10.57832z" stroke="#000000" stroke-width="1.28786"/><path d="M212.52165,189.10422c-1.1435,0.68931 -4.49744,-2.87479 -4.49744,-2.87479c0,0 -3.90605,2.94781 -4.91422,2.07504c-1.0081,-0.87277 1.343,-5.16178 1.343,-5.16178c0,0 -4.00757,-2.80716 -3.49107,-4.03433c0.51836,-1.22904 5.32388,-0.31706 5.32388,-0.31706c0,0 1.42854,-4.6809 2.75903,-4.56687c1.32876,0.11216 1.94504,4.96588 1.94504,4.96588c0,0 4.89465,-0.08734 5.1974,1.21113c0.30641,1.30027 -4.118,3.38776 -4.118,3.38776c0,0 1.59236,4.62572 0.45239,5.31502z" stroke="none" stroke-width="2.57572"/></g><text transform="translate(233.92857,186.12795) scale(0.40224,0.40224)" font-size="40" xml:space="preserve" fill="#ffeb0a" fill-rule="nonzero" stroke="none" stroke-width="1" stroke-linecap="butt" stroke-linejoin="miter" stroke-miterlimit="10" stroke-dasharray="" stroke-dashoffset="0" font-family="Sans Serif" font-weight="normal" text-anchor="start" style="mix-blend-mode: normal"><tspan x="0" dy="0">Attack the opponent three times.</tspan></text></g></g></svg>