<svg version="1.1" xmlns="http://www.w3.org/2000/svg" xmlns:xlink="http://www.w3.org/1999/xlink" width="20.70239" height="25.43148" viewBox="0,0,20.70239,25.43148"><g transform="translate(-229.64881,-167.28426)"><g data-paper-data="{&quot;isPaintingLayer&quot;:true}" fill-rule="nonzero" stroke="none" stroke-width="1" stroke-linecap="butt" stroke-linejoin="miter" stroke-miterlimit="10" stroke-dasharray="" stroke-dashoffset="0" style="mix-blend-mode: normal"><g><path d="M231.38372,191.74735c-0.78323,-0.5091 -1.5273,-1.21402 -1.68395,-1.60563c-0.46994,-1.17486 2.38886,-9.8296 5.326,-16.21297c0.74407,-1.60563 1.60563,-3.60288 1.84061,-4.42528c0.27413,-0.78323 0.8224,-1.64479 1.21401,-1.8406c0.8224,-0.43078 3.87702,-0.5091 4.89522,-0.15665c1.21401,0.46994 3.01545,4.93438 5.52181,13.47165c1.99725,6.81415 2.1539,7.79319 1.52731,9.28134c-0.66575,1.52731 -1.76228,2.1539 -3.64204,1.99725c-1.40982,-0.11749 -1.48815,-0.19581 -2.62384,-3.17211l-1.17485,-3.01545l-2.34971,0.07832l-2.34971,0.11749l-0.86156,2.70216c-0.5091,1.48815 -1.09653,2.93713 -1.3315,3.21126c-0.70491,0.86156 -2.78048,0.66575 -4.30779,-0.43078zM240.97835,178.94145c-0.54827,-1.91893 -0.86156,-2.1539 -1.29234,-0.97904c-0.62659,1.60563 -0.54827,1.84061 0.58743,1.84061c0.86156,0 0.93988,-0.11749 0.70491,-0.86156z" fill="#000000"/><path d="M232.67605,189.90674c-0.74407,-0.39162 -0.8224,-0.62659 -0.62658,-1.84061c0.35245,-1.91893 3.05461,-9.63379 4.11198,-11.78769c0.46994,-0.93988 1.17486,-2.70216 1.56647,-3.87702c0.86156,-2.46719 1.21401,-2.78048 3.13294,-2.78048c1.01821,0 1.48815,0.19581 1.6448,0.70491c0.11749,0.35245 0.93988,2.70216 1.8406,5.16936c2.11474,5.91343 4.07283,13.70662 3.56372,14.21572c-0.74407,0.74407 -1.56647,-0.07832 -2.42803,-2.46719c-1.17486,-3.25043 -1.91893,-3.6812 -5.67846,-3.40707c-3.44624,0.27413 -3.72037,0.46994 -4.77774,3.95534c-0.74407,2.54552 -0.97904,2.74133 -2.34971,2.11474zM243.01476,181.17367c0.39162,-1.01821 -1.68396,-6.85331 -2.42803,-6.85331c-0.86156,0 -3.56372,6.1484 -2.9763,6.73582c0.15665,0.15665 1.25317,0.35245 2.42803,0.43078c1.17486,0.07832 2.31054,0.15665 2.46719,0.19581c0.15665,0.03916 0.39162,-0.19581 0.5091,-0.5091z" fill="#f9f9f9"/></g></g></g></svg>