<svg version="1.1" xmlns="http://www.w3.org/2000/svg" xmlns:xlink="http://www.w3.org/1999/xlink" width="19.48657" height="25.43874" viewBox="0,0,19.48657,25.43874"><g transform="translate(-230.25672,-167.28063)"><g data-paper-data="{&quot;isPaintingLayer&quot;:true}" fill-rule="nonzero" stroke="none" stroke-width="1" stroke-linecap="butt" stroke-linejoin="miter" stroke-miterlimit="10" stroke-dasharray="" stroke-dashoffset="0" style="mix-blend-mode: normal"><g><path d="M235.74703,192.34416c-1.91893,-0.58743 -3.36791,-1.95809 -4.46444,-4.15115c-0.97904,-1.99725 -1.05736,-2.54551 -1.0182,-6.54001c0.07832,-9.51631 3.32874,-14.33321 9.63379,-14.37237c3.01546,0 6.57918,1.52731 7.67571,3.32875c0.90072,1.44899 1.76228,7.08828 1.37067,9.20302c-0.11749,0.74407 -0.58743,2.46719 -1.05737,3.75953l-0.8224,2.42803l0.86156,0.90072c1.25317,1.3315 2.03641,2.93713 1.76228,3.6812c-0.31329,0.8224 -2.19306,1.76228 -3.56372,1.76228c-0.58743,0 -1.68395,-0.35246 -2.38887,-0.78324l-1.29234,-0.8224l-1.17485,1.01821c-1.25317,1.01821 -3.32875,1.25318 -5.52181,0.58743zM238.37087,185.29504c0.15665,-0.23497 -0.19581,-1.17485 -0.74408,-2.15389c-0.54827,-0.93988 -1.01821,-1.80144 -1.01821,-1.87976c0,-0.27413 3.60288,-3.79869 3.87702,-3.79869c0.54827,0.03916 1.13569,0.66575 1.80144,1.95809l0.70491,1.37066l0.35245,-0.97904c0.58743,-1.60563 0,-5.05187 -1.05737,-6.10924c-1.68395,-1.68395 -3.52456,-1.09653 -5.09103,1.56647c-1.37066,2.31054 -1.8406,7.87151 -0.8224,9.43798c0.66575,1.01821 1.56647,1.29234 1.99725,0.58743z" fill="#000000"/><path d="M236.49109,190.22942c-3.32875,-1.21401 -3.9945,-2.58468 -3.9945,-8.65475c0,-5.60013 0.93988,-8.8114 3.1721,-10.76949c1.6448,-1.44899 2.70216,-1.72312 5.52181,-1.48814c3.05462,0.27413 4.54276,1.8406 5.16935,5.48264c0.23497,1.37066 0.43078,3.05461 0.43078,3.6812c0,1.68395 -1.0182,5.20852 -1.72312,5.99175c-0.97904,1.05737 -0.74408,2.03641 0.8224,3.64204c1.09653,1.09653 1.3315,1.60563 1.01821,1.91893c-0.35245,0.35245 -0.93988,0.15665 -2.38887,-0.78323c-1.05737,-0.66575 -1.99725,-1.21401 -2.11474,-1.21401c-0.11749,0 -0.8224,0.62659 -1.60563,1.37066c-1.52731,1.48815 -2.07558,1.60563 -4.30779,0.8224zM240.05482,187.01816c1.09653,-0.70491 1.09653,-1.8406 0.03916,-3.32875c-0.8224,-1.17486 -0.90072,-2.74132 -0.07832,-2.9763c0.23497,-0.07832 0.8224,0.54827 1.3315,1.44899c1.25317,2.23222 2.27139,2.03641 3.21127,-0.58743c0.97904,-2.85881 0.78323,-7.00996 -0.46994,-8.77224c-2.07558,-2.89797 -5.13019,-2.89797 -7.67571,0.07832c-1.76228,2.03641 -2.54552,4.69942 -2.54552,8.45894c0,5.60013 2.58468,7.989 6.18756,5.67846z" fill="#f9f9f9"/></g></g></g></svg>