<svg version="1.1" xmlns="http://www.w3.org/2000/svg" xmlns:xlink="http://www.w3.org/1999/xlink" width="16.66847" height="24.23159" viewBox="0,0,16.66847,24.23159"><g transform="translate(-231.66576,-167.88421)"><g data-paper-data="{&quot;isPaintingLayer&quot;:true}" fill-rule="nonzero" stroke="none" stroke-width="1" stroke-linecap="butt" stroke-linejoin="miter" stroke-miterlimit="10" stroke-dasharray="" stroke-dashoffset="0" style="mix-blend-mode: normal"><g><path d="M236.66385,191.70459c-0.15665,-0.19581 -0.19581,-4.03366 -0.11749,-8.49811l0.11749,-8.10648l-2.19306,0.11749c-1.48815,0.11749 -2.27139,-0.03916 -2.54552,-0.39162c-0.19581,-0.27413 -0.31329,-1.76228 -0.23497,-3.32875c0.11749,-2.1539 0.27413,-2.85881 0.78323,-3.05462c0.35245,-0.15665 3.75953,-0.35245 7.51906,-0.46994c8.4981,-0.23497 8.34145,-0.31329 8.34145,3.9945c0,3.72037 -0.43078,4.26863 -3.32875,3.87702l-1.87976,-0.27414v7.87152v7.83235l-1.21401,0.43078c-1.60563,0.54827 -4.93438,0.54827 -5.24768,0z" fill="#000000"/><path d="M239.05273,182.22745c0.31329,-9.3205 0.35245,-9.28134 -3.17211,-9.28134c-2.54552,0 -2.54552,0 -2.54552,-1.09653v-1.09653l4.22947,-0.43078c2.31054,-0.23497 5.20851,-0.35245 6.46169,-0.23497l2.27138,0.23497l-0.11748,1.40982l-0.11749,1.40982h-2.1539c-1.17486,0 -2.38886,0.15665 -2.62384,0.3133c-0.39162,0.23497 -0.5091,2.3497 -0.5091,8.34145v7.989h-1.01821h-0.97904z" fill="#f9f9f9"/></g></g></g></svg>