<svg version="1.1" xmlns="http://www.w3.org/2000/svg" xmlns:xlink="http://www.w3.org/1999/xlink" width="16.25213" height="24.491" viewBox="0,0,16.25213,24.491"><g transform="translate(-231.87393,-167.7545)"><g data-paper-data="{&quot;isPaintingLayer&quot;:true}" fill-rule="nonzero" stroke="none" stroke-width="1" stroke-linecap="butt" stroke-linejoin="miter" stroke-miterlimit="10" stroke-dasharray="" stroke-dashoffset="0" style="mix-blend-mode: normal"><g><path d="M233.9495,192.16402c-1.72312,-0.19581 -1.87976,-0.58742 -1.99725,-4.46444l-0.07832,-2.50635l2.50635,-0.35245l2.50635,-0.35246l-0.27413,-3.1721c-0.11749,-1.76228 -0.23497,-3.75953 -0.23497,-4.42528c0,-1.25317 -0.03916,-1.29234 -1.76228,-1.29234c-1.09653,0 -1.8406,-0.19581 -1.91893,-0.46994c-0.11749,-0.27413 -0.27413,-1.87976 -0.35245,-3.52456l-0.19581,-3.01546l1.40982,-0.43078c2.11474,-0.58743 13.51081,-0.5091 14.09824,0.07832c0.62659,0.62659 0.62659,5.63929 0,6.07007c-0.27413,0.15665 -1.37066,0.5091 -2.46719,0.70491l-1.95809,0.39162l-0.11749,4.42528l-0.11749,4.38612h1.52731c2.1539,0 2.58468,0.66575 2.62384,4.22947v2.9763l-1.56647,0.31329c-2.11474,0.35245 -9.82961,0.66575 -11.63105,0.43078z" fill="#000000"/><path d="M234.26279,188.87443c-0.31329,-1.56647 0.15665,-1.91893 2.38887,-1.91893c2.46719,0 2.62384,-0.58742 2.31054,-7.40157c-0.11749,-3.13294 -0.39162,-5.8351 -0.58743,-6.03091c-0.19581,-0.19581 -1.25317,-0.35245 -2.38887,-0.35245h-1.99725l0.11749,-1.44899l0.11749,-1.40982l5.79594,-0.11749l5.79594,-0.11749l-0.11749,1.29234c-0.11749,1.21401 -0.23497,1.29234 -2.07558,1.56647c-1.13569,0.15665 -2.1539,0.54827 -2.42803,0.93988c-0.54827,0.74407 -0.74407,10.80865 -0.27413,12.06182c0.15665,0.46994 0.78323,0.62659 2.15389,0.62659h1.91893v1.37066c0,1.60563 0,1.60563 -6.10923,1.95809l-4.34696,0.27413z" fill="#f9f9f9"/></g></g></g></svg>