<svg version="1.1" xmlns="http://www.w3.org/2000/svg" xmlns:xlink="http://www.w3.org/1999/xlink" width="30.92014" height="38.5915" viewBox="0,0,30.92014,38.5915"><g transform="translate(-366.50849,-164.94779)"><g data-paper-data="{&quot;isPaintingLayer&quot;:true}" fill="#000000" fill-rule="nonzero" stroke="none" stroke-width="1" stroke-linecap="butt" stroke-linejoin="miter" stroke-miterlimit="10" stroke-dasharray="" stroke-dashoffset="0" style="mix-blend-mode: normal"><g data-paper-data="{&quot;index&quot;:null}"><path d="M379.33449,164.96336c0,-0.0341 0.0558,-0.0093 0.1085,0.04649c0.031,0.0341 0.0651,0.0527 0.08059,0.0434c0.0279,-0.01549 0.18599,0.0589 0.25108,0.12089c0.0217,0.02169 0.08989,0.07129 0.14878,0.10539c0.06199,0.03719 0.14258,0.09299 0.17669,0.12709c0.03719,0.031 0.10539,0.08369 0.15188,0.11779c0.32857,0.23247 1.36697,1.24919 1.83813,1.79474c0.14569,0.17049 0.27278,0.31617 0.28208,0.32547c0.03719,0.0341 0.43396,0.56105 0.43396,0.57655c0,0.0062 0.02789,0.0465 0.06199,0.08369c0.0682,0.07129 0.53005,0.83692 0.65094,1.0756c0.0403,0.07749 0.10849,0.24178 0.15499,0.36887c0.04649,0.12708 0.09299,0.21388 0.10539,0.19218c0.0341,-0.05269 0.08059,-0.04029 0.08059,0.0217c0,0.0744 -0.11778,0.28207 -0.24797,0.44016c-0.0589,0.07129 -0.14569,0.19838 -0.18908,0.27897c-0.10539,0.19838 -0.36267,0.58274 -0.46806,0.69743c-0.04649,0.0496 -0.08059,0.09609 -0.07439,0.09919c0.00311,0.0062 0.11159,-0.0031 0.23868,-0.0217c0.33787,-0.0434 1.1097,-0.0372 1.48786,0.01549c0.69124,0.08989 1.19029,0.25418 1.99932,0.65404c0.37197,0.18288 0.97331,0.55485 1.0663,0.66024c0.0093,0.0124 0.09609,0.07749 0.19218,0.15189c0.16429,0.12089 0.79973,0.73773 0.98571,0.95471c0.61064,0.71293 0.96401,1.25849 1.31738,2.04271c0.29757,0.66334 0.44635,1.34527 0.40296,1.85983c-0.0124,0.14569 -0.0341,0.25728 -0.0496,0.24488c-0.0155,-0.00931 -0.0279,0.0155 -0.0279,0.0558c0,0.06819 0.02481,0.07749 0.33168,0.14258c0.66024,0.13638 0.89582,0.16428 1.72654,0.22317c0.92681,0.06199 2.83004,-0.0217 3.44068,-0.15499c0.30377,-0.0682 0.37507,-0.0992 0.17669,-0.07749c-0.15809,0.0155 -0.17049,-0.03099 -0.0124,-0.05889c0.13639,-0.02169 0.49286,-0.18599 0.69124,-0.32237c0.07439,-0.05269 0.14569,-0.08989 0.15188,-0.08059c0.0093,0.0062 -0.0124,0.0341 -0.04959,0.0589c-0.06509,0.0434 -0.18598,0.34716 -0.18908,0.47735c-0.0031,0.04029 -0.02789,0.10229 -0.06199,0.13949c-0.031,0.0341 -0.13329,0.20458 -0.22318,0.37507c-0.32238,0.60754 -0.51146,0.90511 -0.85553,1.36697c-0.52075,0.69744 -1.35147,1.43517 -2.03031,1.80403c-0.09299,0.0496 -0.23247,0.12709 -0.31307,0.17359c-0.26657,0.14879 -0.89582,0.42466 -1.21199,0.53005c-0.49905,0.16738 -1.00431,0.25728 -1.50336,0.27278c-0.18599,0.0062 -0.22008,0.01549 -0.20458,0.05269c0.0093,0.0248 0.10229,0.26968 0.20458,0.54246c0.10229,0.26968 0.19838,0.52075 0.21698,0.55175c0.04649,0.08679 0.31617,0.19528 0.61064,0.23868c0.60444,0.09299 1.45377,-0.05269 2.2039,-0.37816c0.22628,-0.09609 0.69743,-0.35027 0.85862,-0.46186c0.07129,-0.0496 0.13639,-0.08989 0.14258,-0.08989c0.0217,0 0.62304,-0.40606 0.78113,-0.53005c0.20767,-0.15808 0.47426,-0.37507 0.62304,-0.50835c0.09919,-0.08679 0.44946,-0.42776 0.57034,-0.56105l0.13949,-0.14568l-0.12089,0.09609c-0.17359,0.13638 -0.18288,0.09299 -0.01549,-0.07439c0.25727,-0.26038 0.44636,-0.48976 0.51765,-0.63235c0.06509,-0.12709 0.27897,-0.35647 0.30687,-0.32857c0.0589,0.0589 0.031,1.56225 -0.0372,1.97762c-0.0062,0.04029 -0.0279,0.22319 -0.04649,0.41226c-0.08059,0.79663 -0.30997,1.92183 -0.49595,2.44878c-0.03409,0.10229 -0.062,0.18908 -0.062,0.19528c0.00311,0.0031 -0.02479,0.08679 -0.06199,0.18598c-0.03719,0.09609 -0.0713,0.18909 -0.07749,0.20768c-0.0093,0.0496 -0.04649,0.14259 -0.12399,0.32547c-0.11469,0.26657 -0.14879,0.35336 -0.15809,0.40296c-0.0062,0.0248 -0.0217,0.04959 -0.0403,0.05579c-0.01549,0.0062 -0.0248,0.0279 -0.0155,0.0496c0.0248,0.06509 -0.17668,0.41846 -0.39986,0.70054c-0.11469,0.14258 -0.20769,0.27898 -0.20769,0.29757c0,0.02169 -0.02169,0.04339 -0.04649,0.05579c-0.02479,0.00931 -0.04649,0.0372 -0.04649,0.0651c0,0.0248 -0.00931,0.04649 -0.0248,0.04649c-0.0124,0 -0.05579,0.05269 -0.09919,0.11779c-0.04339,0.06199 -0.09299,0.12708 -0.11469,0.13949c-0.0217,0.0124 -0.0403,0.0372 -0.0403,0.05269c0,0.01549 -0.031,0.06199 -0.0713,0.10229c-0.09299,0.09609 -0.17668,0.20459 -0.17668,0.22318c0,0.06509 -0.77493,0.82452 -0.97331,0.95471c-0.04649,0.031 -0.10848,0.08059 -0.13948,0.10849c-0.06509,0.06509 -0.44636,0.31927 -0.59205,0.39366c-0.10849,0.05579 -0.10849,0.05579 -0.031,0.07749c0.08679,0.0248 0.28517,0.12088 0.30997,0.15188c0.0093,0.0124 0.10539,0.093 0.21698,0.17979c0.11158,0.08989 0.22938,0.19528 0.26657,0.23247c0.14879,0.16118 0.39366,0.48355 0.47116,0.61374c0.04339,0.07749 0.09609,0.16118 0.11469,0.18598c0.04339,0.05269 0.26347,0.45877 0.37816,0.69124c0.21388,0.43706 0.48356,1.23058 0.61065,1.78853c0.11779,0.52385 0.25727,1.27089 0.23557,1.27089c-0.031,0 -0.12399,-0.10849 -0.12399,-0.14569c0,-0.0496 -0.48356,-0.48976 -0.79043,-0.72224c-0.15499,-0.11469 -0.32237,-0.24488 -0.37196,-0.29137c-0.0527,-0.0434 -0.10229,-0.08059 -0.11469,-0.08059c-0.0124,0 -0.04029,-0.0186 -0.06509,-0.0434c-0.0248,-0.0248 -0.13948,-0.10849 -0.25727,-0.18598c-0.30997,-0.20767 -0.36887,-0.24798 -0.37817,-0.27588c-0.0062,-0.0124 -0.0248,-0.0217 -0.0434,-0.0217c-0.01549,0 -0.10229,-0.04649 -0.18908,-0.10539c-0.30377,-0.19838 -0.58585,-0.35957 -0.62924,-0.35957c-0.0248,0 -0.0434,-0.01241 -0.0434,-0.0279c0,-0.01549 -0.031,-0.04029 -0.07129,-0.05269c-0.03719,-0.00931 -0.09299,-0.0403 -0.12089,-0.0651c-0.13019,-0.11469 -0.09299,0 0.08989,0.28517c0.10849,0.17049 0.21389,0.33787 0.22938,0.37197c0.0155,0.0341 0.08369,0.14569 0.15189,0.24798c0.0682,0.10229 0.17978,0.29137 0.25418,0.41846c0.0713,0.12709 0.15809,0.27588 0.19528,0.32548c0.03409,0.05269 0.15809,0.28207 0.27278,0.51145c0.11779,0.22938 0.22628,0.44016 0.24178,0.46496c0.08059,0.13638 0.38126,0.81832 0.53625,1.22438c0.09919,0.25418 0.19219,0.49286 0.20768,0.52696c0.0589,0.13019 0.23868,0.71913 0.26038,0.84312c0.0124,0.07439 0.031,0.13948 0.04649,0.14878c0.0186,0.0124 0.04339,0.13949 0.07749,0.40296c0.031,0.22318 0.05579,0.36886 0.09299,0.49595c0.02479,0.0837 0.0465,0.18288 0.0465,0.21698c0.0031,0.16429 0.0279,0.45876 0.04339,0.53005c0.0124,0.04649 0.0186,0.25728 0.0186,0.47426c-0.0031,0.21388 -0.0031,0.41845 -0.0031,0.45255c0.0031,0.0589 -0.04649,0.53005 -0.07749,0.75943c-0.0186,0.11779 -0.09919,0.44326 -0.13329,0.54245c-0.01549,0.0341 -0.04959,0.13949 -0.08059,0.23248c-0.0279,0.09299 -0.0682,0.20458 -0.08679,0.24798c-0.0186,0.0434 -0.0341,0.08369 -0.0341,0.09299c-0.0093,0.03719 -0.18288,0.36886 -0.26347,0.49595l-0.0837,0.13949l-12.04859,0.0093l-12.04859,0.0062l-0.07439,-0.14879c-0.17669,-0.34717 -0.24488,-0.65094 -0.24488,-1.1066c-0.0031,-0.55485 0.16118,-1.20579 0.47735,-1.87222c0.08369,-0.17668 0.15189,-0.32547 0.15189,-0.33167c0,-0.0062 -0.0713,-0.1178 -0.15809,-0.25108c-0.08679,-0.13329 -0.22628,-0.36886 -0.30998,-0.52695c-0.08369,-0.15499 -0.19218,-0.30687 -0.23557,-0.33787c-0.43706,-0.28518 -1.37628,-1.73894 -1.87223,-2.89513c-0.41226,-0.96091 -0.83693,-2.73705 -0.67884,-2.83624c0.0155,-0.0093 0.031,0.00929 0.031,0.04029c0,0.0744 0.22628,0.30068 0.63544,0.63235c0.11779,0.09609 0.25727,0.21388 0.30997,0.26037c0.0496,0.0434 0.17669,0.14569 0.27898,0.22318c0.10229,0.07749 0.22008,0.17669 0.26348,0.21698c0.0403,0.04029 0.10228,0.08679 0.13329,0.10229c0.0527,0.031 0.05579,0.0186 0.0372,-0.17978c-0.04649,-0.56105 -0.05579,-0.64474 -0.09299,-0.73463c-0.11779,-0.28207 -0.15188,-1.27088 -0.0589,-1.76994c0.0527,-0.29448 0.16118,-0.69744 0.24178,-0.90512c0.0279,-0.0744 0.07129,-0.19218 0.09609,-0.26038c0.10849,-0.29137 0.58585,-1.0291 0.80593,-1.25229c0.25727,-0.26038 0.56724,-0.42466 1.0229,-0.54245c0.29447,-0.07749 0.35957,-0.08679 0.67264,-0.08989l0.27278,-0.0031l-0.0589,-0.14879c-0.08679,-0.21698 -0.13948,-0.51455 -0.17978,-0.98261c-0.03719,-0.43396 -0.0248,-1.70175 0.0186,-2.01482c0.0217,-0.15499 0.04649,-0.33476 0.05269,-0.40296c0.0093,-0.06819 0.0279,-0.17358 0.0403,-0.23248c0.0155,-0.0589 0.0279,-0.13019 0.031,-0.15499c0.0031,-0.15808 0.30066,-1.15619 0.45255,-1.52816c0.01549,-0.03719 0.0062,-0.05269 -0.03409,-0.05269c-0.12399,0 -0.49285,-0.16118 -0.84002,-0.35957c-0.24798,-0.14569 -1.0043,-0.66954 -1.1128,-0.76873c-0.0186,-0.0186 -0.11779,-0.10229 -0.21698,-0.18908c-0.29447,-0.24798 -0.97021,-0.94231 -1.21199,-1.24299c-0.12399,-0.15188 -0.30067,-0.37196 -0.39676,-0.48976c-0.09299,-0.11779 -0.17048,-0.22319 -0.17048,-0.23868c0,-0.0124 -0.0186,-0.0434 -0.0403,-0.0651c-0.04649,-0.0434 -0.09919,-0.12399 -0.39366,-0.57344c-0.22318,-0.34097 -0.58275,-1.02291 -0.76563,-1.44137c-0.20768,-0.48355 -0.21078,-0.49285 -0.33477,-0.76873c-0.062,-0.14568 -0.13328,-0.30687 -0.15808,-0.35646c-0.08989,-0.20768 -0.23868,-0.63235 -0.29757,-0.85243c-0.14878,-0.55794 -0.24178,-1.36387 -0.18908,-1.62114l0.0186,-0.0868l0.08059,0.0713c0.19838,0.17668 0.58275,0.43706 0.96401,0.65094c0.07749,0.0434 0.18908,0.10539 0.24797,0.13949c0.18908,0.10539 0.84623,0.43086 0.96092,0.47426c0.0589,0.0217 0.12089,0.05269 0.13948,0.0651c0.14569,0.10539 1.74514,0.57035 2.1698,0.63234c0.45256,0.0651 0.68813,0.09299 0.73463,0.08369c0.0496,-0.0093 0.07439,-0.07749 0.09919,-0.26967c0.09609,-0.73773 0.54555,-2.32479 0.73773,-2.59756c0.0341,-0.04649 0.06819,-0.14569 0.07749,-0.21698c0.0217,-0.16738 0.06819,-0.25418 0.22318,-0.41536c0.38437,-0.40296 1.39177,-0.80593 2.23489,-0.89272c0.18598,-0.0186 0.21078,-0.031 0.27587,-0.12709c0.12709,-0.18598 0.52695,-0.53935 0.83382,-0.73773c0.51146,-0.32857 1.14069,-0.57035 2.03652,-0.77803c0.41226,-0.09609 0.56415,-0.11779 0.89892,-0.12399c0.78733,-0.0186 1.49407,0.0744 2.06441,0.26658c0.50525,0.16738 1.1066,0.46185 1.27088,0.61994c0.07439,0.07129 0.13948,0.11159 0.14568,0.09299c0.0341,-0.10229 -0.55175,-1.29257 -1.43516,-2.91683c-0.31928,-0.58894 -0.42156,-0.78113 -0.54865,-1.01361c-0.06509,-0.12399 -0.14568,-0.26968 -0.17668,-0.32547c-0.0341,-0.05579 -0.08989,-0.15808 -0.12399,-0.22628c-0.0682,-0.13329 -0.12089,-0.22628 -0.41536,-0.72223c-0.26038,-0.43086 -0.26348,-0.44016 -0.49906,-0.82143c-0.11159,-0.18288 -0.20458,-0.34097 -0.20458,-0.34717zM376.34636,177.16073c-0.0093,0 -0.08679,0.22008 -0.17048,0.48665c-0.08369,0.26968 -0.21078,0.69744 -0.28208,0.95471c-0.14259,0.50835 -0.22318,0.76873 -0.28827,0.96091c-0.0248,0.0682 -0.05579,0.17979 -0.06509,0.24798l-0.0217,0.12399l0.12399,-0.13949c0.0682,-0.07749 0.12399,-0.15189 0.12709,-0.16738c0.0031,-0.07749 0.41536,-0.55175 0.64164,-0.73773l0.09919,-0.0806l-0.10229,-0.24178c-0.05579,-0.13638 -0.1116,-0.27277 -0.12709,-0.30687c-0.0155,-0.0341 -0.031,-0.09609 -0.0341,-0.13949c-0.0062,-0.0434 -0.0186,-0.12399 -0.031,-0.17979c-0.01549,-0.07749 -0.0093,-0.09919 0.031,-0.09919c0.0279,0 0.0403,-0.0186 0.031,-0.0434c-0.01549,-0.04029 0.0186,-0.31617 0.0682,-0.55485c0.0124,-0.04649 0.0124,-0.08369 0,-0.08369zM380.42559,177.87368c-0.0062,0.0434 -0.02479,0.093 -0.03719,0.10849c-0.02479,0.031 -0.15188,0.55485 -0.27587,1.13139c-0.0806,0.37816 -0.08679,0.41845 -0.10849,0.79042c-0.0124,0.17048 -0.0279,0.39366 -0.0341,0.49595c-0.02479,0.34407 -0.0465,0.77183 -0.0527,1.1531l-0.0093,0.37507l-0.10539,-0.11159c-0.28208,-0.30687 -0.80902,-1.1128 -0.98571,-1.50956c-0.20148,-0.45256 -0.23248,-0.52385 -0.24178,-0.55795c-0.0031,-0.01549 -0.01551,-0.05579 -0.031,-0.08679c-0.0124,-0.0279 -0.04959,-0.13329 -0.08059,-0.23247c-0.031,-0.09609 -0.05579,-0.15499 -0.0589,-0.13019c-0.0186,0.27588 -0.06199,0.54245 -0.08369,0.54865c-0.03719,0.0124 -0.0155,0.90201 0.02479,0.9733c0.03409,0.06819 0.0031,0.09609 -0.0713,0.0558c-0.031,-0.01549 -0.07129,-0.02169 -0.08679,-0.01239c-0.0589,0.03719 -0.23248,-0.09609 -0.52695,-0.40296c-0.30687,-0.31928 -0.48046,-0.53005 -0.56105,-0.68503c-0.0403,-0.0744 -0.08059,-0.13639 -0.08989,-0.13639c-0.0093,0.0031 -0.0527,0.05579 -0.09609,0.12089c-0.08989,0.13019 -0.38126,0.36577 -0.57654,0.46806c-0.0682,0.0341 -0.25418,0.09919 -0.41226,0.14258c-0.26038,0.0682 -0.29447,0.0713 -0.35957,0.0279c-0.03719,-0.0248 -0.08059,-0.07749 -0.09299,-0.11469c-0.0155,-0.0558 -0.031,-0.0248 -0.07749,0.14568c-0.0341,0.12088 -0.0682,0.26347 -0.07749,0.32237c-0.0093,0.0589 -0.031,0.13639 -0.0434,0.17668c-0.031,0.0744 0.0217,0.13638 0.27587,0.33477l0.13329,0.10229l0.14568,-0.05269c0.07749,-0.03099 0.19529,-0.07749 0.25727,-0.10539c0.40916,-0.17668 1.2089,0 1.60876,0.35337c0.09299,0.08679 0.09609,0.09919 0.11469,0.39366c0.0093,0.16738 0.0186,0.44326 0.0186,0.61374c0.0031,0.30068 0,0.31927 -0.10229,0.48666c-0.07749,0.13019 -0.14258,0.19218 -0.24797,0.24487c-0.15499,0.07749 -0.38437,0.08989 -0.54556,0.0279c-0.06509,-0.0248 -0.09609,-0.0248 -0.10229,-0.0031c-0.0062,0.0186 -0.03099,0.0341 -0.05269,0.0341c-0.06819,0 -0.51456,0.15808 -0.65404,0.23247c-0.07439,0.04029 -0.14259,0.06199 -0.15189,0.04959c-0.031,-0.0496 0.46186,-0.26967 0.74393,-0.32857l0.08989,-0.0186l-0.08989,-0.04649c-0.12399,-0.0589 -0.21698,-0.20458 -0.27897,-0.43086c-0.06199,-0.22628 -0.09919,-1.1035 -0.05269,-1.34528l0.031,-0.16429l-0.17668,0.0217c-0.11159,0.0124 -0.27898,0.07129 -0.46806,0.16428c-0.21698,0.10539 -0.34097,0.14569 -0.47425,0.15499c-0.12709,0.0093 -0.17669,0.02479 -0.17669,0.05889c0,0.0248 -0.0093,0.0372 -0.0248,0.031c-0.0124,-0.00931 -0.0186,0.09919 -0.0124,0.23557c0.0062,0.22009 -0.0248,0.62615 -0.0682,0.88962c-0.0589,0.36266 -0.06819,1.05391 -0.0186,1.47857c0.04339,0.39057 0.22008,0.92991 0.28827,0.88652c0.0186,-0.00931 0.0217,-0.0031 0.0093,0.0155c-0.0124,0.0186 0.0093,0.09299 0.04649,0.16428c0.18908,0.37507 0.66644,0.89272 0.96711,1.0539c0.10539,0.0558 0.19838,0.10849 0.20768,0.11779c0.04339,0.05579 0.35027,0.25727 0.54245,0.35957c0.63854,0.33477 1.42896,0.57345 2.44877,0.73773c0.08989,0.01549 0.88963,-0.12089 1.23989,-0.21078c0.55795,-0.14258 1.40418,-0.41536 1.76374,-0.56725c0.28208,-0.11469 0.37197,-0.17048 0.50835,-0.30997c0.09299,-0.0899 0.17358,-0.15809 0.18288,-0.15189c0.0186,0.0186 -0.07129,0.19218 -0.15808,0.30998c-0.03719,0.0496 -0.0651,0.12709 -0.0651,0.17358c0,0.0589 -0.05269,0.14568 -0.16738,0.27587c-0.08989,0.10539 -0.17978,0.19218 -0.20148,0.19218c-0.0186,0 -0.15189,0.12089 -0.29757,0.26968c-0.14569,0.14569 -0.24178,0.25727 -0.21388,0.24797c0.0279,-0.0093 0.21698,-0.07439 0.41846,-0.14569c0.20458,-0.07129 0.45256,-0.17358 0.55485,-0.22627c0.10229,-0.0496 0.22008,-0.11159 0.26348,-0.13329c0.04339,-0.0217 0.24487,-0.11159 0.44946,-0.19838c0.20458,-0.08989 0.37507,-0.16429 0.37817,-0.16738c0.0031,-0.0031 -0.0496,-0.0744 -0.11779,-0.15809c-0.60755,-0.75943 -0.70983,-1.65525 -0.32237,-2.82074c0.13329,-0.39987 0.53315,-1.19339 0.60444,-1.19649c0.0279,0 0.0155,-0.0155 -0.031,-0.0372c-0.13948,-0.0651 -0.42776,-0.34097 -0.53005,-0.50835l-0.0651,-0.10229h-0.25108c-0.30997,0 -0.39366,-0.02169 -0.39366,-0.09609c0,-0.03719 -0.06819,-0.09609 -0.19218,-0.16738c-0.16739,-0.09919 -0.46805,-0.23248 -0.52385,-0.23248c-0.0124,0 0,0.08059 0.0217,0.17668c0.0217,0.09609 0.04959,0.30377 0.06199,0.45876c0.0341,0.46186 -0.09919,0.79663 -0.39366,0.98571c-0.10849,0.07129 -0.23558,0.09609 -0.49285,0.09919c-0.19218,0 -0.26348,-0.0155 -0.40606,-0.08679c-0.27898,-0.13638 -0.47425,-0.34097 -0.55485,-0.57964c-0.08679,-0.25108 -0.11159,-0.76874 -0.05579,-1.03531c0.03719,-0.17049 0.04959,-0.18598 0.17978,-0.25418c0.07749,-0.04029 0.17359,-0.07749 0.21698,-0.08679c0.04339,-0.0093 0.12708,-0.02791 0.19218,-0.0434c0.19528,-0.0496 0.66954,-0.0217 0.95471,0.0558c0.30997,0.0837 0.84312,0.33167 0.98881,0.46186l0.10229,0.09299l0.17669,-0.14568l0.17668,-0.14569l-0.01239,-0.16429c-0.0093,-0.08679 0,-0.16118 0.01549,-0.16118c0.0155,0 0.031,-0.0496 0.0341,-0.1147c0.0124,-0.18598 0.12089,-0.52385 0.23248,-0.73773c0.0589,-0.11159 0.0992,-0.20768 0.08679,-0.21388c-0.0093,-0.0031 -0.16429,-0.04649 -0.34407,-0.09609c-0.17978,-0.0465 -0.35336,-0.09609 -0.38747,-0.1085c-0.22628,-0.0899 -0.33477,-0.12398 -0.35027,-0.10849c-0.0093,0.0093 0,0.01549 0.0186,0.01549c0.01549,0 0.06199,0.04961 0.09919,0.1116c0.08679,0.13638 0.0558,0.22937 -0.09919,0.31307c-0.15499,0.08059 -0.59205,0.07129 -0.90202,-0.0217c-0.13019,-0.03719 -0.23868,-0.08059 -0.23868,-0.09299c0,-0.0124 -0.0341,-0.0341 -0.0744,-0.0434c-0.0403,-0.0093 -0.14879,-0.07439 -0.23868,-0.14258c-0.08989,-0.0682 -0.17358,-0.12709 -0.18288,-0.13019c-0.04339,-0.0186 -0.31307,-0.39986 -0.35647,-0.50215c-0.02479,-0.0589 -0.0465,-0.17979 -0.0465,-0.26658c0,-0.13638 0.0155,-0.17359 0.0899,-0.25108c0.10539,-0.10229 0.13329,-0.10849 0.31307,-0.0434c0.07129,0.0248 0.13639,0.0465 0.13949,0.0465c0.00621,0 -0.08059,-0.0868 -0.19218,-0.19529c-0.19218,-0.17979 -0.59515,-0.73773 -0.64784,-0.89582l-0.0248,-0.0713l-0.0124,0.07749zM396.41081,178.16813c-0.10539,0.0496 -0.10539,0.04959 -0.0124,0.031c0.0496,-0.0124 0.1054,-0.0341 0.12089,-0.04959c0.04339,-0.04029 0.0093,-0.0341 -0.1085,0.0186zM382.23271,179.69939c0.07439,0.07129 0.16739,0.12708 0.22938,0.13949c0.0589,0.0093 0.09919,0.0124 0.08989,0.0031c-0.0217,-0.0248 -0.40916,-0.26038 -0.42776,-0.26347c-0.0093,0 0.0403,0.05269 0.10849,0.12089zM382.72867,179.91947c-0.0186,-0.03099 -0.07749,-0.0434 -0.07749,-0.0186c0,0.0062 0.0217,0.0217 0.0496,0.031c0.0248,0.00931 0.0372,0.00619 0.0279,-0.0124zM387.32866,180.63241c-0.0093,0 -0.0279,0.06509 -0.0372,0.14568c-0.0093,0.0837 -0.0279,0.17669 -0.0403,0.21079c-0.0124,0.0341 -0.0093,0.05269 0.0031,0.03719c0.01549,-0.0124 0.05579,-0.0031 0.08989,0.0217c0.03719,0.0217 0.11469,0.05269 0.17359,0.0651c0.29757,0.06509 0.57344,0.38436 0.65404,0.75633c0.05579,0.26968 -0.0496,0.80903 -0.16119,0.80903c-0.0217,0 -0.0248,-0.02169 -0.0124,-0.05579c0.05579,-0.14569 0.0837,-0.55485 0.0496,-0.71914c-0.07439,-0.35957 -0.33787,-0.66024 -0.66024,-0.75633c-0.08989,-0.0248 -0.16429,-0.04339 -0.16739,-0.04029c-0.0031,0.0031 -0.03409,0.06509 -0.0682,0.13329l-0.06509,0.13019l0.0682,0.01859c0.29757,0.08059 0.47116,0.66334 0.35957,1.20269c-0.0527,0.24797 -0.11469,0.42156 -0.23868,0.66024c-0.11779,0.22008 -0.14569,0.26038 -0.29447,0.43706l-0.08989,0.10539l0.10539,0.14568c0.0589,0.0837 0.12089,0.18599 0.14259,0.23248c0.07439,0.17359 0.19838,0.08989 0.53005,-0.35337c0.33477,-0.45255 0.53935,-0.89581 0.63854,-1.38557c0.13329,-0.65404 -0.08369,-1.14999 -0.69744,-1.60565c-0.14569,-0.10539 -0.27277,-0.19528 -0.28207,-0.19528zM375.22116,181.22135c-0.0031,0 -0.0217,0.0589 -0.0403,0.13019c-0.0279,0.09609 -0.04339,0.11779 -0.06509,0.08369c-0.0217,-0.0341 -0.0279,-0.03099 -0.0279,0.0155c0,0.0496 0.0186,0.05579 0.16119,0.0403c0.28208,-0.0279 0.29447,-0.04649 0.12709,-0.16429c-0.08369,-0.0589 -0.15189,-0.10539 -0.15499,-0.10539zM396.89747,181.43834c-0.0062,0 -0.03099,0.0248 -0.05269,0.05269c-0.0403,0.0496 -0.03719,0.05269 0.0093,0.01239c0.0527,-0.04029 0.0682,-0.06509 0.04339,-0.06509zM386.81099,181.68321c-0.13019,0.13019 -0.27587,0.26658 -0.32236,0.30377c-0.04339,0.03719 -0.08989,0.0589 -0.09919,0.0496c-0.0093,-0.0124 -0.0186,-0.0062 -0.0186,0.0124c0,0.03719 -0.13329,0.0961 -0.26348,0.11159c-0.06509,0.0093 -0.0496,0.0124 0.04649,0.0155c0.31307,0.0093 0.70983,-0.12709 1.0167,-0.34717c0.08989,-0.06509 0.16119,-0.10849 0.16119,-0.09919c0,0.0093 -0.02479,0.07749 -0.05269,0.14879c-0.08679,0.22318 -0.25727,0.46496 -0.47735,0.68194c-0.19838,0.19218 -0.21389,0.21698 -0.20769,0.33167c0.0031,0.13638 -0.05889,0.25417 -0.17668,0.33167c-0.04339,0.0279 -0.07749,0.06199 -0.07749,0.0744c0,0.0124 0.0527,0.0589 0.11469,0.09919c0.06509,0.0434 0.18598,0.14258 0.27277,0.22008c0.08369,0.07749 0.16118,0.13639 0.17359,0.12709c0.04339,-0.0248 0.28517,-0.45255 0.36887,-0.65404c0.09919,-0.23868 0.18599,-0.61994 0.18599,-0.82762c0,-0.34717 -0.14569,-0.70364 -0.31617,-0.77493c-0.08989,-0.04029 -0.0961,-0.03409 -0.32858,0.19529zM383.53769,181.84129c-0.0031,0 -0.08679,0.0434 -0.18908,0.093c-0.18288,0.08679 -0.18908,0.13329 -0.01549,0.11469c0.16118,-0.0217 0.24797,-0.0589 0.24797,-0.11159c0,-0.0434 -0.0279,-0.09919 -0.04339,-0.09609zM379.63515,187.84544c0.0217,0.0062 0.06509,0.0062 0.09299,0c0.031,-0.0093 0.0124,-0.0155 -0.03719,-0.0155c-0.0527,0 -0.07439,0.0062 -0.0558,0.0155zM376.04876,188.07796c-0.27897,-0.04029 -0.74393,-0.0155 -1.057,0.05889c-0.48046,0.11158 -0.97331,0.34717 -1.28638,0.61374c-0.0527,0.0434 -0.13329,0.11159 -0.18288,0.14879c-0.13948,0.10849 -0.1116,0.11778 0.47425,0.14879c0.42776,0.02169 0.55175,0.05579 0.79353,0.21698c0.26657,0.17668 0.27277,0.22317 0.01239,0.08059c-0.30377,-0.16738 -0.37507,-0.18598 -0.76873,-0.20458c-0.60444,-0.031 -1.1624,-0.08059 -1.24919,-0.11469c-0.10229,-0.04029 -0.75013,0.01239 -1.13759,0.08679c-0.70364,0.13949 -1.03221,0.33477 -1.50336,0.89272c-0.21698,0.25418 -0.26968,0.35336 -0.42776,0.79352c-0.15188,0.42156 -0.18598,0.55174 -0.17978,0.70363c0.0031,0.05579 -0.0093,0.10229 -0.0248,0.10229c-0.01549,0 -0.0217,0.02479 -0.0155,0.05269c0.0093,0.03099 -0.00619,0.19528 -0.031,0.36576c-0.03719,0.23868 -0.0434,0.53006 -0.0341,1.28638c0.0062,0.53626 0.0217,1.03841 0.031,1.1159c0.0093,0.07749 0.031,0.27897 0.0496,0.44946c0.03719,0.33477 0.21388,1.26778 0.28827,1.51576c0.0248,0.0837 0.04029,0.16428 0.03099,0.17668c-0.01549,0.0248 0.0403,0.35957 0.13329,0.80283c0.02479,0.12709 0.05579,0.26658 0.06199,0.30998c0.07439,0.41846 0.24797,0.95781 0.44326,1.37937c0.30687,0.66334 0.45566,0.92372 0.51455,0.90202c0.031,-0.0124 0.0434,0.00619 0.0434,0.05889c0,0.0434 0.02479,0.10849 0.05269,0.14569c0.12089,0.14569 0.39366,0.44326 0.43396,0.46806c0.0217,0.0124 0.0403,0.0372 0.0403,0.05269c0,0.0558 0.52695,0.52696 0.70363,0.63235c0.0248,0.0124 0.05269,-0.0279 0.08369,-0.13019c0.0248,-0.0837 0.0589,-0.17978 0.0744,-0.21078c0.0186,-0.0341 0.0806,-0.17669 0.13639,-0.32237c0.08679,-0.21698 0.09918,-0.28517 0.08059,-0.38746c-0.0279,-0.15189 -0.0217,-0.82763 0.0093,-0.97641c0.0124,-0.0589 0.0527,-0.25417 0.08989,-0.43396c0.03719,-0.17979 0.11469,-0.46806 0.17359,-0.64165c0.0589,-0.17359 0.10539,-0.34407 0.10539,-0.37816c0,-0.0341 0.0124,-0.07129 0.03099,-0.08059c0.0155,-0.00931 0.031,-0.0031 0.031,0.0155c0,0.0186 0.01241,0.02479 0.031,0.01549c0.0527,-0.0341 0.0341,-0.07749 -0.0341,-0.07749c-0.09609,0 -0.24488,-0.16428 -0.24488,-0.27277c0,-0.0496 0.031,-0.15188 0.0713,-0.22938l0.07129,-0.13949l-0.12089,-0.0682c-0.25727,-0.14879 -0.74083,-0.51145 -0.76563,-0.57344c-0.0124,-0.0341 -0.0527,-0.09299 -0.08989,-0.12709c-0.19218,-0.17049 -0.56105,-0.77493 -0.62614,-1.01981c-0.0124,-0.0527 -0.04649,-0.17979 -0.07439,-0.28208c-0.10849,-0.42156 -0.0527,-0.99811 0.15188,-1.54366c0.04649,-0.11469 0.0806,-0.21388 0.0806,-0.22008c0,-0.0031 -0.0558,-0.02479 -0.12089,-0.04649c-0.07439,-0.02169 -0.15498,-0.07749 -0.20148,-0.13639c-0.07439,-0.093 -0.07749,-0.11779 -0.07749,-0.50215c0,-0.22008 0,-0.41846 0,-0.43706c-0.00311,-0.0186 -0.031,-0.0651 -0.0651,-0.10539c-0.10849,-0.12399 -0.06819,-0.13329 0.0682,-0.0155c0.17978,0.15188 0.40916,0.25417 0.63234,0.27897c0.17048,0.0217 0.19528,0.0155 0.26657,-0.0496c0.0403,-0.04029 0.12399,-0.15499 0.18288,-0.25418c0.05579,-0.09609 0.11469,-0.17668 0.12709,-0.17668c0.031,0 0.0341,-0.0155 -0.05269,0.22938c-0.04339,0.11779 -0.07749,0.25727 -0.07749,0.30687c0,0.05269 0.05579,0.19528 0.12399,0.31927c0.12089,0.22318 0.15498,0.35336 0.09299,0.35336c-0.0186,0 -0.06199,-0.0496 -0.09609,-0.10849c-0.03719,-0.0589 -0.08059,-0.10849 -0.09919,-0.10849c-0.0217,0 -0.06819,-0.0093 -0.10229,-0.0186c-0.0806,-0.02169 -0.11159,0.0372 -0.12089,0.24798c-0.0062,0.08059 -0.0248,0.16429 -0.0434,0.18288c-0.02479,0.0248 0.0062,0.0496 0.11469,0.08989c0.18288,0.07129 0.26038,0.0744 0.17359,0.0093c-0.05579,-0.0434 -0.0496,-0.0434 0.0496,-0.0217c0.23248,0.04649 0.56725,0.0248 0.71604,-0.0496c0.20148,-0.09919 0.40916,-0.30687 0.38746,-0.39057c-0.0496,-0.20458 -0.12089,-1.28018 -0.08679,-1.30188c0.031,-0.0186 0.19528,0.96711 0.20148,1.20269c0.0031,0.09609 0.0155,0.17359 0.0279,0.17359c0.0155,0 0.0248,-0.0155 0.0248,-0.0341c0,-0.0186 0.02169,-0.0279 0.04649,-0.0186c0.0589,0.0248 0.32857,-0.16119 0.55175,-0.37507c0.17359,-0.17049 0.17978,-0.18288 0.16429,-0.30067c-0.08989,-0.61684 -0.13329,-1.22439 -0.08989,-1.22439c0.0186,0 0.0403,0.06509 0.0527,0.14568c0.031,0.22628 0.11159,0.97641 0.11159,1.057c0,0.04029 0.01241,0.06199 0.031,0.05269c0.04339,-0.0279 0.04029,0.0248 -0.0062,0.07129c-0.06509,0.0651 0.0217,0.0434 0.22938,-0.06199c0.29757,-0.14879 0.48665,-0.38127 0.44325,-0.54865c-0.0496,-0.18908 -0.11158,-0.97331 -0.10539,-1.35147l0.0031,-0.24797l0.0279,0.18598c0.01549,0.10229 0.0403,0.22008 0.0589,0.26347c0.01549,0.0434 0.03719,0.13019 0.04339,0.19839c0.0093,0.0651 0.0186,0.12089 0.0248,0.12709c0.02479,0.0248 0.39986,0.16738 0.53625,0.20458c0.09609,0.0248 0.31927,0.0434 0.57344,0.0434c0.45875,0 0.61994,-0.0155 0.61994,-0.05579c0,-0.01549 0.0217,-0.0217 0.0465,-0.0124c0.0217,0.0093 0.07129,-0.0062 0.10849,-0.0341c0.0589,-0.0496 0.062,-0.06819 0.03719,-0.23868c-0.0186,-0.10229 -0.0186,-0.20149 -0.00619,-0.21698c0.0124,-0.0186 0.03409,-0.08059 0.04649,-0.13949c0.0124,-0.0589 0.062,-0.16118 0.11469,-0.22627c0.07749,-0.09609 0.08369,-0.1178 0.04029,-0.13329c-0.0496,-0.0186 -0.09299,0.0031 -0.09299,0.0465c0,0.0124 -0.05579,0.07749 -0.12399,0.14568c-0.06819,0.06819 -0.14878,0.15189 -0.17668,0.19218c-0.08679,0.10849 -0.28827,0.09609 -0.44946,-0.0279c-0.13949,-0.10849 -0.14259,-0.16118 -0.0248,-0.29137c0.0403,-0.04029 0.06509,-0.08369 0.05269,-0.08989c-0.0124,-0.0062 -0.11159,-0.0279 -0.22008,-0.0496c-0.40296,-0.07129 -1.0818,-0.33477 -1.1128,-0.43086c-0.0093,-0.0279 0.0155,-0.02479 0.0899,0.0155c0.16118,0.08059 0.77802,0.29447 0.79972,0.27587c0.0093,-0.0093 0,-0.02789 -0.0186,-0.04029c-0.02479,-0.01549 0.0124,-0.09919 0.11779,-0.26347c0.08369,-0.13329 0.15189,-0.24488 0.15189,-0.25108c0,-0.0062 0.09919,-0.18288 0.22318,-0.39366c0.12089,-0.21078 0.25418,-0.44326 0.29448,-0.51455l0.07439,-0.12709l-0.17668,-0.05269c-0.09919,-0.0279 -0.24177,-0.05579 -0.31927,-0.06509c-0.07749,-0.0062 -0.22008,-0.0217 -0.31307,-0.03719zM386.54132,188.42817c-0.25108,-0.0496 -1.37318,-0.0403 -1.58086,0.0124c-0.06819,0.01549 -0.17358,0.0403 -0.23247,0.0496c-0.18598,0.031 -0.48046,0.11158 -0.49596,0.13638c-0.01549,0.0217 -0.40296,0.23868 -0.69123,0.38437c-0.062,0.031 -0.11469,0.0713 -0.11469,0.08679c0,0.0155 -0.0155,0.0279 -0.0372,0.0279c-0.04339,0 -0.47735,0.27587 -0.71913,0.45875c-0.10229,0.07439 -0.20148,0.13949 -0.22318,0.14259c-0.09609,0.0155 -0.06509,0.0434 0.1147,0.10849c0.27898,0.10229 0.69743,0.30067 0.72533,0.34407c0.01549,0.0248 0.0062,0.0279 -0.0341,0.0062c-0.42466,-0.22628 -1.17479,-0.43397 -1.63975,-0.45567c-0.17048,-0.0093 -0.47115,-0.02169 -0.66643,-0.03099c-0.19528,-0.0093 -0.39677,-0.0248 -0.44636,-0.0341c-0.0589,-0.0155 -0.08369,-0.0093 -0.06819,0.0124c0.0093,0.0186 -0.0031,0.0279 -0.0341,0.0217c-0.40606,-0.0837 -0.68813,-0.1085 -0.83382,-0.0744c-0.0527,0.00931 -0.12089,0.0062 -0.15189,-0.0124c-0.0341,-0.0186 -0.04649,-0.0186 -0.03719,0c0.0217,0.0341 -0.67574,0.29448 -1.02911,0.38437c-0.12709,0.03099 -0.28208,0.05889 -0.34717,0.05889c-0.0682,0 -0.13948,0.02169 -0.17048,0.05269c-0.06509,0.0651 -0.0124,0.08989 0.08679,0.0403c0.04339,-0.02169 0.0248,0.0093 -0.05579,0.0837c-0.0682,0.0651 -0.14259,0.15499 -0.16119,0.20148c-0.0496,0.11469 -0.14569,0.11159 -0.29447,-0.0093c-0.10849,-0.08989 -0.11469,-0.10229 -0.0713,-0.14879c0.0279,-0.031 0.0496,-0.08059 0.0496,-0.11159c0,-0.11469 -0.093,0.0217 -0.15499,0.23248c-0.08369,0.27897 -0.0558,0.46186 0.09919,0.65094c0.04649,0.0589 0.18288,0.15498 0.21698,0.15498c0.0217,0 0.0744,-0.21078 0.062,-0.25727c-0.0031,-0.0124 0.00621,-0.0217 0.0217,-0.0217c0.01549,0 0.03719,-0.0279 0.04959,-0.0589c0.0093,-0.0341 0.0403,-0.06819 0.0651,-0.07749c0.03719,-0.0124 0.04649,-0.0062 0.031,0.0279c-0.031,0.08059 0.00309,0.0527 0.07439,-0.06199c0.11779,-0.19218 0.48046,-0.34717 0.68194,-0.29447c0.0589,0.0155 0.09919,0 0.17048,-0.06199c0.24798,-0.22628 0.54865,-0.37506 0.67264,-0.33477c0.0217,0.0093 0.0713,-0.0248 0.10849,-0.0713c0.12399,-0.14568 0.56105,-0.30067 0.61374,-0.21698c0.0124,0.0217 -0.01551,0.03409 -0.07749,0.03409c-0.11779,0 -0.32237,0.09609 -0.46496,0.21698c-0.0589,0.05269 -0.12708,0.08679 -0.14878,0.07749c-0.06199,-0.0217 -0.30377,0.09299 -0.48665,0.22938c-0.22318,0.16738 -0.29137,0.19839 -0.44946,0.20148c-0.17048,0.0062 -0.39057,0.10849 -0.58275,0.27588c-0.13948,0.12089 -0.14258,0.12398 -0.05269,0.10849c0.08369,-0.0186 0.08679,-0.01549 0.03409,0.0248c-0.031,0.0217 -0.06819,0.0341 -0.08059,0.0279c-0.12089,-0.0744 -0.14259,0.60444 -0.0434,1.34527c0.05579,0.41226 0.09609,0.56105 0.17668,0.64784c0.08989,0.09609 0.21698,0.16118 0.31617,0.16118c0.06509,0 0.07749,-0.01549 0.07749,-0.08989c0,-0.05269 0.02479,-0.11158 0.05269,-0.13329c0.11159,-0.08059 0.18288,-0.22318 0.16429,-0.31927c-0.0093,-0.05269 -0.0279,-0.0899 -0.0403,-0.0837c-0.0124,0.0062 -0.062,-0.00619 -0.11159,-0.0279l-0.08679,-0.0403l0.01549,-0.35646c0.0093,-0.26968 0.0031,-0.39986 -0.03409,-0.52385c-0.0279,-0.08679 -0.0372,-0.16119 -0.0248,-0.16119c0.0124,0 0.08369,0.12089 0.16118,0.26658c0.08059,0.16429 0.17359,0.29757 0.23558,0.34407c0.05579,0.0434 0.10229,0.10229 0.10229,0.13019c0,0.17668 0.52695,0.41226 1.36388,0.60755c0.31617,0.0744 0.97021,0.29137 0.99501,0.33167c0.0124,0.0186 0.0155,0.0496 0.0062,0.0651c-0.0093,0.0124 0.0093,0.02169 0.03719,0.01549c0.10229,-0.0186 0.12399,0.0775 0.08369,0.36887c-0.0496,0.38437 -0.062,0.44017 -0.16429,0.89272c-0.0496,0.22009 -0.10539,0.46496 -0.12089,0.54245c-0.0155,0.07749 -0.0496,0.22938 -0.0744,0.34097c-0.0248,0.11158 -0.05579,0.25107 -0.06509,0.30997c-0.0093,0.0589 -0.031,0.15808 -0.04649,0.21698c-0.05579,0.22009 -0.18599,0.89892 -0.18599,0.97642c0,0.05579 -0.01239,0.07438 -0.04029,0.05889c-0.0186,-0.0124 -0.0279,-0.01239 -0.0155,0.0031c0.0124,0.0124 0.0093,0.0434 -0.0093,0.0651c-0.0403,0.0496 -0.05579,1.41657 -0.0186,1.85673c0.05579,0.64784 0.07439,0.80593 0.13329,1.0849c0.0248,0.11779 0.07439,0.35027 0.1085,0.51145c0.07749,0.35337 0.14878,0.58895 0.18288,0.58895c0.0124,0 0.031,0.06509 0.0403,0.14569c0.0093,0.08989 0.0372,0.16118 0.07439,0.19218c0.0341,0.0279 0.08679,0.11779 0.11779,0.20458c0.0279,0.0837 0.07439,0.18598 0.09609,0.22318c0.0248,0.04029 0.04339,0.07749 0.04339,0.08679c-0.0031,0.07439 0.40297,0.72842 0.54865,0.88031c0.04649,0.05269 0.12709,0.13329 0.17358,0.18598c0.05579,0.05579 0.11159,0.0868 0.14879,0.0806c0.12399,-0.0248 0.69124,-0.39676 1.0973,-0.71913c0.062,-0.0496 0.40297,-0.33478 0.41846,-0.35027c0.0279,-0.0279 0.44946,-0.39366 0.52385,-0.45255c0.03719,-0.031 0.10539,-0.11159 0.14569,-0.17359c0.0403,-0.06199 0.23867,-0.30067 0.44016,-0.52695c0.35647,-0.39986 0.59205,-0.68813 0.68814,-0.83072c0.0248,-0.03719 0.062,-0.08679 0.0806,-0.10539c0.031,-0.0341 0.38746,-0.55485 0.46805,-0.68504c0.13329,-0.22008 0.20148,-0.35336 0.21698,-0.42776c0.0093,-0.04649 0.0279,-0.08369 0.0403,-0.08369c0.0186,0 0.22008,-0.42776 0.37197,-0.79043c0.09919,-0.23558 0.23558,-0.63854 0.34407,-1.02291c0.12709,-0.44946 0.15808,-0.56105 0.17048,-0.61994c0.0062,-0.0341 0.0465,-0.21698 0.08989,-0.40917c0.04339,-0.18909 0.07749,-0.43706 0.07749,-0.54865c0,-0.47735 0.21077,-1.18409 0.66643,-2.23489c0.33477,-0.77183 0.37816,-0.90202 0.40606,-1.19959c0.0124,-0.13329 0.031,-0.23248 0.04649,-0.22628c0.0124,0.0093 0.0186,-0.26038 0.0124,-0.59515c-0.0093,-0.67264 -0.0899,-1.24919 -0.20148,-1.48166c-0.03409,-0.07129 -0.06199,-0.14878 -0.06199,-0.17668c0,-0.0279 -0.04339,-0.0806 -0.09609,-0.12089c-0.0527,-0.04029 -0.13329,-0.10229 -0.17669,-0.13949c-0.35026,-0.27897 -0.89891,-0.52076 -1.38557,-0.61685zM378.37357,188.60487c-0.0589,0 -0.08369,0.00619 -0.05579,0.01549c0.031,0.0062 0.08059,0.0062 0.10849,0c0.031,-0.0093 0.0062,-0.01549 -0.05269,-0.01549zM388.32366,189.38911c-0.0558,-0.0651 -0.07129,-0.0589 -0.031,0.0186c0.0217,0.0341 0.0434,0.05579 0.0527,0.04649c0.0093,-0.00931 0,-0.0372 -0.0217,-0.0651zM377.40026,190.05244c-0.0124,0.01549 0.00929,0.02169 0.04339,0.01239c0.07129,-0.0186 0.08058,-0.04029 0.0186,-0.04029c-0.02479,0 -0.05269,0.01241 -0.06199,0.0279zM377.41266,190.32212c0,-0.0558 -0.0186,-0.0651 -0.04649,-0.0217c-0.0093,0.01549 -0.0031,0.03719 0.0155,0.0496c0.0155,0.0093 0.031,-0.0031 0.031,-0.0279zM369.45569,191.73558c0.0093,0.0248 0.0186,0.0155 0.0186,-0.0186c0.0031,-0.0341 -0.0062,-0.0527 -0.0155,-0.0403c-0.0093,0.0093 -0.0124,0.03719 -0.0031,0.0589zM375.14367,191.82238c-0.0186,0.11779 -0.0496,0.16738 -0.20768,0.30997c-0.13019,0.12089 -0.19218,0.20459 -0.21698,0.29448c-0.0496,0.17979 -0.20148,0.43706 -0.25108,0.42466c-0.0341,-0.0093 -0.03409,0 0.0031,0.0465c0.18288,0.23248 0.48356,0.38127 0.74084,0.36886c0.21078,-0.0124 0.31307,-0.05889 0.40606,-0.18598c0.062,-0.08059 0.07439,-0.13328 0.07439,-0.32857c0,-0.27897 -0.07439,-0.45566 -0.29447,-0.69744c-0.07749,-0.08679 -0.16118,-0.20458 -0.18598,-0.26347l-0.0434,-0.10849l-0.0248,0.13949zM369.42469,191.90607c0.0093,0.031 0.01549,0.01239 0.01549,-0.0372c0,-0.05269 -0.00619,-0.07439 -0.01549,-0.05579c-0.0062,0.02169 -0.0062,0.06509 0,0.09299zM369.39369,192.13854c0.0062,0.04029 0.0124,0.0155 0.0124,-0.05269c0.0031,-0.0682 -0.0031,-0.0992 -0.0124,-0.0713c-0.0062,0.031 -0.0062,0.0868 0,0.12399zM369.3627,192.41752c0.0093,0.02169 0.0155,0.0062 0.0155,-0.03719c0,-0.0434 -0.0062,-0.05889 -0.0155,-0.0403c-0.0062,0.0217 -0.0062,0.0589 0,0.07749zM369.3317,192.72749c-0.0062,0.031 -0.0062,0.08059 0,0.10849c0.0093,0.031 0.0155,0.0062 0.0155,-0.05269c0,-0.0589 -0.0062,-0.08369 -0.0155,-0.05579zM379.87073,192.95687c0.0093,0.0093 0.03719,0.0124 0.0589,0.0031c0.0248,-0.0093 0.01551,-0.0186 -0.0186,-0.0186c-0.0341,-0.0031 -0.0527,0.0062 -0.0403,0.0155zM370.22132,198.88973c0,0.0155 0.0155,0.031 0.03409,0.031c0.01549,0 0.0217,-0.01551 0.0124,-0.031c-0.0093,-0.0186 -0.0248,-0.031 -0.0341,-0.031c-0.0062,0 -0.01239,0.01241 -0.01239,0.031z"/><path d="M375.79151,183.38806c0.31307,-0.14569 0.66024,-0.22938 0.66024,-0.15499c0,0.01549 -0.04649,0.03719 -0.10229,0.04649c-0.0527,0.0093 -0.24488,0.07439 -0.42466,0.14258c-0.36887,0.13949 -0.34097,0.13329 -0.34097,0.09609c0,-0.01549 0.09299,-0.0744 0.20768,-0.13019z"/><path d="M375.36374,183.43145c0.1023,-0.0744 0.52386,-0.22938 0.54246,-0.19838c0.0155,0.02169 -0.38126,0.19528 -0.53935,0.23247l-0.07749,0.0217l0.07439,-0.05579z"/><path d="M383.04484,183.36946c0.0217,-0.00931 0.0403,-0.0031 0.0403,0.01239c0,0.01549 -0.15809,0.08059 -0.35027,0.14568c-0.18908,0.06199 -0.48665,0.17048 -0.65714,0.23558c-0.35336,0.13638 -0.44946,0.16739 -0.44946,0.14259c0,-0.0341 0.63234,-0.29758 0.71604,-0.29758c0.0248,0 0.0589,-0.01241 0.0744,-0.0279c0.0186,-0.0155 0.15498,-0.0651 0.30997,-0.11159c0.15188,-0.04649 0.29757,-0.09299 0.31617,-0.09919z"/><path d="M382.29161,183.44695c0.0341,0.031 -0.0186,0.0682 -0.09919,0.0682c-0.04649,0 -0.26347,0.06199 -0.48665,0.13949c-0.22008,0.07749 -0.40607,0.13948 -0.41227,0.13948c-0.0093,0 0.0031,-0.02169 0.0248,-0.04649c0.0217,-0.0248 0.05889,-0.04649 0.08369,-0.04649c0.02479,0 0.08679,-0.02169 0.14258,-0.05269c0.14878,-0.0744 0.71913,-0.22938 0.74703,-0.20148z"/><path d="M378.21859,186.02901c0,-0.39986 0.38437,-0.62305 0.73773,-0.43087c0.30377,0.16429 0.55795,0.51766 0.52076,0.72224c-0.0403,0.21078 -0.22008,0.29447 -0.63854,0.29137h-0.26968l-0.10849,-0.11469c-0.21388,-0.22628 -0.24178,-0.28207 -0.24178,-0.46805zM378.94392,185.71594c-0.17048,-0.10849 -0.29757,-0.1178 -0.43396,-0.0341c-0.19838,0.12089 -0.24798,0.39366 -0.10229,0.59515c0.17359,0.24488 0.38747,0.31927 0.69434,0.24178c0.26968,-0.06819 0.33787,-0.24798 0.18288,-0.48045c-0.10229,-0.15188 -0.15809,-0.20458 -0.34097,-0.32237z"/><path d="M383.27112,190.03384c0,-0.031 0.0682,0.0062 0.21698,0.12399c0.47735,0.37507 0.86172,0.90822 1.1562,1.60255c0.11779,0.27897 0.33168,0.9764 0.37507,1.22439c0.0093,0.0496 0.031,0.16429 0.04649,0.25108c0.01549,0.08679 0.04029,0.29757 0.05269,0.47115c0.01549,0.21698 0.03099,0.30688 0.05579,0.29448c0.0186,-0.0124 0.01241,0.00619 -0.01239,0.03719c-0.0341,0.0434 -0.0341,0.05269 -0.0031,0.0341c0.0341,-0.02169 0.03719,0.05269 0.0217,0.46496c-0.0124,0.27277 -0.0279,0.54865 -0.0341,0.61685c-0.0062,0.06819 -0.02169,0.28517 -0.03099,0.48045c-0.0279,0.55175 -0.12089,1.66145 -0.15499,1.82883c-0.0093,0.0434 -0.0248,0.13329 -0.0341,0.20148c-0.0217,0.13638 -0.0341,0.16119 -0.0651,0.12709c-0.0186,-0.0186 0.05269,-1.1469 0.09919,-1.55295c0.0093,-0.08059 -0.00619,-0.0496 -0.04029,0.08369c-0.0279,0.11469 -0.062,0.21698 -0.07749,0.22938c-0.031,0.0341 -0.0279,-0.0186 0.0248,-0.26347c0.0248,-0.11779 0.0589,-0.34407 0.07749,-0.50526c0.0186,-0.15808 0.0403,-0.33787 0.0496,-0.39676c0.031,-0.21698 0.0372,-1.32358 0.0124,-1.59635c-0.10229,-1.03841 -0.48046,-2.16051 -0.96401,-2.87964c-0.09299,-0.13638 -0.30377,-0.38746 -0.47116,-0.55795c-0.16429,-0.17049 -0.30068,-0.31617 -0.30068,-0.31927zM384.98526,196.01319c0.0093,0.0248 0.0186,0.0155 0.0186,-0.0186c0.0031,-0.0341 -0.00619,-0.05269 -0.01549,-0.04029c-0.0093,0.0093 -0.0124,0.03719 -0.0031,0.05889z"/><path d="M380.55577,197.0206c-0.031,0.12399 -0.04339,0.12708 -0.04339,0.01549c0,-0.05579 0.0155,-0.09919 0.031,-0.09919c0.0186,0 0.0248,0.0341 0.0124,0.0837z"/></g></g></g></svg>