<svg version="1.1" xmlns="http://www.w3.org/2000/svg" xmlns:xlink="http://www.w3.org/1999/xlink" width="784.27652" height="421.92192" viewBox="0,0,784.27652,421.92192"><defs><linearGradient x1="327.07818" y1="141.20068" x2="327.07818" y2="232.7923" gradientUnits="userSpaceOnUse" id="color-1"><stop offset="0" stop-color="#818181"/><stop offset="1" stop-color="#494949"/></linearGradient><linearGradient x1="328.08418" y1="155.7202" x2="328.08418" y2="247.31182" gradientUnits="userSpaceOnUse" id="color-2"><stop offset="0" stop-color="#c8c8c8"/><stop offset="1" stop-color="#b4b4b4"/></linearGradient></defs><g transform="translate(152.13828,30.96095)"><g data-paper-data="{&quot;isPaintingLayer&quot;:true}" fill-rule="nonzero" stroke="none" stroke-linecap="butt" stroke-linejoin="miter" stroke-miterlimit="10" stroke-dasharray="" stroke-dashoffset="0" style="mix-blend-mode: normal"><path d="M37.18459,390.96097v-421.92192h555.55556v421.92192z" fill="#7fd3f7" stroke-width="0"/><path d="M23.02412,232.7923v-91.5916h608.10811v91.5916z" fill="url(#color-1)" stroke-width="0"/><path d="M24.03013,247.31182v-91.5916h608.10811v91.5916z" fill="url(#color-2)" stroke-width="0"/><path d="M62.29102,255.95186l4.28817,-226.52822c0,0 -0.33819,-3.43053 5.05959,-3.43053c11.42895,0 98.46124,0.21376 98.46124,0.21376l3.88639,169.68493z" fill="#6c6c6c" stroke-width="0"/><path d="M66.98806,189.43582v-159.60452h98.16384v159.60452z" fill="#868686" stroke-width="0"/><path d="M431.45133,210.06162v-225.67058h75.64132v225.67059z" fill="#7b7b7b" stroke-width="0"/><path d="M232.96669,294.99388l4.28816,-226.52822c0,0 -0.3382,-3.43053 5.05959,-3.43053c11.42896,0 113.47625,1.71527 113.47625,1.71527l-59.17667,228.24349z" fill="#6c6c6c" stroke-width="0"/><path d="M250.26515,293.13968v-225.67058h105.67135v225.67059z" fill="#7e7e7e" stroke-width="0"/><path d="M-71.21227,119.1913c-4.51776,-2.0934 -9.31016,-3.87457 -13.4972,-6.5496l-0.11268,0.24318l-2.2428,-1.03925c-0.44146,-0.19289 -0.74998,-0.6334 -0.74998,-1.14598c0,-0.69035 0.55964,-1.25 1.25,-1.25c0.0229,0 0.04566,0.00061 0.06826,0.00183l1.91148,0.09061c-5.26118,-2.4021 -10.52111,-4.80691 -15.77859,-7.21699c-13.32829,-3.66541 -26.55431,-7.18098 -39.99483,-10.18939c1.25985,0.70539 2.44678,1.36205 3.4701,1.77133c10.83587,4.33379 21.6591,8.69409 32.46142,13.11084c16.19833,6.62301 32.39664,13.24603 48.59497,19.86905c0.98203,0.40153 1.9638,0.80372 2.94532,1.20654c0.06276,-0.11235 0.14236,-0.21402 0.23538,-0.30159c-6.18695,-2.86686 -12.3739,-5.73371 -18.56084,-8.60057zM-77.71943,112.67516c-0.29806,-0.02827 -0.59613,-0.05655 -0.89419,-0.08483c2.27643,1.11678 4.50871,2.50525 6.18411,3.28158c8.33532,3.86235 16.67064,7.72469 25.00596,11.58705c0.67287,-0.00853 1.35267,-0.02404 2.03755,-0.04354c-2.43694,-1.10797 -4.87374,-2.21646 -7.30918,-3.3281c-8.34013,-3.80678 -16.68311,-7.60745 -25.02424,-11.41215zM-40.2915,129.73185c-0.69146,0.02144 -1.38255,0.0465 -2.07133,0.0721c0.56324,0.26099 1.12648,0.52197 1.68972,0.78297c14.38665,6.66636 28.77329,13.33272 43.15993,19.99908c0.75187,0.22582 1.50728,0.44248 2.26878,0.65076c-3.29557,-1.70809 -6.58298,-3.41422 -9.87954,-5.03649c-11.61669,-5.71669 -23.38421,-11.10767 -35.16756,-16.46841zM51.28292,169.89508c-2.7539,-0.83899 -5.49562,-1.68753 -8.21298,-2.56478c-4.23532,-1.36731 -8.52151,-2.67228 -12.82032,-3.9784c8.14761,3.70794 16.3076,7.38857 24.4803,11.04684c8.34032,3.73331 16.6724,7.4631 25.03602,11.12059c6.16873,1.74272 12.33747,3.48543 18.50621,5.22812c6.50579,1.8379 13.01866,3.93845 19.57012,5.77863c-0.92594,-0.44839 -1.85189,-0.89678 -2.77783,-1.34516c-8.39274,-4.06417 -16.78548,-8.12833 -25.17822,-12.19249l-1.80148,-0.59985l0.00204,-0.00612l-0.00305,-0.00102l0.01697,-0.05053l-0.06827,0.03205c-0.43507,-0.1895 -0.87131,-0.37689 -1.30867,-0.56225c-4.37905,-0.91451 -8.63674,-2.72319 -12.8741,-4.1748c-7.52224,-2.57692 -15.04448,-5.15387 -22.56672,-7.73081zM-34.30628,129.71156c10.1498,4.63271 20.27388,9.31844 30.28619,14.2456c5.0801,2.49997 10.13852,5.20171 15.23908,7.8008c0.28579,-0.25376 0.78986,-0.51342 1.45338,-0.10585c0.55317,0.33979 0.64258,0.79039 0.60074,1.14506c3.89279,1.9537 7.81497,3.82423 11.7947,5.47727c6.08741,2.52849 12.60834,4.31664 18.84617,6.45358c2.64804,0.90715 5.2952,1.81707 7.94213,2.72776c5.35396,1.63136 10.75617,3.22447 16.11604,4.9208c-0.05303,-0.02568 -0.10605,-0.05135 -0.15907,-0.07703c-11.03408,-5.34323 -22.83268,-10.05317 -33.57739,-16.04405c-3.9212,-1.12825 -7.88237,-2.29009 -11.38214,-4.22087c-0.14928,-0.04548 -0.2986,-0.09096 -0.44799,-0.13647l-0.10342,-0.0315l-0.08893,0.21571l-2.28449,-0.94172c-0.46823,-0.18054 -0.80044,-0.63484 -0.80044,-1.16672c0,-0.69036 0.55965,-1.25 1.25,-1.25c0.13695,0 0.26876,0.02203 0.39207,0.06273l2.36368,0.71999c0.51653,0.15734 1.03241,0.31448 1.54762,0.4719c-1.09433,-0.80875 -2.18498,-1.61374 -3.28206,-2.3817c-0.86859,-0.60801 -1.73754,-1.21554 -2.60677,-1.82265c-10.60668,-3.42587 -21.21337,-6.85175 -31.82006,-10.27763c-5.27795,-1.70473 -11.00682,-4.44387 -16.46984,-5.33453c-1.55336,-0.25325 -3.16571,-0.38877 -4.80918,-0.45048zM26.60837,148.29855c2.05279,1.51837 4.12468,3.03097 6.2845,4.30755c1.52512,0.52465 3.04352,1.07572 4.55486,1.66659c1.79364,0.70124 3.58261,1.40927 5.36745,2.12374c8.41289,2.95413 16.6237,6.23082 24.91044,9.72257c9.97956,4.20505 19.99428,8.29923 30.04543,12.33007c3.19035,1.27944 6.32969,2.62263 9.51715,3.81584c-0.11534,-0.07032 -0.23069,-0.14055 -0.34607,-0.21066c-0.03668,-0.0223 -0.07337,-0.04456 -0.11008,-0.06681c-8.30064,-3.88429 -16.60129,-7.76859 -24.90193,-11.65287c-11.00028,-5.14759 -22.05501,-10.12407 -33.15966,-15.00883c-3.95477,-1.22594 -7.91692,-2.4261 -11.83901,-3.6929c-3.44102,-1.11142 -6.88204,-2.22285 -10.32306,-3.33427zM140.30545,192.69725c-3.58569,-1.41541 -7.15887,-2.86622 -10.72358,-4.34015c0.02477,0.09816 0.03793,0.20095 0.03793,0.30681c0,0.69036 -0.55965,1.25 -1.25,1.25c-0.05545,0 -0.11006,-0.00361 -0.1636,-0.01061l-2.46446,-0.28766l0.00233,-0.01996l-0.06268,0.01141c-1.01873,-0.22049 -2.03741,-0.44121 -3.05607,-0.66207c4.38266,2.74178 8.80301,5.41264 13.32582,7.81605c4.47884,2.38005 9.24162,3.86732 13.42759,6.53081l0.13726,-0.29865l2.24594,1.03223c0.44341,0.19206 0.75362,0.63359 0.75362,1.14757c0,0.69036 -0.55965,1.25 -1.25,1.25c-0.11293,0 -0.22236,-0.01497 -0.32643,-0.04305l-0.41103,-0.10137c3.86794,2.00987 7.74084,4.01037 11.62145,5.99707c4.43429,2.27015 9.17876,4.21465 13.21501,7.10308l0.13694,-0.26749l2.20158,1.12711c0.41682,0.20266 0.70411,0.63019 0.70411,1.12482c0,0.69036 -0.55965,1.25 -1.25,1.25c-0.12563,0 -0.24693,-0.01853 -0.36131,-0.05301l-2.38163,-0.65961c-4.0822,-1.13059 -8.27715,-1.99706 -12.09844,-3.83831c-11.1903,-5.41887 -22.38059,-10.83775 -33.57089,-16.25662c-0.73945,-0.15452 -1.47833,-0.31398 -2.21652,-0.47983c-9.7279,-2.18551 -19.33912,-5.46143 -28.93591,-8.17255c-0.00412,-0.00116 -0.00824,-0.00233 -0.01236,-0.00349c1.74736,0.72994 3.49729,1.45467 5.25014,2.17359c5.50082,2.25613 11.02322,4.46597 16.48627,6.81213l0.14935,0.30989l0.08844,-0.06499l1.47235,2.00378c0.15737,0.20908 0.25065,0.46914 0.25065,0.75099c0,0.69036 -0.55965,1.25 -1.25,1.25c-0.08949,0 -0.17678,-0.0094 -0.26094,-0.02728l-2.43012,-0.46732l0.0362,-0.18823c-5.79282,-0.42624 -11.62685,-2.01041 -17.2286,-3.32672c-9.83484,-2.31102 -19.48867,-4.57495 -29.04742,-7.85845c-16.56548,-5.69036 -33.05972,-11.51769 -49.50593,-17.54426c-16.44587,-6.02644 -32.97999,-11.47588 -49.6846,-16.74038c-7.15318,-2.25434 -14.30635,-4.50868 -21.45953,-6.76302l-2.35724,-0.74289c-0.52074,-0.1509 -0.90143,-0.63137 -0.90143,-1.20075c0,-0.69036 0.55965,-1.25 1.25,-1.25c0.05143,0 0.10214,0.00311 0.15195,0.00914l2.46784,0.2666l-0.03307,0.30605c5.91739,-0.19081 11.47349,1.63304 17.30863,3.32222c9.60562,2.78066 19.21124,5.56133 28.81686,8.34199c16.81346,4.86721 33.66236,9.49185 50.58884,13.94982c4.98047,1.40689 9.96092,2.81383 14.94136,4.22081c-2.9907,-1.33474 -5.98063,-2.6731 -8.9716,-4.01193c-14.30623,-6.40377 -28.57356,-12.87604 -42.80374,-19.44328c-5.99664,-2.05008 -11.90398,-4.29242 -17.61461,-6.90532c-2.41557,-1.10524 -4.82882,-2.21638 -7.24153,-3.32911c-14.26563,-5.95745 -28.51762,-11.95125 -42.8269,-17.8019c-16.19833,-6.62301 -32.39664,-13.24603 -48.59497,-19.86904c-9.25382,-3.78361 -18.52009,-7.53193 -27.80196,-11.24621c-5.38901,-2.1565 -11.11302,-4.17891 -15.89875,-7.49399l-0.12365,0.25113l-2.21835,-1.09226c-0.42665,-0.19895 -0.72234,-0.63169 -0.72234,-1.1335c0,-0.69035 0.55964,-1.25 1.25,-1.25c0.09531,0 0.18813,0.01067 0.27733,0.03087l2.42319,0.49823c16.44748,3.38174 32.50388,7.57684 48.67913,12.07971c7.49911,3.40928 14.99377,6.82839 22.48703,10.25058c4.36377,0.41097 8.72744,0.82309 13.09031,1.24326c10.48679,2.85869 20.96456,5.75077 31.44617,8.62841c6.40605,1.75873 13.23395,3.05397 19.3354,5.68312c2.89966,1.25356 5.79934,2.50711 8.699,3.76067c-3.58531,-2.61023 -7.20299,-5.28763 -11.1172,-7.23819c0,0 -1.11803,-0.55901 -0.55901,-1.67705c0.55902,-1.11804 1.67705,-0.55902 1.67705,-0.55902c5.21697,2.61661 9.9166,6.44046 14.70767,9.77035c1.41402,0.98278 2.82833,1.96514 4.24271,2.94743c2.99665,0.56185 5.96232,1.08602 8.86477,2.06028c6.27011,2.11238 12.99801,3.77205 19.05566,6.42487c9.19228,4.02556 17.99261,9.70948 26.79837,14.64258c0.70463,0.29304 1.4091,0.58645 2.11344,0.8802c0.86413,0.30371 1.72559,0.61317 2.58389,0.92939c7.81249,2.87833 15.44565,6.41259 23.13581,9.60586c16.16991,6.71444 32.42493,13.24933 48.4116,20.38986c2.42382,1.08262 4.84766,2.16523 7.27148,3.24785c0.54788,0.21448 1.09606,0.42811 1.64457,0.64082c11.74336,4.55403 23.34053,8.20873 35.50267,11.47911l2.38817,0.64217c0.54622,0.13384 0.95149,0.62666 0.95149,1.21413c0,0.69036 -0.55965,1.25 -1.25,1.25c-0.09114,0 -0.18001,-0.00976 -0.26561,-0.02828l-2.42819,-0.47608l0.0327,-0.1668l-0.07774,-0.0209c-0.24146,-0.06492 -0.48269,-0.13001 -0.72372,-0.19524c-3.0029,-0.22846 -5.89267,-0.92312 -9.04441,-1.54107c-10.19931,-1.99973 -19.69848,-6.63258 -29.15997,-11.06692zM104.41507,177.68921c1.19361,0.6675 2.37756,1.35376 3.55027,2.06194c2.9971,1.4031 5.9937,2.80722 8.9895,4.21307c2.99793,1.40685 5.99762,2.01963 8.93035,3.13181c0.06397,0.01393 0.12795,0.02785 0.19192,0.04178l0.10243,0.01196l0.04841,-0.18687c-7.28952,-3.04547 -14.54887,-6.17177 -21.81287,-9.27367zM16.69206,138.53601c8.35101,3.41546 16.71006,6.81143 25.06705,10.21228c-3.40496,-1.88209 -6.84468,-3.65653 -10.34107,-5.18769c-4.67818,-2.04871 -9.76742,-3.49438 -14.72598,-5.02459zM-70.08085,113.39715c6.141,2.80585 12.2817,5.61239 18.42374,8.41587c3.96542,1.80998 7.93438,3.61168 11.90177,5.41632c3.63958,-0.09919 7.28056,-0.08578 10.66052,0.46527c5.59596,0.91233 11.43311,3.67789 16.83596,5.42297c8.00811,2.58656 16.01621,5.17311 24.02431,7.75966c-1.86852,-1.29964 -3.73775,-2.59829 -5.60715,-3.89668c-0.66073,-0.30922 -1.31305,-0.63233 -1.95413,-0.97344c-0.5148,-0.22255 -1.02961,-0.4451 -1.54441,-0.66766l-0.04652,0.11313l-2.28527,-0.93981c-0.22251,-0.08558 -0.41436,-0.23296 -0.55452,-0.42112c-4.63841,-2.00523 -9.27681,-4.01046 -13.91522,-6.01569c-5.97978,-2.59414 -12.71998,-3.8415 -19.00523,-5.56706c-10.41188,-2.8585 -20.82829,-5.70106 -31.23451,-8.58007c-1.89991,-0.17573 -3.79968,-0.35318 -5.69934,-0.5317zM69.79056,170.47942c7.0104,3.39477 14.02081,6.78954 21.03121,10.18431l0.40044,0.13449c0.1941,0.06017 0.36794,0.16635 0.5088,0.30581c8.14101,3.94226 16.28201,7.88453 24.42302,11.82679c4.46805,2.16364 8.9361,4.32729 13.40415,6.49093c1.3188,0.27357 2.63936,0.53208 3.96074,0.78368c-0.45058,-0.2366 -0.90112,-0.47327 -1.35165,-0.71c-15.4777,-8.13298 -31.50323,-15.09388 -47.42098,-22.3228c-4.9833,-2.26313 -9.96435,-4.49686 -14.95572,-6.69321zM141.08799,204.17159c-0.94561,-0.18436 -1.89174,-0.36363 -2.83806,-0.54084c8.38515,4.06049 16.77031,8.12099 25.15547,12.18148c0.29513,0.1437 0.59295,0.28105 0.89317,0.41272c-0.37526,-0.21714 -0.73107,-0.41474 -1.06297,-0.58465c-7.4012,-3.78907 -14.77999,-7.61725 -22.14761,-11.46869zM78.92292,187.87917c-10.61414,-2.99846 -21.22828,-5.99695 -31.84235,-8.99568c-16.93902,-4.46054 -33.8001,-9.08946 -50.62582,-13.96022c-5.69356,-1.64819 -11.38711,-3.29637 -17.08066,-4.94456c14.46082,4.61863 28.80207,9.41608 43.07659,14.64685c16.43029,6.02073 32.90851,11.84237 49.45796,17.52722c10.9923,3.77594 22.27634,6.49854 33.64965,8.92731c1.99489,0.42601 4.64429,0.60233 7.16405,1.02325c-3.62228,-1.46768 -7.22603,-2.98441 -10.84072,-4.46695c-7.69911,-3.15775 -15.34204,-6.4274 -22.95867,-9.75723zM11.51856,154.76712c0.11751,0.05425 0.23502,0.10849 0.35253,0.16272c0.08705,0.02972 0.1741,0.05939 0.26119,0.08903c-0.191,-0.0959 -0.38192,-0.192 -0.57278,-0.28828zM109.90438,185.83432c4.24544,1.96095 8.47497,3.9546 12.67614,6.00835c-2.37403,-1.46367 -4.73204,-2.9568 -7.08443,-4.44602c-1.90148,-0.4271 -3.75957,-0.96 -5.59172,-1.56233zM19.91735,143.51023c2.16542,0.69941 4.33084,1.39883 6.49626,2.09824c-3.05768,-1.32187 -6.11536,-2.64374 -9.17305,-3.9656c0.89252,0.62208 1.7848,1.24451 2.67679,1.86736z" fill="#6c6c6c" stroke-width="0.5"/><path d="M363.70516,187.54917c0,0 1.20407,0.3357 0.86837,1.53978c-0.3357,1.20407 -1.53978,0.86837 -1.53978,0.86837l-0.11312,-0.03154c-6.75826,-1.88424 -12.9195,-4.03203 -18.42094,-8.09076l-0.09665,0.17682l-2.17141,-1.18697c-0.39976,-0.20853 -0.67268,-0.62689 -0.67268,-1.10898c0,-0.48787 0.2795,-0.91047 0.68711,-1.11639l-1.61783,-0.49518c0.00501,0.04549 0.00759,0.09172 0.00759,0.13855c0,0.69032 -0.55958,1.24994 -1.24988,1.25l-2.5,0.00023c-0.39927,0.00004 -0.79853,0.00007 -1.1978,0.00011c-2.29817,0.53957 -5.26158,0.16185 -7.61673,0.03612c-5.33387,0.05739 -10.63207,0.19192 -15.93698,0.47083c1.63226,0.00042 3.26451,0.00085 4.89677,0.00126c4.99871,0.00125 10.09039,-0.33392 15.0254,0.36721l0.00659,-0.24719l2.495,0.06655c0.67686,0.01553 1.22078,0.56908 1.22078,1.24967c0,0.45807 -0.24639,0.85859 -0.61387,1.07626l-2.11045,1.29837l-0.06207,-0.10089l-0.25232,0.23893c-2.61347,0.04449 -5.22421,0.04935 -7.83797,0.05044c-0.0925,0.00036 -0.18502,0.00065 -0.27756,0.00089c0.21866,0.0393 0.43748,0.07838 0.65647,0.11717l2.43919,0.25704c0.63567,0.05882 1.13336,0.5936 1.13336,1.24463c0,0.68427 -0.54981,1.24011 -1.23176,1.24987l-2.49705,0.04165l-0.00494,-0.29633l-0.08638,-0.0091c-4.87508,0.81081 -9.94843,0.39292 -14.92875,0.39323c-10.83336,0.00068 -21.66672,0.00038 -32.50008,0.00042v0v0v0v0h-2.5c-0.69036,0 -1.25,-0.55964 -1.25,-1.25c0,-0.69036 0.55964,-1.25 1.25,-1.25v0h2.5v0v0c0.19009,0 0.38019,0 0.57028,0c0.42865,-0.19092 0.88865,-0.34863 1.36976,-0.48059c-1.32788,0.00362 -2.6805,-0.02111 -4.08049,-0.0224c-0.45117,0 -0.90233,0 -1.3535,0c-0.44846,0.00002 -0.89692,0.00003 -1.34538,0.00004c-1.58217,0.00159 -3.17808,0.04933 -4.77587,0.08762c0.32575,1.46639 0.51909,2.95794 0.81158,4.12719l0.59989,2.39807c0.0288,0.10529 0.04417,0.21612 0.04417,0.33054c0,0.69036 -0.55964,1.25 -1.25,1.25c-0.50675,0 -0.94307,-0.30154 -1.13931,-0.73497l-1.06807,-2.22967l0.36407,-0.1744c-0.78297,-1.30972 -1.39918,-2.60674 -2.44059,-4.18716c-0.16583,-0.25165 -0.33931,-0.49968 -0.51916,-0.74466c-0.89704,-0.01755 -1.79107,-0.05509 -2.67994,-0.12259c-0.06161,0 -0.12323,0 -0.18484,0c-1.30602,1.321 -3.11129,2.38002 -4.01969,3.8722l-0.00376,2.19c0,0.00009 0,0.00018 0,0.00027c-0.00116,0.68937 -0.56036,1.24785 -1.25,1.24785c-0.67656,0 -1.22758,-0.53751 -1.24933,-1.20879l-0.09361,-2.49254c-0.05436,-1.60923 -0.56383,-3.18116 -0.90711,-4.74013l-0.99759,0.31746c-0.12754,0.04388 -0.26441,0.0677 -0.40685,0.0677c-0.09792,0 -0.19321,-0.01126 -0.28465,-0.03256c-0.94825,2.15582 -1.99335,4.26309 -3.19619,6.28762l0.15929,0.05507l-0.80742,2.33537c-0.12662,0.39606 -0.44537,0.70625 -0.84662,0.82095c-0.0484,0.22435 -0.11016,0.44503 -0.1909,0.66048l-0.43376,2.44028c-0.09474,0.59645 -0.61136,1.05238 -1.23447,1.05238c-0.69036,0 -1.25,-0.55964 -1.25,-1.25c0,-0.01055 0.00013,-0.02106 0.00039,-0.03155l0.05416,-2.49499l0.10693,0.00232l-0.07059,-0.27558c0.15521,-0.31909 0.30976,-0.63948 0.46383,-0.96099c-0.14123,-2.2087 0.9817,-4.59007 2.40496,-6.82325c0.86133,-2.43662 1.90504,-4.74054 3.04029,-7.07656c-1.01151,-0.56782 -1.91531,-1.18007 -2.62248,-1.83531c-2.75924,-2.55663 -2.93774,-7.18893 1.6714,-7.86611c1.39112,-0.20439 3.74885,1.15638 5.05851,1.87503c0.20594,-0.40756 0.6285,-0.68702 1.11634,-0.68702c0.62537,0 1.14349,0.45925 1.23548,1.05889l0.24358,1.41681c1.53043,1.37889 2.63119,3.03562 3.94656,4.76832c1.19184,-0.09743 2.43092,-0.18358 3.62505,-0.19472c1.58563,-0.36531 3.15855,-0.62816 4.66917,-0.77978l0.24535,0.1644l0.03556,-0.09605l2.3171,0.85792c0.49071,0.16874 0.84333,0.63437 0.84333,1.18236c0,0.67081 -0.52841,1.21821 -1.1917,1.24866l-1.30321,0.06908c4.63871,0.63694 9.2822,1.32262 13.90425,1.83812c0.11374,-0.52721 0.56004,-0.93072 1.10843,-0.98006l2.47292,-0.25355l0.02548,0.24847h0.11506c0.06809,0 0.13619,0 0.20428,0c1.29842,-0.31891 2.61214,-0.54741 3.93821,-0.72577c-0.32487,-0.22575 -0.53756,-0.60166 -0.53756,-1.02724c0,-0.69036 0.55964,-1.25 1.25,-1.25h2.5v0v0c1.13332,0 2.26665,0 3.39997,0c0.98946,-0.05265 1.98309,-0.07044 2.98153,-0.07069c-0.00853,-0.05897 -0.01295,-0.11927 -0.01295,-0.18061c0,-0.69034 0.55961,-1.24997 1.24994,-1.25l0.88355,-0.00004c-0.01661,-0.08129 -0.02534,-0.16546 -0.02534,-0.25166c0,-0.69036 0.55964,-1.25 1.25,-1.25h2.5v0.00001v0c1.65129,0.00001 3.30258,-0.00006 4.95387,-0.00015c5.58527,-0.43094 11.46839,-1.20026 17.14163,-2.33702c-0.18681,-0.12066 -0.37253,-0.24421 -0.55712,-0.37073l-0.14352,0.25861l-2.16407,-1.20102c-0.39573,-0.20982 -0.66528,-0.62598 -0.66528,-1.10509c0,-0.69036 0.55964,-1.25 1.25,-1.25c0.0005,0 0.001,0 0.0015,0l2.49978,0.00255l-0.00001,0.00534l0.0206,-0.00515c3.15085,0.10688 5.29834,0.30462 7.64197,1.21666l0.08496,-0.28763l2.3708,0.70026c0.53161,0.14384 0.92271,0.62961 0.92271,1.20672c0,0.63752 -0.47726,1.16358 -1.09399,1.24036l-2.35287,0.33071c1.3367,0.61959 2.6559,1.15882 3.92364,1.39304c2.25526,0.41668 4.99632,0.1001 7.29238,0.15316l2.49316,0.03394c0.6835,0.00797 1.23512,0.56452 1.23512,1.24991c0,0.61726 -0.4474,1.13002 -1.03561,1.23169l-2.05185,0.39555c0.61339,0.06491 1.20817,0.11324 1.76559,0.11801l2.49856,0.02139c0.68605,0.00503 1.24065,0.56273 1.24065,1.24997c0,0.55535 -0.36217,1.02612 -0.8632,1.189l-2.33134,0.8188l-0.11378,-0.32397c-1.02199,0.4172 -2.00023,0.61223 -3.29995,0.74162c1.60725,0.82231 3.04009,2.17571 4.70331,3.04037c3.60721,1.87527 7.72598,2.72757 11.6119,3.81099l0.11312,0.03154zM342.46946,178.34465l-0.05672,0.18532c0.10406,-0.03475 0.21421,-0.05619 0.32843,-0.06229l0.03456,-0.00213c-0.10173,-0.03878 -0.20378,-0.07906 -0.30627,-0.1209zM338.92742,176.99284l0.20829,0.00001c-0.00898,-0.03931 -0.01611,-0.07933 -0.02129,-0.11995zM347.63954,176.76767c0.11284,0.01333 0.22531,0.02646 0.33731,0.03925l-0.02775,-0.14393c-0.10326,0.0358 -0.20639,0.07067 -0.30956,0.10468zM268.01439,178.95348c0.06432,0.00867 0.12864,0.01735 0.19296,0.02605l-0.00311,-0.05868c-0.06328,0.01108 -0.12656,0.02196 -0.18985,0.03263zM250.65358,175.65452c0.16118,-0.32288 0.3235,-0.64735 0.48674,-0.97382c0,0 0.36636,-0.73271 1.09907,-0.71523c0.16095,-0.44334 0.32101,-0.88831 0.48068,-1.33509l0.13654,-0.38207c-1.21297,-0.8818 -2.56606,-1.48189 -4.06064,-1.5003c-2.43244,-0.02997 -1.25094,2.69894 -0.25736,3.4956c0.61911,0.49641 1.33675,0.96693 2.11497,1.41091zM255.65872,176.99167c0.47874,-0.00127 1.01059,-0.0261 1.58044,-0.06404c-0.43139,-0.56897 -0.90185,-1.18078 -1.41158,-1.79032c-0.39271,0.6358 -0.93017,1.2335 -1.39876,1.85473l1.22991,-0.00038zM300.26062,183.99723c-1.75355,0.08011 -3.50069,0.19614 -5.23825,0.36011c-0.42513,0.04012 -0.85064,0.08846 -1.27642,0.1434c6.2862,0.0002 12.57241,0.00014 18.85861,-0.00109c0.00669,0 0.01339,-0.00001 0.0201,-0.00002c-2.40481,-0.30594 -4.82414,-0.5024 -7.27809,-0.5024c-1.69532,0 -3.39063,0 -5.08595,0zM255.98505,183.99723c0.03558,0.17375 0.06913,0.34853 0.1006,0.52447c0.20329,-0.17592 0.41248,-0.35077 0.6228,-0.52447h-0.72339zM332.01876,173.45197c-0.93605,0.18971 -1.87513,0.36301 -2.81653,0.52401c1.4147,-0.00953 2.8019,-0.01133 4.18082,0.04747c-0.45937,-0.17801 -0.91424,-0.36825 -1.36429,-0.57148z" data-paper-data="{&quot;index&quot;:null}" fill="#6c6c6c" stroke-width="0.5"/><path d="M434.54988,192.6323c-0.87604,-0.89165 0.01562,-1.7677 0.01562,-1.7677l0.04235,-0.04143c-0.43658,-0.19495 -0.74084,-0.63291 -0.74084,-1.14194c0,-0.50368 0.29791,-0.93779 0.72715,-1.13573l2.22268,-1.08308l0.00619,0.01271l0.03677,-0.03265c2.2412,-0.88995 4.48418,-1.77472 6.72872,-2.6553c0.59646,-0.29925 1.1938,-0.59571 1.78754,-0.89396c-1.44371,0.12257 -2.87862,0.18275 -4.28285,0.16899l0.03435,0.22608l-2.44957,0.37213c-0.06822,0.01153 -0.13831,0.01753 -0.20981,0.01753c-0.22025,0 -0.4272,-0.05696 -0.60691,-0.15696l-1.57491,0.36996c-0.09992,0.02573 -0.20467,0.03941 -0.31262,0.03941c-0.69036,0 -1.25,-0.55964 -1.25,-1.25c0,-0.00298 0.00001,-0.00597 0.00003,-0.00895c-0.15542,-0.13624 -0.27676,-0.31039 -0.3496,-0.50803c-1.63029,0.45164 -3.24852,0.90761 -4.85082,1.44871c-0.68935,0.28023 -1.32379,0.54658 -1.96612,0.71546c-0.44175,0.17371 -0.88214,0.35655 -1.32108,0.55029l-2.2622,0.99845c-0.16082,0.07534 -0.34033,0.11744 -0.52966,0.11744c-0.69036,0 -1.25,-0.55964 -1.25,-1.25c0,-0.4989 0.29227,-0.92953 0.71493,-1.13001l2.0025,-1.00183l-0.09067,-0.01188c-0.62188,-0.07201 -1.10465,-0.60045 -1.10465,-1.24164c0,-0.59369 0.41389,-1.09071 0.96887,-1.21826l2.39813,-0.6068c3.11849,-0.78865 6.45725,-1.53858 9.45073,-2.72607c0.05762,-0.02285 0.12635,-0.05265 0.20458,-0.08837l-0.0158,-0.00092c-0.66053,-0.0334 -1.18583,-0.57955 -1.18583,-1.24839c0,-0.6137 0.44226,-1.1241 1.02545,-1.22988l0.74193,-0.1498c-0.26626,-0.00359 -0.53142,0.00242 -0.7922,0.03972c-2.3775,0.3401 -4.41064,1.67613 -6.5177,2.72966c0,0 -1.11803,0.55902 -1.67705,-0.55902c-0.55901,-1.11803 0.55901,-1.67705 0.55901,-1.67705c0.15089,-0.07545 4.51526,-2.26021 4.596,-2.28985c1.58223,-0.58077 3.38658,-0.26173 5.00105,-0.74571c0.79577,-0.23855 1.34725,-1.03531 2.14393,-1.27077c0.4701,-0.13894 4.71699,-0.25755 5.32564,-0.2786l0.01092,0.00253l-0.00005,-0.00277l2.4961,-0.04282c0.00831,-0.00017 0.01662,-0.00024 0.02497,-0.00024c0.69036,0 1.25,0.55964 1.25,1.25c0,0.46613 -0.25514,0.87267 -0.63339,1.08758l-1.53027,0.9057c0.34593,-0.05886 0.68705,-0.12036 1.02116,-0.18663c2.72716,-0.54094 5.40478,-1.18138 8.09537,-1.61544c1.09488,-0.74919 2.20585,-1.43931 3.29707,-1.6646c0.04287,-0.00885 0.08582,-0.01714 0.1288,-0.02491l-0.00661,-0.0209l2.35571,-0.74543c0.12699,-0.04346 0.2632,-0.06704 0.40492,-0.06704c0.69036,0 1.25,0.55964 1.25,1.25c0,0.04581 -0.00247,0.09104 -0.00727,0.13557c0.41505,0.20331 0.70085,0.62989 0.70085,1.12323c0,0.5203 -0.31789,0.96636 -0.77004,1.15454l-2.25982,1.0006c-2.01993,0.89355 -4.16252,1.84152 -6.32188,2.61058c-0.17982,0.46965 -0.63482,0.80312 -1.16769,0.80315l-0.53183,0.00003c-1.82182,0.92735 -3.63522,1.8723 -5.46909,2.73913c1.14412,-0.16486 2.28844,-0.32567 3.42826,-0.5083c2.49973,-1.6164 5.0998,-3.30549 7.65425,-4.26094c0.21706,-0.29847 0.563,-0.49719 0.95606,-0.51437l2.4893,-0.12574c0.7258,-0.03666 1.44893,-0.08716 2.16978,-0.14982c0.17604,-0.03753 0.35405,-0.07253 0.53339,-0.10554l1.12446,-0.95686c2.62777,-2.19962 5.7801,-3.06017 8.93737,-4.1348c0.22843,-0.28242 0.57738,-0.46333 0.96864,-0.46449l0.34953,-0.00121c0.4674,-0.17285 0.93332,-0.3552 1.39605,-0.5521c2.82932,-1.20397 6.03578,-3.80579 9.07286,-4.3139c0.02265,-0.00379 0.04531,-0.00745 0.06798,-0.01099l-0.00369,-0.01155l2.3531,-0.75357c0.12816,-0.04436 0.26578,-0.06846 0.40902,-0.06846c0.69036,0 1.25,0.55964 1.25,1.25c0,0.53922 -0.34142,0.99868 -0.81987,1.17403l-2.17985,0.85681c-1.13867,0.86712 -2.27545,1.71541 -3.41682,2.54579c1.18728,0.03318 2.37627,0.09745 3.56575,0.16005c0.22062,-0.12945 0.4558,-0.21784 0.7151,-0.2378c0.13376,-0.0103 0.26666,-0.01186 0.39882,-0.00592l0.00104,-0.05128l0.74021,0.01493c4.26046,-0.86791 8.72019,-1.65077 13.00642,-1.74714l-0.04887,-0.22123l2.41488,-0.53346c0.09486,-0.02302 0.19396,-0.03523 0.2959,-0.03523c0.69036,0 1.25,0.55964 1.25,1.25c0,0.5576 -0.36511,1.02993 -0.8693,1.19097l-2.3356,0.80676c-0.26042,0.08994 -0.51865,0.18776 -0.77565,0.28993c-0.1501,0.31709 -0.42969,0.56092 -0.77051,0.66322l-1.27437,0.41518c0.58263,0.10608 1.00328,0.22632 1.08552,0.35877c0.04096,0.06597 0.07913,0.13413 0.11455,0.20423c1.78091,-0.25486 3.56243,-0.44938 5.35673,-0.50464l-0.03958,-0.25749l2.44875,-0.37645c0.06896,-0.01179 0.13984,-0.01793 0.21215,-0.01793c0.69036,0 1.25,0.55964 1.25,1.25c0,0.41448 -0.20173,0.78183 -0.51235,1.00925l-0.98053,0.73439l0.8978,0.00335c0.68849,0.0022 1.24592,0.561 1.24592,1.25c0,0.68999 -0.55906,1.24941 -1.24891,1.25c-0.00005,0 -0.00009,0 -0.00014,0l-2.49986,0.00218l-0.00001,-0.0115l-0.00574,-0.00002c-0.86822,-0.00325 -1.74217,-0.004 -2.61974,-0.00715c-1.2466,0.10261 -2.50374,0.14437 -3.76553,0.15287c0.0152,0.0779 0.02316,0.15839 0.02316,0.24074c0,0.5887 -0.40696,1.08236 -0.95491,1.21497l-2.39017,0.63521c-0.22042,0.05858 -0.44017,0.11832 -0.65932,0.17903l-1.19682,1.09016l-0.0239,-0.02623c-0.08377,0.07794 -0.17136,0.15224 -0.26331,0.22239c-1.54604,1.17937 -4.19082,0.94134 -6.59595,1.05143c-1.09318,0.27126 -2.19348,0.50245 -3.3101,0.66712l-0.0055,0.00249l0.095,0.32339l-2.37083,0.69647c-0.11987,0.03822 -0.24758,0.05885 -0.38012,0.05885c-0.69036,0 -1.25,-0.55964 -1.25,-1.25c0,-0.02134 0.00053,-0.04255 0.00159,-0.06363c-0.60804,0.05924 -1.22098,0.11893 -1.83982,0.18172c-0.9509,0.09647 -5.67584,0.72504 -6.13187,-0.0325c-0.10467,-0.17389 -0.1649,-0.35712 -0.18929,-0.54675c-1.96843,1.15791 -3.95273,2.28522 -5.97987,3.33338c-2.1929,1.13386 -4.68173,1.7747 -6.83061,2.98634c-1.80383,1.01709 -3.22709,2.05575 -4.71249,2.99846c-0.44278,0.39632 -0.88699,0.77377 -1.33411,1.12274l-0.04555,0.03555l0.06914,0.09806l-2.03085,1.43203c-0.20586,0.14916 -0.45898,0.2371 -0.73264,0.2371c-0.69036,0 -1.25,-0.55964 -1.25,-1.25c0,-0.40488 0.1925,-0.7648 0.49096,-0.99323l1.96078,-1.53032c2.09353,-1.63392 4.11449,-3.84631 6.22425,-5.74407c-0.18208,0.00036 -0.36417,0.00068 -0.54624,0.00098c-1.0089,0.19295 -1.84128,0.16178 -2.63494,0.00243h-2.5v0v0c-0.229,0 -0.44362,-0.06158 -0.6282,-0.16908c-0.8218,0.33322 -1.64051,0.67272 -2.45487,1.02075c-4.47782,1.91361 -8.1378,4.21695 -12.4257,5.04175c-0.54699,0.38466 -1.07474,0.78466 -1.57867,1.20302l-1.57441,1.55423c0,0 -0.89166,0.87604 -1.7677,-0.01561zM446.43335,174.42144c0.12984,-0.02045 0.25933,-0.04095 0.38839,-0.06159l-0.07612,-0.12861c-0.10391,0.06494 -0.20798,0.12831 -0.31226,0.1902zM477.05136,180.4104c0.00938,-0.00231 0.02002,-0.00521 0.03198,-0.00872c4.30133,-1.26415 8.83947,-1.44637 13.29448,-2.21801c1.62737,-0.52088 3.40255,-0.89807 5.0001,-1.23104c-1.39229,-0.13339 -2.7926,-0.34187 -4.13995,-0.363c-1.06393,-0.01668 -2.12779,-0.03032 -3.19162,-0.04155c-0.56421,0.27307 -1.07157,0.69459 -1.66818,0.89183c-1.6233,0.53666 -3.42299,0.20336 -5.10222,0.52473c-1.55885,0.29834 -2.62705,1.83846 -4.11008,2.4038c-0.038,0.01449 -0.07617,0.02847 -0.11449,0.04196zM440.49948,174.1764c0.53445,-0.21211 1.07596,-0.43292 1.62182,-0.64137c-0.2625,0.03808 -0.52192,0.094 -0.77721,0.17392c-0.30779,0.09636 -0.58013,0.27312 -0.84461,0.46744zM471.32804,173.9767c1.62146,-0.40149 3.25674,-0.80431 4.89869,-1.19861c0.40877,-0.23898 0.81644,-0.48153 1.22209,-0.72933l-0.94917,-0.04037c-0.11671,-0.00429 -0.22932,-0.02457 -0.33572,-0.05873c-1.68061,0.60134 -3.33418,1.24486 -4.83589,2.02704z" fill="#6c6c6c" stroke-width="0.5"/><path d="M512.4066,-6.75374l-0.97354,0.31386c-0.79314,0.25569 -1.58628,0.51139 -2.37941,0.76708c-1.08346,0.34919 -2.17106,0.6754 -3.26191,0.98349c0.10597,0.00022 0.18327,0.00037 0.22531,0.00037c0,0 1.25,0 1.25,1.25c0,1.25 -1.25,1.25 -1.25,1.25c-1.53517,0 -3.14854,-0.54905 -4.60507,-0.06402c-1.43829,0.47895 -2.37459,1.88217 -3.60031,2.7785l-1.77221,1.70642l-0.01264,-0.01312l-0.0307,0.05293c-0.62946,0.49683 -1.31091,0.97554 -2.03129,1.43493c0.03459,0.11455 0.05318,0.23604 0.05318,0.36187c0,0.69036 -0.55964,1.25 -1.25,1.25v0h-1.62658c-2.03584,1.04745 -4.22047,1.95922 -6.33573,2.7156l0.07173,0.1083l-2.06983,1.37096c-0.08258,0.05647 -0.17229,0.10329 -0.26749,0.13884c-0.07975,0.09258 -0.17284,0.17335 -0.27627,0.23932l-2.07103,1.3646l-0.05903,-0.08959l-0.23673,0.23274c-6.77596,0.47935 -13.01515,2.67354 -19.67182,3.99601c-1.63747,0.32531 -3.46323,0.95586 -5.19625,1.12535c-0.73788,0.14775 -1.47983,0.28735 -2.22656,0.41796l-0.04513,-0.00936l0.00152,0.01464l-2.46955,0.25568c-0.04786,0.00557 -0.09654,0.00843 -0.14589,0.00843c-0.69036,0 -1.25,-0.55964 -1.25,-1.25c0,-0.62371 0.45681,-1.14072 1.0541,-1.23474l2.44105,-0.43015l0.03042,0.1726l0.04958,-0.00514c0.48666,-0.08549 0.97125,-0.1749 1.45396,-0.26799c1.57639,-0.43383 3.17702,-0.75111 4.79611,-1.05023c4.01327,-0.97689 7.94113,-2.16067 11.90891,-3.40349c-2.97466,-0.11492 -6.02232,-0.26662 -8.87324,0.07535c-3.17021,0.38027 -6.46326,1.58347 -9.56899,2.33994c-3.78733,0.92249 -7.63154,1.73842 -11.41868,2.72282c-1.38306,0.53982 -2.81307,1.01753 -4.14158,1.16569c-0.43404,0.13326 -0.86674,0.27016 -1.29793,0.41115l-2.34875,0.76701c-0.13007,0.04586 -0.27002,0.07081 -0.41578,0.07081c-0.69036,0 -1.25,-0.55964 -1.25,-1.25c0,-0.56223 0.37119,-1.03776 0.88187,-1.19491l2.34423,-0.78184l0.00495,0.01485l0.00741,-0.00242c0.92077,-0.30032 1.84974,-0.59789 2.78587,-0.89104c2.13097,-0.84494 4.35044,-1.50456 6.68872,-2.284c4.85411,-1.61805 9.98537,-3.93809 15.06705,-5.40318c0.0012,-0.06654 0.00761,-0.1318 0.01882,-0.1954c-1.26525,0.03039 -2.52982,0.0691 -3.79351,0.1178c-3.35336,0.12925 -6.44383,0.52354 -9.7533,1.03818c-0.67248,0.10458 -1.4282,-0.06253 -2.02429,0.26586c-0.45211,0.24907 -0.78404,0.61908 -1.04471,1.05834l0.13382,0.01484l-0.27398,2.46979c-0.06172,0.6327 -0.59514,1.12715 -1.24404,1.12715c-0.59941,0 -1.10028,-0.4219 -1.22184,-0.98495l-0.57389,-2.40698c-0.47058,-2.00307 -0.6066,-3.37574 -0.43836,-4.79782c-0.02767,-0.07381 -0.05723,-0.14579 -0.08911,-0.21554l0.14263,-0.17481c0.00055,-0.00352 0.0011,-0.00705 0.00164,-0.01057l-0.16157,0.0035l-0.00065,-0.02999l-0.06113,-0.00018l0.00735,-2.49952c0.00173,-0.68888 0.56071,-1.2468 1.25,-1.2468c0.68243,0 1.23714,0.54688 1.24978,1.2263l0.05406,2.49606l-0.03071,0.00067c-0.02857,0.19893 -0.09567,0.43034 -0.13722,0.6402c0.06088,0.19908 0.10892,0.40071 0.14846,0.60571c0.00979,0.00286 0.02003,0.00533 0.03076,0.0074c0.60321,0.11618 0.8531,-0.96336 1.43721,-1.15353c0.17267,-0.05621 0.34866,-0.09585 0.52699,-0.12373l1.75241,-1.04732l0.23605,0.39496c1.81882,-1.16328 3.84596,-2.04776 5.98573,-2.75502c0.07267,-0.55677 0.51172,-0.99836 1.06727,-1.07488l2.38131,-0.36906c0.00275,-0.00087 0.00551,-0.00174 0.00826,-0.0026c-0.12428,-0.02454 -0.2491,-0.04669 -0.3745,-0.06615c-1.63565,-0.00001 -3.27132,-0.00001 -4.90697,-0.00001h-2.5c-0.69036,0 -1.25,-0.55964 -1.25,-1.25c0,-0.69036 0.55964,-1.25 1.25,-1.25h2.5v0v0c4.67529,0 9.35058,-0.00006 14.02587,0.00012c1.00231,-0.32412 1.99475,-0.67365 2.97071,-1.0653c1.52888,-0.61352 3.18561,-1.64202 4.82636,-2.39063c-2.41141,0.10207 -6.19854,0.20559 -6.71981,-0.65212c-2.10494,-3.46354 1.85067,-4.51897 3.4955,-5.33868c2.31371,-0.82506 4.88728,-2.11855 7.29576,-2.58421c3.25685,-0.62968 6.78053,0.00878 10.07115,-0.41104c1.55678,-0.19862 3.35859,-0.89784 4.91075,-1.0645c4.10259,-0.44049 8.50444,-0.00682 12.63351,-0.00664c4.2418,0.00018 8.40327,-0.28022 12.50961,0.31735l0.00324,-0.31389l2.49824,0.02581c0.68516,0.00606 1.23872,0.56336 1.23872,1.24995c0,0.59887 -0.42115,1.09937 -0.98343,1.22151l-2.40616,0.57702c-8.13665,1.95124 -16.13137,3.55946 -24.11888,6.09572c-4.49417,1.42703 -8.99761,3.05689 -13.531,4.51713c0.32052,0.03265 0.64113,0.07041 0.96215,0.11404c0.10564,-0.01073 0.17636,-0.0179 0.20343,-0.02067l0.11768,-0.01204l0.00089,-0.25754l2.49944,0.00859c0.68863,0.00202 1.24625,0.56089 1.24625,1.25c0,0.65219 -0.49947,1.18772 -1.13677,1.24494l-2.473,0.25307c-1.58377,0.16207 -3.2242,0.02294 -4.75333,0.46609c-1.62087,0.46974 -2.89455,1.85963 -4.53735,2.24575c-0.18365,0.04317 -4.94029,0.03089 -5.28661,0.03072c-2.00603,-0.00098 -3.91771,0.04458 -5.79883,-0.00953c-0.23291,0.15024 -0.46911,0.29571 -0.70851,0.43638c4.13524,-0.31262 8.27898,-0.30795 12.15749,0.53383c0.54099,-0.08582 1.062,-0.18698 1.55166,-0.31492c4.02594,-1.05194 7.8519,-2.89402 11.889,-3.90307c8.11192,-2.02751 16.21531,-3.01959 24.23741,-5.60653c0.79314,-0.25569 2.55982,-0.82524 3.35295,-1.08093c0,0 1.18971,-0.38354 1.57324,0.80616c0.38354,1.18971 -0.80617,1.57324 -0.80617,1.57324zM477.61659,2.29448c-0.3567,0.11713 -0.71201,0.23129 -1.06635,0.34258c1.13236,0.02749 2.26322,0.05485 3.3918,0.0797c2.7835,-0.17995 5.55214,-0.2058 8.27552,0.10182c0.24159,0 0.48318,0 0.72476,0c1.57227,-0.89473 3.1311,-1.77801 4.78898,-2.51935c0.18773,-0.12476 0.37545,-0.25056 0.56324,-0.3774l-0.11376,-0.20516l2.06638,-1.14582c0.01546,-0.01093 0.03092,-0.02186 0.04639,-0.03279c0.17655,-0.12485 0.89972,-0.67305 1.70709,-1.27909c-6.8295,1.54768 -13.69833,2.84012 -20.38405,5.03552zM463.61287,6.99435c-1.38859,0.24632 -2.78928,0.59349 -4.19432,1.00663c3.25171,-0.43156 6.49352,-0.6771 9.68705,-0.67658c3.10607,0.0005 6.00205,-0.12698 8.90292,0.1933c1.8302,-0.51747 3.65798,-1.06538 5.35269,-1.79435c0.26851,-0.1155 0.53368,-0.23423 0.79593,-0.35571c-0.47396,-0.02803 -0.93957,-0.04906 -1.38912,-0.04906c-3.29244,0 -6.54981,0.30666 -9.8046,0.63446c-3.13412,0.55786 -6.26733,0.4944 -9.35055,1.04133zM490.88998,-11.41122c5.15699,-1.63749 10.31838,-2.89303 15.51783,-4.10106c-1.30631,-0.09534 -2.51911,-0.18961 -3.5027,-0.18965c-4.03842,-0.00017 -8.35493,-0.43837 -12.3665,-0.00765c-1.64892,0.17704 -3.21619,0.8488 -4.86126,1.05868c-3.23132,0.41226 -6.72124,-0.2314 -9.91298,0.38569c-2.25622,0.43622 -4.6664,1.67688 -6.83492,2.44807c-0.59938,0.22895 -1.2561,0.34352 -1.79814,0.68685c-0.29598,0.18747 -0.94326,0.70477 -0.62291,0.84664c0.48084,0.21294 0.98838,-0.39578 1.51111,-0.45329c1.65335,-0.18191 3.32662,0.0175 4.98993,0.02627l2.49913,0.01318c0.68771,0.0031 1.24425,0.56155 1.24425,1.24998c0,0.4149 -0.20214,0.78259 -0.51331,1.00995l-1.99054,1.48813l-0.2131,-0.28505c-1.13828,0.92597 -2.34895,1.70682 -3.61451,2.38283c6.89152,-1.78558 13.69134,-4.4076 20.46862,-6.55958zM469.67296,-1.65278c0.46594,-0.10952 0.90046,-0.30378 1.32131,-0.53552c-0.30196,-0.00003 -0.60392,-0.00005 -0.90588,-0.00008c-1.26945,0.31283 -2.56176,0.53247 -3.85907,0.73161c1.24295,0.07118 2.41544,0.04565 3.44364,-0.19601z" data-paper-data="{&quot;index&quot;:null}" fill="#6c6c6c" stroke-width="0.5"/><path d="M190.6625,148.84476v-2.63466h23.4192v2.63466z" fill="#e6e83c" stroke-width="0"/><path d="M34.64555,148.19504v-2.63466h23.41921v2.63466z" fill="#e6e83c" stroke-width="0"/><path d="M382.15967,148.95775v-2.63466h23.4192v2.63466z" fill="#e6e83c" stroke-width="0"/><path d="M517.80939,149.01426v-2.63466h23.4192v2.63466z" fill="#e6e83c" stroke-width="0"/><g fill="#f7f7f7" stroke-width="0"><path d="M65.25886,11.81337c0,10.53086 -9.95977,19.0678 -22.24576,19.0678c-12.28599,0 -22.24576,-8.53694 -22.24576,-19.06779c0,-10.53085 9.95977,-19.0678 22.24577,-19.0678c12.286,0 22.24576,8.53694 22.24576,19.0678z"/><path d="M85.73909,6.86987c0,10.92088 -12.96351,19.77401 -28.95481,19.77401c-15.99129,0 -28.9548,-8.85313 -28.9548,-19.77401c0,-10.92089 12.96351,-19.77401 28.9548,-19.77401c15.9913,0 28.95481,8.85312 28.95481,19.77401z"/><path d="M109.75039,16.40376c0,11.89597 -12.64733,21.53955 -28.24859,21.53955c-15.60127,0 -28.24859,-9.64358 -28.24859,-21.53954c0,-11.89596 12.64732,-21.53955 28.24859,-21.53955c15.60127,0 28.24859,9.64359 28.24859,21.53955z"/><path d="M145.06112,6.51677c0,12.67603 -14.54442,22.95197 -32.48587,22.95197c-17.94146,0 -32.48588,-10.27595 -32.48588,-22.95197c0,-12.67602 14.54442,-22.95198 32.48588,-22.95198c17.94145,0 32.48587,10.27596 32.48587,22.95198z"/><path d="M169.77864,11.46027c0,13.45609 -12.01495,24.36441 -26.83615,24.36441c-14.8212,0 -26.83616,-10.90832 -26.83616,-24.3644c0,-13.45609 12.01496,-24.3644 26.83616,-24.3644c14.8212,0 26.83615,10.90832 26.83615,24.36441z"/></g><g fill="#f7f7f7" stroke-width="0"><path d="M247.55142,3.40517c-0.98604,10.48459 -11.7014,18.05145 -23.93342,16.90107c-12.23202,-1.15038 -21.34869,-10.58239 -20.36264,-21.06698c0.98604,-10.48459 11.7014,-18.05146 23.93342,-16.90108c12.23202,1.15038 21.34868,10.58239 20.36264,21.06698z"/><path d="M268.40456,0.40102c-1.02256,10.87291 -14.75807,18.47332 -30.67911,16.97599c-15.92104,-1.49732 -27.99864,-11.52538 -26.97608,-22.39828c1.02256,-10.87291 14.75807,-18.47332 30.67911,-16.97599c15.92104,1.49732 27.99865,11.52538 26.97608,22.39828z"/><path d="M291.41767,12.1413c-1.11386,11.8437 -14.60859,20.2607 -30.14131,18.79989c-15.53272,-1.4608 -27.22152,-12.24623 -26.10765,-24.08994c1.11386,-11.8437 14.60859,-20.2607 30.14131,-18.7999c15.53272,1.4608 27.22152,12.24624 26.10766,24.08994z"/><path d="M327.49903,5.604c-1.1869,12.62034 -16.6296,21.48929 -34.49223,19.80937c-17.86263,-1.67993 -31.38098,-13.27258 -30.19408,-25.89291c1.1869,-12.62034 16.6296,-21.4893 34.49223,-19.80937c17.86263,1.67993 31.38098,13.27258 30.19408,25.89292z"/><path d="M351.64507,12.84018c-1.25994,13.39697 -14.2435,23.13236 -28.99959,21.7446c-14.75609,-1.38776 -25.69687,-13.37316 -24.43693,-26.77014c1.25994,-13.39697 14.24351,-23.13236 28.99959,-21.7446c14.75609,1.38776 25.69687,13.37316 24.43693,26.77013z"/></g><g data-paper-data="{&quot;index&quot;:null}" fill="#f7f7f7" stroke-width="0"><path d="M448.99669,41.54876c-12.23202,1.15039 -22.94738,-6.41648 -23.93342,-16.90107c-0.98604,-10.48459 8.13063,-19.91659 20.36264,-21.06697c12.23202,-1.15038 22.94737,6.41648 23.93341,16.90107c0.98604,10.48459 -8.13062,19.91659 -20.36264,21.06698z"/><path d="M463.23638,45.88423c-15.92104,1.49733 -29.65654,-6.10308 -30.67911,-16.97599c-1.02256,-10.8729 11.05504,-20.90096 26.97608,-22.39828c15.92104,-1.49732 29.65655,6.10309 30.67912,16.97599c1.02256,10.8729 -11.05505,20.90096 -26.97609,22.39828z"/><path d="M487.11793,35.83561c-15.53273,1.46081 -29.02744,-6.9562 -30.14131,-18.7999c-1.11386,-11.8437 10.57493,-22.62913 26.10765,-24.08993c15.53272,-1.46081 29.02745,6.95619 30.14132,18.79989c1.11386,11.84371 -10.57493,22.62914 -26.10766,24.08994z"/><path d="M519.11287,44.17588c-17.86264,1.67992 -33.30533,-7.18903 -34.49223,-19.80937c-1.18691,-12.62033 12.33144,-24.21299 30.19408,-25.89291c17.86264,-1.67992 33.30533,7.18903 34.49224,19.80937c1.1869,12.62034 -12.33144,24.213 -30.19408,25.89292z"/><path d="M549.01606,37.81692c-14.75609,1.38777 -27.73965,-8.34762 -28.9996,-21.74459c-1.25995,-13.39697 9.68085,-25.38237 24.43693,-26.77013c14.75608,-1.38777 27.73964,8.34762 28.99959,21.74459c1.25995,13.39698 -9.68084,25.38237 -24.43692,26.77014z"/></g></g></g></svg>