<svg version="1.1" xmlns="http://www.w3.org/2000/svg" xmlns:xlink="http://www.w3.org/1999/xlink" width="16.96876" height="24.69629" viewBox="0,0,16.96876,24.69629"><g transform="translate(-231.51562,-167.65185)"><g data-paper-data="{&quot;isPaintingLayer&quot;:true}" fill-rule="nonzero" stroke="none" stroke-width="1" stroke-linecap="butt" stroke-linejoin="miter" stroke-miterlimit="10" stroke-dasharray="" stroke-dashoffset="0" style="mix-blend-mode: normal"><g><path d="M232.30748,192.0427c-0.39162,-0.62659 -0.86156,-11.51356 -0.78323,-17.27034l0.11748,-5.67846l1.29234,-0.70491c1.52731,-0.78323 4.73857,-0.93988 5.326,-0.19581c0.23497,0.27413 0.78323,1.48815 1.25317,2.74132c1.29234,3.40707 2.07557,2.70216 1.17485,-1.09653c-0.19581,-0.93988 -0.19581,-1.72312 0,-1.91893c0.43078,-0.43078 5.79595,-0.31329 6.6575,0.15665c0.62659,0.31329 0.70491,1.64479 0.97904,11.78769c0.27413,10.76949 0.23497,11.4744 -0.43078,11.9835c-0.8224,0.62659 -4.97354,0.66575 -6.07007,0.11749c-0.39162,-0.23497 -1.37066,-1.64479 -2.11473,-3.13294c-0.74407,-1.52731 -1.44899,-2.74133 -1.48815,-2.74133c-0.07832,0 -0.11749,1.37067 -0.07832,3.05462v3.01546l-2.81965,0.11749c-1.52731,0.07832 -2.89797,-0.03916 -3.01546,-0.23497z" fill="#000000"/><path d="M233.83479,188.3615c-0.39162,-2.93713 -0.93988,-17.30951 -0.62659,-17.58364c0.11749,-0.15665 0.90072,-0.35245 1.72312,-0.46994c1.40982,-0.23497 1.48815,-0.15665 2.31055,1.40982c0.46994,0.90072 1.56647,3.40707 2.42803,5.56097c1.44899,3.4854 1.72312,3.91618 2.58467,3.91618c0.86156,0 0.97904,-0.15665 0.90072,-1.37066c-0.03916,-0.74407 -0.19581,-3.28959 -0.35245,-5.60014l-0.27413,-4.22947l1.5273,0.27413c0.8224,0.11749 1.6448,0.3133 1.76228,0.39162c0.11749,0.03916 0.23497,4.42528 0.31329,9.75128c0.07832,8.69391 0.03916,9.63379 -0.58743,9.86877c-1.6448,0.62659 -2.58468,-0.35245 -5.24768,-5.36516c-1.91893,-3.56372 -2.85881,-4.93438 -3.44624,-5.01271c-0.54827,-0.07832 -0.90072,0.15665 -1.05736,0.74408c-0.27413,0.8224 0.07832,7.75403 0.43078,9.08553c0.15665,0.5091 -0.03916,0.66575 -0.93988,0.66575c-1.09653,0 -1.17486,-0.11748 -1.44899,-2.03641z" fill="#f9f9f9"/></g></g></g></svg>