<svg version="1.1" xmlns="http://www.w3.org/2000/svg" xmlns:xlink="http://www.w3.org/1999/xlink" width="9.86815" height="11.27404" viewBox="0,0,9.86815,11.27404"><g transform="translate(-235.06593,-174.36298)"><g data-paper-data="{&quot;isPaintingLayer&quot;:true}" fill="#000000" fill-rule="nonzero" stroke="none" stroke-width="1" stroke-linecap="butt" stroke-linejoin="miter" stroke-miterlimit="10" stroke-dasharray="" stroke-dashoffset="0" style="mix-blend-mode: normal"><path d="M235.82659,185.19608c-0.74407,-0.74407 -0.54827,-1.64479 0.5091,-2.663l0.93988,-0.90072l-1.17485,-1.6448c-1.60563,-2.23222 -1.3315,-3.40707 0.74407,-3.25043c1.29234,0.11749 1.48815,0 1.8406,-1.05737c0.23497,-0.74407 0.70491,-1.21401 1.25318,-1.29234c0.70491,-0.11749 0.93988,0.15665 1.29234,1.52731c0.35245,1.21401 0.54827,1.5273 0.90072,1.17485c0.70491,-0.70491 2.1539,-0.5091 2.62384,0.35245c0.35245,0.66575 0.23497,1.05737 -0.8224,2.38887l-1.25317,1.56647l0.90072,0.93988c1.76228,1.87976 -0.27413,3.64204 -2.74132,2.34971c-1.21401,-0.62659 -1.29234,-0.62658 -2.11474,0.15665c-0.97904,0.90072 -2.19306,1.05737 -2.89797,0.35245z"/></g></g></svg>