<svg version="1.1" xmlns="http://www.w3.org/2000/svg" xmlns:xlink="http://www.w3.org/1999/xlink" width="18.4421" height="25.1003" viewBox="0,0,18.4421,25.1003"><g transform="translate(-230.77895,-167.44985)"><g data-paper-data="{&quot;isPaintingLayer&quot;:true}" fill-rule="nonzero" stroke="none" stroke-width="1" stroke-linecap="butt" stroke-linejoin="miter" stroke-miterlimit="10" stroke-dasharray="" stroke-dashoffset="0" style="mix-blend-mode: normal"><g><path d="M232.7762,192.28473c-1.68395,-0.5091 -1.99725,-1.25317 -1.99725,-4.8169c0.03916,-3.21126 0.5091,-3.48539 5.05187,-3.1721c2.93713,0.19581 3.75953,0.11749 4.85606,-0.46994c1.60563,-0.8224 1.80144,-1.25317 1.05737,-2.27138c-0.39162,-0.58743 -1.21401,-0.78323 -3.79869,-0.97904c-3.87702,-0.27413 -5.16935,-0.8224 -6.30504,-2.663c-0.66575,-1.05737 -0.78324,-1.72312 -0.58743,-3.40707c0.27413,-2.58468 1.52731,-5.09103 3.05462,-6.03091c1.3315,-0.8224 6.69666,-1.29234 10.1429,-0.86156l2.15389,0.23497v3.13294v3.13294l-3.79869,-0.11749c-2.27138,-0.07832 -3.83785,0 -3.83785,0.23497c0,0.46994 1.37066,0.86156 3.25043,0.86156c4.8169,0 7.71487,3.75953 7.12744,9.12469c-0.5091,4.42528 -1.91893,6.50085 -5.28684,7.67571c-1.8406,0.62659 -9.24217,0.90072 -11.08278,0.39162z" fill="#000000"/><path d="M234.06854,190.48329c-0.86156,-0.35245 -1.17486,-0.93988 -1.17486,-2.31054v-1.21402l4.07283,-0.23497c4.30779,-0.23497 5.99175,-0.78323 7.04912,-2.31054c0.78323,-1.09653 0.78323,-2.38887 0.03916,-3.83785c-0.8224,-1.60563 -1.8406,-2.03641 -5.8351,-2.38887c-2.34971,-0.23497 -3.72037,-0.54827 -4.22947,-0.97904c-1.40982,-1.29234 -0.54827,-5.75678 1.37066,-6.9708c0.5091,-0.31329 2.54552,-0.66575 4.89522,-0.8224l3.9945,-0.27414v1.40982v1.40983h-2.89797c-2.31054,0 -3.05462,0.15664 -3.91618,0.8224c-2.27138,1.80144 -0.78323,3.87702 3.01546,4.30779c2.9763,0.27413 5.09103,1.21401 5.79594,2.58467c0.70491,1.3315 0.70491,6.34421 0,7.67571c-0.74407,1.40982 -3.72037,2.58468 -7.59739,3.01546c-3.56372,0.43078 -3.72037,0.43078 -4.58192,0.11749z" fill="#f9f9f9"/></g></g></g></svg>