<svg version="1.1" xmlns="http://www.w3.org/2000/svg" xmlns:xlink="http://www.w3.org/1999/xlink" width="19.09463" height="26.11563" viewBox="0,0,19.09463,26.11563"><g transform="translate(-230.45269,-166.94219)"><g data-paper-data="{&quot;isPaintingLayer&quot;:true}" fill-rule="nonzero" stroke="none" stroke-width="1" stroke-linecap="butt" stroke-linejoin="miter" stroke-miterlimit="10" stroke-dasharray="" stroke-dashoffset="0" style="mix-blend-mode: normal"><g><path d="M235.47099,192.12841c-2.31054,-1.29234 -3.72037,-3.32875 -4.54276,-6.6575c-1.52731,-5.95259 0.78323,-14.52902 4.66025,-17.38782c1.60563,-1.17486 1.76228,-1.21401 5.05187,-1.09653c3.83785,0.11749 4.77774,0.62659 6.69666,3.28959c2.70216,3.83785 2.9763,12.96254 0.54827,17.62279c-2.34971,4.42528 -8.38062,6.50085 -12.41428,4.22947zM241.5019,183.78696c1.99725,-2.07558 1.64479,-7.40158 -0.58743,-8.77224c-1.76228,-1.09653 -3.6812,2.31054 -3.40707,6.03091c0.27413,3.72037 1.95809,4.89523 3.9945,2.74133z" fill="#000000"/><path d="M237.1941,190.64026c-2.89797,-1.29234 -4.46444,-4.62109 -4.46444,-9.51631c0.03916,-4.77774 1.72312,-9.51631 4.03366,-11.1611c1.6448,-1.17486 5.44349,-1.25317 7.08828,-0.15664c3.32875,2.1539 4.66025,12.29679 2.19306,17.03537c-1.80144,3.52456 -5.67846,5.16935 -8.85056,3.79869zM242.16765,186.05834c1.37066,-0.97904 2.58468,-3.21126 2.93713,-5.36516c0.54827,-3.36791 -2.07557,-7.91067 -4.58192,-7.91067c-1.60563,0 -4.03366,2.3497 -4.62109,4.5036c-0.97904,3.60288 -0.11749,8.06732 1.80144,9.16385c1.13569,0.66575 3.25043,0.46994 4.46444,-0.39162z" fill="#f9f9f9"/></g></g></g></svg>