<svg version="1.1" xmlns="http://www.w3.org/2000/svg" xmlns:xlink="http://www.w3.org/1999/xlink" width="13.06733" height="20.71779" viewBox="0,0,13.06733,20.71779"><g transform="translate(-233.46633,-169.6411)"><g data-paper-data="{&quot;isPaintingLayer&quot;:true}" fill="#000000" fill-rule="nonzero" stroke="none" stroke-width="1" stroke-linecap="butt" stroke-linejoin="miter" stroke-miterlimit="10" stroke-dasharray="" stroke-dashoffset="0" style="mix-blend-mode: normal"><path d="M242.33543,189.57442c-0.70491,-0.70491 -0.78323,-1.21402 -0.74407,-3.9945c0.03916,-1.76228 0.07832,-3.40707 0.03916,-3.64204c-0.03916,-0.27413 -1.44899,-0.5091 -3.64204,-0.66575c-4.15115,-0.27413 -4.8169,-0.74408 -4.42528,-2.93713c0.23497,-1.25317 2.23222,-6.6575 2.89797,-7.91067c0.43078,-0.8224 1.76228,-0.93988 2.38887,-0.19581c0.54827,0.66575 0.62659,3.25043 0.19581,5.24768c-0.27413,1.21401 -0.23497,1.21402 1.3315,1.21402h1.60563v-1.99725c0,-1.13569 0.19581,-2.70216 0.46994,-3.52456c0.39162,-1.37066 0.58742,-1.52731 1.72312,-1.52731c0.8224,0 1.3315,0.23497 1.52731,0.70491c0.31329,0.86156 1.01821,9.12469 0.78323,9.51631c-0.11749,0.15665 -0.27413,2.27138 -0.39162,4.73857c-0.19581,3.87702 -0.31329,4.5036 -1.01821,5.13019c-1.09653,0.86156 -1.72312,0.86156 -2.74132,-0.15665z"/></g></g></svg>