<svg version="1.1" xmlns="http://www.w3.org/2000/svg" xmlns:xlink="http://www.w3.org/1999/xlink" width="16.66827" height="26.23849" viewBox="0,0,16.66827,26.23849"><g transform="translate(-231.66586,-166.88075)"><g data-paper-data="{&quot;isPaintingLayer&quot;:true}" fill-rule="nonzero" stroke="none" stroke-width="1" stroke-linecap="butt" stroke-linejoin="miter" stroke-miterlimit="10" stroke-dasharray="" stroke-dashoffset="0" style="mix-blend-mode: normal"><g><path d="M232.78693,192.8192c-0.31329,-0.19581 -0.58743,-2.78048 -0.86156,-8.10648c-0.19581,-4.26863 -0.31329,-7.91067 -0.23497,-8.06732c0.11749,-0.11749 0.19581,-2.19306 0.23497,-4.58193l0.03916,-4.38612l1.40982,-0.39162c2.23222,-0.62659 4.66025,-0.5091 4.93438,0.23497c0.11749,0.35245 0.23497,1.56647 0.23497,2.74132c0,1.17486 0.15665,2.11474 0.35246,2.11474c0.39162,0 2.78048,-3.60288 2.78048,-4.19031c0,-0.46994 0.90072,-0.90072 1.76228,-0.90072c0.70491,0 4.89522,3.87702 4.89522,4.5036c0,0.27413 -0.3133,0.74408 -0.66575,1.01821c-0.93988,0.78323 -5.20851,6.26588 -5.20851,6.69666c0,0.46994 1.64479,2.70216 3.79869,5.16935c1.13569,1.25317 1.68396,2.23222 1.68396,2.9763c0,1.37066 -3.28959,5.60014 -4.22947,5.40432c-0.35245,-0.07832 -1.17485,-0.8224 -1.8406,-1.72312c-0.62659,-0.86156 -1.56647,-2.11473 -2.03641,-2.74132l-0.86156,-1.13569v2.46719c-0.03916,2.27138 -0.11749,2.46719 -1.05737,2.81965c-1.17486,0.46994 -4.46444,0.5091 -5.13019,0.07832z" fill="#000000"/><path d="M234.07927,187.57153c-0.15665,-1.80144 -0.27413,-6.6575 -0.35245,-10.80864l-0.07832,-7.51906h1.25317c1.21401,0 1.25317,0.03916 1.44899,2.27138c0.54827,5.05187 0.74407,5.75678 1.76228,5.75678c0.70491,0 1.17486,-0.43078 1.91893,-1.76228c0.54827,-0.97904 1.52731,-2.58467 2.23222,-3.60288l1.25317,-1.87976l0.90072,0.97904l0.90072,0.93988l-2.62384,3.21126c-3.1721,3.87702 -3.25043,4.58193 -0.97904,7.71487c0.90072,1.21401 1.8406,2.42802 2.11473,2.62384c0.23497,0.23497 0.74408,0.86156 1.13569,1.44899c0.66575,1.01821 0.66575,1.09653 -0.03916,2.03641c-0.39162,0.54827 -0.8224,1.01821 -0.93988,1.01821c-0.11749,0 -1.25318,-1.44899 -2.50635,-3.21126c-2.78048,-3.95534 -3.21126,-4.30779 -4.15115,-3.79869c-0.66575,0.31329 -0.74407,0.86156 -0.74407,4.07282v3.72037h-1.13569h-1.13569z" fill="#f9f9f9"/></g></g></g></svg>