<svg version="1.1" xmlns="http://www.w3.org/2000/svg" xmlns:xlink="http://www.w3.org/1999/xlink" width="157.18235" height="55.34094" viewBox="0,0,157.18235,55.34094"><g transform="translate(-241.40884,-161.80856)"><g data-paper-data="{&quot;isPaintingLayer&quot;:true}" fill-rule="nonzero" stroke="none" stroke-width="1" stroke-linecap="butt" stroke-linejoin="miter" stroke-miterlimit="10" stroke-dasharray="" stroke-dashoffset="0" style="mix-blend-mode: normal"><path d="M256.01563,200.4805c-4.24955,-1.32548 -8.77893,1.09137 -12.86127,-2.36891c-3.41124,-2.89175 -0.22407,-9.76662 4.5851,-10.05089c-0.61536,-6.35092 0.22296,-12.27712 7.60395,-13.55801c8.72319,-1.51722 16.49546,0 25.38586,1.04344c16.49546,1.99212 22.42165,0 38.91822,0c0,-4.78799 1.22961,-12.98835 1.22961,-12.98835c0,0 14.31494,9.86138 14.87345,12.98723c0.3924,2.18832 14.98493,-2.27527 21.02483,-2.27527c10.12113,0 16.15879,0.56966 24.93772,4.93069c4.13808,2.03671 5.31306,3.74344 7.94061,7.20596c2.23737,2.93857 1.28646,6.92058 5.36657,6.92058c4.13919,8.53144 -5.36656,10.28723 -12.52348,11.37637c-7.10229,1.09137 -3.85827,-9.57488 -10.28834,-12.42092c-8.0532,-3.60075 -14.93142,-3.08126 -21.35926,2.37115c-4.08123,3.46029 -3.80253,7.96402 -4.47474,12.70408c-24.04255,-3.22395 -41.76873,-2.17941 -59.83046,-2.17941c-0.6711,-2.9408 -1.17387,-4.26739 -2.23626,-7.20596c-1.78923,-4.83594 -5.53491,-7.49246 -11.40647,-8.2494c-8.55485,-1.13596 -16.88563,4.4112 -16.88563,11.75762z" fill="#cc1d1d"/><path d="M337.04147,174.74794c7.52033,-0.88849 25.75708,-3.61414 34.98526,-1.72681c12.81221,2.62086 16.72065,8.44115 21.77285,18.09295c1.46929,-0.14827 2.77135,-0.12262 3.62639,1.04678c1.52614,2.08576 1.68667,6.17702 -0.32217,8.13235c-2.84716,2.76467 -14.14104,3.74901 -18.42515,4.44129c-0.80599,-1.70674 -2.01776,-11.26155 -9.93718,-13.80326c-4.95187,-1.58968 -11.21027,-0.12932 -15.21569,2.58741c-5.20047,3.5294 -5.43457,8.2494 -5.87603,13.44876c-3.22172,0.13266 -6.69985,-0.8595 -9.93049,-1.17052c-17.43745,-1.66995 -34.99196,-1.63762 -52.5119,-0.72573c0.30991,-2.24517 -0.91859,-9.08214 -5.31975,-12.85903c-5.57058,-4.78131 -20.76954,-1.87507 -22.74939,4.75789c-0.51949,1.73572 -0.28427,2.78585 -0.33555,4.55055c-2.9631,0.3322 -5.45129,0.272 -8.40213,-0.05909c-5.43234,-0.60755 -6.15138,-3.57957 -6.76674,-5.73779c-0.59195,-2.0735 -0.06689,-4.70439 2.18832,-5.88383c0.53956,-0.28315 1.30207,-0.65104 1.72346,0.02341c0.73575,1.18167 -1.32993,2.42242 -1.49381,3.69216c-0.75136,5.83701 6.01649,6.34646 11.18463,5.78573c-0.22407,-9.00745 16.18666,-16.0997 24.80394,-9.45113c3.78357,2.91962 7.12905,7.97294 7.40329,13.33839c13.62266,-1.56627 41.33953,-0.99996 57.23746,1.80929c0.44369,-4.21612 2.72119,-9.9762 6.31414,-13.11766c4.39783,-3.84377 12.11101,-4.75456 16.9815,-3.77243c6.46352,1.29984 10.32067,8.11786 11.39756,13.38298c1.32437,0.04013 10.99511,-0.709 12.45436,-1.15492c4.19828,-1.29315 3.44691,-6.56273 3.44691,-6.56273c0,0 -3.39675,0.40466 -3.8605,-0.02787c-0.46152,-0.43476 -1.21065,-3.35438 -1.21065,-3.35438l-10.1267,1.10363l-1.28869,-8.09668l6.75782,-1.10586c-11.68962,-12.04524 -49.01148,-5.1425 -49.60343,-5.29523c-4.23284,-4.57842 -13.2938,-12.72526 -14.14215,-12.65726c-0.84947,0.068 -1.56516,8.48908 -1.64654,12.75759c-1.79257,0.25528 -14.89797,0.58526 -19.75286,0.51837c-11.64838,-0.16276 -23.23544,-1.21177 -34.80021,-2.32321c-6.28738,-0.6031 -13.63939,-0.00446 -16.88786,5.33089c1.53172,0.79818 6.9518,2.00661 6.9518,2.00661l-0.43923,6.38994l-9.56373,-0.71234c-1.96982,-2.14039 -1.23964,-5.25175 0.03122,-7.55043c1.0702,-1.93861 3.86384,-5.10236 6.02763,-6.20711c6.81802,-3.47701 23.51414,-0.48048 27.38913,-0.06243c10.84462,1.17052 34.70211,1.22292 38.62281,0.9052c0.6109,-0.42362 0.50277,-13.23806 2.60637,-13.61597c2.10471,-0.37679 16.70169,12.9315 16.70169,12.9315z" fill="#272525"/><path d="M333.38608,177.00315l-11.22142,0.204c0,0 -0.38348,-10.31844 0.6031,-10.60271c0.98658,-0.2865 10.61831,10.39871 10.61831,10.39871z" fill="#272525"/><path d="M329.61143,175.51045l-5.28407,-0.01783c-0.20623,-1.84385 -0.61536,-5.14585 -0.03122,-5.33313c0.57969,-0.1884 3.66652,3.6119 5.31529,5.35097z" fill="#99ffff"/><path d="M295.56926,179.57941c-0.02675,1.13708 -0.21292,17.12532 -0.23076,18.00042c-0.01783,0.87622 -2.06681,1.16383 -2.06347,0.13935c0.00335,-1.02337 0.7168,-16.83101 0.68001,-17.97366c-0.03456,-1.14154 1.64208,-1.30095 1.61421,-0.1661z" fill="#272525"/><path d="M253.46723,186.49553l-5.43122,-0.46375l0.11593,-2.92407l5.27851,0.87176z" fill="#ffaa00"/><path d="M336.44061,179.52145c0.01337,0.76029 0.09253,16.86334 -0.07581,17.76631c-0.16722,0.90297 -1.91186,0.7391 -1.96425,-0.06466c-0.05128,-0.80376 0.57077,-16.7998 0.70009,-17.64034c0.13266,-0.84277 1.32993,-0.82048 1.33997,-0.06131z" fill="#272525"/><path d="M289.68545,198.07145c-0.74356,0.69451 -4.36884,-7.88933 -7.38545,-10.94607c-3.73453,-3.78581 -11.08096,-3.21949 -16.0763,-1.70116c-0.9654,0.29431 -3.82594,2.05343 -4.56615,2.01553c-0.58972,-0.02899 -0.2263,-0.63765 -0.04905,-0.80264c2.50046,-2.31652 6.99638,-3.64981 10.55143,-4.09349c11.55362,-1.43696 17.2747,6.90274 17.52552,15.52783z" fill="#272525"/><path d="M306.02038,183.80556l0.14938,4.32202l-9.13342,0.15496l0.02898,-4.33094z" fill="#272525"/><path d="M374.57179,188.26135c0.14047,0.63988 -1.34555,0.3021 -1.72903,-0.07246c-8.67971,-8.56934 -25.05031,-5.27739 -28.99999,10.0966c-0.19955,0.77255 -2.74906,0.39798 -2.49266,-0.94756c4.05782,-21.49973 31.5116,-16.85999 33.22168,-9.07657z" fill="#272525"/><path d="M304.80861,185.01064l-0.36565,2.24517l-5.93622,-0.02006l0.19174,-2.33436z" fill="#cbcbcb"/><path d="M389.69495,188.99934l-6.96071,0.71235l-0.58749,-4.7055c0,0 4.42903,-0.65327 5.21161,-0.31103c0.79372,0.34447 2.33659,4.30418 2.33659,4.30418z" fill="#fff400"/><path d="M255.25535,197.18297l-9.67744,-0.23633l0.63654,-5.80356l7.97071,0.25194z" fill="#272525"/><path d="M253.04139,193.05492l0.25752,2.25409l-6.36542,0.01114l0.5507,-2.87502z" fill="#fff400"/><path d="M345.81594,200.6689c0.78147,0.1962 0.14493,1.86392 -0.48381,1.65211c-2.89063,-0.95983 -15.15994,-2.13927 -17.10413,-2.2017c-13.90916,-0.44368 -28.00114,0.61648 -41.82669,1.83271c-0.61982,0.05574 -1.03452,-0.77812 -0.30545,-1.0936c2.5718,-1.11032 47.34264,-3.28638 59.72009,-0.18952z" fill="#272525"/><text transform="translate(297.50727,195.8432) scale(0.15032,0.15032)" font-size="40" xml:space="preserve" fill="#272525" fill-rule="nonzero" stroke="none" stroke-width="1" stroke-linecap="butt" stroke-linejoin="miter" stroke-miterlimit="10" stroke-dasharray="" stroke-dashoffset="0" font-family="Sans Serif" font-weight="normal" text-anchor="start" style="mix-blend-mode: normal"><tspan x="0" dy="0">Placeholder</tspan></text><path d="M372.88676,214.65556c-7.40971,6.40176 -18.71118,-0.35529 -20.33422,-10.8047c-0.29865,-1.91754 0.12089,-3.5002 0.50414,-5.26777c2.42519,-11.17137 16.52508,-7.71566 21.61353,2.85297c1.9808,4.11304 1.6102,10.28445 -1.78342,13.2195z" fill="#272525"/><path d="M358.66361,211.99287c-2.89602,-3.06823 -4.79459,-9.40467 -3.32852,-12.88293c0.85986,-2.04657 3.97798,-5.02082 6.36854,-4.83013c6.78984,0.54752 13.54108,7.79104 11.71533,15.23206c-1.73555,7.07952 -10.0546,7.45938 -14.75533,2.481z" fill="#000000"/><path d="M370.1455,210.16274c-1.54589,3.15436 -7.99221,2.91179 -10.57456,-0.09444c-3.23153,-3.76762 -3.13198,-8.49089 -1.24388,-10.80564c2.79666,-3.42574 11.01599,-1.86241 12.41526,4.70446c0.67567,3.15833 -0.09357,5.1658 -0.59682,6.1956z" fill="#272525"/><path d="M360.53931,200.45561c3.19983,-2.75513 9.66878,1.23129 9.26109,5.81847c-0.14946,1.66646 -0.97705,2.77916 -2.24453,3.50745c-6.12109,3.51718 -11.16386,-5.76291 -7.01656,-9.32594z" fill="#ffffff"/><path d="M357.09197,198.44509l13.50964,12.21978l-0.79773,1.30392l-13.39062,-13.01102z" fill="#272525"/><path d="M359.41419,211.76401l8.21146,-13.56526l1.46641,0.91111l-9.00644,13.39875z" fill="#272525"/><path d="M279.65997,214.21046c-7.78244,5.94134 -18.65498,-1.48992 -19.64003,-12.01568c-0.18192,-1.9321 -0.30026,-2.69663 0.19183,-4.43804c3.09763,-11.0039 17.59215,-7.49065 22.03086,3.36687c1.72577,4.22827 0.98192,10.3659 -2.58268,13.08684z" fill="#272525"/><path d="M265.62492,210.6918c-2.84974,-3.09764 -4.21595,-9.67791 -2.54212,-13.06341c0.98196,-1.98917 4.27418,-4.7112 6.65074,-4.43351c8.73305,1.02871 13.04411,8.59721 10.77087,15.91392c-2.16133,6.96135 -11.16192,5.62454 -14.87948,1.58302z" fill="#000000"/><path d="M277.19752,209.56012c-1.73356,3.05582 -8.15397,2.42217 -10.5488,-0.73407c-2.99762,-3.95897 -2.61269,-8.66444 -0.58686,-10.86115c2.99847,-3.25092 11.10861,-1.19153 12.10739,5.44809c0.48028,3.19534 -0.4067,5.15221 -0.97174,6.14713z" fill="#272525"/><path d="M267.90447,199.48182c3.09925,-2.88962 9.57764,1.81672 8.89121,6.37048c-0.24862,1.65464 -1.14335,2.71332 -2.45201,3.36441c-6.32202,3.14323 -9.99275,-6.42306 -6.4392,-9.73487z" fill="#ffffff"/><path d="M269.25376,194.78358l5.0195,17.31308l-1.45514,0.43255l-4.46303,-17.80714z" fill="#272525"/><path d="M263.70111,205.81885l15.05987,-4.55738l0.78139,1.57942l-15.66945,3.93984z" fill="#272525"/><path d="M274.32867,206.78832c-0.86648,1.52837 -4.07527,1.21062 -5.27439,-0.36703c-1.50112,-1.97795 -1.30605,-4.33176 -0.29282,-5.43165c1.50077,-1.62716 5.55462,-0.5953 6.05324,2.72435c0.23969,1.59797 -0.20444,2.57548 -0.48602,3.07434z" fill="#272525"/><path d="M269.68183,201.74871c1.54993,-1.44436 4.78897,0.90759 4.44685,3.18508c-0.12509,0.82717 -0.574,1.3582 -1.22726,1.68236c-3.15977,1.57146 -4.99561,-3.21138 -3.2196,-4.86744z" fill="#a4b9bc"/><path d="M367.11418,207.56831c-0.77227,1.57806 -3.99444,1.45533 -5.28672,-0.04834c-1.61644,-1.8847 -1.56678,-4.24556 -0.62073,-5.40305c1.39853,-1.71442 5.50745,-0.93009 6.20741,2.351c0.33741,1.58228 -0.04442,2.58603 -0.29995,3.10038z" fill="#272525"/><path d="M362.1721,202.81973c1.37724,-1.6187 4.83584,0.61664 4.63078,2.91046c-0.07451,0.83165 -0.49044,1.38893 -1.12127,1.75227c-3.05964,1.7607 -4.49946,-3.49863 -3.5095,-4.66274z" fill="#a4b9bc"/></g></g></svg>