<svg version="1.1" xmlns="http://www.w3.org/2000/svg" xmlns:xlink="http://www.w3.org/1999/xlink" width="290.23718" height="193.65662" viewBox="0,0,290.23718,193.65662"><g transform="translate(-179.79415,-137.2982)"><g data-paper-data="{&quot;isPaintingLayer&quot;:true}" fill-opacity="0.4" fill="#1c295c" fill-rule="nonzero" stroke="none" stroke-linecap="butt" stroke-linejoin="miter" stroke-miterlimit="10" stroke-dasharray="" stroke-dashoffset="0" style="mix-blend-mode: normal"><path d="M365.96528,152.04379h0.351v-0.35h0.242v0.643h-0.593z" stroke-width="1"/><path d="M365.61528,152.69475v-0.3h0.026v0.3z" stroke-width="1"/><path d="M365.26428,153.05176v-0.305h0.021v0.305z" stroke-width="1"/><path d="M364.91328,153.40876v-0.312h0.014v0.312z" stroke-width="1"/><path d="M364.56228,153.76576v-0.318h0.008v0.318z" stroke-width="1"/><path d="M364.21128,154.12276v-0.324h0.001v0.324z" stroke-width="1"/><path d="M186.74052,163.52086v-20h58.46154v29.31527c0,0 -20.25074,-9.31527 -30.14132,-9.31527c-9.58714,0 -28.32022,0 -28.32022,0z" stroke-width="0"/><path d="M244.76075,185.98252c0,0 133.08985,0.42224 151.37188,0.47959c3.9962,0.01254 0.77191,-43.19317 0.77191,-43.19317c0,0 28.29211,-2.63754 44.97335,-0.01693c2.99075,0.46984 13.17386,-3.70302 15.48361,-3.29274c0.98762,0.17543 1.27845,-3.06561 1.90121,-2.61872c9.51458,6.82767 4.43888,42.94074 4.43888,42.94074c0,0 -41.38231,22.62432 -65.56088,22.62432c-44.08537,0 -109.37194,0 -126.61074,0c-0.15294,0 -26.76923,-16.92308 -26.76923,-16.92308z" stroke-width="0"/><path d="M400.72978,314.51133c3.9962,0.01254 66.01132,-26.12112 68.32107,-25.71084c0.98762,0.17543 -0.75211,19.53001 -0.75211,19.53001c0,0 0.50569,6.88961 1.26648,12.8813c0.06443,0.50737 1.63917,5.94748 -1.39008,7.15063c-6.84816,2.71992 -22.33976,1.862 -26.19601,1.88719c-17.20508,0.1124 -35.34623,0.7052 -39.24126,0.7052c-44.08537,0 -205.69048,0 -222.92928,0c-0.03376,0 0.00225,-42.00034 0.00225,-42.00034c0,0 71.35348,25.08299 74.57356,25.0932c24.68363,0.07829 132.43473,0.42 146.3454,0.46364z" data-paper-data="{&quot;index&quot;:null}" stroke-width="0"/></g></g></svg>