<svg version="1.1" xmlns="http://www.w3.org/2000/svg" xmlns:xlink="http://www.w3.org/1999/xlink" width="293.32559" height="34.38321" viewBox="0,0,293.32559,34.38321"><g transform="translate(-173.65824,-163.31052)"><g data-paper-data="{&quot;isPaintingLayer&quot;:true}" fill-rule="nonzero" stroke-linecap="butt" stroke-linejoin="miter" stroke-miterlimit="10" stroke-dasharray="" stroke-dashoffset="0" style="mix-blend-mode: normal"><g><g stroke="none" stroke-width="1"><path d="M394.67412,193.07588c-0.31329,-0.19581 -0.58743,-2.78048 -0.86156,-8.10648c-0.19581,-4.26863 -0.31329,-7.91067 -0.23497,-8.06732c0.11749,-0.11749 0.19581,-2.19306 0.23497,-4.58193l0.03916,-4.38612l1.40982,-0.39162c2.23222,-0.62659 4.66025,-0.5091 4.93438,0.23497c0.11749,0.35245 0.23497,1.56647 0.23497,2.74132c0,1.17486 0.15665,2.11474 0.35246,2.11474c0.39162,0 2.78048,-3.60288 2.78048,-4.19031c0,-0.46994 0.90072,-0.90072 1.76228,-0.90072c0.70491,0 4.89522,3.87702 4.89522,4.5036c0,0.27413 -0.3133,0.74408 -0.66575,1.01821c-0.93988,0.78323 -5.20851,6.26588 -5.20851,6.69666c0,0.46994 1.64479,2.70216 3.79869,5.16935c1.13569,1.25317 1.68396,2.23222 1.68396,2.9763c0,1.37066 -3.28959,5.60014 -4.22947,5.40432c-0.35245,-0.07832 -1.17485,-0.8224 -1.8406,-1.72312c-0.62659,-0.86156 -1.56647,-2.11473 -2.03641,-2.74132l-0.86156,-1.13569v2.46719c-0.03916,2.27138 -0.11749,2.46719 -1.05737,2.81965c-1.17486,0.46994 -4.46444,0.5091 -5.13019,0.07832z" fill="#000000"/><path d="M395.96646,187.82821c-0.15665,-1.80144 -0.27413,-6.6575 -0.35245,-10.80864l-0.07832,-7.51906h1.25317c1.21401,0 1.25317,0.03916 1.44899,2.27138c0.54827,5.05187 0.74407,5.75678 1.76228,5.75678c0.70491,0 1.17486,-0.43078 1.91893,-1.76228c0.54827,-0.97904 1.52731,-2.58467 2.23222,-3.60288l1.25317,-1.87976l0.90072,0.97904l0.90072,0.93988l-2.62384,3.21126c-3.1721,3.87702 -3.25043,4.58193 -0.97904,7.71487c0.90072,1.21401 1.8406,2.42802 2.11473,2.62384c0.23497,0.23497 0.74408,0.86156 1.13569,1.44899c0.66575,1.01821 0.66575,1.09653 -0.03916,2.03641c-0.39162,0.54827 -0.8224,1.01821 -0.93988,1.01821c-0.11749,0 -1.25318,-1.44899 -2.50635,-3.21126c-2.78048,-3.95534 -3.21126,-4.30779 -4.15115,-3.79869c-0.66575,0.31329 -0.74407,0.86156 -0.74407,4.07282v3.72037h-1.13569h-1.13569z" fill="#f9f9f9"/></g><g stroke="none" stroke-width="1"><path d="M413.28483,192.28468c-0.58743,-0.62659 -0.66575,-1.72312 -0.66575,-8.53727c0,-4.26863 0.11748,-9.47715 0.27413,-11.51356l0.31329,-3.72037l6.57918,-0.31329c8.77224,-0.46994 8.4981,-0.54827 8.4981,2.81965c0,3.52456 -0.27414,3.72037 -4.97355,3.87702c-3.25043,0.15665 -3.64204,0.23497 -3.64204,0.86156c0,0.66575 0.23497,0.70491 1.87976,0.54827c2.50635,-0.31329 3.05462,0.23497 3.36791,3.25043c0.23497,2.78048 0.11749,2.93713 -2.78048,3.44624c-2.70216,0.43078 -1.91893,0.78323 1.80144,0.78323c4.58192,0.03916 4.73857,0.19581 4.73857,4.30779c0,2.11474 -0.15665,3.36792 -0.46994,3.64205c-0.27413,0.19581 -3.25043,0.5091 -6.57918,0.66575c-3.32875,0.11749 -6.42253,0.35246 -6.85331,0.43078c-0.5091,0.11749 -1.09653,-0.07832 -1.48815,-0.54827z" fill="#000000"/><path d="M414.77299,189.50419c-0.27413,-1.29234 -0.46994,-18.28854 -0.19581,-18.56267c0.11749,-0.11749 2.70216,-0.31329 5.79594,-0.46994l5.56097,-0.27413v1.13569v1.17486l-3.75953,0.27413c-2.07558,0.15665 -3.95534,0.35245 -4.11199,0.46994c-0.19581,0.11749 -0.35245,1.3315 -0.35245,2.663c0,3.09378 0.43078,3.56372 2.78048,3.01545c2.38887,-0.54827 2.38887,-0.54826 2.23222,0.66575c-0.07832,0.86156 -0.35245,1.09653 -1.29234,1.17486c-0.62659,0.07832 -1.64479,0.31329 -2.23222,0.54827c-0.97904,0.35245 -1.09653,0.62658 -1.09653,2.11473c0,2.19306 1.13569,3.4854 2.663,3.13294c0.58743,-0.15665 2.07558,-0.35245 3.32875,-0.5091l2.23222,-0.23497v1.99725v1.99725l-2.03641,0.19581c-1.13569,0.11749 -3.6812,0.27414 -5.67846,0.39162l-3.60288,0.19581z" fill="#f9f9f9"/></g><g stroke="none" stroke-width="1"><path d="M438.45812,193.10679c-0.86156,-0.23497 -1.72312,-0.66575 -1.8406,-0.97904c-0.11749,-0.31329 -0.03916,-2.85881 0.19581,-5.67846l0.43078,-5.09103l-2.34971,-2.85881c-1.29234,-1.56647 -2.93713,-3.75953 -3.60288,-4.93438l-1.21401,-2.07557l2.07557,-2.11474c2.93713,-2.9763 3.32875,-2.89797 6.03091,1.72312c2.54552,4.30779 2.19306,4.34696 4.93438,-0.54827c1.17486,-2.1539 1.76228,-2.85881 2.38887,-2.85881c0.90072,0 5.36516,4.38612 5.36516,5.24768c0,0.27413 -1.56647,2.07557 -3.44623,3.9945l-3.44624,3.4854l0.27413,3.13294c0.15665,1.72312 0.3133,4.46444 0.3133,6.10923c0.03916,2.81965 0,2.9763 -0.93988,3.40707c-1.17486,0.54827 -2.81965,0.54827 -5.16936,0.03916z" fill="#000000"/><path d="M440.14208,190.91373l-1.09653,-0.19581l0.27414,-5.13019l0.27413,-5.16935l-1.09653,-1.17485c-0.58743,-0.66575 -2.19306,-2.34971 -3.52456,-3.83785c-1.37066,-1.44899 -2.50635,-2.85881 -2.50635,-3.13294c0,-0.46994 2.27138,-2.07557 2.50635,-1.76228c0.07832,0.03916 1.05736,1.64479 2.19306,3.56372c2.19306,3.6812 3.05462,4.46444 3.9945,3.68121c0.31329,-0.27413 1.44898,-1.91893 2.50635,-3.68121c1.05737,-1.80144 1.99725,-3.25043 2.1539,-3.25043c0.11749,0 0.66575,0.5091 1.25317,1.09653l1.05737,1.09653l-3.28959,3.32875l-3.32875,3.28959l0.35245,3.91618c0.5091,5.63929 0.46994,7.63654 -0.07832,7.59738c-0.27413,-0.03916 -1.0182,-0.15665 -1.64479,-0.23497z" fill="#f9f9f9"/></g><g stroke="none" stroke-width="1"><path d="M195.04597,192.70704c-0.58743,-0.43078 -0.74408,-1.72312 -1.09653,-7.94984c-0.23497,-4.07283 -0.31329,-9.08553 -0.15664,-11.08278c0.19581,-2.74132 0.11748,-3.87702 -0.27414,-4.66025c-0.46994,-0.90072 -0.43077,-1.05737 0.39162,-1.72312c0.78323,-0.66575 1.60563,-0.74407 6.26588,-0.74407c4.77774,0 5.52181,0.11749 7.32325,0.93988c1.68395,0.78323 2.11474,1.21402 2.54552,2.46719c0.78323,2.42803 0.62659,7.83235 -0.31329,9.90792c-1.09653,2.42803 -1.91893,3.05462 -5.20852,3.83785l-2.81965,0.66575l0.27414,3.72037c0.23497,3.28959 0.19581,3.83785 -0.39162,4.30779c-0.93988,0.78323 -5.67846,1.01821 -6.54002,0.31329zM203.26995,174.49682c0.11749,-0.78323 -0.03916,-0.90072 -1.21401,-0.90072c-1.21401,0 -1.3315,0.07832 -1.13569,1.01821c0.15665,0.78323 0.35245,0.97904 1.21401,0.86156c0.70491,-0.07832 1.05737,-0.39162 1.13569,-0.97904z" fill="#000000"/><path d="M196.80825,190.9056c-0.62659,-0.39162 -1.29234,-8.73307 -1.29234,-16.17381v-5.75678l3.28959,-0.27414c5.326,-0.46994 8.57643,0.43078 9.12469,2.46719c0.19581,0.58743 0.3133,2.46719 0.3133,4.22947c-0.03916,4.93438 -1.21402,6.18756 -5.87427,6.22672h-2.74132l0.15664,4.54277c0.11749,4.5036 0.11749,4.54276 -0.78323,4.77774c-1.21401,0.35245 -1.60563,0.31329 -2.19306,-0.03916zM204.17067,177.31647c2.1539,-1.13569 2.38887,-3.79869 0.46994,-5.28684c-0.70491,-0.54827 -1.60563,-0.78323 -3.05461,-0.78323c-2.38887,0 -2.54552,0.19581 -2.54552,3.32875c0,1.13569 0.11748,2.34971 0.23497,2.70216c0.31329,0.8224 3.32875,0.8224 4.89522,0.03916z" fill="#f9f9f9"/><path d="M215.18963,191.98591c-0.27413,-0.43078 -1.01821,-12.57093 -0.78324,-12.92338c0.07832,-0.15665 0.19581,-2.58467 0.23497,-5.44348l0.03916,-5.20851l1.3315,-0.54827c0.90072,-0.35245 2.89797,-0.54827 6.18756,-0.54827c5.60013,0 5.67846,0.03916 7.55822,3.79869c0.8224,1.72312 0.97905,2.46719 0.8224,4.30779c-0.19581,2.03641 -0.35246,2.34971 -1.80144,3.6812l-1.60563,1.40982l2.50635,3.05462c1.40982,1.68395 2.54552,3.32875 2.54552,3.72037c0,0.86156 -2.11473,3.75953 -3.1721,4.30779c-1.3315,0.74407 -2.58468,0.11749 -4.19031,-2.07557c-0.86156,-1.09653 -1.91893,-2.38887 -2.38887,-2.78049l-0.8224,-0.74407v2.70216c0,1.60563 -0.19581,2.93714 -0.46994,3.21127c-0.54827,0.54827 -5.63929,0.62658 -5.99175,0.07832zM222.70869,175.89042c0.70491,-0.70491 0.11748,-1.52731 -1.09653,-1.52731c-0.8224,0 -1.13569,0.19581 -1.13569,0.70491c0,0.39162 0.11748,0.86156 0.27413,0.97904c0.39162,0.43078 1.48815,0.31329 1.95809,-0.15665z" fill="#000000"/><path d="M216.79526,188.97044c-0.11749,-0.8224 -0.35245,-5.52181 -0.46994,-10.41703l-0.27413,-8.92888l5.05187,0.11749l5.01271,0.11749l0.90072,1.3315c1.80144,2.70216 1.6448,5.48265 -0.39162,6.69666c-2.03641,1.17486 -2.27138,1.5273 -1.99725,2.663c0.15665,0.58743 1.37066,2.34971 2.74132,3.91618c2.46719,2.78048 2.50635,2.85881 1.87976,3.79869c-0.35245,0.54827 -0.86156,0.97904 -1.13569,0.97904c-0.27413,0 -1.76228,-1.52731 -3.32875,-3.40707c-2.9763,-3.64204 -3.83785,-4.30779 -4.93438,-3.87702c-0.58743,0.23497 -0.62659,0.70491 -0.39162,4.34696l0.27413,4.11199h-1.3315c-1.25317,0 -1.37066,-0.11749 -1.60563,-1.44899zM222.94365,177.80935c1.44899,-0.74407 1.84061,-1.37066 1.84061,-2.81965c0,-1.76228 -1.13569,-2.58468 -3.56372,-2.58468c-1.95809,0 -3.21126,0.8224 -2.38887,1.6448c0.23497,0.23497 0.3133,0.97904 0.19581,1.68395c-0.15665,1.01821 -0.03916,1.40982 0.70491,1.91893c1.09653,0.74407 2.03641,0.78324 3.21126,0.15665z" fill="#f9f9f9"/><path d="M235.34245,191.70629c-0.58743,-0.62659 -0.66575,-1.72312 -0.66575,-8.53727c0,-4.26863 0.11748,-9.47715 0.27413,-11.51356l0.31329,-3.72037l6.57918,-0.31329c8.77224,-0.46994 8.4981,-0.54827 8.4981,2.81965c0,3.52456 -0.27414,3.72037 -4.97355,3.87702c-3.25043,0.15665 -3.64204,0.23497 -3.64204,0.86156c0,0.66575 0.23497,0.70491 1.87976,0.54827c2.50635,-0.31329 3.05462,0.23497 3.36791,3.25043c0.23497,2.78048 0.11749,2.93713 -2.78048,3.44624c-2.70216,0.43078 -1.91893,0.78323 1.80144,0.78323c4.58192,0.03916 4.73857,0.19581 4.73857,4.30779c0,2.11474 -0.15665,3.36792 -0.46994,3.64205c-0.27413,0.19581 -3.25043,0.5091 -6.57918,0.66575c-3.32875,0.11749 -6.42253,0.35246 -6.85331,0.43078c-0.5091,0.11749 -1.09653,-0.07832 -1.48815,-0.54827z" fill="#000000"/><path d="M236.83061,188.9258c-0.27413,-1.29234 -0.46994,-18.28854 -0.19581,-18.56267c0.11749,-0.11749 2.70216,-0.31329 5.79594,-0.46994l5.56097,-0.27413v1.13569v1.17486l-3.75953,0.27413c-2.07558,0.15665 -3.95534,0.35245 -4.11199,0.46994c-0.19581,0.11749 -0.35245,1.3315 -0.35245,2.663c0,3.09378 0.43078,3.56372 2.78048,3.01545c2.38887,-0.54827 2.38887,-0.54826 2.23222,0.66575c-0.07832,0.86156 -0.35245,1.09653 -1.29234,1.17486c-0.62659,0.07832 -1.64479,0.31329 -2.23222,0.54827c-0.97904,0.35245 -1.09653,0.62658 -1.09653,2.11473c0,2.19306 1.13569,3.4854 2.663,3.13294c0.58743,-0.15665 2.07558,-0.35245 3.32875,-0.5091l2.23222,-0.23497v1.99725v1.99725l-2.03641,0.19581c-1.13569,0.11749 -3.6812,0.27414 -5.67846,0.39162l-3.60288,0.19581z" fill="#f9f9f9"/><path d="M257.89282,192.12174c-1.68395,-0.5091 -1.99725,-1.25317 -1.99725,-4.8169c0.03916,-3.21126 0.5091,-3.48539 5.05187,-3.1721c2.93713,0.19581 3.75953,0.11749 4.85606,-0.46994c1.60563,-0.8224 1.80144,-1.25317 1.05737,-2.27138c-0.39162,-0.58743 -1.21401,-0.78323 -3.79869,-0.97904c-3.87702,-0.27413 -5.16935,-0.8224 -6.30504,-2.663c-0.66575,-1.05737 -0.78324,-1.72312 -0.58743,-3.40707c0.27413,-2.58468 1.52731,-5.09103 3.05462,-6.03091c1.3315,-0.8224 6.69666,-1.29234 10.1429,-0.86156l2.15389,0.23497v3.13294v3.13294l-3.79869,-0.11749c-2.27138,-0.07832 -3.83785,0 -3.83785,0.23497c0,0.46994 1.37066,0.86156 3.25043,0.86156c4.8169,0 7.71487,3.75953 7.12744,9.12469c-0.5091,4.42528 -1.91893,6.50085 -5.28684,7.67571c-1.8406,0.62659 -9.24217,0.90072 -11.08278,0.39162z" fill="#000000"/><path d="M259.18516,190.3203c-0.86156,-0.35245 -1.17486,-0.93988 -1.17486,-2.31054v-1.21402l4.07283,-0.23497c4.30779,-0.23497 5.99175,-0.78323 7.04912,-2.31054c0.78323,-1.09653 0.78323,-2.38887 0.03916,-3.83785c-0.8224,-1.60563 -1.8406,-2.03641 -5.8351,-2.38887c-2.34971,-0.23497 -3.72037,-0.54827 -4.22947,-0.97904c-1.40982,-1.29234 -0.54827,-5.75678 1.37066,-6.9708c0.5091,-0.31329 2.54552,-0.66575 4.89522,-0.8224l3.9945,-0.27414v1.40982v1.40983h-2.89797c-2.31054,0 -3.05462,0.15664 -3.91618,0.8224c-2.27138,1.80144 -0.78323,3.87702 3.01546,4.30779c2.9763,0.27413 5.09103,1.21401 5.79594,2.58467c0.70491,1.3315 0.70491,6.34421 0,7.67571c-0.74407,1.40982 -3.72037,2.58468 -7.59739,3.01546c-3.56372,0.43078 -3.72037,0.43078 -4.58192,0.11749z" fill="#f9f9f9"/><path d="M279.65752,192.12174c-1.68395,-0.5091 -1.99725,-1.25317 -1.99725,-4.8169c0.03916,-3.21126 0.5091,-3.48539 5.05187,-3.1721c2.93713,0.19581 3.75953,0.11749 4.85606,-0.46994c1.60563,-0.8224 1.80144,-1.25317 1.05737,-2.27138c-0.39162,-0.58743 -1.21401,-0.78323 -3.79869,-0.97904c-3.87702,-0.27413 -5.16935,-0.8224 -6.30504,-2.663c-0.66575,-1.05737 -0.78324,-1.72312 -0.58743,-3.40707c0.27413,-2.58468 1.52731,-5.09103 3.05462,-6.03091c1.3315,-0.8224 6.69666,-1.29234 10.1429,-0.86156l2.15389,0.23497v3.13294v3.13294l-3.79869,-0.11749c-2.27138,-0.07832 -3.83785,0 -3.83785,0.23497c0,0.46994 1.37066,0.86156 3.25043,0.86156c4.8169,0 7.71487,3.75953 7.12744,9.12469c-0.5091,4.42528 -1.91893,6.50085 -5.28684,7.67571c-1.8406,0.62659 -9.24217,0.90072 -11.08278,0.39162z" fill="#000000"/><path d="M280.94986,190.3203c-0.86156,-0.35245 -1.17486,-0.93988 -1.17486,-2.31054v-1.21402l4.07283,-0.23497c4.30779,-0.23497 5.99175,-0.78323 7.04912,-2.31054c0.78323,-1.09653 0.78323,-2.38887 0.03916,-3.83785c-0.8224,-1.60563 -1.8406,-2.03641 -5.8351,-2.38887c-2.34971,-0.23497 -3.72037,-0.54827 -4.22947,-0.97904c-1.40982,-1.29234 -0.54827,-5.75678 1.37066,-6.9708c0.5091,-0.31329 2.54552,-0.66575 4.89522,-0.8224l3.9945,-0.27414v1.40982v1.40983h-2.89797c-2.31054,0 -3.05462,0.15664 -3.91618,0.8224c-2.27138,1.80144 -0.78323,3.87702 3.01546,4.30779c2.9763,0.27413 5.09103,1.21401 5.79594,2.58467c0.70491,1.3315 0.70491,6.34421 0,7.67571c-0.74407,1.40982 -3.72037,2.58468 -7.59739,3.01546c-3.56372,0.43078 -3.72037,0.43078 -4.58192,0.11749z" fill="#f9f9f9"/><path d="M314.73562,191.58436c-0.78323,-0.5091 -1.5273,-1.21402 -1.68395,-1.60563c-0.46994,-1.17486 2.38886,-9.8296 5.326,-16.21297c0.74407,-1.60563 1.60563,-3.60288 1.84061,-4.42528c0.27413,-0.78323 0.8224,-1.64479 1.21401,-1.8406c0.8224,-0.43078 3.87702,-0.5091 4.89522,-0.15665c1.21401,0.46994 3.01545,4.93438 5.52181,13.47165c1.99725,6.81415 2.1539,7.79319 1.52731,9.28134c-0.66575,1.52731 -1.76228,2.1539 -3.64204,1.99725c-1.40982,-0.11749 -1.48815,-0.19581 -2.62384,-3.17211l-1.17485,-3.01545l-2.34971,0.07832l-2.34971,0.11749l-0.86156,2.70216c-0.5091,1.48815 -1.09653,2.93713 -1.3315,3.21126c-0.70491,0.86156 -2.78048,0.66575 -4.30779,-0.43078zM324.33025,178.77846c-0.54827,-1.91893 -0.86156,-2.1539 -1.29234,-0.97904c-0.62659,1.60563 -0.54827,1.84061 0.58743,1.84061c0.86156,0 0.93988,-0.11749 0.70491,-0.86156z" fill="#000000"/><path d="M316.02795,189.74375c-0.74407,-0.39162 -0.8224,-0.62659 -0.62658,-1.84061c0.35245,-1.91893 3.05461,-9.63379 4.11198,-11.78769c0.46994,-0.93988 1.17486,-2.70216 1.56647,-3.87702c0.86156,-2.46719 1.21401,-2.78048 3.13294,-2.78048c1.01821,0 1.48815,0.19581 1.6448,0.70491c0.11749,0.35245 0.93988,2.70216 1.8406,5.16936c2.11474,5.91343 4.07283,13.70662 3.56372,14.21572c-0.74407,0.74407 -1.56647,-0.07832 -2.42803,-2.46719c-1.17486,-3.25043 -1.91893,-3.6812 -5.67846,-3.40707c-3.44624,0.27413 -3.72037,0.46994 -4.77774,3.95534c-0.74407,2.54552 -0.97904,2.74133 -2.34971,2.11474zM326.36666,181.01068c0.39162,-1.01821 -1.68396,-6.85331 -2.42803,-6.85331c-0.86156,0 -3.56372,6.1484 -2.9763,6.73582c0.15665,0.15665 1.25317,0.35245 2.42803,0.43078c1.17486,0.07832 2.31054,0.15665 2.46719,0.19581c0.15665,0.03916 0.39162,-0.19581 0.5091,-0.5091z" fill="#f9f9f9"/><path d="M338.01233,191.87972c-0.39162,-0.62659 -0.86156,-11.51356 -0.78323,-17.27034l0.11748,-5.67846l1.29234,-0.70491c1.52731,-0.78323 4.73857,-0.93988 5.326,-0.19581c0.23497,0.27413 0.78323,1.48815 1.25317,2.74132c1.29234,3.40707 2.07557,2.70216 1.17485,-1.09653c-0.19581,-0.93988 -0.19581,-1.72312 0,-1.91893c0.43078,-0.43078 5.79595,-0.31329 6.6575,0.15665c0.62659,0.31329 0.70491,1.64479 0.97904,11.78769c0.27413,10.76949 0.23497,11.4744 -0.43078,11.9835c-0.8224,0.62659 -4.97354,0.66575 -6.07007,0.11749c-0.39162,-0.23497 -1.37066,-1.64479 -2.11473,-3.13294c-0.74407,-1.52731 -1.44899,-2.74133 -1.48815,-2.74133c-0.07832,0 -0.11749,1.37067 -0.07832,3.05462v3.01546l-2.81965,0.11749c-1.52731,0.07832 -2.89797,-0.03916 -3.01546,-0.23497z" fill="#000000"/><path d="M339.53964,188.19852c-0.39162,-2.93713 -0.93988,-17.30951 -0.62659,-17.58364c0.11749,-0.15665 0.90072,-0.35245 1.72312,-0.46994c1.40982,-0.23497 1.48815,-0.15665 2.31055,1.40982c0.46994,0.90072 1.56647,3.40707 2.42803,5.56097c1.44899,3.4854 1.72312,3.91618 2.58467,3.91618c0.86156,0 0.97904,-0.15665 0.90072,-1.37066c-0.03916,-0.74407 -0.19581,-3.28959 -0.35245,-5.60014l-0.27413,-4.22947l1.5273,0.27413c0.8224,0.11749 1.6448,0.3133 1.76228,0.39162c0.11749,0.03916 0.23497,4.42528 0.31329,9.75128c0.07832,8.69391 0.03916,9.63379 -0.58743,9.86877c-1.6448,0.62659 -2.58468,-0.35245 -5.24768,-5.36516c-1.91893,-3.56372 -2.85881,-4.93438 -3.44624,-5.01271c-0.54827,-0.07832 -0.90072,0.15665 -1.05736,0.74408c-0.27413,0.8224 0.07832,7.75403 0.43078,9.08553c0.15665,0.5091 -0.03916,0.66575 -0.93988,0.66575c-1.09653,0 -1.17486,-0.11748 -1.44899,-2.03641z" fill="#f9f9f9"/><path d="M365.1586,192.5284c-0.86156,-0.23497 -1.72312,-0.66575 -1.8406,-0.97904c-0.11749,-0.31329 -0.03916,-2.85881 0.19581,-5.67846l0.43078,-5.09103l-2.34971,-2.85881c-1.29234,-1.56647 -2.93713,-3.75953 -3.60288,-4.93438l-1.21401,-2.07557l2.07557,-2.11474c2.93713,-2.9763 3.32875,-2.89797 6.03091,1.72312c2.54552,4.30779 2.19306,4.34696 4.93438,-0.54827c1.17486,-2.1539 1.76228,-2.85881 2.38887,-2.85881c0.90072,0 5.36516,4.38612 5.36516,5.24768c0,0.27413 -1.56647,2.07557 -3.44623,3.9945l-3.44624,3.4854l0.27413,3.13294c0.15665,1.72312 0.3133,4.46444 0.3133,6.10923c0.03916,2.81965 0,2.9763 -0.93988,3.40707c-1.17486,0.54827 -2.81965,0.54827 -5.16936,0.03916z" fill="#000000"/><path d="M366.84256,190.33534l-1.09653,-0.19581l0.27414,-5.13019l0.27413,-5.16935l-1.09653,-1.17485c-0.58743,-0.66575 -2.19306,-2.34971 -3.52456,-3.83785c-1.37066,-1.44899 -2.50635,-2.85881 -2.50635,-3.13294c0,-0.46994 2.27138,-2.07557 2.50635,-1.76228c0.07832,0.03916 1.05736,1.64479 2.19306,3.56372c2.19306,3.6812 3.05462,4.46444 3.9945,3.68121c0.31329,-0.27413 1.44898,-1.91893 2.50635,-3.68121c1.05737,-1.80144 1.99725,-3.25043 2.1539,-3.25043c0.11749,0 0.66575,0.5091 1.25317,1.09653l1.05737,1.09653l-3.28959,3.32875l-3.32875,3.28959l0.35245,3.91618c0.5091,5.63929 0.46994,7.63654 -0.07832,7.59738c-0.27413,-0.03916 -1.0182,-0.15665 -1.64479,-0.23497z" fill="#f9f9f9"/></g><path d="M181.15083,193.59757c-3.76461,-2.13516 -5.61883,-4.43887 -6.7426,-8.25967c-1.12376,-3.8208 -0.78663,-7.02353 1.12377,-11.18145c1.96658,-4.3265 4.71981,-7.41684 7.86634,-9.0463c4.43887,-2.24753 5.89975,-0.61807 2.02277,2.3599c-1.23614,0.9552 -3.3151,3.31511 -4.60743,5.33788c-2.30371,3.42748 -2.41608,3.8208 -2.41608,7.6416c0,3.70843 0.16856,4.2703 1.74183,6.23688c0.9552,1.17996 3.03416,2.8656 4.60743,3.8208c3.09036,1.74183 3.70843,3.20273 1.85421,4.21411c-1.62946,0.84283 -2.30371,0.73044 -5.45025,-1.12377z" fill="#f9f9f9" stroke="#000000" stroke-width="1.5"/><path d="M458.84918,194.31184c-3.14654,1.85422 -3.8208,1.9666 -5.45025,1.12377c-1.85422,-1.01138 -1.23614,-2.47228 1.85421,-4.21411c1.57327,-0.9552 3.65223,-2.64084 4.60743,-3.8208c1.57327,-1.96659 1.74183,-2.52845 1.74183,-6.23688c0,-3.8208 -0.11237,-4.21412 -2.41609,-7.6416c-1.29233,-2.02277 -3.37129,-4.38268 -4.60743,-5.33788c-3.87698,-2.97797 -2.4161,-4.60743 2.02277,-2.3599c3.14652,1.62946 5.89975,4.71979 7.86634,9.04629c1.9104,4.15793 2.24753,7.36066 1.12377,11.18146c-1.12377,3.8208 -2.97798,6.12451 -6.7426,8.25967z" data-paper-data="{&quot;index&quot;:null}" fill="#f9f9f9" stroke="#000000" stroke-width="1.5"/></g></g></g></svg>