<svg version="1.1" xmlns="http://www.w3.org/2000/svg" xmlns:xlink="http://www.w3.org/1999/xlink" width="157.18235" height="56.05519" viewBox="0,0,157.18235,56.05519"><g transform="translate(-241.40882,-161.80856)"><g data-paper-data="{&quot;isPaintingLayer&quot;:true}" fill-rule="nonzero" stroke="none" stroke-width="1" stroke-linecap="butt" stroke-linejoin="miter" stroke-miterlimit="10" stroke-dasharray="" stroke-dashoffset="0" style="mix-blend-mode: normal"><path d="M256.01561,200.4805c-4.24955,-1.32548 -8.77893,1.09137 -12.86127,-2.36891c-3.41124,-2.89175 -0.22407,-9.76662 4.5851,-10.05089c-0.61536,-6.35092 0.22296,-12.27712 7.60395,-13.55801c8.72319,-1.51722 16.49546,0 25.38586,1.04344c16.49546,1.99212 22.42165,0 38.91822,0c0,-4.78799 1.22961,-12.98835 1.22961,-12.98835c0,0 14.31494,9.86138 14.87345,12.98723c0.3924,2.18832 14.98493,-2.27527 21.02483,-2.27527c10.12113,0 16.15879,0.56966 24.93772,4.93069c4.13808,2.03671 5.31306,3.74344 7.94061,7.20596c2.23737,2.93857 1.28646,6.92058 5.36657,6.92058c4.13919,8.53144 -5.36656,10.28723 -12.52348,11.37637c-7.10229,1.09137 -3.85827,-9.57488 -10.28834,-12.42092c-8.0532,-3.60075 -14.93142,-3.08126 -21.35926,2.37115c-4.08123,3.46029 -3.80253,7.96402 -4.47474,12.70408c-24.04255,-3.22395 -41.76873,-2.17941 -59.83046,-2.17941c-0.6711,-2.9408 -1.17387,-4.26739 -2.23626,-7.20596c-1.78923,-4.83594 -5.53491,-7.49246 -11.40647,-8.2494c-8.55485,-1.13596 -16.88563,4.4112 -16.88563,11.75762z" fill="#cc1d1d"/><path d="M337.04145,174.74794c7.52033,-0.88849 25.75708,-3.61414 34.98526,-1.72681c12.81221,2.62086 16.72065,8.44115 21.77285,18.09295c1.46929,-0.14827 2.77135,-0.12262 3.62639,1.04678c1.52614,2.08576 1.68667,6.17702 -0.32217,8.13235c-2.84716,2.76467 -14.14104,3.74901 -18.42515,4.44129c-0.80599,-1.70674 -2.01776,-11.26155 -9.93718,-13.80326c-4.95187,-1.58968 -11.21027,-0.12932 -15.21569,2.58741c-5.20047,3.5294 -5.43457,8.2494 -5.87603,13.44876c-3.22172,0.13266 -6.69985,-0.8595 -9.93049,-1.17052c-17.43745,-1.66995 -34.99196,-1.63762 -52.5119,-0.72573c0.30991,-2.24517 -0.91859,-9.08214 -5.31975,-12.85903c-5.57058,-4.78131 -20.76954,-1.87507 -22.74939,4.75789c-0.51949,1.73572 -0.28427,2.78585 -0.33555,4.55055c-2.9631,0.3322 -5.45129,0.272 -8.40213,-0.05909c-5.43234,-0.60755 -6.15138,-3.57957 -6.76674,-5.73779c-0.59195,-2.0735 -0.06689,-4.70439 2.18832,-5.88383c0.53956,-0.28315 1.30207,-0.65104 1.72346,0.02341c0.73575,1.18167 -1.32993,2.42242 -1.49381,3.69216c-0.75136,5.83701 6.01649,6.34646 11.18463,5.78573c-0.22407,-9.00745 16.18666,-16.0997 24.80394,-9.45113c3.78357,2.91962 7.12905,7.97294 7.40329,13.33839c13.62266,-1.56627 41.33953,-0.99996 57.23746,1.80929c0.44369,-4.21612 2.72119,-9.9762 6.31414,-13.11766c4.39783,-3.84377 12.11101,-4.75456 16.9815,-3.77243c6.46352,1.29984 10.32067,8.11786 11.39756,13.38298c1.32437,0.04013 10.99511,-0.709 12.45436,-1.15492c4.19828,-1.29315 3.44691,-6.56273 3.44691,-6.56273c0,0 -3.39675,0.40466 -3.8605,-0.02787c-0.46152,-0.43476 -1.21065,-3.35438 -1.21065,-3.35438l-10.1267,1.10363l-1.28869,-8.09668l6.75782,-1.10586c-11.68962,-12.04524 -49.01148,-5.1425 -49.60343,-5.29523c-4.23284,-4.57842 -13.2938,-12.72526 -14.14215,-12.65726c-0.84947,0.068 -1.56516,8.48908 -1.64654,12.75759c-1.79257,0.25528 -14.89797,0.58526 -19.75286,0.51837c-11.64838,-0.16276 -23.23544,-1.21177 -34.80021,-2.32321c-6.28738,-0.6031 -13.63939,-0.00446 -16.88786,5.33089c1.53172,0.79818 6.9518,2.00661 6.9518,2.00661l-0.43923,6.38994l-9.56373,-0.71234c-1.96982,-2.14039 -1.23964,-5.25175 0.03122,-7.55043c1.0702,-1.93861 3.86384,-5.10236 6.02763,-6.20711c6.81802,-3.47701 23.51414,-0.48048 27.38913,-0.06243c10.84462,1.17052 34.70211,1.22292 38.62281,0.9052c0.6109,-0.42362 0.50277,-13.23806 2.60637,-13.61597c2.10471,-0.37679 16.70169,12.9315 16.70169,12.9315z" fill="#272525"/><path d="M333.38608,177.00315l-11.22142,0.204c0,0 -0.38348,-10.31844 0.6031,-10.60271c0.98658,-0.2865 10.61831,10.39871 10.61831,10.39871z" fill="#272525"/><path d="M329.61142,175.51045l-5.28407,-0.01783c-0.20623,-1.84385 -0.61536,-5.14585 -0.03122,-5.33313c0.57969,-0.1884 3.66652,3.6119 5.31529,5.35097z" fill="#99ffff"/><path d="M295.56926,179.57941c-0.02675,1.13708 -0.21292,17.12532 -0.23076,18.00042c-0.01783,0.87622 -2.06681,1.16383 -2.06347,0.13935c0.00335,-1.02337 0.7168,-16.83101 0.68001,-17.97366c-0.03456,-1.14154 1.64208,-1.30095 1.61421,-0.1661z" fill="#272525"/><path d="M253.46721,186.49553l-5.43122,-0.46375l0.11593,-2.92407l5.27851,0.87176z" fill="#ffaa00"/><path d="M336.44059,179.52145c0.01337,0.76029 0.09253,16.86334 -0.07581,17.76631c-0.16722,0.90297 -1.91186,0.7391 -1.96425,-0.06466c-0.05128,-0.80376 0.57077,-16.7998 0.70009,-17.64034c0.13266,-0.84277 1.32993,-0.82048 1.33997,-0.06131z" fill="#272525"/><path d="M289.68543,198.07145c-0.74356,0.69451 -4.36884,-7.88933 -7.38545,-10.94607c-3.73453,-3.78581 -11.08096,-3.21949 -16.0763,-1.70116c-0.9654,0.29431 -3.82594,2.05343 -4.56615,2.01553c-0.58972,-0.02899 -0.2263,-0.63765 -0.04905,-0.80264c2.50046,-2.31652 6.99638,-3.64981 10.55143,-4.09349c11.55362,-1.43696 17.2747,6.90274 17.52552,15.52783z" fill="#272525"/><path d="M306.02036,183.80556l0.14938,4.32202l-9.13342,0.15496l0.02898,-4.33094z" fill="#272525"/><path d="M374.57177,188.26135c0.14047,0.63988 -1.34555,0.3021 -1.72903,-0.07246c-8.67971,-8.56934 -25.05031,-5.27739 -28.99999,10.0966c-0.19955,0.77255 -2.74906,0.39798 -2.49266,-0.94756c4.05782,-21.49973 31.5116,-16.85999 33.22168,-9.07657z" fill="#272525"/><path d="M304.80859,185.01064l-0.36565,2.24517l-5.93622,-0.02006l0.19174,-2.33436z" fill="#cbcbcb"/><path d="M389.69493,188.99934l-6.96071,0.71235l-0.58749,-4.7055c0,0 4.42903,-0.65327 5.21161,-0.31103c0.79372,0.34447 2.33659,4.30418 2.33659,4.30418z" fill="#fff400"/><path d="M255.25533,197.18297l-9.67744,-0.23633l0.63654,-5.80356l7.97071,0.25194z" fill="#272525"/><path d="M253.04137,193.05492l0.25752,2.25409l-6.36542,0.01114l0.5507,-2.87502z" fill="#fff400"/><path d="M345.81592,201.33557c0.78147,0.1962 0.14493,1.86392 -0.48381,1.65211c-2.89063,-0.95983 -15.15994,-2.13927 -17.10413,-2.2017c-13.90916,-0.44368 -28.00114,0.61648 -41.82669,1.83271c-0.61982,0.05574 -1.03452,-0.77812 -0.30545,-1.0936c2.5718,-1.11032 47.34264,-3.28638 59.72009,-0.18952z" fill="#272525"/><text transform="translate(297.50725,195.8432) scale(0.15032,0.15032)" font-size="40" xml:space="preserve" fill="#272525" fill-rule="nonzero" stroke="none" stroke-width="1" stroke-linecap="butt" stroke-linejoin="miter" stroke-miterlimit="10" stroke-dasharray="" stroke-dashoffset="0" font-family="Sans Serif" font-weight="normal" text-anchor="start" style="mix-blend-mode: normal"><tspan x="0" dy="0">Placeholder</tspan></text><path d="M355.9545,216.96604c-8.63264,-4.6221 -6.37641,-17.59477 2.79654,-22.8561c1.68301,-0.96625 3.31087,-1.14199 5.09835,-1.4179c11.29822,-1.74103 13.12713,12.6605 5.08526,21.19963c-3.1295,3.32369 -9.02355,5.19021 -12.98013,3.0744z" fill="#272525"/><path d="M353.3411,202.73376c1.82603,-3.80349 7.06062,-7.84751 10.83328,-7.72588c2.21879,0.06899 6.1132,1.91356 6.79222,4.21357c1.92308,6.53479 -2.41858,15.43411 -10.01952,16.39738c-7.23113,0.91787 -10.56818,-6.71201 -7.60597,-12.88505z" fill="#000000"/><path d="M359.16592,212.7963c-3.49889,-0.31228 -5.58349,-6.41705 -3.70289,-9.90549c2.35865,-4.36743 6.80365,-5.96783 9.64142,-5.03509c4.20065,1.38261 5.68792,9.61605 0.05921,13.27657c-2.70616,1.76304 -4.85596,1.76462 -5.99772,1.66402z" fill="#272525"/><path d="M364.7839,200.34859c3.71915,1.9994 2.31688,9.46749 -2.11154,10.73144c-1.60927,0.45791 -2.94471,0.08425 -4.07898,-0.83788c-5.47784,-4.45328 1.37752,-12.48781 6.19054,-9.89356z" fill="#ffffff"/><path d="M365.42489,196.40962l-6.5642,16.99249l-1.50323,-0.27724l7.34552,-17.16504z" fill="#272525"/><path d="M353.82384,203.35239l15.60741,2.80239l-0.32483,1.69557l-15.73697,-3.60422z" fill="#272525"/><path d="M265.01171,217.118c-9.12015,-3.56214 -8.42038,-16.71303 0.06101,-23.02398c1.55627,-1.15938 2.14798,-1.65775 3.89155,-2.14217c11.01133,-3.07115 15.54113,11.13853 8.57085,20.57268c-2.7159,3.67156 -8.34643,6.2252 -12.52342,4.59345z" fill="#272525"/><path d="M260.72526,203.29809c1.16586,-4.0444 6.07816,-8.63088 9.84049,-8.9599c2.20979,-0.19461 6.24618,1.20386 7.24381,3.3787c3.65888,7.99607 -0.56759,15.61213 -8.00021,17.47173c-7.07084,1.77057 -10.60549,-6.61419 -9.0841,-11.8905z" fill="#000000"/><path d="M267.70545,212.59771c-3.51168,0.10669 -6.30642,-5.70818 -4.8541,-9.39434c1.82495,-4.6183 6.04533,-6.73444 8.97485,-6.14501c4.33564,0.87268 6.79022,8.87208 1.63629,13.17547c-2.48055,2.07069 -4.61339,2.32967 -5.75704,2.36387z" fill="#272525"/><path d="M271.48757,199.42089c4.0793,1.14652 3.42446,9.12715 -0.82297,10.90685c-1.54292,0.64735 -2.91237,0.433 -4.14865,-0.34681c-5.97058,-3.76828 0.29551,-11.87533 4.9716,-10.56002z" fill="#ffffff"/><path d="M276.20287,198.13246l-12.18413,13.28477l-1.12568,-1.01852l12.8954,-13.06604z" fill="#272525"/><path d="M263.88908,199.12233l11.71914,10.49911l-0.94344,1.48831l-11.50825,-11.34081z" fill="#272525"/><path d="M268.58298,208.70629c-1.75608,0.05384 -3.15192,-2.85286 -2.42705,-4.69716c0.90996,-2.31032 3.02242,-3.36673 4.48866,-3.07255c2.17006,0.43677 3.39488,4.43655 0.81765,6.5875c-1.24076,1.03512 -2.30673,1.16358 -2.87927,1.18221z" fill="#272525"/><path d="M269.04952,201.85909c2.00829,-0.6747 3.98579,2.8056 2.73303,4.73812c-0.45575,0.70153 -1.08399,0.99957 -1.81282,1.02478c-3.52675,0.12514 -3.22187,-4.98885 -0.92022,-5.7629z" fill="#a4b9bc"/><path d="M360.50113,209.03636c-1.75003,-0.15519 -2.79062,-3.20717 -1.8502,-4.95263c1.17991,-2.18466 3.40165,-2.9847 4.82136,-2.5165c2.10184,0.69093 2.84273,4.80791 0.03068,6.63763c-1.35614,0.88224 -2.43006,0.88564 -3.00182,0.8315z" fill="#272525"/><path d="M363.1623,202.7204c2.00485,0.70538 1.15803,4.73546 -1.05682,5.36638c-0.80308,0.2286 -1.47243,0.0401 -2.03777,-0.41854c-2.74056,-2.22504 1.65298,-5.45465 3.09462,-4.94784z" fill="#a4b9bc"/></g></g></svg>