<svg version="1.1" xmlns="http://www.w3.org/2000/svg" xmlns:xlink="http://www.w3.org/1999/xlink" width="24.73745" height="20.97291" viewBox="0,0,24.73745,20.97291"><g transform="translate(-307.63129,-169.51355)"><g data-paper-data="{&quot;isPaintingLayer&quot;:true}" fill-rule="nonzero" stroke="none" stroke-width="0.5" stroke-linecap="butt" stroke-linejoin="miter" stroke-miterlimit="10" stroke-dasharray="" stroke-dashoffset="0" style="mix-blend-mode: normal"><path d="M319.75978,171.42502c0.51769,-2.06942 3.05748,-2.31301 4.68533,-1.4236v1.61446c0.27537,1.10159 -0.17751,2.44487 0.62506,3.3812c0.79971,0.93299 1.54842,1.12006 2.1972,0.82962c0.08974,-0.0092 0.17758,-0.02482 0.26308,-0.0464c0.03034,-0.00113 0.06045,-0.003 0.0904,-0.00557c0.06401,0 0.128,0 0.19199,0c0.12198,0.02304 0.24529,0.03894 0.36942,0.04789c0.24929,0.018 0.50193,0.00806 0.75375,-0.02804c0.09675,0.01967 0.22195,0.05881 0.33697,0.13674c0.12087,-0.10419 0.25275,-0.21292 0.39214,-0.31479c0.31243,-0.10821 0.61716,-0.25568 0.90584,-0.4388c0.31257,-0.05594 0.62731,0.00853 0.91629,0.28588c0.52061,0.49963 0.65687,2.6058 0.68853,3.45468c0.0998,2.67629 0.44479,6.03009 -0.13508,8.65742c-0.20482,0.92798 -0.77338,2.25582 -1.72864,2.67844c-2.05186,0.90775 -1.98665,-1.12336 -3.30105,-1.33076c-3.08278,0.02968 -6.53855,0.74251 -9.58119,0.10542c-3.19629,-0.66927 -5.07172,-4.59516 -4.28068,-7.62145c-2.79379,-0.04603 -5.4867,-0.4488 -5.51785,-3.97102c0.88576,-2.41734 3.25718,-1.66156 5.51491,-1.66156c2.18102,0 4.36208,0 6.54312,0c-0.08092,-1.45231 -0.25006,-3.06854 0.07045,-4.34973z" data-paper-data="{&quot;index&quot;:null}" fill="#000000"/><path d="M329.58998,176.23681c0,0.16154 -0.06209,0.30856 -0.16372,0.41851c0.03513,3.55386 1.31715,9.9283 -1.27774,12.62597l-0.05483,0.05483c0,0 -0.13346,0.13346 -0.32654,0.17889c-0.19829,-0.17912 -0.43554,-0.31594 -0.69754,-0.39612c-0.15023,-0.35279 0.15192,-0.65494 0.15192,-0.65494l0.05483,-0.05483c0.88048,-0.82907 1.02672,-2.65183 1.02538,-3.78498c-0.00321,-2.70201 -0.10964,-5.4071 -0.10964,-8.11322c0,0 -0.00001,-0.28737 0.19614,-0.46977c0.02622,-0.07845 0.06777,-0.14988 0.12112,-0.21072c0.2674,-0.00637 0.53656,-0.04343 0.8025,-0.10914c0.16753,0.11025 0.27811,0.29998 0.27811,0.51553z" data-paper-data="{&quot;index&quot;:null}" fill="#787878"/><path d="M318.50737,186.65889h-0.65781c-1.13607,-0.00024 -2.26404,0.10887 -3.39877,0.10964c0,0 -0.61671,0 -0.61671,-0.61671c0,-0.61671 0.61671,-0.61671 0.61671,-0.61671c1.13439,0.00082 2.26281,-0.10941 3.39877,-0.10964h0.65781c0,0 0.61671,0 0.61671,0.61671c0,0.61671 -0.61671,0.61671 -0.61671,0.61671z" data-paper-data="{&quot;index&quot;:null}" fill="#787878"/><path d="M318.35662,183.19159c0,0.61671 -0.61671,0.61671 -0.61671,0.61671h-0.2741c-1.31168,0 -2.62411,0.03057 -3.93319,-0.05618c0,0 -0.61534,-0.04104 -0.57432,-0.65638c0.04104,-0.61534 0.65638,-0.57432 0.65638,-0.57432c1.2814,0.086 2.56709,0.05346 3.85112,0.05346h0.2741c0,0 0.61671,0 0.61671,0.61671z" data-paper-data="{&quot;index&quot;:null}" fill="#787878"/><path d="M320.70723,184.13626c0,-0.6815 0.6815,-0.6815 0.6815,-0.6815h0.48464c0.66636,0 1.33271,-0.00011 1.99908,0c5.25253,0.00078 -4.61729,-0.09305 -3.255,-3.29505c0.36477,-0.8574 4.65731,-0.81445 5.47475,-0.99089c0,0 0.66639,-0.14278 0.80918,0.52359c0.14278,0.66638 -0.52359,0.80918 -0.52359,0.80918c-0.37608,0.08006 -2.52379,0.5433 -3.74397,0.55618c0.47656,0.15863 1.00058,0.35121 1.11387,0.40658c0.52828,0.2582 3.25434,1.24836 3.32927,1.83654c0.28217,2.2149 -4.03012,1.51689 -5.20359,1.51689h-0.48464c0,0 -0.6815,0 -0.6815,-0.6815z" data-paper-data="{&quot;index&quot;:null}" fill="#a6a6a6"/></g></g></svg>