<svg version="1.1" xmlns="http://www.w3.org/2000/svg" xmlns:xlink="http://www.w3.org/1999/xlink" width="17.3302" height="26.58009" viewBox="0,0,17.3302,26.58009"><g transform="translate(-231.3349,-166.70995)"><g data-paper-data="{&quot;isPaintingLayer&quot;:true}" fill-rule="nonzero" stroke="none" stroke-width="1" stroke-linecap="butt" stroke-linejoin="miter" stroke-miterlimit="10" stroke-dasharray="" stroke-dashoffset="0" style="mix-blend-mode: normal"><g><path d="M233.16465,192.87001c-0.58743,-0.43078 -0.74408,-1.72312 -1.09653,-7.94984c-0.23497,-4.07283 -0.31329,-9.08553 -0.15664,-11.08278c0.19581,-2.74132 0.11748,-3.87702 -0.27414,-4.66025c-0.46994,-0.90072 -0.43077,-1.05737 0.39162,-1.72312c0.78323,-0.66575 1.60563,-0.74407 6.26588,-0.74407c4.77774,0 5.52181,0.11749 7.32325,0.93988c1.68395,0.78323 2.11474,1.21402 2.54552,2.46719c0.78323,2.42803 0.62659,7.83235 -0.31329,9.90792c-1.09653,2.42803 -1.91893,3.05462 -5.20852,3.83785l-2.81965,0.66575l0.27414,3.72037c0.23497,3.28959 0.19581,3.83785 -0.39162,4.30779c-0.93988,0.78323 -5.67846,1.01821 -6.54002,0.31329zM241.38863,174.65979c0.11749,-0.78323 -0.03916,-0.90072 -1.21401,-0.90072c-1.21401,0 -1.3315,0.07832 -1.13569,1.01821c0.15665,0.78323 0.35245,0.97904 1.21401,0.86156c0.70491,-0.07832 1.05737,-0.39162 1.13569,-0.97904z" fill="#000000"/><path d="M234.92693,191.06857c-0.62659,-0.39162 -1.29234,-8.73307 -1.29234,-16.17381v-5.75678l3.28959,-0.27414c5.326,-0.46994 8.57643,0.43078 9.12469,2.46719c0.19581,0.58743 0.3133,2.46719 0.3133,4.22947c-0.03916,4.93438 -1.21402,6.18756 -5.87427,6.22672h-2.74132l0.15664,4.54277c0.11749,4.5036 0.11749,4.54276 -0.78323,4.77774c-1.21401,0.35245 -1.60563,0.31329 -2.19306,-0.03916zM242.28935,177.47944c2.1539,-1.13569 2.38887,-3.79869 0.46994,-5.28684c-0.70491,-0.54827 -1.60563,-0.78323 -3.05461,-0.78323c-2.38887,0 -2.54552,0.19581 -2.54552,3.32875c0,1.13569 0.11748,2.34971 0.23497,2.70216c0.31329,0.8224 3.32875,0.8224 4.89522,0.03916z" fill="#f9f9f9"/></g></g></g></svg>