<svg version="1.1" xmlns="http://www.w3.org/2000/svg" xmlns:xlink="http://www.w3.org/1999/xlink" width="14.70323" height="20.41785" viewBox="0,0,14.70323,20.41785"><g transform="translate(-232.64839,-169.79107)"><g data-paper-data="{&quot;isPaintingLayer&quot;:true}" fill="#000000" fill-rule="nonzero" stroke="none" stroke-width="1" stroke-linecap="butt" stroke-linejoin="miter" stroke-miterlimit="10" stroke-dasharray="" stroke-dashoffset="0" style="mix-blend-mode: normal"><path d="M235.21146,189.39927c-2.1539,-1.44899 -2.89797,-3.95534 -2.42803,-8.18481c0.31329,-2.9763 0.54827,-3.60288 1.95809,-5.71762c2.74132,-4.07283 5.67846,-6.10923 8.06732,-5.63929c1.60563,0.35245 1.95809,1.8406 0.46994,2.23222c-1.13569,0.27413 -4.15115,3.36791 -5.13019,5.20851c-0.35245,0.70491 -0.58743,1.3315 -0.5091,1.40982c0.07832,0.03916 1.01821,-0.07832 2.1539,-0.31329c3.87702,-0.78323 7.55822,1.29234 7.55822,4.34696c0,4.22947 -3.13294,7.08828 -8.22397,7.40157c-2.19306,0.15665 -2.74132,0.07832 -3.91618,-0.74407zM240.92908,185.20897c0.93988,-0.43078 1.68395,-1.09653 1.8406,-1.56647c0.15665,-0.70491 0.03917,-0.8224 -1.05736,-0.8224c-1.44899,0 -4.07283,1.91893 -3.60288,2.663c0.39162,0.62659 0.93988,0.58743 2.81965,-0.27413z"/></g></g></svg>