<svg version="1.1" xmlns="http://www.w3.org/2000/svg" xmlns:xlink="http://www.w3.org/1999/xlink" width="13.4357" height="21.88619" viewBox="0,0,13.4357,21.88619"><g transform="translate(-233.28215,-169.0569)"><g data-paper-data="{&quot;isPaintingLayer&quot;:true}" fill="#000000" fill-rule="nonzero" stroke="none" stroke-width="1" stroke-linecap="butt" stroke-linejoin="miter" stroke-miterlimit="10" stroke-dasharray="" stroke-dashoffset="0" style="mix-blend-mode: normal"><path d="M235.72353,190.58955c-0.46994,-0.15665 -1.21401,-0.8224 -1.72312,-1.44899c-0.74407,-0.93988 -0.8224,-1.40982 -0.62659,-3.36791c0.23497,-2.27138 0.74408,-3.56372 2.23222,-5.40432l0.8224,-1.05737l-1.40982,-2.03641c-2.07558,-2.9763 -1.76228,-5.95259 0.70491,-7.59738c1.17486,-0.74407 5.20852,-0.86156 6.1484,-0.11749c1.21401,0.90072 2.31054,3.21126 2.31054,4.77774c0,1.44899 -0.27414,2.11473 -2.07558,4.62109c-0.70491,0.97904 -0.70491,1.01821 0.39162,2.58468c0.58743,0.86156 1.21402,1.56647 1.3315,1.60563c0.11749,0 0.43077,-0.43077 0.66575,-0.97904c0.5091,-1.09653 1.6448,-1.3315 1.6448,-0.3133c0,0.35245 -0.19581,1.25317 -0.46994,1.95809c-0.39162,1.09653 -0.35246,1.48815 0.15664,2.38887c0.8224,1.48815 1.17486,3.52456 0.62659,3.83785c-0.27413,0.15665 -1.01821,-0.35245 -1.76228,-1.25317c-1.29234,-1.48815 -1.3315,-1.52731 -1.99725,-0.74408c-1.6448,1.91893 -3.28959,2.93713 -4.69941,2.89797c-0.78323,0 -1.84061,-0.15664 -2.27139,-0.35245zM240.2663,186.98667c0.74407,-0.5091 1.37066,-1.09653 1.44899,-1.37066c0.19581,-0.58743 -2.15389,-3.25043 -2.85881,-3.25043c-1.56647,0 -2.85881,4.8169 -1.40982,5.20851c1.25317,0.35245 1.52731,0.27413 2.81965,-0.58743zM240.10965,175.94305c0.8224,-1.3315 0.54827,-2.62384 -0.70491,-3.36791c-2.23222,-1.21401 -3.44624,0.97904 -1.68396,3.09378c1.25317,1.44899 1.56647,1.48814 2.38887,0.27413z"/></g></g></svg>