<svg version="1.1" xmlns="http://www.w3.org/2000/svg" xmlns:xlink="http://www.w3.org/1999/xlink" width="17.86382" height="25.04603" viewBox="0,0,17.86382,25.04603"><g transform="translate(-231.06809,-167.47699)"><g data-paper-data="{&quot;isPaintingLayer&quot;:true}" fill-rule="nonzero" stroke="none" stroke-width="1" stroke-linecap="butt" stroke-linejoin="miter" stroke-miterlimit="10" stroke-dasharray="" stroke-dashoffset="0" style="mix-blend-mode: normal"><g><path d="M231.89654,192.1489c-0.27413,-0.43078 -1.01821,-12.57093 -0.78324,-12.92338c0.07832,-0.15665 0.19581,-2.58467 0.23497,-5.44348l0.03916,-5.20851l1.3315,-0.54827c0.90072,-0.35245 2.89797,-0.54827 6.18756,-0.54827c5.60013,0 5.67846,0.03916 7.55822,3.79869c0.8224,1.72312 0.97905,2.46719 0.8224,4.30779c-0.19581,2.03641 -0.35246,2.34971 -1.80144,3.6812l-1.60563,1.40982l2.50635,3.05462c1.40982,1.68395 2.54552,3.32875 2.54552,3.72037c0,0.86156 -2.11473,3.75953 -3.1721,4.30779c-1.3315,0.74407 -2.58468,0.11749 -4.19031,-2.07557c-0.86156,-1.09653 -1.91893,-2.38887 -2.38887,-2.78049l-0.8224,-0.74407v2.70216c0,1.60563 -0.19581,2.93714 -0.46994,3.21127c-0.54827,0.54827 -5.63929,0.62658 -5.99175,0.07832zM239.4156,176.05341c0.70491,-0.70491 0.11748,-1.52731 -1.09653,-1.52731c-0.8224,0 -1.13569,0.19581 -1.13569,0.70491c0,0.39162 0.11748,0.86156 0.27413,0.97904c0.39162,0.43078 1.48815,0.31329 1.95809,-0.15665z" fill="#000000"/><path d="M233.50217,189.13343c-0.11749,-0.8224 -0.35245,-5.52181 -0.46994,-10.41703l-0.27413,-8.92888l5.05187,0.11749l5.01271,0.11749l0.90072,1.3315c1.80144,2.70216 1.6448,5.48265 -0.39162,6.69666c-2.03641,1.17486 -2.27138,1.5273 -1.99725,2.663c0.15665,0.58743 1.37066,2.34971 2.74132,3.91618c2.46719,2.78048 2.50635,2.85881 1.87976,3.79869c-0.35245,0.54827 -0.86156,0.97904 -1.13569,0.97904c-0.27413,0 -1.76228,-1.52731 -3.32875,-3.40707c-2.9763,-3.64204 -3.83785,-4.30779 -4.93438,-3.87702c-0.58743,0.23497 -0.62659,0.70491 -0.39162,4.34696l0.27413,4.11199h-1.3315c-1.25317,0 -1.37066,-0.11749 -1.60563,-1.44899zM239.65056,177.97234c1.44899,-0.74407 1.84061,-1.37066 1.84061,-2.81965c0,-1.76228 -1.13569,-2.58468 -3.56372,-2.58468c-1.95809,0 -3.21126,0.8224 -2.38887,1.6448c0.23497,0.23497 0.3133,0.97904 0.19581,1.68395c-0.15665,1.01821 -0.03916,1.40982 0.70491,1.91893c1.09653,0.74407 2.03641,0.78324 3.21126,0.15665z" fill="#f9f9f9"/></g></g></g></svg>