<svg version="1.1" xmlns="http://www.w3.org/2000/svg" xmlns:xlink="http://www.w3.org/1999/xlink" width="20.73635" height="24.53564" viewBox="0,0,20.73635,24.53564"><g transform="translate(-229.63183,-167.73218)"><g data-paper-data="{&quot;isPaintingLayer&quot;:true}" fill-rule="nonzero" stroke="none" stroke-width="1" stroke-linecap="butt" stroke-linejoin="miter" stroke-miterlimit="10" stroke-dasharray="" stroke-dashoffset="0" style="mix-blend-mode: normal"><g><path d="M237.8558,191.93414c-3.09378,-1.17486 -5.6393,-3.40707 -7.16661,-6.38336c-0.86156,-1.6448 -1.05736,-2.46719 -1.05736,-5.09103c0,-2.62384 0.19581,-3.52456 1.09653,-5.48264c2.27138,-4.85606 5.91343,-7.24493 11.00446,-7.24493c3.36791,0 5.56097,0.93988 7.44074,3.25043c1.56647,1.95809 1.60563,3.75953 0.03916,5.36516c-1.37066,1.40982 -1.72312,1.44898 -3.52456,0.23497c-0.78323,-0.54827 -2.3497,-1.17485 -3.52456,-1.40982c-2.58468,-0.54827 -3.83786,-0.07832 -5.20852,1.95809c-0.74407,1.13569 -0.90072,1.68396 -0.70491,3.09378c0.58743,4.26863 4.54277,5.20851 8.18481,1.95809c2.34971,-2.07558 3.9945,-2.11474 4.8169,-0.15665c1.99725,4.8169 -1.91893,9.71212 -8.18481,10.22122c-1.13569,0.07832 -2.54551,-0.07832 -3.21126,-0.3133z" fill="#000000"/><path d="M236.48514,189.07533c-3.32875,-2.46719 -5.20851,-7.08828 -4.34696,-10.652c0.8224,-3.13294 3.56372,-6.89247 5.99175,-8.1848c1.48815,-0.78323 5.28684,-0.66575 7.20576,0.19581c1.6448,0.74407 2.81965,2.58467 2.34971,3.75953c-0.15665,0.46994 -0.54827,0.39162 -2.07558,-0.58742c-3.56372,-2.27138 -7.989,-1.13569 -10.49535,2.70216c-1.48815,2.19306 -1.6448,4.15115 -0.58743,6.61834c1.13569,2.62384 2.46719,3.60288 4.97355,3.60288c2.11474,0 5.326,-1.3315 6.54001,-2.70216c1.09653,-1.21401 1.40983,-1.01821 1.40983,0.90072c0,1.09653 -0.27414,2.03641 -0.78324,2.663c-2.03641,2.62384 -7.63654,3.56372 -10.18206,1.68395z" fill="#f9f9f9"/></g></g></g></svg>