<svg version="1.1" xmlns="http://www.w3.org/2000/svg" xmlns:xlink="http://www.w3.org/1999/xlink" width="15.10581" height="24.92339" viewBox="0,0,15.10581,24.92339"><g transform="translate(-232.44709,-167.53831)"><g data-paper-data="{&quot;isPaintingLayer&quot;:true}" fill-rule="nonzero" stroke="none" stroke-width="1" stroke-linecap="butt" stroke-linejoin="miter" stroke-miterlimit="10" stroke-dasharray="" stroke-dashoffset="0" style="mix-blend-mode: normal"><g><path d="M232.94904,191.7457c-0.5091,-0.90072 -0.70491,-18.17106 -0.23497,-21.61729l0.27414,-2.19306l3.28959,-0.27413c1.80144,-0.15665 3.44623,-0.15665 3.64204,-0.03916c0.35245,0.19581 0.23497,11.08278 -0.11748,14.80315l-0.15665,1.44899h3.44624c2.27138,0 3.56372,0.15665 3.79869,0.5091c0.54827,0.62659 0.90072,6.65749 0.46994,7.36241c-0.23497,0.43078 -1.8406,0.58743 -7.1666,0.66575c-6.54001,0.11749 -6.85331,0.07832 -7.24493,-0.66575z" fill="#000000"/><path d="M234.67215,186.14557c-0.15665,-2.23222 -0.31329,-6.81415 -0.39162,-10.18206l-0.07832,-6.18756h1.87976h1.91893l-0.11748,8.14565l-0.07832,8.10648l3.56372,0.11749l3.60288,0.11749l0.23497,1.21401c0.54827,2.78048 0.78324,2.663 -5.0127,2.663h-5.20851z" fill="#f9f9f9"/></g></g></g></svg>