<svg version="1.1" xmlns="http://www.w3.org/2000/svg" xmlns:xlink="http://www.w3.org/1999/xlink" width="157.18235" height="57.39185" viewBox="0,0,157.18235,57.39185"><g transform="translate(-241.40882,-162.47523)"><g data-paper-data="{&quot;isPaintingLayer&quot;:true}" fill-rule="nonzero" stroke="none" stroke-width="1" stroke-linecap="butt" stroke-linejoin="miter" stroke-miterlimit="10" stroke-dasharray="" stroke-dashoffset="0" style="mix-blend-mode: normal"><path d="M256.01561,201.14717c-4.24955,-1.32548 -8.77893,1.09137 -12.86127,-2.36891c-3.41124,-2.89175 -0.22407,-9.76662 4.5851,-10.05089c-0.61536,-6.35092 0.22296,-12.27712 7.60395,-13.55801c8.72319,-1.51722 16.49546,0 25.38586,1.04344c16.49546,1.99212 22.42165,0 38.91822,0c0,-4.78799 1.22961,-12.98835 1.22961,-12.98835c0,0 14.31494,9.86138 14.87345,12.98723c0.3924,2.18832 14.98493,-2.27527 21.02483,-2.27527c10.12113,0 16.15879,0.56966 24.93772,4.93069c4.13808,2.03671 5.31306,3.74344 7.94061,7.20596c2.23737,2.93857 1.28646,6.92058 5.36657,6.92058c4.13919,8.53144 -5.36656,10.28723 -12.52348,11.37637c-7.10229,1.09137 -3.85827,-9.57488 -10.28834,-12.42092c-8.0532,-3.60075 -14.93142,-3.08126 -21.35926,2.37115c-4.08123,3.46029 -3.80253,7.96402 -4.47474,12.70408c-24.04255,-3.22395 -41.76873,-2.17941 -59.83046,-2.17941c-0.6711,-2.9408 -1.17387,-4.26739 -2.23626,-7.20596c-1.78923,-4.83594 -5.53491,-7.49246 -11.40647,-8.2494c-8.55485,-1.13596 -16.88563,4.4112 -16.88563,11.75762z" fill="#cc1d1d"/><path d="M337.04145,175.41461c7.52033,-0.88849 25.75708,-3.61414 34.98526,-1.72681c12.81221,2.62086 16.72065,8.44115 21.77285,18.09295c1.46929,-0.14827 2.77135,-0.12262 3.62639,1.04678c1.52614,2.08576 1.68667,6.17702 -0.32217,8.13235c-2.84716,2.76467 -14.14104,3.74901 -18.42515,4.44129c-0.80599,-1.70674 -2.01776,-11.26155 -9.93718,-13.80326c-4.95187,-1.58968 -11.21027,-0.12932 -15.21569,2.58741c-5.20047,3.5294 -5.43457,8.2494 -5.87603,13.44876c-3.22172,0.13266 -6.69985,-0.8595 -9.93049,-1.17052c-17.43745,-1.66995 -34.99196,-1.63762 -52.5119,-0.72573c0.30991,-2.24517 -0.91859,-9.08214 -5.31975,-12.85903c-5.57058,-4.78131 -20.76954,-1.87507 -22.74939,4.75789c-0.51949,1.73572 -0.28427,2.78585 -0.33555,4.55055c-2.9631,0.3322 -5.45129,0.272 -8.40213,-0.05909c-5.43234,-0.60755 -6.15138,-3.57957 -6.76674,-5.73779c-0.59195,-2.0735 -0.06689,-4.70439 2.18832,-5.88383c0.53956,-0.28315 1.30207,-0.65104 1.72346,0.02341c0.73575,1.18167 -1.32993,2.42242 -1.49381,3.69216c-0.75136,5.83701 6.01649,6.34646 11.18463,5.78573c-0.22407,-9.00745 16.18666,-16.0997 24.80394,-9.45113c3.78357,2.91962 7.12905,7.97294 7.40329,13.33839c13.62266,-1.56627 41.33953,-0.99996 57.23746,1.80929c0.44369,-4.21612 2.72119,-9.9762 6.31414,-13.11766c4.39783,-3.84377 12.11101,-4.75456 16.9815,-3.77243c6.46352,1.29984 10.32067,8.11786 11.39756,13.38298c1.32437,0.04013 10.99511,-0.709 12.45436,-1.15492c4.19828,-1.29315 3.44691,-6.56273 3.44691,-6.56273c0,0 -3.39675,0.40466 -3.8605,-0.02787c-0.46152,-0.43476 -1.21065,-3.35438 -1.21065,-3.35438l-10.1267,1.10363l-1.28869,-8.09668l6.75782,-1.10586c-11.68962,-12.04524 -49.01148,-5.1425 -49.60343,-5.29523c-4.23284,-4.57842 -13.2938,-12.72526 -14.14215,-12.65726c-0.84947,0.068 -1.56516,8.48908 -1.64654,12.75759c-1.79257,0.25528 -14.89797,0.58526 -19.75286,0.51837c-11.64838,-0.16276 -23.23544,-1.21177 -34.80021,-2.32321c-6.28738,-0.6031 -13.63939,-0.00446 -16.88786,5.33089c1.53172,0.79818 6.9518,2.00661 6.9518,2.00661l-0.43923,6.38994l-9.56373,-0.71234c-1.96982,-2.14039 -1.23964,-5.25175 0.03122,-7.55043c1.0702,-1.93861 3.86384,-5.10236 6.02763,-6.20711c6.81802,-3.47701 23.51414,-0.48048 27.38913,-0.06243c10.84462,1.17052 34.70211,1.22292 38.62281,0.9052c0.6109,-0.42362 0.50277,-13.23806 2.60637,-13.61597c2.10471,-0.37679 16.70169,12.9315 16.70169,12.9315z" fill="#272525"/><path d="M333.38608,177.66982l-11.22142,0.204c0,0 -0.38348,-10.31844 0.6031,-10.60271c0.98658,-0.2865 10.61831,10.39871 10.61831,10.39871z" fill="#272525"/><path d="M329.61142,176.17712l-5.28407,-0.01783c-0.20623,-1.84385 -0.61536,-5.14585 -0.03122,-5.33313c0.57969,-0.1884 3.66652,3.6119 5.31529,5.35097z" fill="#99ffff"/><path d="M295.56926,180.24608c-0.02675,1.13708 -0.21292,17.12532 -0.23076,18.00042c-0.01783,0.87622 -2.06681,1.16383 -2.06347,0.13935c0.00335,-1.02337 0.7168,-16.83101 0.68001,-17.97366c-0.03456,-1.14154 1.64208,-1.30095 1.61421,-0.1661z" fill="#272525"/><path d="M253.46721,187.1622l-5.43122,-0.46375l0.11593,-2.92407l5.27851,0.87176z" fill="#ffaa00"/><path d="M336.44059,180.18812c0.01337,0.76029 0.09253,16.86334 -0.07581,17.76631c-0.16722,0.90297 -1.91186,0.7391 -1.96425,-0.06466c-0.05128,-0.80376 0.57077,-16.7998 0.70009,-17.64034c0.13266,-0.84277 1.32993,-0.82048 1.33997,-0.06131z" fill="#272525"/><path d="M289.68543,198.73812c-0.74356,0.69451 -4.36884,-7.88933 -7.38545,-10.94607c-3.73453,-3.78581 -11.08096,-3.21949 -16.0763,-1.70116c-0.9654,0.29431 -3.82594,2.05343 -4.56615,2.01553c-0.58972,-0.02899 -0.2263,-0.63765 -0.04905,-0.80264c2.50046,-2.31652 6.99638,-3.64981 10.55143,-4.09349c11.55362,-1.43696 17.2747,6.90274 17.52552,15.52783z" fill="#272525"/><path d="M306.02036,184.47223l0.14938,4.32202l-9.13342,0.15496l0.02898,-4.33094z" fill="#272525"/><path d="M374.57177,188.92802c0.14047,0.63988 -1.34555,0.3021 -1.72903,-0.07246c-8.67971,-8.56934 -25.05031,-5.27739 -28.99999,10.0966c-0.19955,0.77255 -2.74906,0.39798 -2.49266,-0.94756c4.05782,-21.49973 31.5116,-16.85999 33.22168,-9.07657z" fill="#272525"/><path d="M304.80859,185.67731l-0.36565,2.24517l-5.93622,-0.02006l0.19174,-2.33436z" fill="#cbcbcb"/><path d="M389.69493,189.66601l-6.96071,0.71235l-0.58749,-4.7055c0,0 4.42903,-0.65327 5.21161,-0.31103c0.79372,0.34447 2.33659,4.30418 2.33659,4.30418z" fill="#fff400"/><path d="M255.25533,197.84964l-9.67744,-0.23633l0.63654,-5.80356l7.97071,0.25194z" fill="#272525"/><path d="M253.04137,193.72159l0.25752,2.25409l-6.36542,0.01114l0.5507,-2.87502z" fill="#fff400"/><path d="M345.81592,201.33557c0.78147,0.1962 0.14493,1.86392 -0.48381,1.65211c-2.89063,-0.95983 -15.15994,-2.13927 -17.10413,-2.2017c-13.90916,-0.44368 -28.00114,0.61648 -41.82669,1.83271c-0.61982,0.05574 -1.03452,-0.77812 -0.30545,-1.0936c2.5718,-1.11032 47.34264,-3.28638 59.72009,-0.18952z" fill="#272525"/><text transform="translate(297.50725,196.50987) scale(0.15032,0.15032)" font-size="40" xml:space="preserve" fill="#272525" fill-rule="nonzero" stroke="none" stroke-width="1" stroke-linecap="butt" stroke-linejoin="miter" stroke-miterlimit="10" stroke-dasharray="" stroke-dashoffset="0" font-family="Sans Serif" font-weight="normal" text-anchor="start" style="mix-blend-mode: normal"><tspan x="0" dy="0">Placeholder</tspan></text><path d="M363.96612,219.82024c-9.75131,0.89345 -15.00902,-11.17872 -10.24736,-20.62071c0.87314,-1.73314 2.1354,-2.77598 3.47578,-3.99031c8.47382,-7.67303 17.92855,3.34319 15.91555,14.89897c-0.78299,4.49751 -4.67609,9.30037 -9.14394,9.71206z" fill="#272525"/><path d="M353.94963,209.37717c-0.56933,-4.18053 1.57454,-10.43823 4.79107,-12.41349c1.89032,-1.16382 6.15695,-1.76773 7.98996,-0.22137c5.2028,4.39689 6.47717,14.21645 0.66185,19.20486c-5.53158,4.74693 -12.51765,0.21419 -13.44286,-6.56999z" fill="#000000"/><path d="M364.35175,214.57131c-3.09293,1.6654 -8.19385,-2.28358 -8.54419,-6.23113c-0.43512,-4.94453 2.39475,-8.72753 5.27731,-9.511c4.26799,-1.15815 10.04204,4.89675 7.35803,11.05125c-1.28868,2.96157 -3.08256,4.14633 -4.09113,4.69087z" fill="#272525"/><path d="M362.18956,201.0868c4.20555,-0.37817 7.14598,6.62845 4.14473,10.12144c-1.09141,1.26817 -2.41199,1.69136 -3.86655,1.54593c-7.02461,-0.7023 -5.72439,-11.18366 -0.27817,-11.66739z" fill="#ffffff"/><path d="M360.55632,197.44552l3.8741,17.79957l-1.40758,0.59606l-3.31681,-18.37373z" fill="#272525"/><path d="M354.69319,209.62789l14.57241,-6.25215l0.66221,1.59435l-15.12197,5.65407z" fill="#272525"/><path d="M271.31104,218.64564c-9.77701,0.52539 -14.57468,-11.73911 -9.4596,-20.99103c0.93801,-1.6989 1.27087,-2.39726 2.65838,-3.55894c8.75778,-7.34728 18.75511,3.72012 16.30679,15.19155c-0.95577,4.46576 -5.02762,9.11806 -9.50558,9.3584z" fill="#272525"/><path d="M261.69639,207.83259c-0.60979,-4.16468 1.96792,-10.37128 5.25795,-12.22575c1.93182,-1.09046 6.18534,-1.48512 7.99259,0.08301c6.63635,5.76917 5.9352,14.4511 -0.06448,19.21615c-5.70704,4.53447 -12.3909,-1.63998 -13.18606,-7.07338z" fill="#000000"/><path d="M271.89587,213.41618c-3.15367,1.54843 -8.1017,-2.59165 -8.3026,-6.5485c-0.2468,-4.95966 2.72177,-8.6308 5.63301,-9.30474c4.30872,-0.99713 9.84981,5.27278 6.93507,11.32145c-1.40305,2.91073 -3.2382,4.028 -4.26549,4.53178z" fill="#272525"/><path d="M269.8943,199.85422c4.18847,-0.64183 6.89033,6.89602 3.75809,10.27197c-1.13746,1.22713 -2.47308,1.59789 -3.92112,1.39871c-6.99418,-0.96395 -4.63864,-10.93589 0.16302,-11.67066z" fill="#ffffff"/><path d="M273.65561,196.73227l-5.60475,17.13257l-1.44598,-0.46226l6.34283,-17.22734z" fill="#272525"/><path d="M262.85167,202.72259l15.01052,4.71738l-0.24403,1.74516l-15.16634,-5.571z" fill="#272525"/><path d="M271.08675,209.50996c-1.57685,0.77476 -4.04917,-1.29524 -4.15129,-3.27424c-0.12617,-2.47986 1.36087,-4.31485 2.81761,-4.65292c2.15658,-0.4991 4.9249,2.63695 3.46699,5.66072c-0.70206,1.45536 -1.61965,2.01287 -2.13331,2.26645z" fill="#272525"/><path d="M268.68183,203.08204c1.54993,-1.44436 4.78897,0.90759 4.44685,3.18508c-0.12509,0.82717 -0.574,1.3582 -1.22726,1.68236c-3.15977,1.57146 -4.99561,-3.21138 -3.2196,-4.86744z" fill="#a4b9bc"/><path d="M363.39664,210.69733c-1.54643,0.83381 -4.09524,-1.14128 -4.27099,-3.11615c-0.21759,-2.47338 1.1968,-4.36432 2.63977,-4.75498c2.13506,-0.58022 5.01993,2.44896 3.67955,5.52449c-0.6465,1.48307 -1.54118,2.07709 -2.04832,2.34664z" fill="#272525"/><path d="M362.14143,203.95956c2.06204,-0.51477 3.57359,3.31588 2.07185,5.06185c-0.54461,0.63293 -1.20717,0.84403 -1.93162,0.77236c-3.51279,-0.34891 -1.62274,-5.46372 -0.14021,-5.83422z" fill="#a4b9bc"/></g></g></svg>