<svg version="1.1" xmlns="http://www.w3.org/2000/svg" xmlns:xlink="http://www.w3.org/1999/xlink" width="21.76701" height="31.78816" viewBox="0,0,21.76701,31.78816"><g transform="translate(-370.33952,-171.58636)"><g data-paper-data="{&quot;isPaintingLayer&quot;:true}" fill="#000000" fill-rule="nonzero" stroke="none" stroke-width="1" stroke-linecap="butt" stroke-linejoin="miter" stroke-miterlimit="10" stroke-dasharray="" stroke-dashoffset="0" style="mix-blend-mode: normal"><path d="M382.46122,171.61784c0.55792,0.0555 1.51603,0.20447 1.82567,0.28919c0.48197,0.12852 0.78285,0.21909 0.83251,0.25413c0.03213,0.02044 0.07595,0.03797 0.09639,0.03797c0.05842,0 0.5258,0.17818 1.09833,0.4177c0.25413,0.10516 1.13337,0.56377 1.443,0.75363c0.1957,0.11977 0.37973,0.23076 0.40895,0.24536c0.15774,0.09348 0.50535,0.33008 0.63679,0.43523c0.08179,0.06426 0.19863,0.15774 0.25705,0.20447c0.10516,0.08179 0.10808,0.08763 0.04966,0.11685c-0.05842,0.03213 -0.05842,0.03506 -0.00293,0.06719c0.16066,0.10224 0.51411,0.94057 0.63971,1.5277c0.25706,1.18595 0.33008,2.55592 0.23076,4.35238c-0.03797,0.70105 -0.04673,1.21808 -0.02337,1.25314c0.01753,0.02337 0.1957,0.09055 0.49658,0.1811c0.11977,0.03797 0.1957,0.07303 0.1665,0.07886c-0.02922,0.00584 -0.07595,0 -0.10224,-0.01169c-0.05259,-0.02044 -0.07303,-0.02629 -0.26581,-0.05258c-0.07011,-0.01169 -0.1519,-0.03213 -0.18403,-0.04966c-0.03213,-0.01753 -0.07886,-0.02337 -0.10224,-0.01169c-0.02629,0.00876 -0.0555,0.00584 -0.06426,-0.00584c-0.00876,-0.0146 -0.12852,-0.0555 -0.26581,-0.09348c-0.38266,-0.10516 -0.83542,-0.28334 -1.05158,-0.40896c-0.07011,-0.0409 -0.14313,-0.07595 -0.16066,-0.07595c-0.0146,0 -0.08179,-0.03213 -0.14605,-0.07302c-0.14021,-0.08763 -0.17527,-0.10808 -0.42648,-0.25998c-0.33008,-0.20156 -0.91137,-0.70398 -0.86755,-0.75071c0.01169,-0.00876 0.05842,0.01753 0.10808,0.06133c0.09348,0.08472 0.66016,0.48198 0.68644,0.48198c0.00876,0 0.08179,0.0409 0.1665,0.08763c0.08179,0.04966 0.15481,0.08471 0.16066,0.07886c0.01169,-0.01169 -0.20447,-0.90845 -0.24829,-1.02236c-0.01753,-0.04382 -0.02044,-0.07886 -0.00584,-0.07886c0.0146,0 0.0409,0.03797 0.05842,0.08763c0.0146,0.04673 0.03505,0.08763 0.04382,0.08763c0.06426,0 -0.29794,-0.69229 -0.55207,-1.05158c-0.14313,-0.20447 -0.57544,-0.65722 -0.74487,-0.78576c-0.0555,-0.0409 -0.10808,-0.08471 -0.11685,-0.09348c-0.02629,-0.03213 -0.42063,-0.25121 -0.70105,-0.39143c-0.37097,-0.18694 -0.74779,-0.31255 -1.39919,-0.47029c-0.30087,-0.07303 -0.56377,-0.14021 -0.58713,-0.14897c-0.02337,-0.00876 -0.04966,-0.02046 -0.05842,-0.02337c-0.08179,-0.0292 -0.11392,-0.05842 -0.12852,-0.11975c-0.01169,-0.04382 -0.03214,-0.06426 -0.05259,-0.05258c-0.02044,0.0146 -0.02629,0.00584 -0.01461,-0.02629c0.00876,-0.02629 0.00292,-0.04966 -0.01752,-0.05842c-0.02629,-0.00584 -0.03797,-0.15482 -0.04382,-0.50827c-0.01169,-0.53747 0.03797,-1.08663 0.14313,-1.5277c0.03213,-0.13728 0.06426,-0.27751 0.07011,-0.31255c0.07595,-0.34177 0.5258,-1.38166 0.62803,-1.44592c0.03213,-0.02044 0.0409,-0.06133 0.03506,-0.13145l-0.01169,-0.10224l-0.13437,0.01753c-0.07302,0.00876 -0.14605,0.02922 -0.1665,0.04673c-0.01753,0.0146 -0.0409,0.02337 -0.04673,0.0146c-0.02044,-0.01753 -0.68938,0.30964 -0.88508,0.43523c-0.33592,0.21616 -0.74194,0.57253 -0.9581,0.84711c-0.10515,0.13144 -0.10808,0.14313 -0.06133,0.17818c0.02922,0.02044 0.14605,0.06133 0.25706,0.08763c0.28919,0.07302 0.41187,0.14313 0.62511,0.35637c0.21616,0.21616 0.21323,0.16943 0.03213,0.75363c-0.0555,0.17527 -0.11392,0.41187 -0.16357,0.64262c-0.111,0.53164 -0.14021,0.61927 -0.1957,0.57546c-0.02044,-0.0146 -0.12561,-0.03506 -0.23953,-0.04382c-0.33884,-0.02629 -0.59005,-0.12852 -0.89677,-0.36221c-0.10224,-0.07886 -0.17234,-0.11391 -0.18403,-0.09348c-0.01169,0.0146 0,0.05258 0.02629,0.08179c0.08179,0.09055 0.04966,0.10516 -0.0409,0.01753c-0.04673,-0.04382 -0.07886,-0.09348 -0.07011,-0.10808c0.00876,-0.0146 0.00292,-0.02046 -0.01461,-0.01753c-0.0146,0.00584 -0.07302,-0.03213 -0.12561,-0.08179c-0.09055,-0.08471 -0.50827,-0.444 -0.62511,-0.53747c-0.50534,-0.40603 -0.66599,-0.5258 -0.98148,-0.74196c-0.20447,-0.1373 -0.37681,-0.25121 -0.38557,-0.25121c-0.00876,0 -0.07011,-0.03797 -0.14021,-0.08472c-0.23953,-0.16066 -1.19179,-0.5696 -1.19179,-0.51118c0,0.00584 -0.03214,-0.00876 -0.07012,-0.03213c-0.06133,-0.0409 -0.07009,-0.0409 -0.08762,0c-0.00876,0.02629 -0.03214,0.04382 -0.05259,0.03797c-0.04966,-0.01753 -0.05842,-0.13438 -0.02044,-0.31255c0.03797,-0.18403 0.28626,-0.81789 0.40896,-1.04574c0.10515,-0.19279 0.10516,-0.21909 0.00876,-0.18403c-0.16066,0.06133 -0.12269,0.01169 0.07595,-0.09639c0.32132,-0.17527 1.22684,-0.39143 1.98632,-0.47614c0.08763,-0.00876 0.21323,-0.02922 0.28042,-0.0409c0.06426,-0.01169 0.222,-0.02337 0.35051,-0.02629c0.12561,-0.00293 0.2366,-0.0146 0.24245,-0.02044c0.02337,-0.02337 1.22684,-0.00584 1.50727,0.02044z"/><path d="M377.27634,173.75313h0.21909l-0.27749,0.03797c-0.1519,0.02337 -0.31547,0.04673 -0.36513,0.05842c-0.04673,0.01169 -0.111,0.02044 -0.1373,0.02337c-0.02922,0.00293 -0.05258,0.01167 -0.05258,0.02044c0,0.01169 -0.01752,0.02044 -0.03505,0.02044c-0.02044,0 -0.09639,0.01753 -0.16943,0.03797c-0.07302,0.02044 -0.1519,0.03797 -0.17527,0.04382c-0.14897,0.03213 -0.91137,0.32131 -1.17426,0.44984c-0.17235,0.08179 -0.32717,0.14897 -0.34177,0.14897c-0.01753,0 -0.03213,0.01169 -0.03213,0.02922c0,0.0146 -0.0146,0.0292 -0.02922,0.0292c-0.08179,0 -1.11,0.56669 -1.24729,0.68645c-0.01753,0.0146 -0.12561,0.09348 -0.23953,0.17234c-0.11392,0.07886 -0.2074,0.15481 -0.2074,0.16943c0,0.01169 -0.0146,0.02337 -0.02922,0.02337c-0.01753,0 -0.07886,0.04382 -0.14021,0.09931c-0.05842,0.0555 -0.1811,0.16357 -0.26874,0.24245c-0.13728,0.11977 -0.27749,0.26289 -0.71566,0.72443c-0.14313,0.14897 -0.64555,0.79453 -0.77992,0.999c-0.08179,0.12561 -0.17818,0.27458 -0.21616,0.333c-0.111,0.16357 -0.08472,0.16066 0.10808,-0.00876c0.15481,-0.13437 0.56377,-0.46737 0.78576,-0.63972c0.9435,-0.73027 2.19371,-1.28527 3.41765,-1.51603c0.26581,-0.04966 0.28334,-0.04966 0.39434,0c0.20447,0.08763 0.86755,0.777 0.85002,0.88508c-0.01169,0.08179 -0.03797,0.09055 -0.3184,0.09348c-0.9289,0.0146 -2.0535,0.7069 -2.92398,1.79645c-0.37681,0.47028 -0.54624,0.7361 -0.92598,1.46053c-0.01169,0.02337 -0.05842,0.12268 -0.10224,0.21907c-0.0409,0.09639 -0.11684,0.25413 -0.16357,0.35053c-0.19863,0.4031 -0.58129,1.65624 -0.57837,1.90453c0,0.03797 -0.01169,0.06719 -0.02922,0.06719c-0.0146,0 -0.02046,0.02044 -0.01169,0.04382c0.01169,0.02337 0.00293,0.06426 -0.01752,0.08763c-0.01753,0.02337 -0.02922,0.05258 -0.02046,0.06426c0.00876,0.01169 -0.00292,0.12268 -0.02337,0.24245c-0.07886,0.46153 -0.06426,1.32032 0.02922,1.73803c0.07886,0.3476 0.21909,0.73902 0.21909,0.60758c0,-0.01753 0.02922,-0.09639 0.06426,-0.17526c0.03505,-0.07595 0.08179,-0.19279 0.10808,-0.25706c0.04382,-0.111 0.2074,-0.42939 0.47321,-0.92013c0.06426,-0.11977 0.15481,-0.26581 0.19863,-0.32132c0.04673,-0.05842 0.11977,-0.17234 0.16357,-0.25706c0.04382,-0.08472 0.09055,-0.1519 0.10516,-0.1519c0.0146,0 0.02629,-0.01753 0.02629,-0.03797c0,-0.02044 0.06719,-0.11685 0.14605,-0.21616c0.08179,-0.09931 0.14605,-0.18987 0.14605,-0.20156c0,-0.01169 0.06426,-0.09639 0.14021,-0.18403c0.07595,-0.09055 0.16066,-0.1957 0.18696,-0.23662c0.02337,-0.0409 0.111,-0.14021 0.18696,-0.22492c0.07886,-0.08179 0.15774,-0.1665 0.17234,-0.18987c0.14605,-0.18987 0.26289,-0.31548 0.30964,-0.33008c0.02922,-0.01169 0.0555,-0.02922 0.0555,-0.04382c0,-0.02337 0.19863,-0.23369 0.22493,-0.23369c0.00876,0 0.07012,-0.05842 0.14313,-0.13145c0.07011,-0.07303 0.1373,-0.13144 0.1519,-0.13144c0.0146,0 0.05258,-0.02922 0.08471,-0.06719c0.03213,-0.03506 0.09639,-0.09055 0.14021,-0.12268c0.04382,-0.03213 0.13438,-0.10808 0.20156,-0.16943c0.06719,-0.05842 0.12852,-0.10808 0.14021,-0.10808c0.01169,0 0.04673,-0.02044 0.07302,-0.04382c0.13145,-0.10516 0.57253,-0.42356 0.59006,-0.42356c0.01169,0 0.04673,-0.02337 0.07886,-0.05259c0.02922,-0.0292 0.09931,-0.07011 0.1519,-0.09055c0.04966,-0.02044 0.09348,-0.04966 0.09348,-0.06133c0,-0.01169 0.04382,-0.0409 0.09639,-0.06133c0.04966,-0.02044 0.16357,-0.08178 0.24536,-0.13437c0.08472,-0.05259 0.18696,-0.111 0.22785,-0.12561c0.04382,-0.01753 0.1519,-0.06426 0.24245,-0.10515c0.09055,-0.0409 0.31255,-0.13438 0.48781,-0.2074c0.82959,-0.33592 1.83734,-0.55792 2.35145,-0.52287c0.66599,0.04966 0.75363,0.06133 0.81498,0.11685c0.08179,0.07302 0.08179,0.29211 0.00292,0.54624c-0.15774,0.49074 -0.18987,0.58129 -0.28042,0.76532c-0.06133,0.11977 -0.09932,0.23953 -0.09932,0.30672c0,0.09055 0.01461,0.11685 0.09639,0.16066c0.27751,0.1519 0.41479,0.20156 0.60174,0.222c0.19863,0.02044 0.20447,0.01753 0.222,-0.04965c0.03213,-0.13437 0.31547,-0.69521 0.47905,-0.94643c0.12561,-0.19279 0.17818,-0.25413 0.23076,-0.25705c0.03505,0 0.06426,-0.01461 0.06426,-0.02922c0,-0.05259 0.09055,-0.02922 0.21907,0.05842c0.07011,0.04673 0.14313,0.10516 0.1665,0.12561c0.09639,0.09348 0.24829,0.19279 0.28626,0.18403c0.02337,-0.00293 0.09055,-0.03506 0.14605,-0.07011c0.14605,-0.09348 0.30964,-0.13437 0.51703,-0.1373c0.16066,0 0.18987,0.00876 0.27166,0.08763c0.08179,0.07595 0.19863,0.28042 0.21909,0.37973c0.02922,0.12561 0.03505,0.30672 0.01461,0.30672c-0.0146,0 -0.0409,-0.0555 -0.06133,-0.12269c-0.04673,-0.1811 -0.15774,-0.37973 -0.24829,-0.444c-0.10808,-0.07595 -0.3593,-0.05259 -0.58129,0.0555l-0.16943,0.08179l0.08472,0.07595c0.04673,0.0409 0.1519,0.12852 0.23076,0.19279c0.07886,0.06426 0.21032,0.17527 0.29211,0.24829c0.08472,0.07302 0.1957,0.16357 0.24536,0.20447c0.05259,0.0409 0.11977,0.09348 0.1519,0.12269c0.03213,0.02629 0.11392,0.09055 0.17818,0.14605c0.13728,0.10808 0.32132,0.26289 0.34468,0.28626c0.0146,0.0146 0.07303,0.05842 0.24829,0.17527c0.03505,0.02337 0.11392,0.08471 0.17818,0.13728c0.11685,0.09639 0.45568,0.34761 1.01945,0.75948c0.17818,0.12852 0.3739,0.25706 0.43816,0.28626c0.06426,0.0292 0.30379,0.14313 0.53455,0.25413c0.43523,0.2074 0.76823,0.35051 0.78285,0.33592c0.00584,-0.00584 -0.0555,-0.10516 -0.13437,-0.222c-0.14897,-0.222 -0.30963,-0.47028 -0.36513,-0.57252c-0.02044,-0.03213 -0.09055,-0.15774 -0.16066,-0.27751c-0.21616,-0.3739 -0.35051,-0.65431 -0.35051,-0.73318c0,-0.13437 0.20156,-0.16357 0.46737,-0.06133c0.0409,0.0146 0.08179,0.02922 0.09639,0.02922c0.01169,0 0.09348,0.02337 0.1811,0.04966c0.29502,0.08472 1.00484,0.24245 1.31447,0.29211c0.65139,0.10225 0.85002,0.11977 1.44008,0.14605l0.47614,0.02044l0.14605,-0.12268c0.07886,-0.06426 0.14313,-0.10808 0.14313,-0.09348c0,0.05259 -0.89385,0.75071 -1.03698,0.80913c-0.05259,0.02044 -0.05258,0.02629 -0.00584,0.03506c0.05842,0.0146 0.06133,0.07886 0.00876,0.31547c-0.09932,0.44984 -0.3739,0.9026 -0.78576,1.3028l-0.16941,0.16357l0.14021,0.11392c0.3739,0.29794 1.15382,1.04866 1.55108,1.49266c0.76532,0.85002 1.14797,1.48098 1.35245,2.21416c0.16066,0.57837 -0.02629,1.32032 -0.3476,1.37289c-0.05842,0.01169 -0.13437,0.02629 -0.1665,0.03506c-0.05259,0.0146 -0.0555,0.01169 -0.01461,-0.03506c0.0409,-0.04966 0.03505,-0.05258 -0.13145,-0.0292c-0.09639,0.0146 -0.19863,0.02337 -0.22785,0.02629c-0.02922,0 -0.04382,0.01753 -0.03797,0.03797c0.01753,0.04382 -0.02922,0.05258 -0.0555,0.00876c-0.01169,-0.01753 -0.12269,-0.02629 -0.27166,-0.02044c-0.43232,0.01753 -0.9435,-0.03506 -1.40795,-0.14605c-0.16943,-0.03797 -0.333,-0.07595 -0.36513,-0.07886c-0.07303,-0.01169 -0.42356,-0.12561 -0.60759,-0.19863c-0.07886,-0.03213 -0.14897,-0.04966 -0.15774,-0.0409c-0.00876,0.00876 0.03797,0.21032 0.10515,0.44985c0.06426,0.2366 0.11977,0.45861 0.11977,0.49074c-0.00293,0.05259 -0.00293,0.05259 -0.0409,0.00584c-0.02044,-0.0292 -0.04382,-0.04673 -0.04966,-0.03797c-0.0146,0.01169 -0.43523,-0.08763 -0.52287,-0.12268c-0.02337,-0.00876 -0.0555,-0.02044 -0.07302,-0.02629c-0.0146,-0.00293 -0.17234,-0.05842 -0.35051,-0.12268c-0.44108,-0.15774 -0.9435,-0.40018 -1.25605,-0.60758c-0.14313,-0.09348 -0.26874,-0.17527 -0.27749,-0.1811c-0.00876,-0.00293 -0.01169,0.28919 -0.00584,0.65139l0.01167,0.65724l-0.06426,0.02337c-0.06426,0.02337 -0.06426,0.02337 0.01753,0.08179c0.07011,0.04673 0.13728,0.0555 0.40603,0.0555c0.333,0 0.3476,0.00293 0.58129,0.15774c0.06426,0.0409 0.15481,0.07595 0.20447,0.07886c0.04966,0.00293 0.17527,0.0292 0.28042,0.05842c0.10515,0.02629 0.2366,0.06133 0.29211,0.07595c0.08179,0.01753 0.12852,0.06133 0.23369,0.21907c0.07302,0.10808 0.35637,0.42063 0.63095,0.69521c0.5404,0.53747 0.60758,0.62218 0.80622,1.02236c0.07303,0.14313 0.1665,0.32715 0.21032,0.40896c0.04382,0.07886 0.17818,0.36806 0.30087,0.64263c0.41479,0.9289 0.57544,1.26481 0.82373,1.72343c0.41479,0.76823 0.85295,1.41087 1.24145,1.8169c0.22493,0.23953 0.04673,0.12269 -0.21323,-0.13728c-0.28042,-0.28042 -0.41479,-0.444 -0.68937,-0.85002c-0.28919,-0.42356 -0.35637,-0.54331 -0.62511,-1.09247c-0.31547,-0.64263 -0.32132,-0.65139 -0.60466,-1.35829c-0.40603,-1.01653 -0.72734,-1.56569 -1.1246,-1.9279c-0.3739,-0.34177 -0.51118,-0.49658 -0.86172,-0.9727c-0.08179,-0.111 -0.10516,-0.12561 -0.32132,-0.17234c-0.12561,-0.0292 -0.26874,-0.07303 -0.31255,-0.09932c-0.09639,-0.0555 -0.14313,-0.03506 -0.05259,0.02337c0.03505,0.02044 0.06133,0.04673 0.06133,0.05842c0,0.03213 -0.07886,-0.00293 -0.28626,-0.13145c-0.25998,-0.15774 -0.3739,-0.18987 -0.63386,-0.19279h-0.22493l0.13145,0.10224c0.26581,0.2074 0.15481,0.17527 -0.1519,-0.04382c-0.59297,-0.42356 -0.9581,-0.76532 -1.06619,-0.99608c-0.06133,-0.13144 -0.07302,-0.14313 -0.08471,-0.08472c-0.00584,0.03797 -0.01461,0.00293 -0.01753,-0.07886c0,-0.08179 -0.01169,-0.1957 -0.02046,-0.24829c-0.01169,-0.07595 -0.00876,-0.08763 0.01461,-0.0555c0.02337,0.03506 0.03213,0.02044 0.03213,-0.06133c0.00292,-0.5258 0.41187,-1.65331 0.89385,-2.45369c0.17527,-0.29211 0.18403,-0.31255 0.18987,-0.52287c0.00584,-0.1519 0.04673,-0.32132 0.07595,-0.32132c0.00584,0 0.0555,0.03213 0.10515,0.07011c0.22493,0.1665 0.89968,0.28334 0.98148,0.17234c0.00876,-0.0146 0.09639,-0.08179 0.19279,-0.15482c0.42063,-0.30964 0.75071,-0.79453 1.08663,-1.58905c0.07011,-0.17234 0.07011,-0.17234 0.01461,-0.23076c-0.04966,-0.04966 -0.10224,-0.0555 -0.38266,-0.06133l-0.32424,-0.00584v0.1957c0,0.21909 -0.06719,0.41479 -0.17527,0.50827l-0.06718,0.05842l0.02044,-0.05842c0.08472,-0.22785 0.13145,-0.4031 0.14897,-0.54624l0.02044,-0.16357l-0.14021,-0.02044c-0.07886,-0.01169 -0.2074,-0.02922 -0.28626,-0.04382c-0.13145,-0.02044 -0.14605,-0.01752 -0.23369,0.06426c-0.06426,0.06133 -0.07302,0.07595 -0.02629,0.0555c0.0555,-0.02629 0.07009,-0.01753 0.12561,0.07595c0.09932,0.16943 0.13437,0.36806 0.09348,0.5258c-0.03797,0.1373 -0.14605,0.29211 -0.24536,0.3476c-0.04966,0.02629 -0.04673,0.03505 0.04966,0.11392c0.06426,0.0555 0.10224,0.11392 0.10224,0.15482c0,0.09348 -0.08178,0.25998 -0.13728,0.28042c-0.06718,0.02629 -0.08179,-0.00292 -0.02629,-0.0555c0.05259,-0.0555 0.08471,-0.16066 0.07011,-0.23953c-0.00584,-0.0292 -0.10808,-0.11685 -0.22785,-0.19863c-0.21909,-0.14897 -0.3593,-0.33592 -0.33592,-0.45568c0.0146,-0.07011 0.09639,-0.222 0.13145,-0.24536c0.01753,-0.01169 0.08472,-0.09348 0.1519,-0.18403c0.06426,-0.09055 0.14605,-0.18987 0.1811,-0.21616c0.03213,-0.02629 0.0555,-0.05258 0.04673,-0.05842c-0.00876,-0.00584 -0.13145,-0.03506 -0.27751,-0.06426c-0.14313,-0.0292 -0.28919,-0.06133 -0.32132,-0.06719c-0.04673,-0.01169 -0.07011,0.01169 -0.111,0.10224c-0.05842,0.1373 -0.27751,0.39142 -0.31255,0.37097c-0.0146,-0.00876 -0.06133,0.04673 -0.10515,0.12269c-0.04382,0.07886 -0.1373,0.23076 -0.21032,0.34468c-0.07302,0.111 -0.13145,0.21032 -0.13145,0.21909c0,0.0146 -0.15481,0.23076 -0.22492,0.31255c-0.0146,0.02044 -0.02922,0.04966 -0.02922,0.06426c0,0.01753 -0.12268,0.1519 -0.26874,0.30379c-0.19863,0.19863 -0.29211,0.27166 -0.35053,0.27751c-0.09639,0.00584 -0.09931,-0.00584 -0.02629,-0.27166c0.02922,-0.11392 0.11684,-0.46737 0.19279,-0.78869c0.07595,-0.32132 0.14897,-0.60758 0.1665,-0.63679c0.0146,-0.0292 0.03213,-0.10224 0.03797,-0.16066c0.00876,-0.05842 0.03506,-0.2074 0.05842,-0.32715c0.07595,-0.39726 0.07886,-0.38557 -0.19279,-0.52287c-0.13145,-0.06719 -0.29211,-0.15774 -0.3593,-0.20447c-0.06426,-0.04382 -0.17527,-0.11685 -0.23953,-0.16066c-0.26874,-0.17527 -0.80913,-0.72441 -1.18303,-1.20348c-0.12852,-0.1665 -0.47321,-0.73027 -0.54624,-0.89677c-0.01753,-0.04382 -0.04382,-0.07886 -0.05842,-0.07886c-0.01169,0 -0.11685,0.09639 -0.23076,0.21032c-0.22493,0.23369 -0.28919,0.38557 -0.1957,0.46153c0.11392,0.09639 0.24829,0.52287 0.25413,0.80037c0,0.111 0.01461,0.15774 0.0555,0.18694c0.04966,0.03506 0.0555,0.06719 0.0409,0.27751c-0.00876,0.13144 -0.02337,0.35053 -0.03213,0.48781c-0.04382,0.62218 -0.16066,1.1655 -0.333,1.55108c-0.0555,0.12268 -0.07595,0.14021 -0.19863,0.17234c-0.27166,0.07303 -0.28626,0.07011 -0.35637,-0.04673c-0.05842,-0.09931 -0.08763,-0.21032 -0.14021,-0.50827c-0.00876,-0.0555 -0.01752,-0.35345 -0.02337,-0.65725c-0.00292,-0.30672 -0.01752,-0.59297 -0.02922,-0.64262c-0.0146,-0.04673 -0.08471,-0.1665 -0.16066,-0.26289c-0.3184,-0.40896 -0.54624,-0.91721 -0.61635,-1.35829c-0.03213,-0.21909 -0.02337,-0.85878 0.0146,-0.94057c0.02044,-0.04382 0.01169,-0.04382 -0.11977,-0.00584c-0.07595,0.02337 -0.16066,0.04966 -0.18403,0.06133c-0.02337,0.00876 -0.0555,0.02046 -0.07303,0.02337c-0.0146,0.00293 -0.03505,0.00876 -0.04382,0.0146c-0.00876,0.00293 -0.0409,0.01169 -0.07302,0.01753c-0.03213,0.00584 -0.222,0.0555 -0.42356,0.11392c-0.3885,0.11392 -0.61342,0.2074 -0.61342,0.25706c0,0.04673 0.17818,0.5258 0.21323,0.5696c0.0146,0.02044 0.02046,0.04382 0.01461,0.05258c-0.00876,0.00876 0.00292,0.07595 0.02629,0.1519c0.09348,0.30087 0.12852,0.49367 0.11392,0.64848c-0.01753,0.21032 -0.04966,0.35051 -0.07595,0.35051c-0.01753,0 -0.10516,-0.3476 -0.16066,-0.63386c-0.03505,-0.1811 -0.05842,-0.11977 -0.04673,0.12852c0.00584,0.13728 -0.00584,0.32424 -0.02337,0.41479c-0.01753,0.09055 -0.03213,0.36806 -0.03505,0.61635c-0.00876,0.69814 -0.09055,1.23268 -0.20447,1.3466c-0.07886,0.07886 -0.18987,0.07012 -0.24829,-0.0146c-0.13145,-0.20447 -0.17234,-0.61635 -0.16941,-1.74095c0,-0.72441 0.00293,-0.78869 0.06718,-0.99316c0.12561,-0.40603 0.24829,-0.58422 0.4031,-0.58422c0.04966,0 0.06719,-0.01752 0.06719,-0.06718c0,-0.03506 -0.01461,-0.08472 -0.02922,-0.10808c-0.02922,-0.04673 -0.05842,-0.02337 -0.47905,0.39726c-0.45568,0.45276 -1.11,1.20348 -1.25898,1.44591c-0.0146,0.02629 -0.0555,0.08472 -0.08763,0.12852c-0.0409,0.06133 -0.06426,0.17234 -0.09055,0.43523c-0.02044,0.1957 -0.03797,0.38266 -0.03797,0.41772c-0.00293,0.03506 -0.02629,0.08763 -0.05842,0.11684c-0.07886,0.07886 -0.23076,0.66892 -0.29794,1.1801c-0.07011,0.51118 -0.09348,1.44592 -0.03797,1.48098c0.01753,0.01169 0.06719,0.12561 0.111,0.25413c0.04382,0.12852 0.09055,0.25998 0.10516,0.29211c0.01169,0.03213 0.04673,0.11977 0.07302,0.1957c0.05258,0.14313 0.07302,0.17234 0.28042,0.35929c0.111,0.10224 0.94934,0.71858 1.12169,0.82375c0.30087,0.18694 0.58129,0.35344 0.70105,0.4177c0.08179,0.0409 0.1811,0.09932 0.22493,0.12852c0.05842,0.03797 0.07886,0.0409 0.09055,0.01169c0.01169,-0.0292 0.02337,-0.02629 0.05259,0.01169c0.02337,0.02629 0.07886,0.06426 0.12268,0.08179c0.04673,0.0146 0.07303,0.0409 0.06426,0.05842c-0.02629,0.04382 0.3476,0.03506 0.78576,-0.01461c0.20447,-0.02337 0.38266,-0.04965 0.39434,-0.0555c0.01169,-0.00876 0.09348,-0.02046 0.18694,-0.02922c0.09055,-0.00876 0.22785,-0.03505 0.30379,-0.06133c0.07595,-0.02629 0.19279,-0.05842 0.25706,-0.07303c0.31547,-0.06426 1.38166,-0.41187 1.665,-0.5404c0.08179,-0.03506 0.17818,-0.07595 0.21909,-0.08763c0.0409,-0.01169 0.16941,-0.07303 0.28918,-0.13437c0.23953,-0.12561 0.2366,-0.12561 0.2366,-0.08471c0,0.0146 -0.01167,0.0292 -0.02337,0.0292c-0.03797,0 -0.4995,0.27458 -0.64555,0.38557c-0.29794,0.222 -0.444,0.33884 -0.54916,0.43523c-0.25121,0.23076 -1.59198,1.25897 -1.71466,1.31447c-0.03505,0.0146 -0.13437,0.07303 -0.222,0.12852c-0.16943,0.10516 -0.43523,0.24245 -0.62803,0.32132c-0.07302,0.0292 -0.20156,0.04673 -0.34468,0.04673c-0.16357,0.00293 -0.21909,0.01169 -0.2074,0.03506c0.0146,0.02337 0.01167,0.02629 -0.00876,0.00584c-0.03505,-0.03213 -0.11392,-0.33885 -0.14313,-0.54916c-0.01169,-0.07595 -0.02922,-0.14605 -0.0409,-0.1519c-0.01169,-0.00876 -0.07886,0.00584 -0.14605,0.02922c-0.07011,0.02337 -0.1519,0.04966 -0.18696,0.05842c-0.28042,0.06133 -0.73318,0.19279 -0.78576,0.22785c-0.03505,0.02629 -0.13438,0.10808 -0.222,0.18694c-0.11977,0.111 -0.1665,0.17818 -0.2074,0.30087c-0.02629,0.08763 -0.07886,0.22785 -0.111,0.31255l-0.06133,0.14897l0.1373,0.01753c0.07595,0.00876 0.28626,0.02337 0.46737,0.03213c0.57837,0.03213 0.97856,0.18403 1.10124,0.42356c0.06718,0.12852 0.05258,0.17526 -0.01753,0.06426c-0.12269,-0.18987 -0.5258,-0.33884 -0.99609,-0.37097c-0.27458,-0.01753 -0.60173,-0.06133 -0.67184,-0.08763c-0.04673,-0.01753 -0.23369,0.46445 -0.36221,0.93766c-0.06718,0.24829 -0.07886,0.3476 -0.08179,0.71274c-0.00292,0.46153 -0.01167,0.42356 0.21032,0.86172c0.15481,0.30672 0.45568,0.69229 0.68937,0.88508c0.06133,0.05259 0.09932,0.09348 0.08179,0.09348c-0.09055,0 -0.60759,-0.51411 -0.79453,-0.79162c-0.35051,-0.51118 -0.4177,-0.91137 -0.27751,-1.60074c0.05258,-0.25998 0.42063,-1.23561 0.5842,-1.54523c0.08179,-0.15774 0.08763,-0.17818 0.03506,-0.13145c-0.03505,0.0292 -0.07302,0.06426 -0.08472,0.08179c-0.0146,0.02044 -0.02337,0.02044 -0.02337,0c0,-0.01753 0.0555,-0.09639 0.12269,-0.17527c0.27458,-0.32132 0.6105,-0.62511 0.87632,-0.78869c0.07595,-0.04966 0.14313,-0.11392 0.15482,-0.1519c0.01169,-0.04673 0.03797,-0.06719 0.09055,-0.06719c0.09055,0 0.07011,-0.04382 -0.04382,-0.08179c-0.07595,-0.02629 -0.10516,-0.01753 -0.22785,0.06133c-0.07595,0.04966 -0.15481,0.10808 -0.17526,0.12561c-0.0555,0.05259 -0.47905,0.28042 -0.49658,0.26581c-0.02629,-0.0292 0.70105,-0.51703 0.79453,-0.53455l0.09639,-0.01752l-0.06426,-0.14897c-0.09348,-0.21032 -0.14313,-0.4177 -0.12561,-0.49074c0.0146,-0.05259 -0.0146,-0.07595 -0.222,-0.17234c-0.13145,-0.06133 -0.28626,-0.14313 -0.34177,-0.1811c-0.0555,-0.03506 -0.14021,-0.08763 -0.18987,-0.111c-0.04673,-0.02337 -0.16066,-0.09932 -0.24829,-0.1665c-0.54916,-0.42356 -0.55208,-0.42648 -0.65724,-0.64556c-0.03505,-0.07595 -0.14897,-0.30963 -0.24829,-0.51703c-0.24245,-0.4995 -0.29211,-0.71566 -0.28042,-1.25605c0.00292,-0.25121 0.02629,-0.50534 0.05842,-0.65724c0.08472,-0.40896 0.22785,-0.97563 0.25413,-1.00485c0.0146,-0.0146 -0.00293,-0.0409 -0.03797,-0.05842c-0.09055,-0.04673 -0.16066,-0.20156 -0.22493,-0.51411c-0.08179,-0.40019 -0.08762,-0.46153 -0.14313,-1.42547l-0.02046,-0.333l-0.37973,0.23076c-0.40603,0.24829 -0.65724,0.41187 -1.08663,0.71274c-0.43523,0.30087 -0.46153,0.32132 -0.46153,0.34177c0,0.01169 -0.09932,0.10516 -0.21909,0.21032c-0.77116,0.66599 -1.36122,1.25605 -1.80522,1.80522c-0.0555,0.06426 -0.14313,0.15481 -0.19863,0.1957c-0.09639,0.07303 -0.10516,0.07595 -0.17234,0.03213c-0.16357,-0.10808 -0.3593,-0.63095 -0.43816,-1.16843c-0.09639,-0.67477 -0.0146,-1.77308 0.18987,-2.50042c0.12561,-0.44692 0.28918,-0.91721 0.44692,-1.28527c0.12269,-0.28334 0.43523,-0.91137 0.48782,-0.97856c0.01169,-0.01753 0.05842,-0.09639 0.10224,-0.17526c0.15774,-0.28919 0.45568,-0.7069 0.71566,-1.00485c0.21032,-0.24245 0.25998,-0.31547 0.24536,-0.36513c-0.02629,-0.08763 -0.0292,-0.08763 -0.11977,-0.05258c-0.04382,0.01753 -0.13437,0.0409 -0.19863,0.05258c-0.06426,0.00876 -0.3593,0.07595 -0.65725,0.14897c-0.29794,0.07011 -0.67768,0.16066 -0.84711,0.20156c-0.59006,0.13728 -0.94642,0.25121 -0.999,0.31547c-0.03213,0.03797 -0.05258,0.04673 -0.05258,0.02046c0,-0.02044 -0.01753,-0.03214 -0.04382,-0.02337c-0.06718,0.02629 -0.07886,-0.02922 -0.01752,-0.07303c0.03213,-0.02337 0.09055,-0.12852 0.13145,-0.2366c0.19279,-0.51411 0.45861,-0.95518 0.9143,-1.52479c0.66892,-0.83542 1.49558,-1.58029 2.19955,-1.97755c0.1957,-0.111 1.04281,-0.53747 1.22684,-0.61635c0.57253,-0.24536 1.3028,-0.46445 1.91329,-0.57253c0.16066,-0.02922 0.39143,-0.05259 0.51118,-0.0555zM381.80106,180.77827c-0.03797,0.04673 -0.03506,0.04966 0.01169,0.01169c0.02629,-0.02044 0.04966,-0.04382 0.04966,-0.04966c0,-0.02337 -0.02337,-0.00876 -0.06133,0.03797zM382.44661,181.16677c-0.0146,0 -0.02922,0.01167 -0.02922,0.0292c0,0.0146 0.01461,0.02922 0.02922,0.02922c0.01753,0 0.02922,-0.01461 0.02922,-0.02922c0,-0.01753 -0.01169,-0.0292 -0.02922,-0.0292zM380.6005,182.39362c-0.03797,0 -0.02629,0.03797 0.03506,0.11685l0.05842,0.07302l-0.03506,-0.09639c-0.02044,-0.04966 -0.04673,-0.09348 -0.05842,-0.09348zM380.84003,182.78795c-0.0146,-0.00876 -0.02922,-0.00584 -0.02922,0.01167c0,0.0146 0.01461,0.03797 0.02922,0.04673c0.01753,0.00876 0.0292,0.00584 0.0292,-0.01167c0,-0.0146 -0.01167,-0.03797 -0.0292,-0.04673zM387.68991,183.45688c-0.0409,-0.02044 -0.07886,-0.02629 -0.08472,-0.0146c-0.0146,0.02044 0.15482,0.28626 0.25413,0.39434c0.04966,0.0555 0.04966,0.0555 0.04966,-0.06133c0,-0.06426 0.00876,-0.15774 0.01752,-0.20447c0.01753,-0.08179 0.01169,-0.08763 -0.07302,-0.08179c-0.05259,0.00293 -0.12561,-0.01169 -0.16357,-0.03213zM388.19233,183.45105c-0.00292,0 -0.04673,0.00876 -0.09639,0.0146l-0.09348,0.01169l-0.01169,0.25413c-0.01169,0.21909 -0.00584,0.26582 0.0409,0.333c0.07595,0.10808 0.10515,0.10222 0.12852,-0.02922c0.01169,-0.05842 0.02922,-0.12852 0.04382,-0.15774c0.01753,-0.03213 0.01169,-0.05258 -0.01752,-0.06426c-0.04966,-0.01753 -0.0555,-0.13438 -0.01753,-0.27458c0.0146,-0.04966 0.02629,-0.09055 0.02337,-0.08763zM376.42046,183.75776c-0.02922,0.0292 -0.02337,0.15481 0.00584,0.15481c0.0146,0 0.02629,-0.0409 0.02629,-0.08763c-0.00292,-0.09639 -0.00292,-0.09639 -0.03213,-0.06719zM373.08171,184.03525l-0.08471,0.09639l0.09639,-0.08472c0.04966,-0.04966 0.09348,-0.09055 0.09348,-0.09639c0,-0.02337 -0.02337,-0.00293 -0.10515,0.08471zM372.86263,184.22512l-0.09932,0.111l0.111,-0.09932c0.05842,-0.0555 0.10808,-0.10515 0.10808,-0.111c0,-0.02337 -0.02337,0.00001 -0.11977,0.09932zM388.18358,184.17546c-0.00584,0 -0.01169,0.01167 -0.01169,0.0292c0,0.0146 0.0146,0.02922 0.03213,0.02922c0.0146,0 0.02046,-0.01461 0.01169,-0.02922c-0.00876,-0.01753 -0.02337,-0.0292 -0.03213,-0.0292zM372.62017,184.44712c-0.0146,-0.0146 -0.33884,0.32424 -0.33884,0.35344c0,0.0146 0.07886,-0.0555 0.17526,-0.15774c0.09348,-0.10224 0.16943,-0.18987 0.16357,-0.1957zM384.63741,184.54643c0,0.0555 -0.24537,0.92013 -0.27166,0.96395c-0.00876,0.0146 -0.04382,0.09932 -0.07595,0.18696l-0.06133,0.15774l0.13728,-0.14897c0.23369,-0.24536 0.86464,-1.01653 0.86172,-1.05158c-0.00292,-0.01169 -0.09639,-0.05258 -0.21323,-0.09055c-0.25706,-0.08179 -0.37681,-0.08763 -0.37681,-0.01753zM372.04766,185.02257c-0.0146,0 -0.02922,0.02044 -0.02922,0.04382c0,0.02337 -0.01169,0.04382 -0.02922,0.04382c-0.0146,0 -0.02922,0.0146 -0.02922,0.03505c0,0.01753 0.02629,0.00876 0.05842,-0.02044c0.03213,-0.0292 0.05842,-0.06426 0.05842,-0.07886c0,-0.01169 -0.01169,-0.02337 -0.02922,-0.02337zM387.30434,185.98651c-0.00292,0 -0.01167,0.01167 -0.02337,0.0292c-0.00876,0.0146 -0.09348,0.07011 -0.18403,0.12268c-0.1665,0.09348 -0.16943,0.09932 -0.17818,0.23369c-0.0146,0.27751 0.14313,1.05741 0.30964,1.5277c0.07302,0.19863 0.38266,0.92013 0.40896,0.94934c0.01753,0.01753 -0.00584,-0.13145 -0.04673,-0.31547c-0.04673,-0.20447 -0.14021,-0.77407 -0.17526,-1.07203c-0.02044,-0.14605 -0.04966,-0.36804 -0.07011,-0.49658c-0.01753,-0.12852 -0.03505,-0.40019 -0.03505,-0.60759c0,-0.20447 -0.00293,-0.37097 -0.00584,-0.37097zM382.63357,188.73231c-0.01753,0 -0.0555,0.02044 -0.08763,0.04382c-0.02922,0.02337 -0.0409,0.0409 -0.02629,0.0409c0.01753,0 0.0555,-0.01753 0.08472,-0.0409c0.03213,-0.02337 0.04382,-0.04382 0.02922,-0.04382zM378.57913,189.95332c0.03797,0.03506 0.27751,0.10224 0.29502,0.08179c0.00876,-0.00584 -0.0555,-0.03506 -0.14021,-0.05842c-0.17527,-0.05259 -0.1957,-0.05549 -0.15482,-0.02337zM378.42432,190.04678c-0.00292,0 -0.01753,0.01753 -0.02922,0.0409c-0.01169,0.02337 -0.09348,0.09639 -0.17818,0.16357c-0.08472,0.06719 -0.14897,0.12852 -0.14313,0.13438c0.00584,0.00584 0.10808,-0.02046 0.22785,-0.0555c0.11977,-0.03797 0.22493,-0.07011 0.23953,-0.07011c0.10808,-0.01753 0.33884,-0.07886 0.33008,-0.08763c-0.00584,-0.00876 -0.10808,-0.03797 -0.22785,-0.07011c-0.11685,-0.0292 -0.21616,-0.05549 -0.21907,-0.05549z"/><path d="M376.42632,176.90203c0.01753,0 0.03797,0.01169 0.04673,0.02922c0.00876,0.0146 -0.00293,0.02922 -0.02629,0.02922c-0.02629,0 -0.04673,-0.01461 -0.04673,-0.02922c0,-0.01753 0.01169,-0.02922 0.02629,-0.02922z"/><path d="M387.79507,184.44712c-0.06133,0.21032 -0.12561,0.34468 -0.19279,0.40019c-0.07886,0.06719 -0.07886,0.01167 0,-0.1665c0.04382,-0.09348 0.10515,-0.22492 0.13437,-0.29502c0.08179,-0.18694 0.11685,-0.14897 0.05842,0.06133z"/><path d="M378.38051,185.82879c0.34468,0.00876 0.93181,0.03797 1.03405,0.05549c0.03797,0.00584 0.16066,0.01753 0.27166,0.02922c0.26289,0.02629 1.01653,0.1519 1.15965,0.1957c0.08179,0.02337 0.111,0.04965 0.11392,0.09348c0,0.03506 0.01167,0.1373 0.02337,0.23076c0.0146,0.12561 0.01167,0.1665 -0.01461,0.15481c-0.02337,-0.00876 -0.03213,0.01169 -0.02922,0.04966c0.00584,0.06719 -0.02629,0.49074 -0.05258,0.66308c-0.03797,0.24245 -0.21323,0.58129 -0.3739,0.71566c-0.18403,0.15774 -0.38557,0.22785 -0.64848,0.22492c-0.26874,0 -0.40896,-0.04382 -0.64263,-0.19279c-0.21909,-0.14021 -0.32132,-0.23369 -0.47614,-0.43523c-0.25121,-0.333 -0.49367,-0.88508 -0.60758,-1.40211c-0.00584,-0.02629 -0.02044,-0.06426 -0.03213,-0.08179c-0.03213,-0.05259 -0.06719,-0.23369 -0.05259,-0.27166c0.00876,-0.02629 0.10516,-0.03506 0.32715,-0.0292zM378.31039,185.88136c-0.14897,-0.0146 -0.1519,-0.01461 -0.16357,0.07302c-0.00876,0.05842 0.02629,0.1957 0.09932,0.3885c0.06133,0.1665 0.111,0.31255 0.111,0.32424c0,0.08763 0.33884,0.70981 0.47028,0.8734c0.555,0.68644 1.33784,0.79453 1.75556,0.24245c0.2074,-0.27751 0.33008,-0.76532 0.30963,-1.2619c-0.00584,-0.21323 -0.02337,-0.31255 -0.05258,-0.34177c-0.0409,-0.0409 -0.57837,-0.13438 -1.02236,-0.17818c-0.10515,-0.01169 -0.23662,-0.02337 -0.29211,-0.0292c-0.0555,-0.00584 -0.3184,-0.02629 -0.5842,-0.0409c-0.26581,-0.01753 -0.54916,-0.03797 -0.63095,-0.04965z"/><path d="M384.69875,186.80442c0.01753,0 0.02629,0.00876 0.02044,0.02044c-0.00584,0.0146 -0.0409,0.08763 -0.07595,0.1665c-0.19863,0.43523 -0.62512,1.03698 -0.80329,1.13337c-0.09932,0.05259 -0.09055,-0.00584 0.01169,-0.11685c0.111,-0.11685 0.18402,-0.21323 0.39726,-0.52287c0.36806,-0.53455 0.4177,-0.6105 0.4177,-0.64555c0,-0.01753 0.0146,-0.03506 0.03213,-0.03506z"/><path d="M377.36982,190.33597c-0.09639,0.08179 -1.21516,0.47029 -1.25021,0.43232c-0.01753,-0.0146 0.65139,-0.28042 0.89385,-0.35344c0.15774,-0.04966 0.26581,-0.09055 0.35051,-0.13437c0.07011,-0.03506 0.07302,-0.00584 0.00584,0.0555z"/><path d="M376.22476,190.62808c0,0.0146 -0.06133,0.03506 -0.1373,0.04673c-0.20156,0.0292 -0.49074,0.111 -0.7069,0.20156c-0.10224,0.04382 -0.18986,0.07303 -0.19863,0.06426c-0.03213,-0.03213 0.36221,-0.19279 0.61342,-0.25413c0.14897,-0.03213 0.28334,-0.06426 0.29794,-0.07011c0.05842,-0.02044 0.13145,-0.0146 0.13145,0.01169z"/><path d="M386.1476,190.97276l0.11685,0.111l-0.0409,0.12561c-0.02337,0.06719 -0.0555,0.11685 -0.06719,0.10808c-0.0146,-0.00876 -0.04673,0.02337 -0.07302,0.07011c-0.04966,0.09931 -0.53164,0.61635 -0.57546,0.61635c-0.04673,0 0.111,-0.19863 0.39726,-0.49658c0.08472,-0.08763 0.18403,-0.21323 0.21909,-0.28042l0.06719,-0.11975l-0.09055,-0.09055c-0.04966,-0.04966 -0.09055,-0.10224 -0.09055,-0.11977c0,-0.04673 0.00876,-0.0409 0.1373,0.07595z"/><path d="M374.92489,191.13342c-0.14021,0.10224 -0.3593,0.34177 -0.54331,0.59297c-0.09639,0.12852 -0.18403,0.24829 -0.20156,0.26874c-0.0146,0.02044 -0.02922,0.04382 -0.02922,0.04966c0,0.00876 -0.04382,0.08471 -0.09639,0.16943c-0.21032,0.33008 -0.61635,1.10708 -0.98148,1.8724c-0.15482,0.32715 -0.17818,0.39726 -0.10516,0.30087c0.02337,-0.03213 0.04382,-0.04673 0.04382,-0.03506c0,0.03797 -0.3184,0.66015 -0.38266,0.75071c-0.02922,0.04382 -0.0555,0.08472 -0.0555,0.09348c0,0.02044 -0.59882,0.91721 -0.92013,1.37873c-0.15774,0.22492 -0.27751,0.38557 -0.26874,0.35637c0.02337,-0.06426 0.00584,-0.06133 -0.15481,0.01752c-0.11392,0.0555 -0.14605,0.09348 -0.23662,0.27751c-0.21323,0.42939 -0.21616,0.90845 -0.00876,1.42255c0.16943,0.43232 0.3885,0.67768 0.9143,1.03114c0.36221,0.24536 0.67185,0.3593 0.999,0.36806l0.19279,0.00584l-0.02629,-0.11977c-0.06426,-0.26581 0.02629,-0.62803 0.29502,-1.20932c0.07886,-0.16943 0.17527,-0.38266 0.21616,-0.47029c0.0555,-0.11977 0.08471,-0.26874 0.12268,-0.5842c0.08472,-0.77116 0.15774,-1.22392 0.26289,-1.6796c0.02629,-0.11685 0.222,-0.73318 0.25998,-0.81789c0.02044,-0.04966 0.0555,-0.13438 0.07595,-0.18987c0.07011,-0.20156 0.30379,-0.64262 0.37097,-0.70688l0.07011,-0.06719l-0.06133,0.14605c-0.03505,0.08179 -0.08763,0.21032 -0.11684,0.29211c-0.02922,0.07886 -0.09639,0.25706 -0.14605,0.39434c-0.2366,0.63679 -0.44984,1.42255 -0.53747,1.98631c-0.00876,0.0555 -0.0409,0.23953 -0.07302,0.40896c-0.02922,0.16943 -0.06426,0.39143 -0.07595,0.49658c-0.01169,0.10516 -0.04382,0.2366 -0.07011,0.29211c-0.02922,0.05842 -0.12852,0.28626 -0.21909,0.51118c-0.17527,0.43816 -0.28042,0.80622 -0.28042,0.97563c0.00292,0.21032 0.15481,0.69229 0.20739,0.65724c0.0146,-0.00876 0.02046,-0.02629 0.01461,-0.03797c-0.00876,-0.01169 -0.00293,-0.03797 0.0146,-0.06133c0.01753,-0.03213 0.02629,-0.0146 0.02629,0.06133c0,0.09931 0.01169,0.111 0.3739,0.34761c0.20447,0.1373 0.39726,0.26874 0.42648,0.29794c0.03213,0.0292 0.07011,0.05259 0.08179,0.05259c0.0146,0 0.11392,0.05842 0.222,0.12561c0.26581,0.17527 0.4995,0.31255 0.52287,0.31255c0.00876,0 0.06133,0.03213 0.11392,0.07302c0.05258,0.0409 0.10224,0.07303 0.111,0.07303c0.00876,0 0.10224,0.05259 0.20447,0.11685c0.10516,0.06133 0.25998,0.14897 0.34468,0.19279c0.08472,0.04382 0.16066,0.08471 0.16943,0.09639c0.00876,0.00876 0.06133,0.0409 0.11684,0.06719c0.0555,0.0292 0.22785,0.11685 0.37973,0.20156c0.26289,0.14021 1.72926,0.87924 2.01553,1.01361l0.13145,0.06133l-0.82373,0.00293c-0.74487,0 -0.84711,-0.00584 -1.05158,-0.06133c-0.3739,-0.09931 -0.60758,-0.1957 -0.74194,-0.31255c-0.06719,-0.05842 -0.12561,-0.10224 -0.12852,-0.09348c0,0.00584 -0.0409,-0.01753 -0.09348,-0.0555c-0.05259,-0.03797 -0.08472,-0.08472 -0.07595,-0.09932c0.00876,-0.01753 0.00292,-0.02044 -0.01753,-0.00876c-0.0409,0.02629 -0.12561,-0.03506 -0.10224,-0.07303c0.00876,-0.0146 -0.00293,-0.01753 -0.02629,-0.00876c-0.02337,0.00876 -0.06133,-0.00293 -0.08179,-0.02337c-0.02337,-0.02044 -0.11392,-0.09055 -0.20156,-0.15481c-0.08763,-0.06426 -0.1665,-0.12269 -0.17527,-0.13145c-0.00876,-0.00876 -0.04382,-0.03797 -0.07886,-0.06133c-0.22493,-0.15481 -0.94642,-0.85002 -1.27066,-1.22392c-0.10224,-0.11977 -0.23076,-0.26289 -0.28042,-0.3184l-0.09348,-0.09639v0.13145c0,0.07303 0.0146,0.14313 0.03213,0.15481c0.02337,0.01169 0.02044,0.02629 -0.00584,0.04382c-0.07302,0.04382 -0.05259,1.22684 0.03505,2.25506c0.00584,0.05842 0,0.11392 -0.01169,0.12561c-0.01169,0.01169 -0.02044,-0.00293 -0.02044,-0.03506c0,-0.0292 -0.0146,-0.14897 -0.02922,-0.25998c-0.0146,-0.11392 -0.03505,-0.32424 -0.04673,-0.46737c-0.00876,-0.14605 -0.02337,-0.27166 -0.03213,-0.28334c-0.00584,-0.01169 -0.01169,-0.32715 -0.01169,-0.70397v-0.68352l-0.12269,-0.0555c-0.18987,-0.08763 -0.61342,-0.38557 -0.83834,-0.59005c-0.15481,-0.14313 -0.1665,-0.1373 -0.18694,0.06133c-0.02337,0.21616 -0.23369,1.57153 -0.29502,1.90453c-0.02337,0.12852 -0.07595,0.42356 -0.11977,0.65724c-0.07011,0.37681 -0.12852,0.57253 -0.12852,0.42648c0,-0.09639 0.28919,-2.07687 0.39143,-2.67569c0.06426,-0.37973 0.09348,-0.60758 0.07595,-0.62511c-0.05259,-0.05259 -0.03213,-0.111 0.02922,-0.09055c0.11684,0.03797 0.0555,-0.01461 -0.12269,-0.10516c-0.31547,-0.15774 -0.65724,-0.4031 -0.80037,-0.57544c-0.45275,-0.55208 -0.58129,-1.34369 -0.31547,-1.92498c0.07595,-0.16357 0.24829,-0.38557 0.3184,-0.40603c0.14897,-0.04382 0.28042,-0.17234 0.41187,-0.4031c0.07595,-0.12852 0.27751,-0.444 0.44692,-0.69814c0.57544,-0.85879 0.66892,-1.01945 0.80913,-1.37875c0.61926,-1.60074 1.41964,-2.94443 1.96588,-3.29204c0.1519,-0.09639 0.23369,-0.10808 0.10515,-0.01753zM373.60749,200.73785c-0.00584,0 -0.01169,0.01169 -0.01169,0.02922c0,0.0146 0.0146,0.02922 0.03213,0.02922c0.0146,0 0.02046,-0.01461 0.01169,-0.02922c-0.00876,-0.01753 -0.02337,-0.02922 -0.03213,-0.02922z"/><path d="M383.29372,192.26679c0.16943,0.01753 0.40603,0.04382 0.5258,0.05842c0.11977,0.0146 0.43816,0.02337 0.7069,0.01753c0.28334,-0.00293 0.47028,0.00584 0.444,0.02044c-0.09932,0.0555 -1.29403,0.03213 -1.74971,-0.03797c-0.09639,-0.0146 -0.444,-0.02337 -0.77409,-0.01752l-0.59882,0.00584l-0.3184,0.10808c-0.21909,0.07595 -0.33008,0.09931 -0.35051,0.07886c-0.02044,-0.02044 -0.01167,-0.02922 0.02922,-0.02922c0.02922,0 0.08763,-0.01753 0.12852,-0.03797c0.1811,-0.09348 0.47614,-0.17527 0.74487,-0.2074c0.15774,-0.01753 0.89968,0.00584 1.21224,0.0409z"/><path d="M385.42024,192.20836c0.07886,-0.00293 -0.84418,0.9026 -1.74679,1.7059c-0.12852,0.11685 -0.67184,0.54624 -0.91137,0.7215c-0.45568,0.33592 -0.80329,0.54916 -1.13337,0.70397c-0.3739,0.17527 -0.39726,0.18403 -0.75948,0.30379c-0.62218,0.19863 -1.09833,0.25413 -1.61535,0.18696c-0.22785,-0.0292 -0.65724,-0.12561 -0.76532,-0.17234c-0.31547,-0.13437 -0.44984,-0.21032 -0.55792,-0.31255c-0.07011,-0.06426 -0.12852,-0.14021 -0.12852,-0.16357c0,-0.03213 0.04965,0 0.14021,0.08763c0.111,0.10808 0.1957,0.15774 0.40018,0.23076c0.29502,0.10516 0.555,0.16943 0.83251,0.19863c0.21909,0.02629 0.68645,0.02629 0.87924,0.00293c0.17527,-0.02044 0.67184,-0.14897 0.8734,-0.22492c0.79745,-0.30087 1.0808,-0.45568 1.86071,-1.01362c0.7624,-0.54624 1.44592,-1.1246 2.40111,-2.04181c0.12269,-0.11685 0.22492,-0.21323 0.23076,-0.21323z"/><path d="M384.90907,192.44205c0.07302,0 0.14313,0.0146 0.1519,0.03213c0.0146,0.02044 -0.02337,0.02337 -0.11977,0.00876c-0.07886,-0.00876 -0.14897,-0.02337 -0.15481,-0.0292c-0.00584,-0.00584 0.04673,-0.01169 0.12268,-0.01169z"/><path d="M385.19241,196.64837c0.03797,0.05842 0.03797,0.09639 0,0.07302c-0.0146,-0.00876 -0.0292,-0.0409 -0.0292,-0.06719c0,-0.04382 0.00584,-0.04382 0.0292,-0.00584z"/><path d="M385.18948,196.75061l0.04382,0.07595c0.02337,0.0409 0.04966,0.10808 0.05842,0.14605c0.00584,0.03797 0.02629,0.10225 0.0409,0.14313c0.01753,0.0409 0.11685,0.33592 0.222,0.65724c0.29211,0.89968 0.63095,1.88407 0.70398,2.04474c0.03505,0.07886 0.07595,0.21032 0.08763,0.29211c0.0146,0.07886 0.02922,0.1665 0.03506,0.18987c0.02629,0.10516 0.04673,0.26289 0.05258,0.43816c0.00876,0.15481 0.02044,0.1957 0.07011,0.23076c0.08179,0.05259 0.09932,0.02922 0.06133,-0.07303c-0.01753,-0.04382 -0.02337,-0.13437 -0.0146,-0.20156c0.01169,-0.08179 0.00876,-0.10516 -0.01169,-0.07303c-0.0146,0.02337 -0.03797,0.03214 -0.05259,0.02046c-0.05842,-0.05842 0.46737,-0.39434 0.99023,-0.63095c0.15774,-0.07011 0.41187,-0.24245 0.65431,-0.43816c0.22493,-0.18403 0.72443,-0.52871 1.07203,-0.74487c0.13144,-0.08179 0.66892,-0.35344 0.77992,-0.39726c0.0555,-0.02044 0.14897,-0.07303 0.20447,-0.11685c0.16943,-0.13144 0.28042,-0.17526 0.52871,-0.21032c0.28334,-0.0409 0.70105,0.00584 0.98148,0.10808c0.19279,0.07011 0.24245,0.05842 0.24245,-0.06133c0,-0.03797 -0.01169,-0.09932 -0.02922,-0.14313c-0.01753,-0.04673 -0.01753,-0.07011 0,-0.05842c0.0146,0.00876 0.03506,0.06133 0.04673,0.11685c0.02044,0.111 0.04382,0.12561 0.09932,0.05842c0.06426,-0.07886 0.06718,-0.02044 0.00292,0.06133c-0.04382,0.05842 -0.05258,0.09055 -0.03213,0.12852c0.05258,0.09639 0.03506,0.12269 -0.06133,0.10225c-0.07595,-0.01753 -0.10516,-0.00584 -0.1811,0.06719c-0.11685,0.10808 -0.82958,0.64555 -0.88508,0.66892c-0.02337,0.00876 -0.03505,0.03797 -0.02922,0.06426c0.02044,0.06426 0.14897,0.82373 0.2074,1.21516c0.02629,0.17527 0.05258,0.35344 0.05842,0.39434c0.01753,0.11392 0.06719,0.52287 0.08763,0.73027c0.01169,0.10516 0.02337,0.22785 0.02922,0.27751c0.01753,0.1373 0.07011,0.9026 0.08763,1.23269c0.0146,0.28626 0.01169,0.30087 -0.04382,0.30087c-0.04382,0 -0.05842,-0.02046 -0.06133,-0.08179c0,-0.04382 -0.00584,-0.10224 -0.01169,-0.12852c-0.00584,-0.0292 -0.01752,-0.1665 -0.0292,-0.30672c-0.00876,-0.14313 -0.02337,-0.28334 -0.02922,-0.31547c-0.00584,-0.03213 -0.02044,-0.14313 -0.0292,-0.24829c-0.02337,-0.25705 -0.06719,-0.66892 -0.10224,-0.93474c-0.0146,-0.11977 -0.03506,-0.29794 -0.04382,-0.39434c-0.01169,-0.09639 -0.02337,-0.1957 -0.02922,-0.21909c-0.00584,-0.02337 -0.02044,-0.10224 -0.02922,-0.17526c-0.00876,-0.07303 -0.02044,-0.17818 -0.02922,-0.23369c-0.00876,-0.0555 -0.02044,-0.15482 -0.02629,-0.21909c-0.00876,-0.06426 -0.02922,-0.23076 -0.04673,-0.37097l-0.03506,-0.25706l-0.1957,-0.0555c-0.25998,-0.07595 -0.35053,-0.09639 -0.47029,-0.111c-0.0555,-0.00584 -0.14021,-0.02044 -0.18987,-0.03505c-0.04673,-0.01169 -0.17818,-0.02629 -0.29211,-0.02922c-0.45275,-0.0146 -0.66016,-0.0292 -0.7069,-0.0555c-0.05842,-0.03213 0,-0.06426 -0.75363,0.43232c-0.30379,0.20156 -0.57837,0.3739 -0.60466,0.38557c-0.02922,0.01169 -0.14897,0.08472 -0.26289,0.16357c-0.11685,0.07886 -0.27751,0.17818 -0.35344,0.222c-0.14605,0.08763 -0.15774,0.14021 -0.06426,0.25121c0.02044,0.02337 0.04382,0.10808 0.04965,0.18987c0.00876,0.07886 0.0409,0.28334 0.07303,0.45276c0.08763,0.43816 0.14313,0.74487 0.21323,1.21224c0.03505,0.22492 0.07886,0.51118 0.09932,0.63386l0.03506,0.22785h-0.50535h-0.50534l0.01752,-0.08179c0.01169,-0.04382 0.03797,-0.11685 0.06133,-0.16066c0.02337,-0.04382 0.04965,-0.14605 0.05842,-0.22492l0.01753,-0.14313l-0.21616,-0.20447c-0.11977,-0.111 -0.21909,-0.22785 -0.222,-0.25998c-0.00292,-0.03506 0.0409,-0.10224 0.10224,-0.16066c0.16357,-0.1519 0.222,-0.22785 0.33592,-0.43523c0.08763,-0.16066 0.10516,-0.21909 0.111,-0.4031c0.00584,-0.20156 0.00292,-0.21616 -0.06426,-0.23953c-0.12852,-0.04673 -0.17234,-0.111 -0.17234,-0.24829c0,-0.20447 -0.08763,-0.68352 -0.14897,-0.82666c-0.11977,-0.26874 -0.38266,-0.95518 -0.51118,-1.32324c-0.12852,-0.37681 -0.46153,-1.53063 -0.52287,-1.8169zM390.73366,198.77198c-0.00876,-0.01753 -0.0146,-0.00293 -0.0146,0.03797c0,0.0409 0.00584,0.0555 0.0146,0.03506c0.00584,-0.01753 0.00584,-0.05259 0,-0.07303zM390.68108,199.30654c-0.0146,0 -0.02046,0.01169 -0.01169,0.02922c0.00876,0.0146 0.02337,0.0292 0.03213,0.0292c0.00584,0 0.01169,-0.01461 0.01169,-0.0292c0,-0.01753 -0.0146,-0.02922 -0.03213,-0.02922zM390.78915,199.3153c-0.00876,-0.01169 -0.01752,0.00584 -0.0146,0.03797c0,0.03213 0.00876,0.0409 0.01752,0.01753c0.00876,-0.02044 0.00584,-0.04673 -0.00293,-0.0555z"/><path d="M378.14098,198.07969c0.19863,0.03506 0.54624,0.16066 0.66016,0.23953c0.0409,0.0292 0.08472,0.05258 0.09639,0.05258c0.02044,0 0.48781,0.30672 0.58129,0.37974c0.11392,0.09055 0.5959,0.57544 0.7069,0.70982c0.1519,0.18694 0.41479,0.56669 0.46737,0.67768c0.0409,0.07886 0.0409,0.08179 -0.00292,0.03213c-0.04382,-0.0555 -0.04382,-0.0555 -0.04382,0.00292c0,0.07886 -0.02922,0.15774 -0.0555,0.14313c-0.00876,-0.00584 -0.01752,-0.08179 -0.0146,-0.16943l0.00292,-0.15481l-0.51411,-0.51118c-0.39726,-0.39434 -0.59005,-0.56084 -0.83542,-0.72443c-0.60174,-0.40019 -1.03114,-0.555 -1.46053,-0.52287c-0.27458,0.02044 -0.42939,0.06426 -0.67768,0.18987c-0.27751,0.14313 -0.61926,0.49367 -0.66599,0.68645c-0.01753,0.07011 -0.00584,0.09931 0.07595,0.18403c0.05259,0.0555 0.11685,0.09931 0.14021,0.09931c0.02629,0 0.10224,0.02044 0.16943,0.04382c0.06426,0.02337 0.1519,0.04673 0.18987,0.0555c0.03797,0.00584 0.14021,0.03213 0.22493,0.05842c0.08763,0.02629 0.16357,0.04673 0.17235,0.04673c0.00584,0 -0.03506,-0.04382 -0.09055,-0.09639c-0.1957,-0.18403 -0.333,-0.56669 -0.30379,-0.84419c0.0146,-0.13437 0.05842,-0.22785 0.09055,-0.1957c0.00584,0.00584 0.02044,0.10224 0.03213,0.21616c0.02337,0.26581 0.10224,0.47614 0.27166,0.73027c0.13437,0.19863 0.14313,0.2074 0.34177,0.26874c0.1957,0.05842 0.94057,0.24245 1.6504,0.4031c0.18403,0.0409 0.41479,0.09348 0.51118,0.11685c0.50827,0.11685 1.65332,0.34177 1.92205,0.38266c0.07595,0.00876 0.14605,0.03214 0.15482,0.04673c0.01169,0.01753 -0.01169,0.02337 -0.06426,0.01169c-0.08179,-0.01753 -0.14021,-0.02629 -0.3739,-0.06133c-0.12269,-0.02044 -0.16357,-0.0292 -0.38266,-0.07302c-0.07886,-0.0146 -0.17818,-0.03506 -0.21909,-0.0409c-0.0409,-0.00876 -0.14605,-0.0292 -0.23369,-0.04673c-0.08763,-0.01753 -0.20739,-0.03797 -0.26289,-0.04673c-0.0555,-0.00876 -0.17526,-0.03505 -0.26289,-0.05549c-0.08763,-0.02337 -0.2074,-0.04966 -0.26289,-0.05842c-0.0555,-0.00876 -0.21032,-0.04382 -0.34177,-0.07303c-0.13437,-0.03213 -0.27166,-0.06426 -0.30672,-0.07011c-0.11685,-0.02337 -0.5842,-0.13144 -0.81789,-0.18694c-0.12561,-0.03213 -0.22785,-0.04673 -0.22785,-0.03506c0,0.01169 0.0292,0.04382 0.06133,0.07595c0.18987,0.16943 0.46153,0.64263 0.53748,0.93766c0.08179,0.31547 0.04382,0.57837 -0.07303,0.50534c-0.07595,-0.04673 -0.111,-0.03213 -0.14313,0.06133c-0.04382,0.12852 -0.0409,0.25121 0.01461,0.43816c0.07011,0.2366 0.33008,0.62511 0.4031,0.60173c0.01753,-0.00584 0.11391,0.03505 0.21616,0.09055c0.18403,0.09931 0.18402,0.09932 0.35929,0.06426c0.2074,-0.04382 0.45276,-0.15774 0.64263,-0.29502c0.16943,-0.12268 0.41187,-0.40603 0.39434,-0.45568c-0.00876,-0.02044 -0.00292,-0.07303 0.01461,-0.11685c0.02044,-0.05842 0.03797,-0.06719 0.06133,-0.04382c0.07302,0.07303 -0.16066,0.56669 -0.35637,0.74779c-0.3184,0.29794 -0.98439,0.44692 -1.41671,0.32132c-0.08179,-0.02337 -0.21323,-0.04673 -0.29211,-0.0555c-0.25998,-0.02337 -0.44108,-0.06719 -0.78869,-0.18403c-0.12852,-0.0409 -0.23952,-0.08472 -0.24829,-0.09639c-0.00876,-0.00876 -0.08472,-0.05258 -0.17234,-0.09639c-0.63388,-0.31547 -1.22977,-0.90553 -1.39042,-1.37582c-0.0555,-0.17234 -0.07011,-0.48781 -0.02337,-0.54624c0.02922,-0.03213 -0.00876,-0.06133 -0.20447,-0.1519c-0.13145,-0.06133 -0.29794,-0.14605 -0.37097,-0.18694c-0.07302,-0.04382 -0.14313,-0.07886 -0.16066,-0.08179c-0.05259,-0.00876 -0.39726,-0.22492 -0.38266,-0.2366c0.00876,-0.00876 0.05842,0.01169 0.111,0.04382c0.05259,0.03213 0.29502,0.15774 0.53455,0.27751c0.38266,0.18987 0.57253,0.27458 1.21224,0.54624c0.37681,0.15774 1.0545,0.4031 1.43132,0.51703c0.30379,0.09055 0.39143,0.12269 0.3739,0.14313c-0.04382,0.0409 -1.7059,-0.54916 -2.2346,-0.79453c-0.21616,-0.09931 -0.22492,-0.09639 -0.20447,0.09348c0.03213,0.31547 0.27166,0.7215 0.61342,1.04281c0.23076,0.21616 0.76823,0.57544 1.01362,0.67769c0.40896,0.17234 0.91721,0.31547 1.25605,0.35637c0.26289,0.03213 0.26581,0.01752 0.03213,-0.111c-0.3885,-0.21616 -0.57544,-0.46737 -0.60758,-0.82375c-0.02337,-0.26581 0.09055,-0.45568 0.26289,-0.43523c0.06718,0.00876 0.07886,0 0.07886,-0.06426c0,-0.17527 -0.36221,-0.99608 -0.55207,-1.24144c-0.06426,-0.08763 -0.11977,-0.16943 -0.11977,-0.1811c0,-0.01169 -0.09639,-0.04382 -0.21032,-0.07011c-0.47614,-0.111 -1.22977,-0.32132 -2.30179,-0.63971c-0.70982,-0.2074 -0.97856,-0.28042 -1.06034,-0.28042c-0.04673,0 -0.05258,-0.00876 -0.02629,-0.02629c0.05842,-0.03506 0.34177,0.03506 1.36121,0.33008c0.25413,0.07303 0.47029,0.13437 0.47614,0.13437c0.00584,0 -0.00293,-0.02629 -0.02337,-0.06133c-0.06719,-0.12852 0.0409,-0.40895 0.24245,-0.62803c0.23076,-0.24829 0.5258,-0.4177 0.90845,-0.52287c0.18403,-0.04966 0.47321,-0.0555 0.70981,-0.01461z"/><path d="M376.65415,199.5373c0.28626,0.2074 0.3739,0.46445 0.25706,0.75363c-0.0409,0.09931 -0.16066,0.24245 -0.20447,0.24245c-0.00584,0 0.00876,-0.0555 0.03213,-0.12561c0.11392,-0.32132 0.06133,-0.555 -0.1811,-0.77992c-0.07011,-0.06426 -0.12852,-0.13145 -0.12852,-0.14605c0,-0.0555 0.10808,-0.02922 0.22492,0.0555z"/><path d="M374.6474,199.67167c0.03213,0.03797 0.02922,0.0409 -0.01167,0.02629c-0.02629,-0.00876 -0.04673,-0.02922 -0.04673,-0.04382c0,-0.03797 0.01752,-0.03214 0.05842,0.01752z"/><path d="M374.79637,199.76514c0.03797,0.04382 0.03506,0.04382 -0.02337,0.01169c-0.03797,-0.01753 -0.06719,-0.0409 -0.06719,-0.04673c0,-0.03213 0.05258,-0.01169 0.09055,0.03506z"/></g></g></svg>