<svg version="1.1" xmlns="http://www.w3.org/2000/svg" xmlns:xlink="http://www.w3.org/1999/xlink" width="17.29203" height="21.90632" viewBox="0,0,17.29203,21.90632"><g transform="translate(-231.35399,-169.04684)"><g data-paper-data="{&quot;isPaintingLayer&quot;:true}" fill="#000000" fill-rule="nonzero" stroke="none" stroke-width="1" stroke-linecap="butt" stroke-linejoin="miter" stroke-miterlimit="10" stroke-dasharray="" stroke-dashoffset="0" style="mix-blend-mode: normal"><path d="M231.3912,190.35084c-0.15665,-0.39162 0.19581,-1.44899 0.78323,-2.46719c1.17486,-1.99725 6.57918,-9.59463 7.71487,-10.80864c0.39162,-0.43078 1.29234,-1.56647 1.95809,-2.54552c0.66575,-0.93988 1.44898,-1.99725 1.68395,-2.34971c2.34971,-2.89797 2.62384,-3.13294 3.68121,-3.13294c2.23222,0 1.8406,2.1539 -1.05737,5.60014c-0.8224,0.93988 -2.19306,2.663 -3.05462,3.79869c-0.86156,1.09653 -2.9763,3.83785 -4.73857,6.03091c-4.97355,6.22672 -6.38336,7.40158 -6.97079,5.87427z"/></g></g></svg>