<svg version="1.1" xmlns="http://www.w3.org/2000/svg" xmlns:xlink="http://www.w3.org/1999/xlink" width="22.10132" height="23.83261" viewBox="0,0,22.10132,23.83261"><g transform="translate(-228.94934,-168.08369)"><g data-paper-data="{&quot;isPaintingLayer&quot;:true}" fill-rule="nonzero" stroke="none" stroke-width="1" stroke-linecap="butt" stroke-linejoin="miter" stroke-miterlimit="10" stroke-dasharray="" stroke-dashoffset="0" style="mix-blend-mode: normal"><g><path d="M233.58452,191.01558c-0.62659,-0.90072 -2.62384,-9.3205 -3.36791,-14.17656c-0.23497,-1.48815 -0.66575,-3.21126 -0.97904,-3.75953c-0.74407,-1.3315 -0.11749,-2.23222 2.70216,-3.83785c2.78048,-1.60563 3.28959,-1.56647 3.56372,0.27413c0.39162,2.31054 1.48815,6.89247 1.76228,7.24493c0.11749,0.15665 0.66575,-0.86156 1.13569,-2.27138c1.25317,-3.56372 2.50635,-3.32875 4.30779,0.78323c0.31329,0.66575 0.58742,1.01821 0.62658,0.78324c1.44899,-5.36516 2.23222,-7.24493 2.9763,-7.24493c1.21401,0 2.11474,0.62659 3.4854,2.34971l1.25317,1.56647l-0.66575,2.81965c-0.35245,1.56647 -1.48815,5.52181 -2.54552,8.81139c-1.09653,3.25043 -1.95809,6.18756 -1.95809,6.50086c0,0.62659 -1.05736,1.17485 -1.60563,0.8224c-0.19581,-0.11749 -1.09653,-1.29234 -1.99725,-2.62384c-2.74132,-4.15115 -2.58468,-4.07283 -3.95534,-1.91893c-1.56647,2.50635 -3.40707,4.77774 -3.83785,4.77774c-0.19581,0 -0.58743,-0.39162 -0.90072,-0.90072z" fill="#000000"/><path d="M234.79853,187.72598c-0.46994,-0.8224 -3.79869,-13.94158 -3.79869,-15.07728c0,-0.15665 0.54827,-0.58743 1.21402,-0.93988c1.52731,-0.78323 1.60563,-0.70491 2.70216,3.56372c0.8224,3.09378 1.68395,4.89522 2.27138,4.89522c0.31329,0 2.11474,-3.64204 2.58468,-5.16935c0.39162,-1.25317 0.8224,-0.74408 1.8406,2.15389c1.37066,3.87702 2.11474,3.87702 3.60288,-0.11748c1.91893,-5.16935 1.76228,-4.89522 2.663,-4.07283c0.46994,0.39162 0.66575,0.93988 0.5091,1.29234c-0.11749,0.35245 -0.54827,1.87976 -0.90072,3.36791c-0.86156,3.60288 -2.89797,9.94709 -3.21126,9.98625c-0.11749,0 -0.97904,-1.25318 -1.95809,-2.74133c-2.27138,-3.60288 -3.05462,-3.60288 -5.13019,-0.03916c-1.60563,2.81965 -2.11474,3.40707 -2.38887,2.89797z" fill="#f9f9f9"/></g></g></g></svg>