<svg version="1.1" xmlns="http://www.w3.org/2000/svg" xmlns:xlink="http://www.w3.org/1999/xlink" width="446.59049" height="219.77762" viewBox="0,0,446.59049,219.77762"><defs><linearGradient x1="321.32979" y1="117.93622" x2="321.32979" y2="186.31662" gradientUnits="userSpaceOnUse" id="color-1"><stop offset="0" stop-color="#d6d6d6"/><stop offset="1" stop-color="#a1a1a1"/></linearGradient><linearGradient x1="181.08646" y1="143.58719" x2="181.08646" y2="215.11525" gradientUnits="userSpaceOnUse" id="color-2"><stop offset="0" stop-color="#909090"/><stop offset="1" stop-color="#d6d6d6"/></linearGradient><linearGradient x1="460.20114" y1="139.60894" x2="460.20114" y2="212.82675" gradientUnits="userSpaceOnUse" id="color-3"><stop offset="0" stop-color="#909090"/><stop offset="1" stop-color="#d6d6d6"/></linearGradient><linearGradient x1="431.06383" y1="117.27311" x2="431.06383" y2="143.73595" gradientUnits="userSpaceOnUse" id="color-4"><stop offset="0" stop-color="#a1a1a1"/><stop offset="1" stop-color="#777777"/></linearGradient><linearGradient x1="210.19565" y1="117.31797" x2="210.19565" y2="143.7808" gradientUnits="userSpaceOnUse" id="color-5"><stop offset="0" stop-color="#a1a1a1"/><stop offset="1" stop-color="#777676"/></linearGradient><linearGradient x1="243.00552" y1="151.87517" x2="254.50449" y2="151.87517" gradientUnits="userSpaceOnUse" id="color-6"><stop offset="0" stop-color="#838383"/><stop offset="1" stop-color="#a1a1a1"/></linearGradient><linearGradient x1="398.42431" y1="151.73102" x2="386.92533" y2="151.73102" gradientUnits="userSpaceOnUse" id="color-7"><stop offset="0" stop-color="#838383"/><stop offset="1" stop-color="#a1a1a1"/></linearGradient><linearGradient x1="504.92983" y1="204.03392" x2="504.92983" y2="212.83854" gradientUnits="userSpaceOnUse" id="color-8"><stop offset="0" stop-color="#d6d6d6"/><stop offset="1" stop-color="#a1a1a1"/></linearGradient><linearGradient x1="505.00406" y1="250.79274" x2="505.00406" y2="241.98811" gradientUnits="userSpaceOnUse" id="color-9"><stop offset="0" stop-color="#d6d6d6"/><stop offset="1" stop-color="#a1a1a1"/></linearGradient><linearGradient x1="454.71848" y1="283.37281" x2="466.28773" y2="283.37281" gradientUnits="userSpaceOnUse" id="color-10"><stop offset="0" stop-color="#d6d6d6"/><stop offset="1" stop-color="#909090"/></linearGradient><linearGradient x1="320.87245" y1="336.4131" x2="320.87245" y2="324.8438" gradientUnits="userSpaceOnUse" id="color-11"><stop offset="0" stop-color="#d6d6d6"/><stop offset="1" stop-color="#909090"/></linearGradient><linearGradient x1="136.55174" y1="206.33514" x2="136.55174" y2="215.13973" gradientUnits="userSpaceOnUse" id="color-12"><stop offset="0" stop-color="#d6d6d6"/><stop offset="1" stop-color="#a1a1a1"/></linearGradient><linearGradient x1="136.51964" y1="253.16214" x2="136.51964" y2="244.35752" gradientUnits="userSpaceOnUse" id="color-13"><stop offset="0" stop-color="#d6d6d6"/><stop offset="1" stop-color="#a1a1a1"/></linearGradient><linearGradient x1="186.80522" y1="284.78085" x2="175.23597" y2="284.78085" gradientUnits="userSpaceOnUse" id="color-14"><stop offset="0" stop-color="#909090"/><stop offset="1" stop-color="#d6d6d6"/></linearGradient></defs><g transform="translate(-97.58945,-117.17905)"><g data-paper-data="{&quot;isPaintingLayer&quot;:true}" fill-rule="nonzero" stroke="none" stroke-linecap="butt" stroke-linejoin="miter" stroke-miterlimit="10" stroke-dasharray="" stroke-dashoffset="0" style="mix-blend-mode: normal"><path d="M244.69653,186.31662v-68.38042h153.26652v68.38043z" fill="url(#color-1)" stroke-width="1"/><path d="M175.30184,143.58719h11.56925v71.52806h-11.56925z" data-paper-data="{&quot;index&quot;:null}" fill="url(#color-2)" stroke-width="1"/><path d="M465.98576,212.82675h-11.56925v-73.21781h11.56925z" fill="url(#color-3)" stroke-width="1"/><path d="M396.18589,143.73595v-26.46287h69.75588v26.46287z" fill="url(#color-4)" stroke-width="1"/><path d="M175.31771,143.7808v-26.46287h69.75588v26.46287z" data-paper-data="{&quot;index&quot;:null}" fill="url(#color-5)" stroke-width="1"/><path d="M243.00552,186.31171v-68.87308h11.49898v68.87309z" fill="url(#color-6)" stroke-width="0"/><path d="M386.92533,186.15543v-68.84873h11.49897v68.84873z" data-paper-data="{&quot;index&quot;:null}" fill="url(#color-7)" stroke-width="0"/><path d="M543.90166,212.83854h-77.94372v-8.80461h77.94372z" fill="url(#color-8)" stroke-width="1"/><path d="M543.86357,250.79274h-77.71909v-8.80462h77.71909z" data-paper-data="{&quot;index&quot;:null}" fill="url(#color-9)" stroke-width="1"/><path d="M466.28773,324.90702h-11.56925v-83.0685h11.56925z" fill="url(#color-10)" stroke-width="1"/><path d="M466.29435,324.8438v11.56925h-290.8438v-11.56925z" fill="url(#color-11)" stroke-width="1"/><path d="M97.67043,206.33514h77.76267v8.80461h-77.76267z" data-paper-data="{&quot;index&quot;:null}" fill="url(#color-12)" stroke-width="1"/><path d="M97.66013,244.35752h77.71909v8.80462h-77.71909z" data-paper-data="{&quot;index&quot;:null}" fill="url(#color-13)" stroke-width="1"/><path d="M175.23597,244.34433h11.56925v80.87311h-11.56925z" data-paper-data="{&quot;index&quot;:null}" fill="url(#color-14)" stroke-width="1"/><path d="M466.02067,210.02536v-6.02733h77.95339v6.02733z" fill="#000000" stroke-width="0"/><path d="M466.22655,250.89033v-6.02733h77.95339v6.02733z" fill="#000000" stroke-width="0"/><path d="M466.37567,336.94474h-6.02733v-92.07519h6.02733z" fill="#000000" stroke-width="0"/><path d="M471.09189,210.04414h-11.02733v-92.79517h11.02733z" fill="#000000" stroke-width="0"/><path d="M175.48111,336.95667v-6.02733h285.0162v6.02733z" fill="#000000" stroke-width="0"/><path d="M175.30455,123.24019v-6.02733h285.01621v6.02733z" fill="#000000" stroke-width="0"/><path d="M175.94709,336.87482h-6.02733v-88.05031h6.02733z" fill="#000000" stroke-width="0"/><path d="M175.66331,209.97422h-6.02733v-92.79517h6.02733z" fill="#000000" stroke-width="0"/><path d="M97.67784,212.31819v-6.02733h77.95339v6.02733z" fill="#000000" stroke-width="0"/><path d="M97.58945,253.24304v-6.02733h78.3625v6.02733z" fill="#000000" stroke-width="0"/><path d="M254.7051,176.1479v-53.15202c0,0 4.54816,0 9.50869,0c0.14858,0 3.48438,0 8.92214,0c26.37318,0 102.18991,0 103.63916,0c6.5593,0 10.55014,0 10.55014,0v53.15202z" fill="#000000" stroke-width="0"/><path d="M242.9796,186.36656v-4.03402h155.28161v4.03402z" fill="#6d6d6d" stroke-width="0"/></g></g></svg>