<svg version="1.1" xmlns="http://www.w3.org/2000/svg" xmlns:xlink="http://www.w3.org/1999/xlink" width="16.31638" height="7.71339" viewBox="0,0,16.31638,7.71339"><g transform="translate(-231.84181,-176.14331)"><g data-paper-data="{&quot;isPaintingLayer&quot;:true}" fill="#000000" fill-rule="nonzero" stroke="none" stroke-width="1" stroke-linecap="butt" stroke-linejoin="miter" stroke-miterlimit="10" stroke-dasharray="" stroke-dashoffset="0" style="mix-blend-mode: normal"><path d="M241.50319,183.70154c-0.31329,-0.11749 -1.68395,-0.97904 -3.01545,-1.91893c-1.3315,-0.93988 -2.74133,-1.72312 -3.13294,-1.72312c-0.39162,0 -1.13569,0.62659 -1.64479,1.37066c-1.6448,2.42803 -2.54552,1.3315 -1.25318,-1.52731c1.21401,-2.78048 2.38887,-3.75953 4.54277,-3.75953c1.99725,0 2.85881,0.35245 4.89522,2.03641c0.74407,0.58743 1.60563,1.09653 1.95808,1.09653c0.31329,0 1.25318,-0.70491 2.07558,-1.56647c0.78323,-0.86156 1.64479,-1.56647 1.8406,-1.56647c0.66575,0 0.43078,2.81965 -0.35245,4.58192c-0.43078,0.90072 -1.17485,1.91893 -1.72312,2.27138c-1.09653,0.70491 -3.28959,1.09653 -4.19031,0.70491z"/></g></g></svg>