<svg version="1.1" xmlns="http://www.w3.org/2000/svg" xmlns:xlink="http://www.w3.org/1999/xlink" width="33.13493" height="37.77899" viewBox="0,0,33.13493,37.77899"><g transform="translate(-366.60951,-166.2575)"><g data-paper-data="{&quot;isPaintingLayer&quot;:true}" fill="#000000" fill-rule="nonzero" stroke="none" stroke-width="1" stroke-linecap="butt" stroke-linejoin="miter" stroke-miterlimit="10" stroke-dasharray="" stroke-dashoffset="0" style="mix-blend-mode: normal"><g><path d="M379.61458,166.25751l0.09319,0.11556c0.10064,0.12673 0.14911,0.1491 0.89835,0.42867c0.57032,0.21247 1.11827,0.46222 1.41275,0.64487c0.10438,0.06337 0.21992,0.13047 0.25347,0.15283c0.29821,0.17892 0.89089,0.63368 1.32702,1.02136c0.34666,0.30939 0.38022,0.35412 0.38767,0.48085c0.01118,0.30566 -0.05219,0.58523 -0.2423,1.06982c-0.10438,0.25348 -0.11555,0.31684 -0.06709,0.2982c0.22365,-0.08946 1.163,-0.11556 1.5134,-0.04474c0.041,0.01118 0.1491,0.02983 0.24229,0.04474c0.2833,0.04473 0.8648,0.19756 1.09964,0.29075c1.06982,0.42122 2.14336,1.32702 2.87023,2.4192c0.07455,0.11928 0.15283,0.20502 0.17147,0.19756c0.01491,-0.01118 0.04846,0.01118 0.0671,0.05219c0.05964,0.11183 0.04473,0.1491 -0.01491,0.041c-0.05964,-0.1081 -0.07455,-0.07083 -0.01491,0.041c0.01864,0.04101 0.05218,0.06337 0.07082,0.05219c0.041,-0.02609 0.32058,0.55541 0.50696,1.05118c0.07082,0.19384 0.16028,0.38766 0.19756,0.42494c0.14911,0.16028 0.27211,1.06982 0.2572,1.88616c-0.01118,0.55168 -0.00373,0.65232 0.04845,0.70078c0.03728,0.03727 0.19385,0.08202 0.41004,0.11183c0.19383,0.02982 0.44357,0.06709 0.5554,0.08946c0.49204,0.08946 1.69978,0.16401 2.27383,0.13792c1.10336,-0.04473 1.32329,-0.07455 1.75196,-0.23856c0.39886,-0.1491 0.66723,-0.22738 0.55913,-0.16028c-0.04473,0.02982 -0.05963,0.16773 -0.06709,0.79397c-0.01864,1.30093 -0.16774,2.02781 -0.59641,2.88142c-0.17147,0.34667 -0.41749,0.74924 -0.57405,0.93562c-0.71569,0.87225 -1.97562,1.71095 -2.8255,1.87497c-0.13419,0.02609 -0.29076,0.06337 -0.35412,0.07828c-0.05964,0.01863 -0.18638,0.05219 -0.27211,0.07456c-0.16402,0.04101 -0.16401,0.041 -0.13792,0.17892c0.01491,0.07455 0.03355,0.18638 0.04474,0.24974c0.041,0.27212 0.2982,0.87225 0.50322,1.163c0.26839,0.38766 1.00272,1.03626 1.46122,1.29347c0.13419,0.07455 0.24601,0.14538 0.24601,0.15656c0,0.00745 -0.04473,0.00745 -0.10064,-0.00373l-0.10438,-0.01864l0.1081,0.04101c0.06336,0.02609 0.11556,0.02982 0.13047,0.00745c0.01491,-0.02237 0.08573,-0.01863 0.19011,0.01118c0.09319,0.02609 0.14164,0.04846 0.11182,0.05219c-0.09692,0.01118 0.47713,0.14538 0.79398,0.18639c0.86852,0.1081 1.59168,-0.01864 2.11726,-0.36903c0.12673,-0.08574 0.24602,-0.15283 0.26839,-0.15283c0.05964,0 0,0.57031 -0.10065,0.96917c-0.13419,0.53304 -0.39139,1.07727 -0.69332,1.47239c-0.33921,0.43985 -0.84616,0.95053 -1.05863,1.06608c-0.09319,0.04846 -0.17147,0.10065 -0.17147,0.11183c0,0.01118 0.07081,0.041 0.15655,0.06709c0.20129,0.06337 0.64114,0.26466 0.61878,0.2833c-0.02609,0.02609 -0.26839,-0.06337 -0.2982,-0.1081c-0.01491,-0.02237 -0.02983,-0.02983 -0.02983,-0.01491c0,0.01491 -0.07828,-0.00745 -0.17519,-0.04845c-0.6076,-0.26093 -1.68858,-0.39512 -2.21044,-0.27584c-0.22365,0.05219 -0.63369,0.2311 -0.63369,0.27956c0,0.01118 0.07828,0.04845 0.17892,0.08946c0.24975,0.10064 0.77162,0.38394 0.82753,0.45104c0.07455,0.08946 0.0149,0.0671 -0.20502,-0.07082c-0.21992,-0.14165 -0.44358,-0.24975 -0.67096,-0.32057c-0.08201,-0.02609 -0.16402,-0.05591 -0.18638,-0.07082c-0.04846,-0.02609 -0.07828,-0.03356 -0.45104,-0.08574c-0.26093,-0.03727 -0.35412,-0.03355 -0.65233,0.02237c-0.54796,0.10438 -0.96172,0.36903 -1.24129,0.79397c-0.16402,0.24603 -0.28703,0.86853 -0.16774,0.86853c0.01864,0 0.0261,0.01863 0.01491,0.03727c-0.01491,0.02237 -0.041,0.02983 -0.05964,0.01491c-0.02236,-0.01118 -0.03355,0.11556 -0.02983,0.34667c0.01118,0.80516 0,1.0549 -0.05591,1.0549c-0.03355,0 -0.05591,0.08946 -0.07455,0.3243c-0.02236,0.33921 -0.04101,0.46222 -0.09692,0.77534c-0.06709,0.35412 -0.07455,0.46595 -0.03728,0.46595c0.02236,0 0.02609,0.08574 0.0149,0.20502c-0.01864,0.1901 -0.07827,0.43984 -0.38766,1.62149c-0.13792,0.52931 -0.47341,2.16946 -0.48086,2.34838c-0.00372,0.19384 -0.03356,0.37649 -0.06337,0.40631c-0.041,0.03727 0.02237,-0.72315 0.11556,-1.38666c0.08947,-0.61132 0.24602,-1.33448 0.39513,-1.81533c0.07455,-0.23857 0.14538,-0.68588 0.21992,-1.37921c0.02236,-0.19384 0.06337,-0.52186 0.09319,-0.72688c0.07828,-0.57405 0.1081,-0.85734 0.1491,-1.5283c0.01491,-0.20502 0.04473,-0.43985 0.06709,-0.52186c0.02236,-0.08201 0.04101,-0.29075 0.04474,-0.46594c0,-0.1752 0.02609,-0.38021 0.05591,-0.45849c0.03728,-0.09319 0.041,-0.1491 0.01491,-0.16774c-0.02236,-0.01491 -0.05964,-0.08201 -0.08573,-0.14911c-0.02982,-0.07082 -0.07828,-0.11928 -0.11555,-0.11928c-0.05964,0 -0.06336,0.01864 -0.03355,0.13792c0.01864,0.07828 0.03355,0.16402 0.03355,0.19384c0,0.11928 -0.04473,-0.00745 -0.15283,-0.40258c-0.05964,-0.22738 -0.14538,-0.49949 -0.18638,-0.6076c-0.08574,-0.21619 -0.32058,-0.58895 -0.37649,-0.58895c-0.01864,0 -0.02236,0.01491 -0.01118,0.03727c0.04473,0.07082 0,0.03727 -0.18638,-0.1342c-0.23484,-0.21992 -0.66351,-0.50322 -0.98408,-0.65232c-0.13419,-0.06337 -0.27585,-0.13047 -0.31312,-0.1491c-0.03728,-0.02237 -0.13792,-0.05219 -0.22366,-0.07082c-0.58522,-0.11928 -0.73433,-0.14166 -1.07727,-0.14538c-0.21247,-0.00373 -0.52186,-0.01118 -0.69332,-0.01863c-0.16774,-0.00745 -0.29821,-0.00373 -0.29076,0.00745c0.01118,0.00745 -0.02236,0.11183 -0.07455,0.22738c-0.19011,0.42495 -0.3914,1.11454 -0.59641,2.03526c-0.14165,0.63369 -0.16774,0.75297 -0.18266,0.87598c-0.01118,0.07082 -0.02609,0.16774 -0.03355,0.21247c-0.08201,0.39885 -0.14538,1.17792 -0.14911,1.76315l-0.00372,0.68588l0.12673,0.02609c0.08201,0.01863 0.18639,0.08573 0.2833,0.19011c0.16774,0.17892 0.72315,0.79025 1.11827,1.23756c0.14538,0.16402 0.27956,0.31311 0.2982,0.33548c0.15283,0.16402 0.66352,0.78651 0.7828,0.9617c0.08201,0.11928 0.15656,0.21621 0.16774,0.21621c0.02236,0 0.16774,-0.27585 0.22365,-0.42867c0.05591,-0.14538 0.09319,-0.67469 0.08946,-1.21146c-0.00372,-0.45104 -0.07828,-0.91699 -0.20129,-1.30838c-0.16402,-0.50322 -0.71943,-1.52831 -0.93935,-1.71841c-0.03728,-0.03355 -0.07082,-0.07828 -0.07082,-0.09319c0,-0.01491 -0.03355,-0.07083 -0.07455,-0.11556c-0.1081,-0.12301 -0.05964,-0.14538 0.04845,-0.02609l0.09319,0.10064l0.14538,-0.17146c0.07828,-0.09319 0.16029,-0.17147 0.1752,-0.17147c0.03728,0 -0.07828,0.19756 -0.18266,0.30939l-0.08201,0.08946l0.10065,0.10811c0.58895,0.65233 1.01018,1.53576 1.13691,2.40055c0.07082,0.46967 0.07082,0.69705 -0.00373,1.11827c-0.02982,0.1752 -0.05219,0.34294 -0.05591,0.37276c0,0.16028 -0.13046,0.57032 -0.26092,0.83125c-0.17892,0.35039 -0.43613,0.61878 -0.74179,0.77161l-0.21992,0.11183l0.09692,0.1491c0.06336,0.09692 0.10064,0.20502 0.10809,0.32802c0.00372,0.11183 0.08574,0.37649 0.20502,0.68214c0.10438,0.27584 0.19756,0.52559 0.20502,0.55914c0.02982,0.15656 0.57778,1.12946 0.69333,1.22638c0.01118,0.01118 0.08947,0.11927 0.17147,0.24229c0.18266,0.27212 0.95426,1.05118 1.14064,1.15555c0.07455,0.04101 0.27956,0.1752 0.45477,0.29821c0.54422,0.37649 0.76042,0.49577 1.11827,0.61132c0.22365,0.07082 0.17892,0.07082 -8.43178,0.07455l-8.65543,0.00373l0.01864,-0.19756c0.02609,-0.22738 0.14538,-0.70451 0.21247,-0.83125c0.04473,-0.08574 0.03355,-0.10437 -0.14165,-0.28702c-0.1081,-0.1081 -0.25348,-0.30567 -0.3243,-0.4324c-0.11928,-0.21247 -0.13792,-0.22738 -0.17892,-0.16774c-0.03728,0.06337 -0.041,0.06337 -0.02236,-0.01863c0.01491,-0.07828 0.00745,-0.07456 -0.08947,0.03727c-0.05964,0.07082 -0.12301,0.14165 -0.13792,0.16402c-0.01864,0.01863 -0.09692,0.11927 -0.17892,0.22365c-0.08201,0.10064 -0.16774,0.20875 -0.19384,0.2423c-0.09319,0.12301 -0.83125,0.99526 -0.95053,1.12946c-0.1081,0.11928 -0.1491,0.14165 -0.25347,0.13047l-0.12301,-0.01119l0.16401,-0.18638c0.35039,-0.39513 1.02882,-1.12573 1.20029,-1.28229c0.17519,-0.16774 0.17519,-0.16773 0.09319,-0.21619c-0.04846,-0.02609 -0.11556,-0.04474 -0.14911,-0.04846c-0.1081,0 -0.6225,-0.28702 -0.91326,-0.50695c-0.35039,-0.26093 -0.93563,-0.84616 -1.19655,-1.1891c-0.33921,-0.45104 -0.6076,-1.06609 -0.73433,-1.67741c-0.07828,-0.39513 -0.01118,-1.0549 0.14538,-1.40529l0.05964,-0.14165l-0.11928,-0.05219c-0.14911,-0.06337 -0.17147,-0.04473 -0.32057,0.2572c-0.17892,0.36157 -0.22366,0.46967 -0.31685,0.74551c-0.10064,0.29821 -0.18265,0.34294 -0.2162,0.11183c-0.01118,-0.08201 -0.05591,-0.21992 -0.10437,-0.30939c-0.13419,-0.26093 -0.27212,-0.76789 -0.39886,-1.44258c-0.05591,-0.32057 -0.07828,-1.25247 -0.03728,-1.69605c0.05591,-0.60014 0.41749,-1.50594 0.73433,-1.83769c0.10064,-0.10438 0.17519,-0.19383 0.17147,-0.19383c-0.00372,-0.00373 -0.11556,-0.06337 -0.24975,-0.1342c-1.04372,-0.54049 -1.74077,-1.33447 -1.95698,-2.23282c-0.03355,-0.1342 -0.07456,-0.27211 -0.0932,-0.30566c-0.04846,-0.08201 -0.04845,-0.11555 -0.00372,-0.08573c0.01864,0.01118 0.04846,0 0.06337,-0.0261c0.01864,-0.02982 0.03727,-0.01863 0.05591,0.03356c0.01864,0.05219 0.11555,0.10438 0.33921,0.1752c0.47713,0.1491 0.71197,0.18265 1.18537,0.16028c0.45477,-0.02237 0.52559,-0.03356 0.67097,-0.09692c0.08947,-0.04101 0.08947,-0.041 -0.01863,-0.02236c-0.23111,0.04473 -0.72688,0.06337 -0.72688,0.02982c0,-0.01863 0.04847,-0.02982 0.11183,-0.01863c0.16028,0.02237 0.46967,-0.05964 0.71942,-0.19011c0.23857,-0.12673 0.55169,-0.41376 0.80143,-0.73806l0.15656,-0.20874l-0.05591,-0.22365c-0.12301,-0.47713 -0.16402,-0.97663 -0.14911,-1.76315c0.01864,-0.88343 0.02609,-0.9468 0.15283,-1.69605c0.15656,-0.94308 0.46222,-2.10608 0.70078,-2.66895l0.05592,-0.1342l-0.21247,-0.1752c-0.20502,-0.17147 -0.48086,-0.46967 -0.67842,-0.72688c-0.05219,-0.06709 -0.11556,-0.14537 -0.13792,-0.17146c-0.02609,-0.02982 -0.04846,-0.05964 -0.04846,-0.07082c0,-0.01118 -0.05591,-0.10064 -0.12673,-0.19756c-0.24975,-0.35412 -0.65978,-1.22264 -0.84244,-1.78178c-0.04473,-0.14538 -0.10438,-0.32056 -0.13419,-0.39139c-0.11183,-0.30193 -0.42867,-1.66251 -0.4995,-2.162c-0.01864,-0.1342 -0.04473,-0.30567 -0.05591,-0.38394c-0.041,-0.30193 -0.05219,-0.39512 -0.07828,-0.76415c-0.02982,-0.45104 -0.02982,-0.44731 0.32802,-0.24602c0.39886,0.23111 0.85361,0.45104 1.17419,0.57032c0.3243,0.12301 1.06235,0.32429 1.36429,0.37275c0.20502,0.03355 0.22366,0.01119 0.26839,-0.2982c0.08574,-0.63742 0.42122,-1.80788 0.71943,-2.51239c0.27957,-0.65978 0.37649,-0.82752 0.57405,-1.00644c0.64114,-0.57777 1.60658,-0.95426 2.67267,-1.04745c0.29821,-0.02609 0.33175,-0.03727 0.62996,-0.22738c0.5815,-0.37649 1.61405,-0.87226 2.16946,-1.04372c0.51813,-0.16028 0.81634,-0.23857 0.98408,-0.2572c0.10438,-0.01118 0.24975,-0.03728 0.32057,-0.05219c0.11928,-0.02982 0.99153,-0.10809 1.17419,-0.10437c0.30939,0.00373 0.98408,0.08201 1.2301,0.14165c0.30566,0.07455 0.35412,0.07082 0.29075,-0.00745c-0.03355,-0.04473 -0.16401,-0.29075 -0.80142,-1.52085c-0.08947,-0.1752 -0.26838,-0.48459 -0.3914,-0.6896c-0.23111,-0.38394 -0.28329,-0.47341 -0.49577,-0.85735c-0.06709,-0.12301 -0.17147,-0.31684 -0.23485,-0.42867c-0.05964,-0.11183 -0.13047,-0.22366 -0.15656,-0.2423c-0.02236,-0.02237 -0.05591,-0.08946 -0.07082,-0.1491zM380.94159,175.93057c-0.01491,0.02237 -0.08947,0.08201 -0.16774,0.13047c-0.24975,0.15656 -0.81262,0.72688 -0.93935,0.9468c-0.06709,0.11556 -0.123,0.21621 -0.123,0.22739c0,0.01118 -0.09319,0.18265 -0.20502,0.38393c-0.11183,0.20129 -0.22365,0.40259 -0.24974,0.44732c-0.11928,0.21619 -0.37276,0.56286 -0.41749,0.57777c-0.041,0.01491 -0.04845,-0.00745 -0.02982,-0.09692c0.01864,-0.08946 0.01118,-0.11183 -0.02983,-0.09692c-0.12673,0.04846 -0.46967,-0.39513 -0.65232,-0.84989c-0.04846,-0.11556 -0.10065,-0.20502 -0.11556,-0.19756c-0.01118,0.01118 -0.03728,0.07829 -0.05219,0.15656c-0.01118,0.07455 -0.08201,0.31311 -0.15656,0.52931c-0.07082,0.21619 -0.13419,0.41003 -0.13792,0.4324c-0.00372,0.01863 -0.09319,0.29821 -0.19756,0.61505c-0.10438,0.31685 -0.20129,0.63369 -0.2162,0.69706c-0.01118,0.06709 -0.041,0.12301 -0.05964,0.12301c-0.02236,0 -0.02609,0.01491 -0.01491,0.03728c0.041,0.06709 -0.19011,0.03728 -0.26839,-0.03355c-0.24975,-0.23484 -0.61878,-0.82006 -0.83497,-1.31956c-0.05964,-0.1491 -0.12674,-0.30193 -0.14538,-0.34294c-0.01864,-0.04101 -0.05218,-0.13792 -0.07455,-0.21619c-0.04846,-0.15656 -0.05219,-0.16028 -0.20502,-0.07828c-0.18266,0.09692 -0.45849,0.15656 -0.63741,0.1342c-0.13792,-0.01491 -0.1752,-0.03728 -0.20502,-0.11183c-0.02982,-0.07455 -0.01864,-0.11555 0.06336,-0.21993c0.05219,-0.07082 0.12674,-0.13792 0.16029,-0.15283c0.03355,-0.01118 0.09319,-0.05219 0.13047,-0.08946c0.041,-0.03727 0.10437,-0.06709 0.14165,-0.06709c0.041,0 0.05964,-0.01864 0.04846,-0.03728c-0.01118,-0.02237 0.00745,-0.03728 0.04473,-0.03728c0.10438,-0.00373 0.23484,-0.13047 0.23484,-0.23111c0,-0.04473 -0.02236,-0.16774 -0.04845,-0.26838l-0.04847,-0.18266l-0.27583,0.27957c-0.38021,0.37649 -0.57032,0.58895 -0.86853,0.96171c-0.43613,0.54796 -0.43985,0.55168 -0.39513,0.74551c0.05219,0.21619 0.04473,0.17892 0.1752,0.85734c0.16402,0.82752 0.13792,0.68214 0.28703,1.65877c0.03355,0.22365 0.082,0.43241 0.10064,0.45477c0.05591,0.07082 0.3243,0.13419 0.43613,0.10437c0.05219,-0.01118 0.19756,-0.08947 0.32058,-0.16774c0.12301,-0.07828 0.34294,-0.17892 0.48458,-0.22365c0.6225,-0.1901 0.99527,-0.21992 1.1891,-0.09319l0.10064,0.06709l-0.09692,0.06337c-0.06709,0.04473 -0.21247,0.07082 -0.47713,0.08573c-0.4324,0.02609 -0.77533,0.12301 -1.04372,0.28702c-0.09692,0.05964 -0.2162,0.1081 -0.26093,0.10438c-0.04473,0 -0.15656,0.02982 -0.24975,0.07082c-0.09319,0.03727 -0.23857,0.09319 -0.3243,0.11928c-0.08574,0.02982 -0.15283,0.06337 -0.15283,0.07455c0.01118,0.04101 -0.08574,0.76416 -0.11928,0.89835c-0.01864,0.07082 -0.04473,0.20502 -0.05591,0.2982c-0.01491,0.08946 -0.04847,0.23485 -0.07828,0.31685c-0.02609,0.08201 -0.05219,0.27585 -0.05219,0.42867c0,0.48831 0.14538,0.90206 0.50322,1.43139c0.22365,0.32802 0.59269,0.7567 0.55169,0.63742c-0.01864,-0.05219 0.0149,-0.03728 0.11555,0.05964c0.32803,0.31685 0.96917,0.61132 1.88615,0.86853c0.68588,0.1901 2.29246,0.29448 2.73977,0.17892c0.42494,-0.11183 0.57778,-0.16402 0.55914,-0.19384c-0.00745,-0.01491 0.07828,-0.03728 0.19756,-0.04846c0.2162,-0.02609 1.36056,-0.40631 1.85261,-0.61877c0.51068,-0.21992 0.81634,-0.33921 0.83125,-0.3243c0.01864,0.02237 -0.8648,0.45103 -1.19283,0.5815c-0.11928,0.04473 -0.2162,0.10065 -0.2162,0.11928c0,0.01863 0.02236,0.02236 0.04846,0.00745c0.02236,-0.01491 0.00745,0.01118 -0.03728,0.05591c-0.04473,0.04101 -0.09692,0.07828 -0.11183,0.07828c-0.01491,0 -0.07828,0.041 -0.13419,0.08946c-0.05964,0.05219 -0.16774,0.14165 -0.24229,0.20502c-0.23857,0.19384 -0.38766,0.31684 -0.50322,0.41748l-0.1081,0.09692l0.49577,0.02237c0.48458,0.02609 0.65978,0.04846 1.13318,0.15656c0.12301,0.02982 0.27584,0.05964 0.33548,0.07082c0.06336,0.01118 0.21247,0.05591 0.33175,0.09692c0.26093,0.08946 0.24602,0.08573 0.24602,0.02236c0,-0.06337 0.0671,-0.041 0.5405,0.18266c0.14538,0.06709 0.32802,0.1491 0.41003,0.18638c0.08201,0.03727 0.1752,0.07828 0.20502,0.09319c0.04846,0.02609 0.05592,-0.00373 0.04847,-0.19011c-0.00372,-0.11928 0.02237,-0.38766 0.05219,-0.60014c0.06336,-0.39513 0.07081,-0.56287 0.041,-0.93562c-0.01864,-0.22738 0.00746,-0.46967 0.10065,-0.9058l0.05964,-0.26838l0.16401,-0.04474c0.09319,-0.02609 0.16774,-0.05964 0.16774,-0.07455c0,-0.01491 -0.09691,-0.12674 -0.21992,-0.24603c-0.39513,-0.39513 -0.6486,-0.84243 -0.79397,-1.40157c-0.07082,-0.2572 -0.08201,-0.40631 -0.08201,-0.9058c0,-0.52186 0.01118,-0.62995 0.08946,-0.87598c0.13792,-0.44359 0.12673,-0.5144 -0.12301,-0.76788c-0.11555,-0.11556 -0.23111,-0.26093 -0.2572,-0.32057c-0.05591,-0.12301 -0.05219,-0.12301 -0.2572,-0.02983c-0.16774,0.07455 -0.32056,0.09319 -0.46967,0.05219c-0.12301,-0.03355 -0.10438,-0.08947 0.02609,-0.08947c0.1081,0 0.2162,-0.03355 0.43985,-0.14538c0.12301,-0.05964 0.1342,-0.07828 0.09692,-0.2162c-0.02236,-0.07828 -0.02982,-0.07455 -0.1752,0.06337c-0.21247,0.20502 -0.37275,0.27584 -0.51441,0.22738c-0.10064,-0.03355 -0.1081,-0.02982 -0.1081,0.04846c0,0.14538 -0.00745,0.14538 -0.68959,0.00373c-0.05964,-0.01118 -0.35785,-0.03355 -0.65978,-0.04101c-0.50695,-0.01863 -0.57405,-0.01118 -0.89835,0.07455c-0.41003,0.11183 -0.48458,0.11928 -0.54796,0.04101c-0.06709,-0.08201 0.07082,-0.22365 0.27211,-0.27584c0.27957,-0.07455 0.37276,-0.08201 0.93935,-0.10437c0.60014,-0.02237 0.96172,0.0149 1.33075,0.13792c0.21992,0.07082 0.21992,0.07082 0.41376,-0.00373c0.23111,-0.09319 0.29075,-0.13792 0.43613,-0.36903c0.08201,-0.12673 0.11183,-0.21992 0.11183,-0.33921c0,-0.13792 0.04846,-0.42495 0.1752,-1.04373c0.01118,-0.05591 0.07082,-0.20874 0.13792,-0.34294l0.11556,-0.24229l-0.20502,-0.04474c-0.63741,-0.13792 -1.23756,-0.44358 -1.69232,-0.8648c-0.16402,-0.15283 -0.3504,-0.29075 -0.41376,-0.30566c-0.20875,-0.05219 -0.64487,-0.24975 -0.70824,-0.32057c-0.07828,-0.08574 -0.08574,-0.24975 -0.01491,-0.31684c0.02982,-0.02982 0.09692,-0.05591 0.15656,-0.06337c0.05591,-0.00745 0.10438,-0.02236 0.10438,-0.03355c0.00372,-0.02609 -0.07082,-0.20875 -0.15283,-0.37649c-0.041,-0.08574 -0.07455,-0.17892 -0.07455,-0.20502c0,-0.05964 -0.05964,-0.06337 -0.09319,-0.01118zM387.63632,178.75608c-0.07828,0.06337 -0.08574,0.08946 -0.05964,0.26092l0.0261,0.19011l0.14911,-0.1081c0.18638,-0.1342 0.3653,-0.17147 0.55541,-0.11556c0.46967,0.14165 0.71943,0.74179 0.55541,1.34194c-0.02236,0.08946 -0.06337,0.15283 -0.09319,0.15283c-0.041,0 -0.04473,-0.02236 -0.01864,-0.09319c0.10438,-0.27584 0.04473,-0.76788 -0.12301,-1.01763c-0.10438,-0.15283 -0.39139,-0.30194 -0.54796,-0.2833c-0.06336,0.00745 -0.19383,0.04846 -0.29448,0.09319c-0.16028,0.06709 -0.18638,0.09319 -0.20875,0.21247c-0.01118,0.07455 -0.03355,0.17892 -0.04474,0.2311c-0.01118,0.05219 -0.01118,0.08202 0.00373,0.0671c0.01491,-0.01118 0.07828,-0.00746 0.13419,0.01491c0.23857,0.08201 0.36903,0.67842 0.32057,1.41648c-0.01864,0.22365 -0.041,0.40258 -0.05219,0.40258c-0.01491,0 -0.02983,-0.19011 -0.03355,-0.42122c-0.01118,-0.84989 -0.12674,-1.32329 -0.3243,-1.36057c-0.12301,-0.02609 -0.12673,0.07082 -0.01118,0.3243c0.10438,0.21619 0.11555,0.28702 0.11555,0.58149c0.00372,0.49577 -0.12673,0.88343 -0.32057,0.98036c-0.09319,0.04473 -0.09691,0.05591 -0.07455,0.27584c0.01491,0.17892 0.04845,0.27957 0.14538,0.4324c0.07082,0.1081 0.15283,0.2833 0.18265,0.38394c0.05964,0.20129 0.0671,0.20502 0.23112,0.1342c0.44358,-0.18638 1.08472,-1.15928 1.33074,-2.01663c0.16028,-0.56286 0.11928,-1.23755 -0.10438,-1.70723c-0.1081,-0.22738 -0.17519,-0.30566 -0.37275,-0.45477c-0.28703,-0.21992 -0.72688,-0.18638 -1.06609,0.08201zM386.74543,181.51448l-0.12673,0.06709l0.08946,0.05964c0.04473,0.03355 0.14538,0.1081 0.2162,0.17147c0.07082,0.06337 0.16029,0.12301 0.20129,0.1342c0.05964,0.01491 0.06336,0.00374 0.04473,-0.10064c-0.01118,-0.06337 -0.05218,-0.1752 -0.08946,-0.24975c-0.07455,-0.15283 -0.16402,-0.1752 -0.33548,-0.08201zM374.64199,181.88724c-0.05219,-0.01118 -0.09319,-0.00373 -0.09319,0.01118c0,0.01863 0.04101,0.03355 0.09319,0.03355c0.05219,0 0.09319,-0.00746 0.09319,-0.01491c0,-0.00745 -0.041,-0.02236 -0.09319,-0.02982zM377.66132,189.72634c-0.05964,0.00373 -0.55169,0.1752 -0.62624,0.21992c-0.03728,0.02237 -0.08573,0.02983 -0.10809,0.01491c-0.02609,-0.01863 -0.02982,-0.01118 -0.01118,0.02236c0.02236,0.03355 0.00372,0.03728 -0.05965,0.01864c-0.05964,-0.01491 -0.07455,-0.01119 -0.041,0.01118c0.03728,0.02609 0,0.07082 -0.14911,0.17892c-0.4995,0.35784 -1.00644,0.81261 -1.3531,1.21146c-0.14911,0.16774 -0.46595,0.61506 -0.46595,0.65233c0,0.01118 -0.05964,0.11183 -0.13419,0.22738c-0.07082,0.11183 -0.12674,0.21247 -0.11928,0.21992c0.00745,0.00745 0.07455,-0.03355 0.14538,-0.08946c0.07082,-0.05964 0.31312,-0.23857 0.53677,-0.39885c0.67469,-0.48085 1.10709,-0.8387 1.60286,-1.32328c0.35784,-0.35039 0.50322,-0.51068 0.30194,-0.34294c-0.07828,0.06709 -0.15283,0.11555 -0.16402,0.10064c-0.02236,-0.02237 0.11555,-0.17519 0.45849,-0.51068c0.12301,-0.11928 0.20874,-0.21247 0.18638,-0.21247zM374.6979,192.55557c-0.01864,0 -0.03728,0.01864 -0.03728,0.04101c0,0.01863 0.01864,0.02609 0.03728,0.0149c0.02236,-0.01118 0.03727,-0.02982 0.03727,-0.041c0,-0.00745 -0.01491,-0.01491 -0.03727,-0.01491zM389.6343,195.63082c-0.01491,-0.07082 -0.01491,-0.07082 -0.02236,0c-0.00372,0.04101 -0.0149,0.11555 -0.02236,0.16774l-0.02237,0.09319l0.041,-0.09319c0.02236,-0.04846 0.03355,-0.12301 0.0261,-0.16774zM373.16959,199.07883c-0.01118,0 -0.01864,0.15657 -0.01864,0.3504c0,0.19384 0.00745,0.34294 0.02236,0.32802c0.01118,-0.01491 0.06337,-0.08947 0.12301,-0.16774c0.05591,-0.07455 0.11927,-0.13792 0.13791,-0.13792c0.02236,0 0.0261,0.01491 0.01491,0.03727c-0.03355,0.05591 0.00373,0.04474 0.13047,-0.03354l0.11555,-0.0671l-0.13419,-0.08201c-0.07455,-0.04101 -0.14538,-0.07828 -0.16029,-0.07828c-0.01491,0 -0.06709,-0.03355 -0.11928,-0.07455c-0.05219,-0.04101 -0.10065,-0.07456 -0.11183,-0.07456z"/><path d="M381.76166,181.56294c-0.12301,0.06337 -0.26093,0.1491 -0.30566,0.19011c-0.04846,0.04473 -0.09319,0.07082 -0.1081,0.05964c-0.03728,-0.03727 0.14538,-0.18638 0.33922,-0.27584c0.27584,-0.12673 0.33547,-0.10438 0.07455,0.02609z"/><path d="M382.74947,181.45484c0.01118,-0.00373 0.04473,0.01119 0.07455,0.02983c0.04846,0.03355 0.04846,0.03727 0,0.03727c-0.29075,0.01491 -0.79397,0.14911 -0.84243,0.22738c-0.01118,0.01863 -0.03728,0.03355 -0.05964,0.03355c-0.02236,0 -0.01118,-0.03356 0.02609,-0.07456c0.07082,-0.07828 0.43985,-0.21247 0.65233,-0.23483c0.07082,-0.00745 0.13792,-0.01492 0.1491,-0.01864z"/><path d="M383.56953,181.70459c0,0.02982 -0.27583,0.08201 -0.42494,0.07455c-0.04846,0 -0.02236,-0.01864 0.07082,-0.05219c0.17519,-0.05591 0.35412,-0.07082 0.35412,-0.02236z"/><path d="M375.99137,182.15562c0.07828,0 0.05592,0.02983 -0.07082,0.09692l-0.12301,0.06336l0.07082,-0.082c0.041,-0.04101 0.09319,-0.07828 0.12301,-0.07828z"/><path d="M375.39496,182.26745c0.02609,0 0.00373,0.03356 -0.10064,0.15284c-0.05964,0.07082 -0.11183,0.11182 -0.11183,0.09319c0,-0.02237 0.04474,-0.08574 0.10065,-0.14165c0.05591,-0.05591 0.10437,-0.10438 0.11182,-0.10438z"/><path d="M374.847,182.5172c-0.08947,0.10064 -0.17519,0.19384 -0.19383,0.21247c-0.01864,0.02237 -0.02983,0.01864 -0.02983,-0.00745c0,-0.02609 0.07829,-0.13047 0.1752,-0.23484c0.21992,-0.23484 0.26466,-0.20874 0.04846,0.02983z"/><path d="M379.67421,183.08379c0.13047,0.02609 0.19384,0.02236 0.21247,-0.00745c0.06709,-0.1081 0.43985,0.41749 0.54796,0.77161c0.07828,0.26466 0.09692,0.90953 0.03728,1.28229c-0.12673,0.81634 -0.52559,1.30465 -1.09591,1.35683c-0.11928,0.00745 -0.46595,-0.07455 -0.46595,-0.11556c0,-0.01118 0.10437,-0.02236 0.23484,-0.02236c0.35039,0 0.65233,-0.19756 0.86853,-0.56659c0.13419,-0.23484 0.33549,-0.84244 0.3653,-1.11082c0.05964,-0.54049 0.05964,-0.57032 -0.05592,-0.84616c-0.12301,-0.29821 -0.32057,-0.62623 -0.37648,-0.62623c-0.01864,0 -0.0261,-0.01118 -0.01864,-0.02982c0.02609,-0.03727 -1.122,-0.01491 -1.53949,0.03355c-0.19383,0.02237 -0.55913,0.07828 -0.81261,0.13047c-0.25348,0.04846 -0.50695,0.08946 -0.55914,0.08946c-0.09692,-0.00373 -0.09319,-0.00373 0.02982,-0.05964c0.19383,-0.08574 0.79397,-0.2311 1.17419,-0.29075c0.36158,-0.05219 1.14064,-0.04846 1.45376,0.01118z"/><path d="M377.05746,183.73239c0.1081,0.3653 0.39512,1.15182 0.47339,1.28229c0.041,0.06709 0.05219,0.11182 0.0261,0.10064c-0.05591,-0.01863 -0.36903,-0.63368 -0.45477,-0.89088c-0.07828,-0.22738 -0.16402,-0.57405 -0.16774,-0.66351c0,-0.13792 0.05964,-0.05219 0.12301,0.17146z"/><path d="M378.08627,185.77511c0.23111,0.29821 0.67469,0.62251 0.9729,0.72315c0.08574,0.02609 0.08574,0.02982 0.01491,0.04473c-0.1081,0.02237 -0.44359,-0.14538 -0.66724,-0.33175c-0.20129,-0.16774 -0.35412,-0.35412 -0.49577,-0.60387c-0.08947,-0.16028 -0.05964,-0.13047 0.17519,0.16774z"/><path d="M398.7855,191.92188c0.2833,0 0.53677,0.22739 0.62624,0.55914c0.07828,0.29075 0.07454,0.28702 0.13792,0.16774c0.05964,-0.11183 0.16402,-0.21247 0.19384,-0.18638c0.00745,0.00745 -0.02982,0.06709 -0.082,0.12673c-0.04846,0.05964 -0.11183,0.19756 -0.13793,0.29821c-0.02609,0.10438 -0.06709,0.19011 -0.09319,0.19011c-0.02982,0 -0.05219,0.08573 -0.06709,0.24974c-0.05591,0.68588 -0.1491,1.45003 -0.18638,1.53577c-0.03728,0.09319 -0.04101,0.08573 -0.07083,-0.08947c-0.03355,-0.19756 -0.01117,-0.65232 0.04474,-0.95798c0.02236,-0.10438 0.03728,-0.19757 0.03728,-0.20502c0,-0.00745 -0.04474,0.01119 -0.10064,0.04101c-0.32057,0.1752 -0.56659,0.21247 -0.76043,0.11555c-0.12673,-0.06709 -0.1081,-0.10437 -0.23857,0.41003c-0.15283,0.61505 -0.36158,1.10709 -0.53677,1.28229c-0.09319,0.09319 -0.28702,0.19383 -0.31311,0.16401c-0.01118,-0.01118 -0.05219,0.00745 -0.08573,0.041c-0.03355,0.03355 -0.04846,0.07455 -0.03728,0.08573c0.01491,0.01491 0.14911,0.06337 0.30194,0.10438c0.54422,0.15656 0.95425,0.07828 1.17419,-0.22738c0.05219,-0.07082 0.11929,-0.16028 0.14911,-0.20129c0.02982,-0.04101 0.11555,-0.16029 0.18638,-0.26093c0.13419,-0.1901 0.18639,-0.22738 0.18639,-0.13047c0,0.02982 -0.01492,0.05591 -0.03728,0.05591c-0.01864,0 -0.03728,0.01492 -0.03728,0.03356c0,0.07828 -0.31311,0.56659 -0.44358,0.70078c-0.19756,0.19756 -0.48459,0.29075 -0.79025,0.2572c-0.22365,-0.02609 -0.61132,-0.14538 -0.68214,-0.21247c-0.05964,-0.05591 -0.13419,-0.03728 -0.26093,0.05964l-0.11928,0.08947l0.04473,0.32802c0.07828,0.53304 0.04101,1.53577 -0.07455,2.07626c-0.14538,0.67842 -0.37649,1.28601 -0.67469,1.77805c-0.20875,0.34294 -0.23484,0.30939 -0.22738,-0.33175c0.00372,-0.57777 -0.02983,-0.88344 -0.09319,-0.78652c-0.01864,0.02982 -0.05964,0.13419 -0.09319,0.23856c-0.08947,0.26093 -0.44359,0.99899 -0.62251,1.28601c-0.2423,0.38394 -0.57405,0.81262 -0.87971,1.13319c-0.32803,0.33548 -1.53203,1.45376 -1.53203,1.42021c0,-0.01491 -0.11183,0.11556 -0.24603,0.28702c-0.13792,0.16774 -0.30939,0.37275 -0.38394,0.44731c-0.12301,0.1342 -0.14165,0.14165 -0.35784,0.13792c-0.21992,0 -0.22366,0 -0.13047,-0.06337c0.17147,-0.11183 0.42495,-0.38766 0.76416,-0.82752c0.27584,-0.35412 0.4734,-0.59269 0.77533,-0.93935c0.08574,-0.09319 0.15656,-0.21247 0.15656,-0.26093c0.00372,-0.04846 0.07455,-0.29448 0.15656,-0.55168c0.24975,-0.76043 0.49204,-1.81905 0.73433,-3.21317c0.05219,-0.30193 0.09691,-0.57405 0.09691,-0.61132c0,-0.03355 -0.07081,-0.1752 -0.15655,-0.30939c-0.29821,-0.46967 -0.62624,-1.02136 -0.62624,-1.04745c0,-0.01863 -0.01119,-0.03728 -0.0261,-0.04474c-0.04846,-0.01863 -0.58523,-0.92444 -0.55168,-0.92444c0.041,0 0.58523,0.37647 0.65233,0.44731c0.01118,0.01118 0.08201,0.04101 0.15656,0.06338c0.1081,0.02982 0.13047,0.02982 0.11928,-0.00745c-0.01118,-0.02982 0.041,-0.01864 0.14538,0.03355c0.08947,0.04101 0.16028,0.08947 0.15283,0.10065c-0.00745,0.01491 0.05591,0.05964 0.14538,0.10437l0.15656,0.07828l0.01118,-0.09319c0.01491,-0.10438 0.08947,-0.13046 0.07828,-0.02982c-0.01118,0.1342 0.00745,0.15283 0.23857,0.19756c0.35784,0.07082 0.69705,0.05964 0.87598,-0.03355c0.18638,-0.09319 0.19011,-0.10064 0.21247,-0.33548c0.01118,-0.10438 0.04847,-0.26839 0.07828,-0.36903c0.07082,-0.20129 0.36531,-0.80143 0.46595,-0.94681l0.07082,-0.09691l-0.13419,0.04101c-0.07828,0.02237 -0.14538,0.07082 -0.15283,0.10437c-0.02982,0.1081 -0.5815,0.27584 -0.69705,0.21248c-0.09319,-0.05219 -0.07829,-0.33176 0.02982,-0.54423c0.14538,-0.27957 0.29821,-0.46595 0.58523,-0.7157c0.24975,-0.21619 0.27584,-0.22738 0.40258,-0.20502c0.10438,0.01863 0.12301,0.01491 0.08946,-0.02236c-0.02236,-0.02237 -0.12673,-0.05219 -0.22738,-0.06337c-0.32057,-0.02982 -0.84616,0.21247 -1.2301,0.57032c-0.23111,0.21247 -0.4063,0.48085 -0.34294,0.52186c0.01864,0.01118 0.03728,0.041 0.03728,0.06337c0,0.02609 -0.01864,0.02236 -0.05591,-0.00745c-0.04473,-0.03727 -0.06337,-0.01864 -0.1081,0.08946c-0.02982,0.07455 -0.06709,0.19384 -0.08201,0.26466c-0.01118,0.07082 -0.03728,0.13047 -0.05592,0.13047c-0.05591,0 -0.03727,-0.2162 0.03729,-0.42494l0.07082,-0.20129l-0.35039,-0.3243c-0.19383,-0.17892 -0.35039,-0.34294 -0.35039,-0.36157c0,-0.04101 0.30939,0.20502 0.5666,0.44731l0.17146,0.16401l0.09319,-0.14538c0.13419,-0.20874 0.51068,-0.5405 0.75297,-0.65978c0.11555,-0.05591 0.2423,-0.1342 0.2833,-0.1752c0.03728,-0.03727 0.1081,-0.07455 0.15656,-0.07455c0.34666,-0.02609 0.47713,-0.01863 0.59268,0.02237l0.13792,0.04473l0.13792,-0.20129c0.28703,-0.41377 0.84616,-0.79397 1.17419,-0.79397c0.09319,0 0.19384,-0.02982 0.26094,-0.07828c0.10438,-0.07455 0.1491,-0.05219 0.06709,0.02982c-0.02982,0.02982 -0.02236,0.05219 0.03355,0.08201c0.06336,0.03355 0.10437,0.02236 0.2162,-0.05219c0.07455,-0.05219 0.15283,-0.09318 0.17147,-0.09318c0.01864,0 0.02236,-0.01864 0.01118,-0.03728c-0.01491,-0.02237 0.041,-0.03728 0.13792,-0.03728zM398.55812,192.1008c-0.11183,0.09692 -0.13047,0.13047 -0.13419,0.30194l-0.00745,0.19384l0.14911,-0.16774c0.13792,-0.16402 0.2572,-0.21247 0.30566,-0.1342c0.01118,0.01863 0,0.03727 -0.02982,0.03727c-0.02982,0 -0.06337,0.0261 -0.07828,0.05591c-0.01118,0.02982 -0.00373,0.05591 0.01491,0.05591c0.02236,0 0.03728,-0.0149 0.03728,-0.03355c0,-0.01863 0.05219,-0.05219 0.11183,-0.07456c0.06336,-0.01863 0.13792,-0.06337 0.16774,-0.09319c0.04846,-0.04846 0.04101,-0.06337 -0.07082,-0.13047c-0.20875,-0.13047 -0.32058,-0.13046 -0.46595,-0.01118zM397.54795,192.40646c-0.23111,0.12673 -0.58895,0.45477 -0.71943,0.66351c-0.05219,0.07828 -0.09692,0.21992 -0.1081,0.3243c-0.01118,0.11928 -0.082,0.3243 -0.18638,0.54049c-0.09319,0.19384 -0.17147,0.39885 -0.17147,0.45104c-0.00372,0.05219 -0.07455,0.24974 -0.15656,0.43612c-0.2162,0.48459 -0.33175,0.81261 -0.30193,0.86107c0.041,0.06337 0.48831,0.22738 0.62623,0.22738c0.11555,0 0.12301,-0.00745 0.10437,-0.10438c-0.01864,-0.09319 -0.01863,-0.09319 0.02237,-0.01863c0.041,0.07828 0.04472,0.07828 0.29075,-0.09692c0.13792,-0.09692 0.29821,-0.20129 0.35785,-0.23111c0.19011,-0.09319 0.32057,-0.37649 0.63369,-1.37175c0.09692,-0.32057 0.11928,-0.43613 0.08946,-0.46595c-0.02982,-0.02609 -0.03727,-0.02609 -0.02236,-0.00372c0.041,0.07828 -0.04101,0.13419 -0.2572,0.16774c-0.11928,0.02237 -0.32057,0.03356 -0.44358,0.03356c-0.19383,-0.00373 -0.21247,-0.01119 -0.12673,-0.04101c0.09319,-0.04101 0.09692,-0.041 0.02982,-0.10809c-0.08947,-0.08946 -0.08947,-0.36531 -0.00373,-0.58523c0.08201,-0.20874 0.27584,-0.44732 0.48831,-0.60015c0.13047,-0.08946 0.1491,-0.11555 0.07828,-0.09691l-0.09319,0.02237l0.09319,-0.05592c0.17147,-0.10438 -0.0149,-0.05964 -0.22365,0.05219zM398.10708,192.54438c0,0.06337 0.02236,0.08574 0.07828,0.08574c0.05964,0 0.07455,-0.01864 0.06337,-0.10065c-0.01864,-0.16774 -0.14165,-0.15655 -0.14165,0.01491zM398.99052,192.54438c-0.02982,0.05219 -0.00746,0.24602 0.02982,0.26093c0.02236,0.00373 0.06338,-0.00373 0.0932,-0.02609c0.041,-0.02609 0.04473,-0.05591 0.01863,-0.1342c-0.03728,-0.10438 -0.1081,-0.15656 -0.14165,-0.10065zM396.13147,193.46882c-0.07455,0.08201 -0.07828,0.09319 -0.02236,0.11556c0.06709,0.02609 0.17147,-0.04473 0.17147,-0.11928c0,-0.08946 -0.06337,-0.08946 -0.14911,0.00373zM393.08977,195.5749c-0.02982,0 -0.01118,0.02982 0.05219,0.07828c0.05591,0.04846 0.05964,0.04474 0.01118,-0.0149c-0.02609,-0.03355 -0.05591,-0.06337 -0.06336,-0.06337zM395.837,195.79856c-0.03355,0 -0.08946,0.11183 -0.0671,0.13419c0.00372,0.00745 0.02982,-0.02236 0.05591,-0.05964c0.02609,-0.04101 0.02983,-0.07455 0.01119,-0.07455zM393.36561,201.77759c-0.01491,-0.01118 -0.04473,0.01863 -0.06709,0.06709c-0.04473,0.08201 -0.04474,0.08201 0.02236,0.02236c0.03728,-0.03727 0.05592,-0.07455 0.04474,-0.08946zM392.92576,202.63866c-0.041,0.04846 -0.03728,0.05219 0.0149,0.03355c0.03355,-0.01118 0.05964,-0.03728 0.05964,-0.05591c0,-0.04846 -0.02236,-0.04101 -0.07455,0.02236z"/></g><path d="M399.13345,184.78986c0.02616,0 0.04797,0.01744 0.04797,0.04361c0,0.0218 -0.00872,0.04361 -0.01744,0.04361c-0.01308,0 -0.03489,-0.02181 -0.04797,-0.04361c-0.01308,-0.02616 -0.00436,-0.04361 0.01744,-0.04361z"/><path d="M396.40815,185.2695c0.01308,0 0.03489,0.01745 0.04797,0.04361c0.01308,0.0218 0.00436,0.04361 -0.01744,0.04361c-0.02616,0 -0.04797,-0.0218 -0.04797,-0.04361c0,-0.02616 0.00872,-0.04361 0.01744,-0.04361z"/><path d="M375.51951,183.05672c0.31723,-0.14763 0.66901,-0.23243 0.66901,-0.15705c0,0.0157 -0.04711,0.03769 -0.10365,0.04711c-0.05339,0.00942 -0.24813,0.07538 -0.43031,0.14448c-0.37377,0.14134 -0.3455,0.13506 -0.3455,0.09737c0,-0.0157 0.09423,-0.07538 0.21044,-0.13192z"/><path d="M375.08606,183.10069c0.10365,-0.07538 0.53082,-0.23243 0.54966,-0.20102c0.01571,0.02198 -0.38633,0.19788 -0.54652,0.23557l-0.07852,0.02199z"/><path d="M375.80848,183.22319c0.24813,-0.14134 0.75382,-0.29525 0.64389,-0.20102c-0.01571,0.0157 -0.12564,0.05968 -0.24499,0.10051c-0.11936,0.03769 -0.27954,0.10365 -0.35492,0.14134c-0.16647,0.09109 -0.2073,0.05025 -0.04397,-0.04083z"/><path d="M382.86925,183.03787c0.02199,-0.00943 0.04083,-0.00314 0.04083,0.01256c0,0.0157 -0.16019,0.08166 -0.35492,0.14762c-0.19159,0.06282 -0.49312,0.17275 -0.66587,0.23871c-0.35806,0.1382 -0.45543,0.16961 -0.45543,0.14448c0,-0.03455 0.64075,-0.30153 0.72555,-0.30153c0.02513,0 0.05968,-0.01257 0.07538,-0.02827c0.01884,-0.01571 0.15704,-0.06596 0.31409,-0.11307c0.1539,-0.04711 0.30153,-0.09423 0.32037,-0.10051z"/><path d="M382.10601,183.11639c0.00943,0.01884 0.00314,0.04397 -0.0157,0.05339c-0.04711,0.03141 -0.07852,-0.00942 -0.03769,-0.05025c0.02198,-0.02198 0.04083,-0.02198 0.05339,-0.00314z"/><path d="M381.27681,183.40535c-0.06282,0.04083 -0.13506,0.04083 -0.10993,0c0.00942,-0.01885 0.05025,-0.03141 0.08795,-0.03141c0.05654,0 0.05968,0.00628 0.02199,0.03141z"/><path d="M376.76017,184.31622c0.02512,0 0.07224,0.02198 0.10679,0.04711c0.11622,0.09109 0.37691,0.14134 0.77895,0.15705c0.223,0.00628 0.41146,0.02199 0.42088,0.03141c0.0691,0.0691 -0.2764,0.11936 -0.65331,0.09423c-0.20416,-0.01256 -0.30781,-0.03769 -0.43659,-0.10365c-0.17589,-0.08795 -0.30781,-0.22615 -0.21672,-0.22615z"/><path d="M378.51909,184.52352c-0.02199,-0.02199 0.15076,-0.01571 0.35492,0.01256c0.0848,0.01256 0.31095,0.04711 0.50254,0.07852c0.4837,0.07852 0.94541,0.08166 1.05849,0.00314c0.05025,-0.03141 0.08795,-0.04397 0.08795,-0.02513c0,0.10679 -0.38947,0.2073 -0.70985,0.17903c-0.3298,-0.02513 -1.24695,-0.20416 -1.29406,-0.24813z"/><path d="M383.09855,189.79083c0,-0.03141 0.0691,0.00628 0.21986,0.12564c0.4837,0.38005 0.87317,0.92029 1.17156,1.62385c0.11936,0.28268 0.33608,0.98939 0.38005,1.24066c0.00942,0.05025 0.03141,0.16647 0.04711,0.25442c0.0157,0.08795 0.04083,0.30153 0.05339,0.47742c0.0157,0.21986 0.03141,0.31095 0.05654,0.29839c0.01885,-0.01256 0.01257,0.00628 -0.01256,0.03769c-0.03455,0.04397 -0.03455,0.05339 -0.00314,0.03455c0.03455,-0.02198 0.03769,0.05339 0.02199,0.47114c-0.01256,0.2764 -0.02827,0.55594 -0.03455,0.62504c-0.00628,0.0691 -0.02199,0.28896 -0.03141,0.48684c-0.02827,0.55908 -0.1225,1.68353 -0.15705,1.85314c-0.00942,0.04397 -0.02513,0.13506 -0.03455,0.20416c-0.02199,0.1382 -0.03455,0.16333 -0.06596,0.12878c-0.01885,-0.01885 0.05339,-1.16214 0.10051,-1.5736c0.00942,-0.08166 -0.00628,-0.05025 -0.04083,0.08481c-0.02827,0.11621 -0.06282,0.21986 -0.07852,0.23243c-0.03141,0.03455 -0.02827,-0.01884 0.02513,-0.26698c0.02513,-0.11936 0.05968,-0.34864 0.07852,-0.51197c0.01884,-0.16018 0.04083,-0.34236 0.05025,-0.40204c0.03141,-0.21986 0.03769,-1.34117 0.01256,-1.61757c-0.10365,-1.05221 -0.48684,-2.18922 -0.97682,-2.91791c-0.09423,-0.1382 -0.30781,-0.39261 -0.47742,-0.56537c-0.16647,-0.17275 -0.30467,-0.32037 -0.30467,-0.32351zM384.83547,195.84966c0.00942,0.02513 0.01884,0.01571 0.01884,-0.01884c0.00314,-0.03455 -0.00628,-0.05339 -0.0157,-0.04083c-0.00942,0.00942 -0.01256,0.03769 -0.00314,0.05968z"/><path d="M380.3471,196.87046c-0.03141,0.12564 -0.04397,0.12878 -0.04397,0.0157c0,-0.05654 0.01571,-0.10051 0.03141,-0.10051c0.01884,0 0.02512,0.03455 0.01256,0.08481z"/></g></g></svg>