<svg version="1.1" xmlns="http://www.w3.org/2000/svg" xmlns:xlink="http://www.w3.org/1999/xlink" width="20.79489" height="26.13692" viewBox="0,0,20.79489,26.13692"><g transform="translate(-229.60256,-166.93154)"><g data-paper-data="{&quot;isPaintingLayer&quot;:true}" fill-rule="nonzero" stroke="none" stroke-width="1" stroke-linecap="butt" stroke-linejoin="miter" stroke-miterlimit="10" stroke-dasharray="" stroke-dashoffset="0" style="mix-blend-mode: normal"><g><path d="M237.98317,192.69139c-0.86156,-0.23497 -1.72312,-0.66575 -1.8406,-0.97904c-0.11749,-0.31329 -0.03916,-2.85881 0.19581,-5.67846l0.43078,-5.09103l-2.34971,-2.85881c-1.29234,-1.56647 -2.93713,-3.75953 -3.60288,-4.93438l-1.21401,-2.07557l2.07557,-2.11474c2.93713,-2.9763 3.32875,-2.89797 6.03091,1.72312c2.54552,4.30779 2.19306,4.34696 4.93438,-0.54827c1.17486,-2.1539 1.76228,-2.85881 2.38887,-2.85881c0.90072,0 5.36516,4.38612 5.36516,5.24768c0,0.27413 -1.56647,2.07557 -3.44623,3.9945l-3.44624,3.4854l0.27413,3.13294c0.15665,1.72312 0.3133,4.46444 0.3133,6.10923c0.03916,2.81965 0,2.9763 -0.93988,3.40707c-1.17486,0.54827 -2.81965,0.54827 -5.16936,0.03916z" fill="#000000"/><path d="M239.66713,190.49833l-1.09653,-0.19581l0.27414,-5.13019l0.27413,-5.16935l-1.09653,-1.17485c-0.58743,-0.66575 -2.19306,-2.34971 -3.52456,-3.83785c-1.37066,-1.44899 -2.50635,-2.85881 -2.50635,-3.13294c0,-0.46994 2.27138,-2.07557 2.50635,-1.76228c0.07832,0.03916 1.05736,1.64479 2.19306,3.56372c2.19306,3.6812 3.05462,4.46444 3.9945,3.68121c0.31329,-0.27413 1.44898,-1.91893 2.50635,-3.68121c1.05737,-1.80144 1.99725,-3.25043 2.1539,-3.25043c0.11749,0 0.66575,0.5091 1.25317,1.09653l1.05737,1.09653l-3.28959,3.32875l-3.32875,3.28959l0.35245,3.91618c0.5091,5.63929 0.46994,7.63654 -0.07832,7.59738c-0.27413,-0.03916 -1.0182,-0.15665 -1.64479,-0.23497z" fill="#f9f9f9"/></g></g></g></svg>