<svg version="1.1" xmlns="http://www.w3.org/2000/svg" xmlns:xlink="http://www.w3.org/1999/xlink" width="19.83389" height="21.06025" viewBox="0,0,19.83389,21.06025"><g transform="translate(-230.08305,-169.46987)"><g data-paper-data="{&quot;isPaintingLayer&quot;:true}" fill="#000000" fill-rule="nonzero" stroke="none" stroke-width="1" stroke-linecap="butt" stroke-linejoin="miter" stroke-miterlimit="10" stroke-dasharray="" stroke-dashoffset="0" style="mix-blend-mode: normal"><path d="M236.59408,189.94187c-2.38887,-0.74407 -5.48264,-3.72037 -6.07007,-5.87427c-0.70491,-2.50635 -0.54827,-6.34421 0.35245,-8.14565c1.01821,-2.11474 3.75953,-4.89522 5.67846,-5.75678c2.89797,-1.3315 7.24493,-0.70491 10.45619,1.48815c2.85881,1.91893 3.79869,7.75403 1.95809,11.55272c-0.78323,1.56647 -1.17486,1.91893 -2.42803,2.27138c-1.95809,0.5091 -3.1721,0.23497 -4.58192,-1.21401c-1.05737,-1.01821 -1.29234,-1.05737 -2.34971,-0.66575c-1.52731,0.58743 -3.36791,-0.11749 -3.9945,-1.48815c-1.09653,-2.38887 -0.15665,-6.1484 1.8406,-7.28409c1.6448,-0.97904 2.19306,-0.90072 3.79869,0.5091c1.01821,0.90072 1.37067,1.52731 1.37067,2.46719c0,1.68395 1.56647,4.34696 2.54551,4.34696c0.58743,0 0.93989,-0.43078 1.29234,-1.64479c0.46994,-1.48815 0.46994,-1.91893 -0.19581,-3.91618l-0.74407,-2.27138l-2.74133,-0.93988c-3.36791,-1.17486 -4.19031,-1.01821 -6.89247,1.48814l-2.07558,1.91893l-0.11749,3.13294l-0.15664,3.13294l1.64479,1.80144c2.1539,2.31054 3.52456,2.74132 7.75403,2.38887l3.36791,-0.27414l-0.62659,0.90072c-0.90072,1.37066 -3.6812,2.70216 -5.56097,2.663c-0.90072,0 -2.46719,-0.27414 -3.52456,-0.58743zM239.1396,179.48568c-0.03916,-0.15665 -0.03916,-0.62659 -0.03916,-1.09653c0,-0.43078 -0.15664,-0.66575 -0.39162,-0.54827c-0.54827,0.31329 -0.5091,2.27139 0.03916,2.07558c0.23497,-0.07832 0.39162,-0.27413 0.39162,-0.43078z"/></g></g></svg>