<svg version="1.1" xmlns="http://www.w3.org/2000/svg" xmlns:xlink="http://www.w3.org/1999/xlink" width="16.05631" height="24.90174" viewBox="0,0,16.05631,24.90174"><g transform="translate(-231.97184,-167.54913)"><g data-paper-data="{&quot;isPaintingLayer&quot;:true}" fill-rule="nonzero" stroke="none" stroke-width="1" stroke-linecap="butt" stroke-linejoin="miter" stroke-miterlimit="10" stroke-dasharray="" stroke-dashoffset="0" style="mix-blend-mode: normal"><g><path d="M232.63759,191.86928c-0.58743,-0.62659 -0.66575,-1.72312 -0.66575,-8.53727c0,-4.26863 0.11748,-9.47715 0.27413,-11.51356l0.31329,-3.72037l6.57918,-0.31329c8.77224,-0.46994 8.4981,-0.54827 8.4981,2.81965c0,3.52456 -0.27414,3.72037 -4.97355,3.87702c-3.25043,0.15665 -3.64204,0.23497 -3.64204,0.86156c0,0.66575 0.23497,0.70491 1.87976,0.54827c2.50635,-0.31329 3.05462,0.23497 3.36791,3.25043c0.23497,2.78048 0.11749,2.93713 -2.78048,3.44624c-2.70216,0.43078 -1.91893,0.78323 1.80144,0.78323c4.58192,0.03916 4.73857,0.19581 4.73857,4.30779c0,2.11474 -0.15665,3.36792 -0.46994,3.64205c-0.27413,0.19581 -3.25043,0.5091 -6.57918,0.66575c-3.32875,0.11749 -6.42253,0.35246 -6.85331,0.43078c-0.5091,0.11749 -1.09653,-0.07832 -1.48815,-0.54827z" fill="#000000"/><path d="M234.12575,189.08879c-0.27413,-1.29234 -0.46994,-18.28854 -0.19581,-18.56267c0.11749,-0.11749 2.70216,-0.31329 5.79594,-0.46994l5.56097,-0.27413v1.13569v1.17486l-3.75953,0.27413c-2.07558,0.15665 -3.95534,0.35245 -4.11199,0.46994c-0.19581,0.11749 -0.35245,1.3315 -0.35245,2.663c0,3.09378 0.43078,3.56372 2.78048,3.01545c2.38887,-0.54827 2.38887,-0.54826 2.23222,0.66575c-0.07832,0.86156 -0.35245,1.09653 -1.29234,1.17486c-0.62659,0.07832 -1.64479,0.31329 -2.23222,0.54827c-0.97904,0.35245 -1.09653,0.62658 -1.09653,2.11473c0,2.19306 1.13569,3.4854 2.663,3.13294c0.58743,-0.15665 2.07558,-0.35245 3.32875,-0.5091l2.23222,-0.23497v1.99725v1.99725l-2.03641,0.19581c-1.13569,0.11749 -3.6812,0.27414 -5.67846,0.39162l-3.60288,0.19581z" fill="#f9f9f9"/></g></g></g></svg>