<svg version="1.1" xmlns="http://www.w3.org/2000/svg" xmlns:xlink="http://www.w3.org/1999/xlink" width="5.78477" height="24.45038" viewBox="0,0,5.78477,24.45038"><g transform="translate(-237.10761,-167.77481)"><g data-paper-data="{&quot;isPaintingLayer&quot;:true}" fill="#000000" fill-rule="nonzero" stroke="none" stroke-width="1" stroke-linecap="butt" stroke-linejoin="miter" stroke-miterlimit="10" stroke-dasharray="" stroke-dashoffset="0" style="mix-blend-mode: normal"><path d="M238.94682,192.18428c-2.07558,-0.31329 -2.54552,-3.60288 -0.62659,-4.46444c2.11474,-0.97904 4.30779,0.97904 3.36791,2.9763c-0.5091,1.17486 -1.52731,1.68396 -2.74132,1.48815z"/><path d="M238.71185,184.58689c-0.11749,-0.5091 -0.35245,-3.9945 -0.46994,-7.79319c-0.23497,-6.1484 -0.19581,-6.9708 0.43078,-7.91068c0.90072,-1.40982 3.05462,-1.48815 3.87702,-0.15665c0.66575,1.05737 0.35245,4.30779 -0.86156,8.34146c-0.46994,1.48815 -1.01821,3.6812 -1.25318,4.85606c-0.66575,3.09378 -0.78323,3.52456 -1.17485,3.52456c-0.15665,0 -0.39162,-0.39162 -0.54827,-0.86156z"/></g></g></svg>