<svg version="1.1" xmlns="http://www.w3.org/2000/svg" xmlns:xlink="http://www.w3.org/1999/xlink" width="15.16113" height="18.40603" viewBox="0,0,15.16113,18.40603"><g transform="translate(-232.41943,-170.79698)"><g data-paper-data="{&quot;isPaintingLayer&quot;:true}" fill="#000000" fill-rule="nonzero" stroke="none" stroke-width="1" stroke-linecap="butt" stroke-linejoin="miter" stroke-miterlimit="10" stroke-dasharray="" stroke-dashoffset="0" style="mix-blend-mode: normal"><path d="M237.59432,188.41979c-0.58743,-0.66575 -0.66575,-1.21401 -0.43078,-3.79869c0.31329,-3.56372 0.78323,-5.24768 2.07557,-7.24493c0.46994,-0.8224 0.90072,-1.52731 0.90072,-1.56647c0,-0.07832 -1.48815,-0.11749 -3.32875,-0.15665c-3.52456,0 -3.91618,-0.15664 -4.30779,-1.72312c-0.54827,-2.31054 1.52731,-3.09378 8.14565,-3.13294c4.62109,0 6.93163,0.62659 6.93163,1.84061c0,0.39162 -0.66575,1.3315 -1.48815,2.11473c-0.8224,0.78323 -2.07557,2.42803 -2.78048,3.68121c-1.3315,2.31054 -2.58468,7.08827 -2.1539,8.1848c0.35245,0.93988 -0.90072,2.58468 -1.95808,2.58468c-0.46994,0 -1.21402,-0.35245 -1.60563,-0.78323z"/></g></g></svg>