<svg version="1.1" xmlns="http://www.w3.org/2000/svg" xmlns:xlink="http://www.w3.org/1999/xlink" width="12.95567" height="21.1481" viewBox="0,0,12.95567,21.1481"><g transform="translate(-233.52217,-169.42595)"><g data-paper-data="{&quot;isPaintingLayer&quot;:true}" fill="#000000" fill-rule="nonzero" stroke="none" stroke-width="1" stroke-linecap="butt" stroke-linejoin="miter" stroke-miterlimit="10" stroke-dasharray="" stroke-dashoffset="0" style="mix-blend-mode: normal"><path d="M236.22725,189.82998c-4.26863,-1.95809 -3.21127,-5.8351 1.25317,-4.66025c2.27138,0.62659 3.91618,0.11748 3.91618,-1.21402c0,-0.5091 -0.27414,-1.05736 -0.58743,-1.21401c-2.89797,-1.3315 -2.93713,-1.37066 -3.05462,-2.85881c-0.07832,-0.78323 0.03916,-1.44899 0.23497,-1.44899c0.70491,0 3.60288,-2.81965 3.60288,-3.52456c0,-1.48815 -1.76227,-1.13569 -4.38611,0.90072c-1.8406,1.44899 -2.663,1.21402 -2.663,-0.78323c0,-1.80144 1.48815,-4.15115 3.13294,-5.01271c1.76228,-0.90072 4.97354,-0.74407 6.54001,0.3133c2.31054,1.56647 2.9763,5.16935 1.40982,7.75403c-0.78323,1.29234 -0.78324,1.37066 -0.07832,2.89797c1.29234,2.81965 0.8224,5.13019 -1.48815,7.32325c-1.3315,1.25317 -3.60288,2.27138 -5.09103,2.27138c-0.58743,0 -1.8406,-0.35245 -2.74132,-0.74407z"/></g></g></svg>