<svg version="1.1" xmlns="http://www.w3.org/2000/svg" xmlns:xlink="http://www.w3.org/1999/xlink" width="16.48375" height="24.94605" viewBox="0,0,16.48375,24.94605"><g transform="translate(-231.75812,-167.52697)"><g data-paper-data="{&quot;isPaintingLayer&quot;:true}" fill-rule="nonzero" stroke="none" stroke-width="1" stroke-linecap="butt" stroke-linejoin="miter" stroke-miterlimit="10" stroke-dasharray="" stroke-dashoffset="0" style="mix-blend-mode: normal"><g><path d="M241.82748,192.31637c-0.97904,-0.27413 -1.44899,-1.72312 -1.44899,-4.66025v-2.50635h-1.40982h-1.44899l0.23497,2.85881c0.27413,3.75953 0,4.19031 -2.663,4.19031c-3.60288,0 -3.32875,1.05737 -3.32875,-12.33595v-11.82686l1.21401,-0.27413c0.66575,-0.11749 2.07558,-0.23497 3.09378,-0.23497c2.07558,0 2.34971,0.35245 2.34971,3.36791c0,3.36791 0.43078,5.24768 1.21401,5.24768c0.66575,0 0.74408,-0.35245 0.74408,-3.87701v-3.83785l2.70216,-0.27414c3.79869,-0.39162 4.58193,-0.11748 4.93438,1.6448c0.39162,1.91893 0.23497,19.9725 -0.15665,21.46065c-0.27413,1.09653 -0.39162,1.13569 -2.81965,1.21401c-1.37066,0 -2.81965,-0.03916 -3.21126,-0.15664z" fill="#000000"/><path d="M242.68904,187.61696c-0.03916,-1.48815 -0.15665,-3.09378 -0.3133,-3.64205c-0.27413,-0.93988 -0.35245,-0.97904 -3.21126,-0.86156c-1.60563,0.07832 -3.05461,0.31329 -3.25043,0.5091c-0.19581,0.19581 -0.35245,1.64479 -0.31329,3.28959c0.07832,2.70216 0.03916,2.93713 -0.66575,2.93713c-1.05737,0 -1.17485,-0.86156 -1.3315,-11.23943l-0.11749,-8.73307h1.25317h1.21402l0.27413,3.83785c0.15665,2.11474 0.43078,4.07282 0.62659,4.34695c0.23497,0.39162 0.93988,0.50911 2.663,0.3133c1.29234,-0.11749 2.54552,-0.31329 2.78049,-0.46994c0.27413,-0.11749 0.43078,-1.68395 0.43078,-3.75953v-3.4854h1.8406h1.80144l-0.23497,6.18756c-0.15665,3.36791 -0.27414,7.79319 -0.27414,9.79044v3.60288h-1.56647h-1.56647z" fill="#f9f9f9"/></g></g></g></svg>