<svg version="1.1" xmlns="http://www.w3.org/2000/svg" xmlns:xlink="http://www.w3.org/1999/xlink" width="14.04768" height="19.54807" viewBox="0,0,14.04768,19.54807"><g transform="translate(-232.97616,-170.22597)"><g data-paper-data="{&quot;isPaintingLayer&quot;:true}" fill="#000000" fill-rule="nonzero" stroke="none" stroke-width="1" stroke-linecap="butt" stroke-linejoin="miter" stroke-miterlimit="10" stroke-dasharray="" stroke-dashoffset="0" style="mix-blend-mode: normal"><path d="M233.87687,189.39382c-0.27413,-0.27413 -0.5091,-1.3315 -0.5091,-2.31054c0,-1.99725 0.35245,-2.58468 2.34971,-3.91618c3.83785,-2.54552 5.91343,-5.95259 4.73858,-7.79319c-0.58743,-0.93988 -2.1539,-0.15665 -3.72037,1.91893c-0.8224,1.05737 -1.72312,1.95809 -2.03641,1.95809c-0.58743,0 -1.72312,-1.91893 -1.72312,-2.89797c0,-1.6448 1.3315,-3.79869 3.05462,-4.93438c4.38612,-2.89797 9.47715,-0.23497 9.47715,4.97355c0,2.23222 -1.40982,5.75678 -2.78048,7.00995c-1.13569,1.01821 -0.90072,1.3315 0.8224,1.3315c1.17486,0 1.8406,0.27413 2.54552,0.97904c1.17486,1.13569 1.21401,1.76228 0.23497,2.97629c-0.70491,0.90072 -1.0182,0.93988 -6.38336,1.05737c-4.11198,0.07832 -5.71762,0 -6.07008,-0.35245z"/></g></g></svg>