<svg version="1.1" xmlns="http://www.w3.org/2000/svg" xmlns:xlink="http://www.w3.org/1999/xlink" width="10.97864" height="10.41623" viewBox="0,0,10.97864,10.41623"><g transform="translate(-234.84401,-161.12522)"><g data-paper-data="{&quot;isPaintingLayer&quot;:true}" fill="#000000" fill-rule="nonzero" stroke="none" stroke-width="1" stroke-linecap="butt" stroke-linejoin="miter" stroke-miterlimit="10" stroke-dasharray="" stroke-dashoffset="0" style="mix-blend-mode: normal"><g><path d="M235.23034,169.93824c0.87816,-0.94815 0.99444,-2.97557 0.28271,-4.91583c-0.31065,-0.87488 -0.40628,-1.92426 -0.25511,-2.31802c0.82185,-1.69421 3.43992,-1.35115 4.26233,0.58488c0.79368,1.90941 -0.50196,4.97967 -2.94899,6.93014c-1.26343,1.01833 -2.32554,0.78191 -1.34095,-0.28116z"/><path d="M239.715,171.26282c-0.00848,-0.22137 0.33109,-0.76091 0.75686,-1.22062c1.25071,-1.35039 1.76192,-3.91948 1.11401,-5.64049c-0.52237,-1.33787 -0.50637,-1.64331 0.31857,-2.534c0.77171,-0.83322 1.10165,-0.90128 1.97536,-0.51909c1.35155,0.55787 2.09953,1.99793 1.91518,3.69542c-0.18435,1.69749 -3.78009,6.21377 -5.1839,6.46155c-0.46723,0.10104 -0.8876,-0.02141 -0.89609,-0.24278z"/></g></g></g></svg>