<svg version="1.1" xmlns="http://www.w3.org/2000/svg" xmlns:xlink="http://www.w3.org/1999/xlink" width="17.39732" height="19.54174" viewBox="0,0,17.39732,19.54174"><g transform="translate(-231.30134,-170.22913)"><g data-paper-data="{&quot;isPaintingLayer&quot;:true}" fill="#000000" fill-rule="nonzero" stroke="none" stroke-width="1" stroke-linecap="butt" stroke-linejoin="miter" stroke-miterlimit="10" stroke-dasharray="" stroke-dashoffset="0" style="mix-blend-mode: normal"><path d="M242.74732,189.41841c-1.29234,-0.5091 -1.76228,-1.76228 -1.44899,-3.75953c0.46994,-3.25043 3.95534,-4.46444 6.1484,-2.19306c1.99725,2.07558 1.17485,5.16936 -1.60563,5.95259c-1.68395,0.46994 -1.95809,0.46994 -3.09378,0zM245.48864,186.44211c0.35245,-0.39162 -0.15665,-1.3315 -0.70491,-1.3315c-0.66575,0 -1.09653,0.66575 -0.78323,1.17485c0.27413,0.43078 1.09653,0.5091 1.48815,0.15665z"/><path d="M232.72191,189.14427c-0.90072,-0.90072 0.78324,-3.75953 5.99175,-10.10374c1.40982,-1.72312 3.05461,-3.91617 3.6812,-4.89522c1.8406,-2.93713 2.9763,-3.91618 4.42528,-3.91618c1.60563,0 2.31054,1.05737 1.60563,2.50635c-0.23497,0.54827 -0.58742,1.01821 -0.74407,1.01821c-0.15665,0 -1.13569,1.09653 -2.15389,2.46719c-1.01821,1.3315 -2.34971,2.9763 -2.93713,3.60288c-0.58743,0.66575 -1.87976,2.15389 -2.89797,3.32875c-4.38612,5.20851 -5.40432,6.26588 -6.03091,6.26588c-0.39162,0 -0.8224,-0.11749 -0.93988,-0.27414z"/><path d="M232.25197,177.47407c-1.09653,-1.05737 -1.21402,-2.27139 -0.5091,-4.58193c0.35245,-1.17486 0.74408,-1.64479 1.80144,-2.11473c1.48815,-0.62659 2.46719,-0.46995 4.11198,0.70491c0.86156,0.62659 1.05737,1.05737 1.05737,2.38887c0,1.99725 -0.8224,3.28959 -2.58468,4.03366c-1.87976,0.78323 -2.78048,0.66575 -3.87702,-0.43078zM235.73736,174.65442c0.27413,-0.66575 -0.43078,-1.37067 -1.13569,-1.17486c-0.19581,0.07832 -0.43078,0.5091 -0.5091,0.97904c-0.11749,0.62659 0.07832,0.86156 0.62659,0.86156c0.43078,0 0.90072,-0.31329 1.01821,-0.66575z"/></g></g></svg>