<svg version="1.1" xmlns="http://www.w3.org/2000/svg" xmlns:xlink="http://www.w3.org/1999/xlink" width="20.877" height="23.88869" viewBox="0,0,20.877,23.88869"><g transform="translate(-229.5615,-168.05565)"><g data-paper-data="{&quot;isPaintingLayer&quot;:true}" fill-rule="nonzero" stroke="none" stroke-width="1" stroke-linecap="butt" stroke-linejoin="miter" stroke-miterlimit="10" stroke-dasharray="" stroke-dashoffset="0" style="mix-blend-mode: normal"><g><path d="M243.26812,187.75403l-1.29234,-4.22947l-0.74408,2.27138c-0.62659,1.8406 -0.93988,2.23222 -1.64479,2.23222c-0.74407,0 -1.01821,-0.39162 -1.60563,-2.34971c-0.39162,-1.29234 -0.8224,-2.34971 -0.93988,-2.34971c-0.15665,0 -0.62659,1.68395 -1.01821,3.79869c-0.46994,2.23222 -1.01821,3.91618 -1.37066,4.11199c-0.39162,0.27413 -1.3315,0.11749 -2.81965,-0.46994l-2.27138,-0.8224v-1.95808c0,-2.46719 0.97904,-9.08553 1.91893,-12.88422c0.43078,-1.60563 0.86156,-3.75953 1.01821,-4.77774c0.27413,-2.11474 0.54827,-2.27138 3.72037,-2.27138h2.27138l0.23497,1.48815c0.62659,3.64204 0.70491,3.87702 1.05736,3.01546c0.15665,-0.43078 0.3133,-1.3315 0.3133,-1.99725c0.03916,-1.6448 0.54826,-1.99725 3.60288,-2.31054c1.99725,-0.19581 2.70216,-0.15665 2.93713,0.23497c0.19581,0.31329 1.17485,4.77774 2.23222,9.94709c1.37066,6.93163 1.76228,9.63379 1.48815,10.22122c-0.27413,0.66575 -4.85606,3.28959 -5.63929,3.28959c-0.07832,0 -0.70491,-1.87976 -1.44899,-4.19031z" fill="#000000"/><path d="M231.7154,188.38061c-0.31329,-0.46994 0.3133,-5.326 1.6448,-12.53177l0.97904,-5.36516l1.40982,-0.23497c0.78323,-0.11749 1.56647,-0.07833 1.72312,0.07832c0.15665,0.15665 0.50911,1.68396 0.78324,3.36791c0.27413,1.72312 0.70491,3.17211 0.93988,3.25043c0.27413,0.07832 0.97904,-1.17486 1.64479,-2.89797l1.13569,-3.05462l1.60563,-0.11749l1.56647,-0.11749l0.46994,2.85881c0.5091,3.21126 2.27139,12.29679 2.58468,13.27584c0.15665,0.62659 -1.6448,2.19306 -2.03641,1.80144c-0.11749,-0.11749 -0.8224,-2.31054 -1.52731,-4.93438c-1.52731,-5.48265 -1.56647,-5.52181 -2.54551,-5.52181c-0.90072,0 -1.29234,0.70491 -1.95809,3.52456l-0.5091,2.15389l-0.35246,-1.37066c-0.74407,-3.01546 -1.56647,-4.69941 -2.27138,-4.69941c-0.90072,0 -1.40982,0.66575 -1.68395,2.15389c-0.11749,0.66575 -0.5091,2.89797 -0.90072,5.01271c-0.62659,3.4854 -0.74408,3.79869 -1.56647,3.79869c-0.5091,0 -1.01821,-0.19581 -1.13569,-0.43078z" fill="#f9f9f9"/></g></g></g></svg>