<svg version="1.1" xmlns="http://www.w3.org/2000/svg" xmlns:xlink="http://www.w3.org/1999/xlink" width="15.49494" height="19.85134" viewBox="0,0,15.49494,19.85134"><g transform="translate(-232.25253,-170.07433)"><g data-paper-data="{&quot;isPaintingLayer&quot;:true}" fill="#000000" fill-rule="nonzero" stroke="none" stroke-width="1" stroke-linecap="butt" stroke-linejoin="miter" stroke-miterlimit="10" stroke-dasharray="" stroke-dashoffset="0" style="mix-blend-mode: normal"><path d="M235.26172,189.43309c-1.87976,-0.86156 -2.74132,-1.72312 -2.74132,-2.78048c0,-1.37066 1.09653,-1.72312 4.77774,-1.44899c2.81965,0.19581 3.52456,0.11749 4.58192,-0.5091c1.48815,-0.90072 1.56647,-1.91893 0.15665,-2.663c-0.8224,-0.39162 -2.03641,-0.46994 -4.69941,-0.35245c-4.22947,0.27413 -4.03366,0.46994 -4.8169,-4.93438c-0.8224,-5.40432 -0.11749,-6.03091 7.40157,-6.57918c3.72037,-0.23497 5.13019,-0.03916 6.03091,0.86156c1.52731,1.52731 -1.25318,3.25043 -6.85331,4.19031c-1.99725,0.35245 -2.62384,0.62659 -2.46719,1.01821c0.11749,0.27413 0.19581,0.70491 0.19581,0.90072c0,0.19581 1.29234,0.35245 2.85881,0.35245c6.42253,0 9.8296,4.22947 7.12744,8.85056c-1.48815,2.50635 -3.21126,3.40707 -7.00995,3.56372c-2.27138,0.07832 -3.56372,-0.03916 -4.54277,-0.46994z"/></g></g></svg>