<svg version="1.1" xmlns="http://www.w3.org/2000/svg" xmlns:xlink="http://www.w3.org/1999/xlink" width="314.09064" height="164.6798" viewBox="0,0,314.09064,164.6798"><g transform="translate(-162.95468,-97.6601)"><g data-paper-data="{&quot;isPaintingLayer&quot;:true}" fill="none" fill-rule="nonzero" stroke="#589200" stroke-width="3" stroke-linejoin="miter" stroke-miterlimit="10" stroke-dasharray="" stroke-dashoffset="0" style="mix-blend-mode: normal"><path d="M166.11032,258.44731v-159.28721h309.435v159.28722z" stroke-linecap="butt"/><path d="M180.5318,103.04v157.55532" stroke-linecap="round"/><path d="M473.36279,119.15493h-11.50798h-296.60004" stroke-linecap="round"/><path d="M198.28999,103.04v157.55532" stroke-linecap="round"/><path d="M215.83552,103.04v157.55532" stroke-linecap="round"/><path d="M233.38106,103.04v157.55532" stroke-linecap="round"/><path d="M249.75689,260.59531v-157.55532" stroke-linecap="round"/><path d="M265.96258,260.58469v-157.55532" stroke-linecap="round"/><path d="M281.53023,260.58468v-157.55532" stroke-linecap="round"/><path d="M296.84269,260.58468v-157.55532" stroke-linecap="round"/><path d="M311.51714,103.02937v157.55532" stroke-linecap="round"/><path d="M326.4468,103.02937v157.55532" stroke-linecap="round"/><path d="M341.12125,103.02937v157.55532" stroke-linecap="round"/><path d="M355.79569,260.45709v-157.55532" stroke-linecap="round"/><path d="M370.59774,260.58469v-157.55532" stroke-linecap="round"/><path d="M385.655,103.02937v157.55532" stroke-linecap="round"/><path d="M400.45705,103.02937v157.55532" stroke-linecap="round"/><path d="M415.25909,103.15697v157.55532" stroke-linecap="round"/><path d="M429.93354,103.15697v157.55532" stroke-linecap="round"/><path d="M444.73557,260.8399v-157.55532" stroke-linecap="round"/><path d="M461.32407,260.58468v-157.55532" stroke-linecap="round"/><path d="M473.1337,135.67983h-11.50798h-296.60004" stroke-linecap="round"/><path d="M164.45468,151.86282h296.60004h11.50798" stroke-linecap="round"/><path d="M473.01745,167.70389h-11.50797h-296.60005" stroke-linecap="round"/><path d="M164.68034,183.54496h296.60004h11.50798" stroke-linecap="round"/><path d="M164.79318,198.01835h296.60004h11.50798" stroke-linecap="round"/><path d="M473.01403,213.17559h-11.50798h-296.60005" stroke-linecap="round"/><path d="M473.12687,228.33282h-11.50797h-296.60005" stroke-linecap="round"/><path d="M472.8978,242.12238h-11.50798h-296.60005" stroke-linecap="round"/><path d="M164.56068,254.88618h296.60005h11.50798" stroke-linecap="round"/></g></g></svg>