<svg version="1.1" xmlns="http://www.w3.org/2000/svg" xmlns:xlink="http://www.w3.org/1999/xlink" width="15.44449" height="25.04533" viewBox="0,0,15.44449,25.04533"><g transform="translate(-315.65275,-165.55354)"><g data-paper-data="{&quot;isPaintingLayer&quot;:true}" fill="#ffffff" fill-rule="nonzero" stroke="#000000" stroke-width="1" stroke-linecap="butt" stroke-linejoin="miter" stroke-miterlimit="10" stroke-dasharray="" stroke-dashoffset="0" style="mix-blend-mode: normal"><path d="M320.60683,190.09887c-1.09653,-0.74407 -1.17486,-2.89797 -0.15665,-3.79869c1.09653,-1.01821 3.7987,-0.86156 4.54277,0.19581c0.86156,1.25317 0.78324,2.1539 -0.35245,3.25043c-1.09653,1.13569 -2.74133,1.25317 -4.03366,0.35245z"/><path d="M321.89916,182.93227c-0.11749,-0.23497 -0.35245,-1.29234 -0.46994,-2.34971l-0.23497,-1.95809l2.42803,-2.31054c1.91893,-1.8406 2.38887,-2.54552 2.38887,-3.52456c0,-1.01821 -0.19581,-1.25318 -1.40982,-1.6448c-1.21401,-0.43078 -1.52731,-0.39162 -2.38887,0.23497c-0.54827,0.43078 -1.21402,1.40982 -1.48815,2.19306c-1.13569,3.40707 -3.09378,4.58193 -4.03366,2.46719c-1.37066,-2.9763 -0.03916,-6.77498 3.05462,-8.85056c1.40982,-0.93988 2.07557,-1.13569 4.07282,-1.13569c4.34696,0 7.1666,2.46719 6.73582,5.8351c-0.31329,2.38887 -1.3315,3.91618 -3.36791,5.326c-3.6812,2.50635 -3.60288,2.34971 -3.64204,4.15115c-0.07832,1.25317 -0.27414,1.76228 -0.74408,1.8406c-0.35245,0.07832 -0.74407,-0.07832 -0.90072,-0.27413z"/></g></g></svg>