<svg version="1.1" xmlns="http://www.w3.org/2000/svg" xmlns:xlink="http://www.w3.org/1999/xlink" width="29.75148" height="34.02946" viewBox="0,0,29.75148,34.02946"><g transform="translate(-365.9876,-169.28649)"><g data-paper-data="{&quot;isPaintingLayer&quot;:true}" fill="#000000" fill-rule="nonzero" stroke="none" stroke-width="1" stroke-linecap="butt" stroke-linejoin="miter" stroke-miterlimit="10" stroke-dasharray="" stroke-dashoffset="0" style="mix-blend-mode: normal"><path d="M378.34698,169.32096c0.19932,0.1239 0.8727,0.78112 1.17168,1.15014c0.02424,0.02963 0.11582,0.13468 0.20201,0.23972c0.32861,0.38517 0.63029,0.80267 0.84577,1.17168c0.06464,0.11043 0.14006,0.23434 0.167,0.27474c0.02963,0.0404 0.05118,0.08081 0.05118,0.09158c0,0.01077 0.05926,0.13468 0.12929,0.27743c0.25319,0.50638 0.35554,0.86193 0.35554,1.2498c0,0.21279 -0.05387,0.38248 -0.22895,0.72995c-0.13468,0.26397 -0.14276,0.2909 -0.08888,0.27474c0.03502,-0.00808 0.10774,-0.02424 0.16161,-0.03232c0.05656,-0.01077 0.09697,-0.02424 0.09158,-0.03502c-0.01885,-0.02963 0.69493,-0.01347 0.81075,0.02155c0.06195,0.01616 0.14814,0.05926 0.18855,0.09158c0.0404,0.03502 0.15892,0.09697 0.26397,0.14006c0.45521,0.18585 1.30905,0.64375 1.69153,0.90772c0.70301,0.48484 1.14744,0.88617 1.55147,1.40063c0.2909,0.37171 0.49561,0.70301 0.5818,0.93735c0.0404,0.11043 0.12121,0.31245 0.17777,0.44713c0.12929,0.31514 0.31784,0.90772 0.45251,1.43834c0.09427,0.3744 0.12929,0.52793 0.17777,0.79459c0.09697,0.52254 0.09158,1.46797 -0.01347,1.81813c-0.02155,0.07811 -0.01885,0.09966 0.02424,0.14545c0.04579,0.04579 0.08889,0.05118 0.3313,0.04579c0.29898,-0.00539 0.82152,-0.05926 1.23363,-0.12929c0.14006,-0.02155 0.2909,-0.04579 0.33669,-0.04848c0.0431,-0.00539 0.15353,-0.02155 0.24242,-0.0404c0.08889,-0.01616 0.22087,-0.0404 0.29629,-0.05387c0.07273,-0.01347 0.16969,-0.03232 0.21548,-0.0404c0.07273,-0.01347 0.15892,-0.03232 0.24242,-0.05656c0.01347,-0.00269 0.11851,-0.02694 0.22895,-0.05118c0.11043,-0.02155 0.22626,-0.05118 0.25589,-0.06464c0.02963,-0.01347 0.1266,-0.0431 0.21548,-0.06465c0.08889,-0.02155 0.24511,-0.06464 0.35016,-0.09697c0.10235,-0.03232 0.21279,-0.06465 0.24242,-0.07003c0.02963,-0.00539 0.05387,-0.01077 0.05387,-0.01347c0,-0.00269 0.01885,-0.00808 0.0404,-0.01347c0.08889,-0.02424 0.31514,-0.10235 0.39864,-0.14006c0.04848,-0.02155 0.15084,-0.05657 0.22895,-0.08081c0.07811,-0.02155 0.15084,-0.05118 0.167,-0.06195c0.01347,-0.01347 0.15353,-0.07273 0.30976,-0.13468c0.15622,-0.06195 0.30167,-0.1266 0.32322,-0.14545c0.02155,-0.02155 0.07273,-0.0431 0.11313,-0.05387c0.10774,-0.02424 0.09966,0.04848 -0.01616,0.15622c-0.05118,0.04579 -0.14276,0.18047 -0.20471,0.29898c-0.06195,0.11851 -0.13198,0.23434 -0.15084,0.25858c-0.02155,0.02155 -0.03771,0.05387 -0.03771,0.06734c0,0.0404 -0.31784,0.56833 -0.48484,0.79998c-0.31784,0.44982 -0.4175,0.57103 -0.75419,0.94273c-0.15892,0.17508 -0.67069,0.69224 -0.68415,0.69224c-0.01347,0 -0.21548,0.17508 -0.31784,0.27474c-0.0404,0.0431 -0.0835,0.07542 -0.09427,0.07542c-0.01347,0 -0.03771,0.02424 -0.05656,0.05387c-0.01885,0.02963 -0.04848,0.05387 -0.07003,0.05387c-0.02155,0 -0.0431,0.01885 -0.05387,0.0404c-0.00808,0.02155 -0.02693,0.0404 -0.0431,0.0404c-0.01347,0 -0.09966,0.05656 -0.18585,0.1266c-0.08889,0.07273 -0.2074,0.15353 -0.26397,0.18316c-0.05656,0.02963 -0.12121,0.07542 -0.14545,0.09966c-0.02424,0.02693 -0.05656,0.04848 -0.07542,0.04848c-0.01616,0 -0.02963,0.01077 -0.02963,0.02155c0,0.01347 -0.04848,0.04579 -0.10774,0.07273c-0.05926,0.02693 -0.10774,0.05926 -0.10774,0.07273c0,0.01077 -0.01347,0.02155 -0.02693,0.02155c-0.01616,0 -0.08619,0.0404 -0.15622,0.08889c-0.07003,0.04848 -0.18855,0.11851 -0.26127,0.15353c-0.07542,0.03771 -0.14006,0.07273 -0.14814,0.08081c-0.05387,0.05926 -0.57372,0.32322 -0.63298,0.32322c-0.02155,0 -0.05118,0.02155 -0.06464,0.04579c-0.01616,0.02693 -0.02963,0.0404 -0.02963,0.02963c0,-0.00808 -0.07003,0.01616 -0.15622,0.05656c-0.0835,0.0404 -0.25858,0.11582 -0.38518,0.167l-0.23434,0.08888l0.07542,0.09697c0.07542,0.09158 0.12929,0.18316 0.25858,0.43366c0.06464,0.1239 0.07272,0.12929 0.27474,0.18047c0.21548,0.05656 0.42827,0.09428 0.81345,0.14006c0.23164,0.02963 1.0801,0.03771 1.27942,0.01347c0.48484,-0.05926 0.63029,-0.08081 0.90233,-0.14006c0.16969,-0.03502 0.31514,-0.07003 0.32322,-0.07542c0.01077,-0.00539 0.04579,-0.01616 0.0835,-0.02424c0.38517,-0.07542 1.32791,-0.50638 1.83429,-0.84307c0.47945,-0.31514 1.03431,-0.8323 1.41679,-1.31444c0.09427,-0.11851 0.18855,-0.23703 0.21009,-0.26397c0.05656,-0.07003 0.32592,-0.53871 0.34747,-0.60874c0.01077,-0.03502 0.00539,-0.07542 -0.01616,-0.09966c-0.02963,-0.03502 -0.02693,-0.0404 0.01616,-0.03232c0.0835,0.01347 0.13198,-0.11851 0.09697,-0.26127c-0.02963,-0.11582 -0.01885,-0.20201 0.02693,-0.20201c0.05656,0 0.15623,0.4579 0.19932,0.90772c0.03232,0.34477 0.00808,1.08549 -0.0404,1.27404c-0.01077,0.05118 -0.03232,0.16161 -0.0404,0.24242c-0.03502,0.26935 -0.19394,0.96159 -0.25589,1.11781c-0.01347,0.02963 -0.05926,0.17508 -0.10505,0.32322c-0.11582,0.37709 -0.18047,0.56564 -0.25589,0.72456c-0.29898,0.63567 -0.49291,1.01546 -0.5818,1.14744c-0.05926,0.08889 -0.10774,0.167 -0.10774,0.17777c0,0.01616 -0.06464,0.11582 -0.32861,0.501c-0.07542,0.11043 -0.28282,0.37709 -0.35824,0.46329c-0.01616,0.01616 -0.07003,0.0835 -0.12121,0.15084c-0.14006,0.18316 -0.29898,0.35285 -0.70032,0.75688c-0.31514,0.31514 -0.46059,0.44982 -0.84038,0.77035c-0.0404,0.03232 -0.09697,0.07273 -0.12929,0.08889c-0.05387,0.02963 -0.0431,0.0404 0.16431,0.17777c0.27205,0.18316 0.61143,0.47137 0.91041,0.77573c0.1266,0.1266 0.23703,0.22356 0.2505,0.21548c0.01077,-0.00808 0.02155,0.00539 0.02155,0.02693c0,0.02424 0.01885,0.06465 0.0404,0.08889c0.40403,0.46059 0.84846,1.27673 0.97506,1.79389c0.07273,0.30706 0.15084,0.92119 0.1266,1.00738c-0.02155,0.0835 -0.09158,0.08081 -0.09158,-0.00269c0,-0.04848 -0.03232,-0.08619 -0.12929,-0.14276c-0.26935,-0.16431 -0.98583,-0.49022 -1.44642,-0.65453c-0.07542,-0.02693 -0.23703,-0.08889 -0.36363,-0.13468c-0.35016,-0.1266 -0.52524,-0.18855 -0.5818,-0.20201c-0.02963,-0.00539 -0.1239,-0.03771 -0.21009,-0.06734c-0.08889,-0.02963 -0.16431,-0.05118 -0.167,-0.04579c-0.00539,0.00269 0.05656,0.0404 0.13198,0.08081c0.39595,0.20471 1.25787,1.04778 1.86931,1.82352c0.28013,0.35824 0.39056,0.50638 0.60874,0.82422c0.14276,0.20471 0.26935,0.38517 0.28282,0.40133c0.01885,0.02424 0.2478,0.38787 0.31514,0.50099c0.05118,0.08889 0.31784,0.54948 0.37171,0.64375c0.09158,0.16431 0.44982,0.88078 0.44982,0.90233c0,0.01077 0.02155,0.07003 0.05118,0.13198c0.02693,0.06195 0.08081,0.18047 0.12121,0.26397c0.03771,0.0835 0.07003,0.16161 0.07003,0.17508c0,0.01077 0.03502,0.09158 0.07811,0.17508c0.0431,0.08619 0.08619,0.19124 0.09697,0.23703c0.01077,0.04579 0.05118,0.15892 0.09158,0.2505c0.11313,0.2505 0.39595,1.11781 0.44713,1.35754l0.01885,0.08888h-2.88207h-2.87938v-0.14276c0.00539,-0.2505 -0.03771,-0.72456 -0.09427,-1.05586c-0.02963,-0.17777 -0.05926,-0.36632 -0.06734,-0.4175c-0.00808,-0.05118 -0.03771,-0.18585 -0.06734,-0.29629c-0.02963,-0.11043 -0.05656,-0.23164 -0.06464,-0.26935c-0.02155,-0.11313 -0.28282,-0.89964 -0.30976,-0.92657c-0.01347,-0.01616 -0.02424,-0.0431 -0.02424,-0.06464c0,-0.03771 -0.03771,-0.1266 -0.23972,-0.57911c-0.04579,-0.10235 -0.0835,-0.19124 -0.0835,-0.19663c0,-0.01347 -0.17508,-0.41211 -0.25858,-0.58988c-0.06464,-0.14006 -0.27205,-0.75149 -0.34477,-1.01546c-0.0835,-0.31514 -0.15084,-0.66799 -0.15084,-0.81344l-0.00269,-0.11043l-0.0404,0.09158c-0.05656,0.13468 -0.06734,0.09158 -0.02155,-0.10236c0.02155,-0.09427 0.04579,-0.28551 0.05387,-0.42827c0.01616,-0.32592 0.03232,-0.43096 0.06465,-0.44174c0.08081,-0.02693 0.09427,-1.02085 0.01616,-1.26057c-0.28551,-0.88617 -0.49561,-1.2902 -0.87001,-1.68076c-0.15892,-0.16161 -0.46598,-0.40403 -0.61951,-0.48214c-0.14545,-0.07811 -0.68415,-0.11313 -1.10973,-0.07811c-0.37709,0.03232 -1.2067,0.21817 -1.24441,0.27743c-0.00808,0.01616 -0.02155,0.02694 -0.02693,0.02424c-0.00539,-0.00269 -0.06464,0.02155 -0.13198,0.05118c-0.06734,0.02963 -0.14276,0.05656 -0.167,0.05656c-0.02963,0 -0.08619,0.08619 -0.17239,0.26127c-0.07003,0.14545 -0.15623,0.30976 -0.19394,0.36632c-0.05387,0.0835 -0.06195,0.11313 -0.0404,0.15084c0.02424,0.03771 -0.00808,0.16161 -0.15084,0.58449c-0.09966,0.2936 -0.21548,0.65183 -0.25588,0.7919c-0.0431,0.14006 -0.10505,0.34746 -0.13737,0.4579c-0.07811,0.25589 -0.31784,1.09627 -0.40133,1.4141c-0.03502,0.13198 -0.12121,0.44174 -0.19124,0.68685c-0.07003,0.24511 -0.14276,0.50369 -0.16161,0.57911c-0.01885,0.07273 -0.06464,0.23703 -0.10235,0.36363c-0.07542,0.2478 -0.1239,0.45251 -0.13737,0.57911c-0.00539,0.0431 -0.01885,0.18047 -0.02963,0.29898l-0.02155,0.22087l0.13468,0.26397c0.16969,0.34208 0.27474,0.50099 0.53871,0.8323c0.27474,0.34208 0.54679,0.61412 0.70301,0.7057c0.21279,0.1266 0.74611,0.2478 0.92657,0.21279c0.0431,-0.00808 0.07542,-0.0027 0.07542,0.01077c0,0.0404 0.14276,-0.02424 0.19663,-0.08888c0.11582,-0.14545 0.15892,-0.2909 0.15622,-0.52524c-0.00269,-0.1266 -0.00808,-0.25319 -0.01616,-0.28551c-0.00808,-0.02963 -0.01885,-0.11043 -0.02693,-0.17777c-0.00539,-0.06734 -0.01886,-0.15084 -0.02424,-0.18855c-0.00808,-0.03771 -0.01885,-0.11043 -0.02693,-0.16161c-0.00808,-0.05118 -0.03502,-0.16161 -0.05926,-0.24242c-0.02155,-0.08081 -0.05118,-0.18586 -0.06465,-0.22895c-0.04848,-0.16969 -0.10774,-0.33938 -0.12659,-0.37171c-0.01077,-0.01885 -0.02155,-0.03771 -0.02155,-0.04579c-0.02424,-0.18585 -0.71917,-1.4545 -0.79728,-1.4545c-0.01347,0 -0.05118,-0.0431 -0.0835,-0.09427c-0.03502,-0.05118 -0.07542,-0.09427 -0.09158,-0.09427c-0.01885,0 -0.0404,-0.01885 -0.04848,-0.0431c-0.02693,-0.06734 0.11582,0.04579 0.28821,0.23164l0.15622,0.16431l0.02963,-0.08889c0.0431,-0.1266 0.44713,-0.93196 0.47676,-0.94812c0.03232,-0.02155 0.00539,0.09427 -0.03502,0.14276c-0.02155,0.02963 -0.02155,0.03502 0.00269,0.01885c0.02693,-0.01616 0.03502,0.05926 0.03771,0.33938c0,0.19663 0.00539,0.40133 0.01077,0.45251c0.00539,0.05118 0.01616,0.21548 0.02693,0.36363c0.01616,0.26666 0.03232,0.40941 0.05656,0.56295c0.00808,0.0431 0.05387,0.16431 0.10505,0.26935c0.22087,0.46059 0.34477,0.92388 0.37709,1.42488c0.01347,0.23164 0.09158,0.57911 0.11851,0.53332c0.02424,-0.03771 0.37171,0.26666 0.94543,0.83499c0.54679,0.54409 1.23902,1.30367 1.23902,1.36293c0,0.00539 -3.36152,0.00808 -7.46915,0.00539h-7.46645l-0.15622,-0.20471c-0.22356,-0.28551 -0.43635,-0.6249 -0.58719,-0.92927c-0.07273,-0.14545 -0.13198,-0.26935 -0.13198,-0.28013c0,-0.00808 -0.01616,-0.05387 -0.03771,-0.09966c-0.08081,-0.18585 -0.20471,-0.58449 -0.26127,-0.84038c-0.07273,-0.33938 -0.09966,-1.0828 -0.05118,-1.46258c0.04579,-0.38248 0.05387,-0.43904 0.0835,-0.54409c0.03232,-0.12929 0.03502,-0.12929 -0.06464,-0.15084c-0.04579,-0.00808 -0.12929,-0.0404 -0.18047,-0.06734c-0.05118,-0.02963 -0.10774,-0.05118 -0.1266,-0.05118c-0.03502,0 -0.47136,-0.28821 -0.56025,-0.36901c-0.02963,-0.02693 -0.09697,-0.0835 -0.14814,-0.12659c-0.20471,-0.167 -0.61682,-0.5818 -0.79459,-0.79728c-0.14814,-0.18047 -0.36363,-0.52793 -0.49561,-0.79459c-0.08081,-0.16431 -0.16431,-0.32861 -0.18316,-0.37171c-0.02155,-0.0404 -0.02963,-0.07273 -0.01885,-0.07273c0.00808,0 0.00539,-0.01616 -0.01077,-0.03502c-0.05118,-0.06195 -0.21817,-0.59527 -0.28551,-0.90772c-0.03771,-0.16969 -0.08619,-0.44982 -0.11043,-0.61951c-0.04848,-0.35285 -0.08619,-1.40602 -0.04579,-1.35215c0.01347,0.02155 0.04848,0.02963 0.09158,0.01885c0.06734,-0.01616 0.15622,0.03771 0.15622,0.09697c0,0.07003 0.84038,0.81883 1.38717,1.23902c0.36363,0.27743 0.76766,0.51446 1.07472,0.63029c0.31245,0.11851 0.31245,0.11313 0.00269,-0.35016c-0.15622,-0.22895 -0.37171,-0.57642 -0.47945,-0.77304c-0.18047,-0.32592 -0.50369,-1.00468 -0.50369,-1.05317c0,-0.01347 -0.02424,-0.07273 -0.05118,-0.13468c-0.08889,-0.19393 -0.21009,-0.54679 -0.33938,-0.97506c-0.03771,-0.13468 -0.08081,-0.27474 -0.09427,-0.31784c-0.01347,-0.0404 -0.01885,-0.07273 -0.01077,-0.07273c0.00808,0 0,-0.02155 -0.01347,-0.04848c-0.01616,-0.02963 -0.03232,-0.08081 -0.0404,-0.11582c-0.00539,-0.03502 -0.0431,-0.21009 -0.07811,-0.38787c-0.23703,-1.13397 -0.28552,-1.6242 -0.27474,-2.7878c0.00808,-0.80536 0.02963,-1.0397 0.16431,-1.7454c0.03771,-0.19932 0.09158,-0.42558 0.11851,-0.50369c0.04848,-0.14006 0.04848,-0.14814 0.00269,-0.2478c-0.12121,-0.25319 -0.22895,-0.51716 -0.32861,-0.81075c-0.05926,-0.17239 -0.11851,-0.33938 -0.13468,-0.36901c-0.01885,-0.0431 -0.12929,-0.43904 -0.19932,-0.71378c-0.07273,-0.2936 -0.13198,-0.57642 -0.17508,-0.84038l-0.05118,-0.31784l-0.22895,-0.23164c-0.75419,-0.75419 -1.26327,-1.57032 -1.62689,-2.59656c-0.12121,-0.33938 -0.21279,-0.61412 -0.25858,-0.78112c-0.02155,-0.08081 -0.06464,-0.23434 -0.09427,-0.33669c-0.21818,-0.76496 -0.334,-2.16829 -0.25858,-3.09756c0.03232,-0.41211 0.09697,-0.90772 0.14545,-1.12589c0.01347,-0.05387 0.01885,-0.1239 0.01077,-0.15353c-0.01616,-0.06464 0.05656,-0.44443 0.13468,-0.71378c0.03502,-0.11582 0.06195,-0.167 0.06734,-0.13468c0.00539,0.02963 0.02693,0.07273 0.04579,0.09427c0.08889,0.10774 0.33938,0.49291 0.43096,0.65991c0.11043,0.2074 0.29359,0.44982 0.77304,1.02893c0.6653,0.79998 1.12051,1.24441 1.61881,1.5811c0.16969,0.11582 0.58988,0.33938 0.63567,0.33938c0.01347,0 0.13737,-0.07273 0.27743,-0.15892c0.14006,-0.08889 0.30976,-0.18585 0.3744,-0.21548c0.26127,-0.11582 0.3744,-0.16431 0.39595,-0.16431c0.01077,0 0.05387,-0.01616 0.09427,-0.03502c0.05926,-0.02693 0.07811,-0.06464 0.11313,-0.22895c0.0431,-0.18316 0.24242,-0.63298 0.31784,-0.71109c0.01885,-0.01885 0.05926,-0.07811 0.09158,-0.12929c0.14006,-0.22626 0.5387,-0.5387 0.68685,-0.5387c0.02963,0 0.27474,-0.10774 0.5414,-0.23972c1.12589,-0.54948 1.99052,-0.81883 3.00867,-0.93465c0.90772,-0.10235 1.9986,0.02424 2.63157,0.30167c0.08619,0.03771 0.19932,0.08619 0.2505,0.11043c0.05118,0.02155 0.11851,0.05387 0.14814,0.07003c0.02963,0.01616 0.14545,0.08081 0.25858,0.14006c0.11313,0.06195 0.22356,0.1266 0.24242,0.14276c0.22895,0.18855 0.40941,0.30167 0.43904,0.27743c0.02424,-0.01885 0.0431,-0.01885 0.06465,0.00269c0.02424,0.02424 0.03232,-0.00269 0.03232,-0.11313c0,-0.15084 -0.13198,-0.67338 -0.32322,-1.29289c-0.05926,-0.18585 -0.13737,-0.44713 -0.17508,-0.57911c-0.07273,-0.2505 -0.30167,-0.99391 -0.32861,-1.06394c-0.00808,-0.02155 -0.01886,-0.05926 -0.02424,-0.08081c-0.01885,-0.08081 -0.57642,-1.7481 -0.69224,-2.06593c-0.11043,-0.30437 -0.11582,-0.3313 -0.07542,-0.36901c0.0404,-0.03771 0.05387,-0.03502 0.1239,0.00808zM372.52358,180.46677c0.00808,0.02693 0.01347,0.00539 0.01347,-0.04579c0,-0.05118 -0.00539,-0.07273 -0.01347,-0.04848c-0.00539,0.02693 -0.00539,0.07003 0,0.09427zM377.54431,180.95969c-0.02963,0 -0.08889,0.08619 -0.29898,0.43905c-0.02693,0.04848 -0.09158,0.1643 -0.14545,0.26127c-0.05118,0.09697 -0.11582,0.20471 -0.14276,0.23703c-0.04848,0.06195 -0.04848,0.06465 0.02693,0.12929c0.0431,0.03502 0.08889,0.06464 0.10236,0.06464c0.01077,0 0.07003,0.05656 0.12929,0.1239c0.05926,0.06734 0.18585,0.20201 0.28282,0.30167c0.20471,0.21009 0.32322,0.39864 0.32861,0.52254c0.01347,0.23434 -0.09427,0.35824 -0.30167,0.35824c-0.09427,0 -0.18316,-0.02963 -0.3744,-0.12929c-0.13737,-0.07273 -0.27205,-0.15084 -0.30437,-0.17508c-0.02963,-0.02424 -0.07811,-0.06734 -0.10774,-0.09427c-0.05926,-0.04848 -0.07542,-0.04579 -0.08619,0.01347c-0.00539,0.01885 -0.01616,0.0835 -0.02963,0.14276c-0.01077,0.05926 -0.06734,0.28821 -0.1239,0.51177c-0.19393,0.7488 -0.19932,0.77304 -0.14545,0.81075c0.06734,0.04848 0.03232,0.11852 -0.05926,0.11852c-0.0835,-0.00269 -0.17777,-0.07273 -0.28551,-0.22087c-0.13198,-0.18047 -0.60066,-1.21478 -0.71109,-1.57033l-0.02694,-0.08081l-0.01885,0.08081c-0.01077,0.0431 -0.03501,0.08889 -0.05118,0.09966c-0.04848,0.02963 -0.02963,0.96967 0.02424,1.35484c0.04579,0.31784 0.07811,0.78381 0.06734,0.98852c-0.00269,0.07811 -0.05656,0.10774 -0.05656,0.03502c0,-0.02155 -0.02424,-0.0404 -0.05387,-0.0404c-0.02963,0 -0.06195,-0.01885 -0.07003,-0.0404c-0.01077,-0.02155 -0.02963,-0.0404 -0.04848,-0.0404c-0.01616,0 -0.05926,-0.02424 -0.09697,-0.05387c-0.03771,-0.02963 -0.08889,-0.05387 -0.11582,-0.05387c-0.02424,0 -0.07003,-0.02424 -0.09966,-0.05387c-0.02963,-0.02963 -0.07273,-0.05387 -0.09697,-0.05387c-0.04579,0 -0.48484,-0.42827 -0.67069,-0.65453c-0.05926,-0.07273 -0.16431,-0.21817 -0.23434,-0.32322c-0.07003,-0.10774 -0.14006,-0.2074 -0.15353,-0.22626c-0.01616,-0.01885 -0.02963,-0.05656 -0.02963,-0.08619c0,-0.02963 -0.01077,-0.06195 -0.02694,-0.07003c-0.01347,-0.00808 -0.07003,-0.09966 -0.1239,-0.20201l-0.09697,-0.18855l-0.07273,0.05118c-0.0835,0.05926 -0.29898,0.10235 -0.29898,0.05926c0,-0.01616 -0.01885,-0.02963 -0.0404,-0.02963c-0.05656,0 -0.09427,-0.08619 -0.09427,-0.21279c0,-0.07273 0.03501,-0.17508 0.10774,-0.31784c0.09697,-0.18316 0.10505,-0.21818 0.07811,-0.27743c-0.0404,-0.08619 -0.17239,-0.4983 -0.19663,-0.61412c-0.01077,-0.04579 -0.02963,-0.08619 -0.03771,-0.08619c-0.01077,0.00269 -0.07003,0.06465 -0.13468,0.14276c-0.06195,0.07811 -0.14545,0.17777 -0.18855,0.22087c-0.10774,0.12121 -0.25858,0.30706 -0.45251,0.57372c-0.09427,0.12929 -0.22626,0.30167 -0.28821,0.38248c-0.2909,0.37171 -0.36901,0.50369 -0.36901,0.60874c0,0.05926 0.0431,0.35824 0.09427,0.6653c0.10235,0.61412 0.11313,0.77035 0.05656,0.98044c-0.03232,0.12121 -0.03232,0.14545 0,0.17239c0.03232,0.02424 0.03771,0.01616 0.03771,-0.05656c0,-0.17777 0.02693,-0.05656 0.0404,0.17777c0.04579,0.85385 0.03771,0.79459 0.11582,0.87539c0.0404,0.0404 0.14545,0.11582 0.23434,0.16969c0.18585,0.11043 0.3313,0.12929 0.38248,0.04579c0.05926,-0.09697 0.28282,-0.14545 0.57103,-0.12929c0.59796,0.03771 1.32252,0.19124 1.48144,0.31245c0.08889,0.07003 0.05387,0.11043 -0.07003,0.0835c-0.05656,-0.01347 -0.13198,-0.02963 -0.16969,-0.03771c-0.03771,-0.00539 -0.12929,-0.02693 -0.20201,-0.0431c-0.07542,-0.01885 -0.17777,-0.03771 -0.22895,-0.0431c-0.05118,-0.00808 -0.14814,-0.02424 -0.21548,-0.03771c-0.06734,-0.01347 -0.26666,-0.03771 -0.44443,-0.05656c-0.34208,-0.03232 -0.31245,-0.03771 -0.74072,0.08888c-0.06734,0.01885 -0.13737,0.05387 -0.15353,0.07811c-0.0404,0.05387 -0.19124,0.08619 -0.36632,0.08081l-0.13198,-0.00808l0.01616,0.11852c0.00808,0.06464 0.02155,0.23164 0.02963,0.37171c0.01077,0.14006 0.02155,0.2909 0.02693,0.33669c0.02424,0.19124 0.0431,0.32861 0.05926,0.4175c0.00808,0.05118 0.01886,0.12929 0.02424,0.17508c0.00539,0.0431 0.01885,0.10505 0.02963,0.13468c0.02155,0.06464 0.01886,0.04848 0.04579,0.20201c0.01347,0.06734 0.02155,0.15353 0.02155,0.19393c-0.00269,0.08889 0.13737,0.43366 0.25858,0.64645c0.21818,0.3744 1.17977,1.05586 1.86392,1.31444c0.1266,0.04848 0.25319,0.09697 0.28282,0.10774c0.30167,0.11582 0.78112,0.23434 1.25249,0.30975c0.15622,0.02424 0.35555,0.06195 0.44713,0.0835c0.19124,0.04579 0.58449,0.05118 0.65991,0.00808c0.02963,-0.01616 0.07542,-0.03232 0.09966,-0.03771c0.09427,-0.01885 0.79998,-0.26397 0.82422,-0.28551c0.01616,-0.01347 0.05118,-0.02424 0.07811,-0.02424c0.02693,0 0.08889,-0.01616 0.13468,-0.03771c0.04848,-0.02155 0.17777,-0.07003 0.28821,-0.11043c0.11043,-0.0404 0.27474,-0.10774 0.36363,-0.14814c0.08889,-0.0431 0.19124,-0.0835 0.22895,-0.09427c0.11043,-0.03232 0.75688,-0.34747 0.88886,-0.43096c0.167,-0.10774 0.2909,-0.17508 0.32322,-0.17508c0.07811,0 0,0.11851 -0.17777,0.26935c-0.0431,0.03771 -0.10774,0.1239 -0.14276,0.18855c-0.27474,0.50638 -1.05856,1.29289 -1.87469,1.87739c-0.22626,0.16431 -0.70301,0.46329 -0.7892,0.49561c-0.03232,0.01347 -0.05926,0.03232 -0.05926,0.0431c0,0.01347 0.04848,0.08889 0.10505,0.16969l0.10235,0.14814l0.28013,-0.0027c0.23434,-0.00269 0.34208,-0.01885 0.64375,-0.10235c0.48753,-0.13468 0.88617,-0.28282 1.30636,-0.49291c0.49291,-0.24242 0.76496,-0.42288 1.07472,-0.7084c0.13468,-0.1266 0.47406,-0.51985 0.47406,-0.55217c0,-0.00808 0.02963,-0.05657 0.06465,-0.10236c0.14545,-0.19932 0.31245,-0.67338 0.31245,-0.89425c0,-0.05926 0.01077,-0.09158 0.02694,-0.08081c0.01347,0.00808 0.02693,0.07003 0.02693,0.13468c0,0.12929 0.02963,0.16969 0.08081,0.10774c0.02693,-0.02963 0.02155,-0.07542 -0.02424,-0.21817c-0.02963,-0.09697 -0.06465,-0.25858 -0.07273,-0.35824c-0.01347,-0.14006 -0.03502,-0.19663 -0.09158,-0.26127c-0.08889,-0.10235 -0.35016,-0.53063 -0.35016,-0.57372c0,-0.01616 -0.02424,-0.08081 -0.05118,-0.14545c-0.23164,-0.50369 -0.29898,-1.41949 -0.15084,-2.05247c0.08619,-0.36632 0.2936,-0.87001 0.41211,-0.9966c0.02693,-0.02963 0.05656,-0.07542 0.06464,-0.09966c0.02155,-0.05118 -0.17508,-0.46329 -0.20201,-0.43366c-0.01077,0.01077 -0.01347,-0.01885 -0.0027,-0.06195c0.00808,-0.04579 -0.00269,-0.12929 -0.02963,-0.19932c-0.02424,-0.06734 -0.05656,-0.18855 -0.06734,-0.26935c-0.01347,-0.08081 -0.03502,-0.15084 -0.05118,-0.15623c-0.07273,-0.02424 0.11043,-1.24171 0.21818,-1.44373c0.02424,-0.04579 0.01886,-0.04848 -0.04848,-0.02963c-0.19393,0.05118 -0.44174,-0.01347 -0.88348,-0.23434c-0.22895,-0.11582 -0.53871,-0.29898 -0.5818,-0.34477c-0.00808,-0.00808 -0.05656,-0.04579 -0.10774,-0.08081c-0.19393,-0.13198 -0.53332,-0.43096 -0.79998,-0.70301c-0.26935,-0.27205 -0.74072,-0.83769 -0.83499,-0.9966c-0.0431,-0.07273 -0.04848,-0.07542 -0.06734,-0.02424c-0.01077,0.02963 -0.03502,0.05387 -0.05656,0.05387zM392.59843,181.93205c0.01077,0.01616 0.02963,0.01616 0.05387,-0.00539c0.05656,-0.04579 0.04579,-0.0835 -0.01616,-0.05118c-0.02963,0.01616 -0.04848,0.0404 -0.03771,0.05656zM380.81964,183.21147c0.00808,0.00808 0.03232,0.01077 0.05118,0.00269c0.02155,-0.00808 0.01347,-0.01616 -0.01616,-0.01616c-0.02963,-0.00269 -0.04579,0.00539 -0.03502,0.01347zM384.94612,183.48891c-0.19932,0.08889 -0.63837,0.60874 -0.9158,1.07472c-0.03771,0.06464 -0.22087,0.29629 -0.34208,0.42827c-0.09966,0.11043 -0.13198,0.11313 -0.07542,0.00808c0.01885,-0.03771 -0.01347,-0.02694 -0.12929,0.0431c-0.18047,0.11043 -0.37171,0.17508 -0.55756,0.18585c-0.07273,0.00539 -0.13737,0.02155 -0.14276,0.03771c-0.01616,0.05118 0.35555,0.39595 0.50638,0.46867c0.18855,0.09158 0.48753,0.16431 0.57642,0.14276c0.08081,-0.01885 0.12121,-0.13198 0.07542,-0.2074c-0.02155,-0.03232 -0.02155,-0.05387 -0.00539,-0.06465c0.01616,-0.01077 0.10774,-0.14006 0.20471,-0.2909c0.32322,-0.49561 0.37171,-0.56295 0.57911,-0.77304c0.15353,-0.15353 0.23703,-0.21548 0.3313,-0.2478c0.30437,-0.09966 0.51716,0.10235 0.61143,0.58449c0.06464,0.32861 0.0835,0.86193 0.0404,1.1232c-0.01616,0.10774 -0.02963,0.13198 -0.08889,0.14545c-0.08619,0.02155 -0.12121,-0.02693 -0.09966,-0.13737c0.02155,-0.09158 0.01885,-0.63567 0,-0.73803c-0.00808,-0.03771 -0.02155,-0.13737 -0.02963,-0.21818c-0.01885,-0.16161 -0.10774,-0.44982 -0.15623,-0.50908c-0.11851,-0.14006 -0.29359,-0.04579 -0.72456,0.39864c-0.18316,0.18585 -0.38248,0.40133 -0.44713,0.47675c-0.09966,0.1239 -0.10774,0.14006 -0.06195,0.15353c0.02963,0.00539 0.06464,0 0.07811,-0.01347c0.09158,-0.09158 0.28013,0.12929 0.334,0.39325c0.04848,0.23164 -0.02963,0.48753 -0.20471,0.67338c-0.08081,0.08889 -0.08619,0.10505 -0.08619,0.30437c-0.00269,0.2505 -0.0404,0.40672 -0.12929,0.50099c-0.05926,0.06464 -0.06464,0.08889 -0.06195,0.3744c0.00269,0.33669 -0.03232,0.48753 -0.17508,0.74611l-0.08081,0.14545l0.21279,-0.11582c0.11582,-0.06464 0.24242,-0.13737 0.28282,-0.16431c0.03771,-0.02963 0.07811,-0.05118 0.08619,-0.05118c0.01077,0 0.03232,-0.01347 0.05118,-0.02693c0.11582,-0.09697 0.31245,-0.24242 0.32861,-0.24242c0.01885,0 0.23164,-0.19663 0.4148,-0.38248c0.16969,-0.17777 0.19124,-0.19932 0.30975,-0.37171c0.05656,-0.08081 0.12121,-0.15892 0.14006,-0.16969c0.02155,-0.01077 0.03771,-0.0431 0.0404,-0.06734c0,-0.02424 0.02424,-0.0835 0.05387,-0.1266c0.02693,-0.04579 0.05926,-0.09966 0.07003,-0.12121c0.00808,-0.02155 0.02694,-0.04579 0.03502,-0.05387c0.02963,-0.02155 0.13468,-0.334 0.13468,-0.39864c0,-0.02963 0.01077,-0.06195 0.02424,-0.07003c0.02693,-0.01885 0.06734,-0.24511 0.05926,-0.334c-0.00269,-0.03232 0.00539,-0.05926 0.02155,-0.05926c0.02424,0 0.02155,-0.7057 -0.00539,-0.86193c-0.0404,-0.2505 -0.15353,-0.67608 -0.18585,-0.71378c-0.01077,-0.01347 -0.02155,-0.0404 -0.02155,-0.05926c0,-0.03771 -0.15892,-0.39056 -0.18585,-0.41211c-0.00808,-0.00808 -0.03771,-0.05656 -0.06734,-0.10774c-0.07542,-0.13737 -0.23164,-0.2936 -0.32592,-0.32053c-0.1239,-0.03771 -0.17777,-0.03232 -0.29629,0.02155zM384.21348,184.00876c0.00808,0.02155 0.01616,0.01347 0.01616,-0.01616c0.00269,-0.02963 -0.00539,-0.04579 -0.01347,-0.03502c-0.00808,0.00808 -0.01077,0.03232 -0.00269,0.05118zM369.95396,186.05853c0.02155,0.02155 0.0404,0.01885 0.06195,-0.00269c0.02424,-0.02424 0.02424,-0.03232 -0.00269,-0.03232c-0.01885,0 -0.02693,-0.01077 -0.01885,-0.02424c0.00808,-0.01077 0.09697,-0.02963 0.19663,-0.0404c0.2505,-0.02693 0.55217,-0.11043 0.47945,-0.13737c-0.17777,-0.06195 -0.37709,-0.23434 -0.40672,-0.35285c-0.01347,-0.05118 -0.04579,-0.00539 -0.17508,0.2505c-0.11313,0.21818 -0.15353,0.32053 -0.13468,0.33938zM383.98992,185.83497c0,0.01347 0.01077,0.02693 0.02694,0.02693c0.01347,0 0.02693,-0.01347 0.02693,-0.02693c0,-0.01616 -0.01347,-0.02694 -0.02693,-0.02694c-0.01616,0 -0.02694,0.01077 -0.02694,0.02694zM369.84891,186.14472c-0.02155,0.02693 -0.02424,0.0404 -0.00269,0.0404c0.01616,0 0.11313,0.17239 0.21817,0.38248c0.18855,0.37709 0.19124,0.39056 0.19124,0.58719c0,0.14006 0.00539,0.18854 0.02424,0.16161c0.01347,-0.02155 0.02693,-0.05926 0.02693,-0.08081c0,-0.06464 0.14545,-0.35555 0.22356,-0.44713c0.08889,-0.10505 0.08889,-0.10774 0.00539,-0.12929c-0.14814,-0.03771 -0.46868,-0.30437 -0.56834,-0.47406c-0.05656,-0.09158 -0.07003,-0.09697 -0.11851,-0.0404zM383.61821,186.42754c-0.06195,0.03771 -0.11313,0.07542 -0.11313,0.08619c0,0.04848 0.22356,0.3313 0.25858,0.32322c0.02424,-0.00539 0.03771,0.01616 0.03771,0.06734c0,0.0404 0.01616,0.10505 0.03502,0.14276c0.01885,0.03771 0.06464,0.14006 0.09966,0.22626l0.06465,0.15892l0.03502,-0.10505c0.07003,-0.20471 0.0404,-0.56833 -0.07542,-0.91849l-0.05387,-0.167l-0.08889,0.05926c-0.04848,0.03232 -0.13737,0.08889 -0.19932,0.1266zM371.62125,186.75885l0.01077,0.11851l0.15084,0.00269l0.15353,0.00539l-0.09427,-0.05118c-0.05118,-0.02963 -0.1239,-0.0835 -0.15892,-0.12121c-0.03771,-0.03771 -0.06734,-0.07003 -0.06734,-0.07003c-0.00269,0 0,0.05118 0.00539,0.11582zM379.33012,190.60251c0,0.01347 0.00539,0.02694 0.01077,0.02694c0.00808,0 0.02155,-0.01347 0.02963,-0.02694c0.00808,-0.01616 0.0027,-0.02693 -0.01077,-0.02693c-0.01616,0 -0.02963,0.01077 -0.02963,0.02693zM376.68238,191.5641c0.01885,0.00539 0.05118,0.00539 0.06734,0c0.01885,-0.00808 0.00539,-0.01347 -0.03232,-0.01347c-0.03771,0 -0.05118,0.00539 -0.03502,0.01347zM374.17741,192.36677c-0.29898,0.14814 -0.38787,0.2074 -0.56025,0.36363c-0.16969,0.15353 -0.40133,0.43366 -0.40133,0.48214c0,0.01616 -0.01077,0.02963 -0.02155,0.02963c-0.04848,0 -0.334,0.62221 -0.47137,1.02354c-0.15084,0.43904 -0.30167,1.27673 -0.23972,1.31713c0.01885,0.01077 0.02693,0.09966 0.02155,0.24511c-0.01885,0.46059 0.1239,1.09896 0.38787,1.73732c0.01347,0.02963 0.0431,0.11313 0.07003,0.18855c0.05387,0.15353 0.23972,0.5845 0.36901,0.85385l0.08619,0.18047l0.10505,-0.167c0.15084,-0.23703 0.47137,-0.69224 0.54948,-0.77843l0.06734,-0.07273l-0.0431,-0.23703c-0.06195,-0.32322 -0.07003,-0.3744 -0.08889,-0.55487c-0.01347,-0.13198 -0.01077,-0.15353 0.02694,-0.15353c0.02693,0 0.03771,-0.01077 0.02963,-0.02693c-0.00808,-0.01347 -0.02155,-0.04848 -0.02693,-0.07273c-0.00539,-0.02693 -0.01616,-0.07273 -0.02694,-0.10236c-0.01616,-0.04848 -0.01347,-0.04848 0.01885,-0.01077c0.01885,0.02424 0.07542,0.167 0.1266,0.31514c0.09427,0.27205 0.13737,0.32053 0.13737,0.15892c0,-0.04848 0.01347,-0.13468 0.02694,-0.19393c0.01347,-0.05926 0.04848,-0.25858 0.07811,-0.44443c0.14006,-0.89964 0.43096,-2.38646 0.59796,-3.05985c0.05926,-0.23972 0.11313,-0.4579 0.11851,-0.48484c0.00539,-0.02963 0.0404,-0.14006 0.07811,-0.2478c0.05387,-0.15353 0.05926,-0.19932 0.03232,-0.21009c-0.01885,-0.00808 -0.04579,-0.01077 -0.05926,-0.00808c-0.07003,0.01885 -0.57372,-0.1239 -0.62759,-0.17777c-0.02963,-0.02963 -0.16161,0.01077 -0.36093,0.10774zM382.07752,199.39418c0,0.00808 0.01077,0.02155 0.02694,0.02963c0.01347,0.00808 0.02693,0.0027 0.02693,-0.01077c0,-0.01616 -0.01347,-0.02963 -0.02693,-0.02963c-0.01616,0 -0.02694,0.00539 -0.02694,0.01077zM383.10106,201.1719c0,0.00539 0.02155,0.02694 0.04579,0.04579c0.0431,0.03502 0.04579,0.03232 0.01077,-0.01077c-0.03502,-0.0431 -0.05656,-0.05656 -0.05656,-0.03502z" data-paper-data="{&quot;index&quot;:null}"/><path d="M372.37813,185.84844c0.05387,0.20471 0.07003,0.66261 0.02963,0.74072c-0.03232,0.06195 -0.03502,0.06195 -0.07003,0.01347c-0.0404,-0.05387 -0.05118,-0.68954 -0.01347,-0.82152c0.01616,-0.05926 0.02424,-0.05387 0.05387,0.06734z" data-paper-data="{&quot;index&quot;:null}"/><path d="M376.79013,185.88076c0.01077,0.07273 0.01885,0.26397 0.01885,0.43096l-0.00539,0.30167l0.36901,-0.01347c0.43635,-0.01616 0.76496,0.02155 1.09357,0.1239c0.20201,0.06195 0.31784,0.09697 0.4175,0.12121c0.08081,0.01885 0.34747,0.13468 0.40672,0.17777c0.07003,0.04848 0.08081,0.05118 0.15622,0.01077c0.09158,-0.04579 0.16431,-0.13737 0.16431,-0.2074c0,-0.07003 0.05118,-0.05926 0.0835,0.01616c0.02424,0.04848 0.01885,0.0835 -0.01616,0.16161c-0.02693,0.05387 -0.05656,0.09697 -0.07003,0.09697c-0.01347,0 -0.02424,0.01347 -0.02424,0.02963c0,0.0431 0.4148,0.00539 0.61682,-0.05656c0.27205,-0.08081 0.30167,0.02963 0.0404,0.15892c-0.17508,0.08889 -0.5414,0.11313 -0.64645,0.0431c-0.05926,-0.03771 -0.10774,-0.0431 -0.31514,-0.02693c-0.2909,0.02155 -0.40672,-0.01347 -0.51716,-0.15892c-0.06464,-0.08619 -0.08619,-0.09427 -0.37171,-0.14814c-0.30975,-0.05656 -0.43097,-0.07273 -0.75958,-0.09697c-0.2505,-0.01885 -0.77843,-0.01885 -0.8323,0.00269c-0.05118,0.01885 -0.1239,-0.03232 -0.1239,-0.09158c0,-0.04848 0.07811,-0.11044 0.14006,-0.11313c0.0431,0 0.04848,-0.02963 0.05118,-0.21548c0.00269,-0.11851 0.00539,-0.22356 0.01077,-0.23703c0.00269,-0.01077 0.01347,-0.10774 0.02694,-0.21548c0.01077,-0.10774 0.02963,-0.20201 0.0431,-0.2074c0.01077,-0.00808 0.02963,0.0431 0.0431,0.11313zM378.76448,187.07399c0.02155,0.01347 0.05926,0.02424 0.08081,0.02424c0.02693,0 0.02155,-0.00808 -0.01347,-0.02424c-0.07273,-0.03232 -0.11582,-0.03232 -0.06734,0z" data-paper-data="{&quot;index&quot;:null}"/><path d="M373.49864,188.32109c0.08619,0.11582 0.23703,0.21817 0.37709,0.2505c0.0431,0.01077 0.26935,0.02155 0.4983,0.02693c0.22895,0.00539 0.43904,0.00808 0.46598,0.00808c0.10235,0.00539 0.01077,0.05656 -0.09697,0.05656c-0.06195,0 -0.19124,0.01347 -0.28551,0.02963c-0.47406,0.07542 -0.81614,-0.00539 -0.96428,-0.23164c-0.04848,-0.07273 -0.11043,-0.25858 -0.0835,-0.25319c0.00539,0 0.04579,0.05118 0.08889,0.11313z" data-paper-data="{&quot;index&quot;:null}"/><path d="M377.49852,188.55004c0,0.11043 -0.17777,0.22087 -0.46059,0.28821c-0.18855,0.0431 -0.5414,0.03771 -0.7919,-0.01347c-0.23434,-0.04579 -0.71378,-0.19394 -0.71378,-0.22087c0,-0.02963 0.04579,-0.02694 0.06465,0.00269c0.00808,0.01077 0.09158,0.02424 0.18316,0.02693c0.09427,0 0.19393,0.00808 0.22356,0.01347c0.02963,0.00539 0.14545,0.01885 0.25589,0.02963c0.11043,0.00808 0.22087,0.02424 0.24242,0.03232c0.09966,0.03771 0.34746,0.03232 0.42019,-0.00539c0.0431,-0.02155 0.09697,-0.0404 0.1239,-0.0404c0.0404,0 0.30167,-0.07811 0.40403,-0.12121c0.02963,-0.01077 0.04848,-0.00808 0.04848,0.00808z" data-paper-data="{&quot;index&quot;:null}"/><path d="M384.6633,185.15889c0.2505,0.07811 0.42019,0.39325 0.44443,0.84038c0.01347,0.20471 -0.03771,0.51985 -0.11313,0.69224c-0.10774,0.25858 -0.2074,0.45251 -0.26935,0.53601c-0.07003,0.09158 -0.2936,0.24242 -0.32053,0.21548c-0.00808,-0.00808 0.01885,-0.03502 0.06195,-0.05656c0.08889,-0.05118 0.19663,-0.13737 0.19663,-0.16431c0,-0.01077 0.02155,-0.05118 0.04848,-0.08888c0.13737,-0.20201 0.28551,-0.84577 0.25858,-1.1232c-0.05118,-0.55217 -0.21818,-0.82153 -0.49022,-0.78382c-0.13468,0.01885 -0.14276,0.00539 -0.03232,-0.05118c0.08619,-0.0431 0.11313,-0.04579 0.21548,-0.01616z" data-paper-data="{&quot;index&quot;:null}"/><path d="M388.10832,196.20504c0.00269,0.18316 -0.07003,0.65183 -0.12121,0.78382c-0.05118,0.13468 -0.10774,0.20471 -0.13737,0.17508c-0.01077,-0.01077 -0.00539,-0.02693 0.01077,-0.03771c0.03771,-0.02424 0.13468,-0.4175 0.17239,-0.70301c0.03771,-0.28821 0.07273,-0.39325 0.07542,-0.21818z" data-paper-data="{&quot;index&quot;:null}"/><path d="M387.73392,196.5956c0.00269,0.01347 0.00269,0.03771 0,0.05387c-0.00269,0.01347 -0.01077,0.06195 -0.01616,0.10774c-0.01347,0.09158 -0.12121,0.45251 -0.13198,0.43905c-0.01347,-0.01347 0.06195,-0.37171 0.10505,-0.50638c0.02155,-0.06734 0.0404,-0.11043 0.0431,-0.09427z" data-paper-data="{&quot;index&quot;:null}"/><path d="M384.55556,196.90267c0,0.01347 -0.01347,0.03502 -0.02693,0.0431c-0.01616,0.00808 -0.02694,0.00539 -0.02694,-0.01077c0,-0.01347 0.01077,-0.03502 0.02694,-0.0431c0.01347,-0.00808 0.02693,-0.00539 0.02693,0.01077z" data-paper-data="{&quot;index&quot;:null}"/></g></g></svg>