<svg version="1.1" xmlns="http://www.w3.org/2000/svg" xmlns:xlink="http://www.w3.org/1999/xlink" width="20.43605" height="25.45513" viewBox="0,0,20.43605,25.45513"><g transform="translate(-229.78198,-167.27243)"><g data-paper-data="{&quot;isPaintingLayer&quot;:true}" fill-rule="nonzero" stroke="none" stroke-width="1" stroke-linecap="butt" stroke-linejoin="miter" stroke-miterlimit="10" stroke-dasharray="" stroke-dashoffset="0" style="mix-blend-mode: normal"><g><path d="M239.12443,191.43525c-0.62659,-0.74407 -1.76228,-2.42803 -2.54552,-3.83785c-1.40982,-2.54552 -5.79594,-13.11919 -5.79594,-14.01991c0,-0.23497 -0.27413,-0.86156 -0.58742,-1.37066c-0.86156,-1.29234 -0.43078,-1.95809 1.80144,-2.9763c1.05737,-0.5091 2.15389,-1.17486 2.38887,-1.44899c0.23497,-0.27413 0.90072,-0.5091 1.52731,-0.5091c0.97904,0 1.17486,0.19581 1.52731,1.68395c0.23497,0.90072 0.78323,2.70216 1.17485,3.9945c0.39162,1.29234 0.86156,2.93713 0.97904,3.64204c0.46994,2.27138 0.62659,1.99725 3.52456,-6.38337c0.62659,-1.80144 1.0182,-2.38886 1.64479,-2.46719c0.93988,-0.15665 5.09103,2.31054 5.44349,3.21126c0.19581,0.54827 -2.31054,7.4799 -3.95534,10.88697c-0.58743,1.13569 -1.56647,3.4854 -2.23222,5.20851c-1.21401,3.09378 -2.78048,5.67846 -3.40707,5.67846c-0.19581,0 -0.86156,-0.58742 -1.48815,-1.29234z" fill="#000000"/><path d="M238.65449,186.65751c-1.60563,-2.78048 -6.69666,-13.90242 -6.69666,-14.60734c0,-0.39162 3.05461,-1.87976 3.28959,-1.60563c0.07832,0.07832 0.90072,2.50635 1.80144,5.326c0.90072,2.85881 1.87977,5.44349 2.19306,5.79594c0.8224,0.78323 1.60563,0.35245 1.87976,-1.09653c0.35245,-1.76228 4.19031,-9.67296 4.69941,-9.67296c0.23497,0 0.74408,0.27414 1.17486,0.58743c0.70491,0.54827 0.70491,0.62659 -0.15665,3.01546c-0.5091,1.37066 -1.8406,4.58192 -2.93713,7.1666c-1.13569,2.58468 -2.27138,5.36516 -2.50635,6.1484c-0.27413,0.8224 -0.62658,1.56647 -0.78323,1.64479c-0.15665,0.11749 -1.05737,-1.09653 -1.95809,-2.70216z" fill="#f9f9f9"/></g></g></g></svg>