<svg version="1.1" xmlns="http://www.w3.org/2000/svg" xmlns:xlink="http://www.w3.org/1999/xlink" width="24.73745" height="20.97291" viewBox="0,0,24.73745,20.97291"><g transform="translate(-307.63128,-169.51355)"><g data-paper-data="{&quot;isPaintingLayer&quot;:true}" fill-rule="nonzero" stroke="none" stroke-width="0.5" stroke-linecap="butt" stroke-linejoin="miter" stroke-miterlimit="10" stroke-dasharray="" stroke-dashoffset="0" style="mix-blend-mode: normal"><path d="M320.24026,171.42505c0.32051,1.28119 0.15137,2.89742 0.07045,4.34973c2.18104,0 4.3621,0 6.54312,0c2.25773,0 4.62915,-0.75578 5.51491,1.66156c-0.03115,3.52222 -2.72406,3.92499 -5.51785,3.97102c0.79104,3.02629 -1.08439,6.95218 -4.28068,7.62145c-3.04264,0.63709 -6.49841,-0.07574 -9.58119,-0.10542c-1.3144,0.2074 -1.24919,2.23851 -3.30105,1.33076c-0.95526,-0.42262 -1.52382,-1.75046 -1.72864,-2.67844c-0.57987,-2.62733 -0.23488,-5.98113 -0.13508,-8.65742c0.03166,-0.84888 0.16792,-2.95505 0.68853,-3.45468c0.28898,-0.27735 0.60372,-0.34182 0.91629,-0.28588c0.28868,0.18312 0.59341,0.33059 0.90584,0.4388c0.13939,0.10187 0.27127,0.2106 0.39214,0.31479c0.11502,-0.07793 0.24022,-0.11707 0.33697,-0.13674c0.25182,0.0361 0.50446,0.04604 0.75375,0.02804c0.12413,-0.00895 0.24744,-0.02485 0.36942,-0.04789c0.06399,0 0.12798,0 0.19199,0c0.02995,0.00257 0.06006,0.00444 0.0904,0.00557c0.0855,0.02158 0.17334,0.0372 0.26308,0.0464c0.64878,0.29044 1.39749,0.10337 2.1972,-0.82962c0.80257,-0.93633 0.34969,-2.27961 0.62506,-3.3812v-1.61446c1.62785,-0.88941 4.16764,-0.64582 4.68533,1.4236z" fill="#000000"/><path d="M310.41006,176.23682c0,-0.21555 0.11058,-0.40528 0.27811,-0.51553c0.26594,0.06571 0.5351,0.10277 0.8025,0.10914c0.05335,0.06084 0.0949,0.13227 0.12112,0.21072c0.19615,0.1824 0.19614,0.46977 0.19614,0.46977c0,2.70612 -0.10643,5.41121 -0.10964,8.11322c-0.00134,1.13315 0.1449,2.95591 1.02538,3.78498l0.05483,0.05483c0,0 0.30215,0.30215 0.15192,0.65494c-0.262,0.08018 -0.49925,0.217 -0.69754,0.39612c-0.19308,-0.04543 -0.32654,-0.17889 -0.32654,-0.17889l-0.05483,-0.05483c-2.59489,-2.69767 -1.31287,-9.07211 -1.27774,-12.62597c-0.10163,-0.10995 -0.16372,-0.25697 -0.16372,-0.41851z" fill="#787878"/><path d="M320.87595,186.04218c0,-0.61671 0.61671,-0.61671 0.61671,-0.61671h0.65781c1.13596,0.00023 2.26438,0.11046 3.39877,0.10964c0,0 0.61671,0 0.61671,0.61671c0,0.61671 -0.61671,0.61671 -0.61671,0.61671c-1.13473,-0.00077 -2.2627,-0.10988 -3.39877,-0.10964h-0.65781c0,0 -0.61671,0 -0.61671,-0.61671z" fill="#787878"/><path d="M321.64342,183.19159c0,-0.61671 0.61671,-0.61671 0.61671,-0.61671h0.2741c1.28403,0 2.56972,0.03254 3.85112,-0.05346c0,0 0.61534,-0.04102 0.65638,0.57432c0.04102,0.61534 -0.57432,0.65638 -0.57432,0.65638c-1.30908,0.08675 -2.62151,0.05618 -3.93319,0.05618h-0.2741c0,0 -0.61671,0 -0.61671,-0.61671z" fill="#787878"/><path d="M319.2928,184.13628c0,0.6815 -0.6815,0.6815 -0.6815,0.6815h-0.48464c-1.17347,0 -5.48576,0.69801 -5.20359,-1.51689c0.07493,-0.58818 2.80099,-1.57834 3.32927,-1.83654c0.11329,-0.05537 0.63731,-0.24795 1.11387,-0.40658c-1.22018,-0.01288 -3.36789,-0.47612 -3.74397,-0.55618c0,0 -0.66637,-0.1428 -0.52359,-0.80918c0.14279,-0.66637 0.80918,-0.52359 0.80918,-0.52359c0.81744,0.17644 5.10998,0.13349 5.47475,0.99089c1.36229,3.202 -8.50753,3.29583 -3.255,3.29505c0.66637,-0.00011 1.33272,0 1.99908,0h0.48464c0,0 0.6815,0 0.6815,0.6815z" fill="#a6a6a6"/></g></g></svg>