<svg version="1.1" xmlns="http://www.w3.org/2000/svg" xmlns:xlink="http://www.w3.org/1999/xlink" width="20.26314" height="26.56823" viewBox="0,0,20.26314,26.56823"><g transform="translate(-229.86843,-166.71589)"><g data-paper-data="{&quot;isPaintingLayer&quot;:true}" fill-rule="nonzero" stroke="none" stroke-width="1" stroke-linecap="butt" stroke-linejoin="miter" stroke-miterlimit="10" stroke-dasharray="" stroke-dashoffset="0" style="mix-blend-mode: normal"><g><path d="M233.1262,192.5993c-2.27138,-1.17486 -3.13294,-3.44623 -3.25043,-8.41978c-0.03916,-2.62384 0.07832,-4.3078 0.35245,-4.58193c0.23497,-0.23497 1.56647,-0.46994 2.93713,-0.5091l2.50635,-0.07832l0.23497,2.81965c0.23497,3.01546 0.46994,3.6812 1.17485,2.97629c0.5091,-0.5091 1.37066,-9.55547 1.01821,-10.45619c-0.19581,-0.5091 -0.86156,-0.62659 -3.05462,-0.62659h-2.78048l0.27414,-3.21126c0.15665,-1.80144 0.39161,-3.40707 0.58742,-3.56372c0.43078,-0.46994 15.93884,-0.15665 16.36962,0.31329c0.19581,0.23497 0.46994,1.68395 0.58743,3.25043c0.19581,3.4854 -0.07832,3.87702 -3.21126,4.22947l-2.27139,0.23497l-0.43078,5.95259c-0.23497,3.25043 -0.62658,6.57918 -0.86156,7.36241c-0.54827,1.87976 -2.15389,3.79869 -3.79869,4.46444c-1.80144,0.78323 -4.77774,0.66575 -6.38337,-0.15665z" fill="#000000"/><path d="M234.18357,190.52373c-1.17486,-0.66575 -1.8406,-2.58467 -2.11473,-5.8351c-0.19581,-2.70216 -0.15665,-3.13294 0.43078,-3.36791c0.93988,-0.35245 1.09653,-0.07832 1.48815,2.663c0.15665,1.3315 0.62659,2.74133 0.97904,3.13294c1.44899,1.60563 3.95534,0.27413 4.77774,-2.50635c0.54827,-1.80144 0.78323,-11.9835 0.27413,-12.76674c-0.15665,-0.27413 -1.3315,-0.46994 -3.01546,-0.46994h-2.70216v-1.13569v-1.13569l4.5036,-0.15665c2.46719,-0.03916 5.48264,-0.03916 6.6575,0l2.15389,0.15665v1.48815v1.52731l-2.62384,0.11749l-2.663,0.11748l-0.07832,1.95809c-0.07832,1.09653 -0.27413,4.46444 -0.5091,7.55822c-0.43078,5.8351 -0.86156,7.36241 -2.42803,8.45894c-0.97904,0.70491 -4.07282,0.8224 -5.13019,0.19581z" fill="#f9f9f9"/></g></g></g></svg>