<svg version="1.1" xmlns="http://www.w3.org/2000/svg" xmlns:xlink="http://www.w3.org/1999/xlink" width="13.26066" height="20.35559" viewBox="0,0,13.26066,20.35559"><g transform="translate(-233.36967,-169.82221)"><g data-paper-data="{&quot;isPaintingLayer&quot;:true}" fill="#000000" fill-rule="nonzero" stroke="none" stroke-width="1" stroke-linecap="butt" stroke-linejoin="miter" stroke-miterlimit="10" stroke-dasharray="" stroke-dashoffset="0" style="mix-blend-mode: normal"><path d="M235.51728,188.93315c-1.87976,-1.87976 -2.34971,-3.87702 -2.07558,-9.3205c0.27413,-5.44349 0.74408,-7.24492 2.31055,-8.69391c1.01821,-0.93988 1.48815,-1.09653 3.40707,-1.09653c2.89797,0 5.0127,1.17486 6.30504,3.52456c0.8224,1.52731 0.97904,2.38886 1.09653,6.3442c0.15665,4.34696 0.11749,4.73857 -0.86156,6.6575c-1.44899,2.89797 -2.54552,3.60288 -5.99175,3.75953c-2.81965,0.15665 -2.85881,0.15664 -4.19031,-1.17486zM241.11742,185.25194c0.43078,-0.58743 0.70491,-1.17485 0.58743,-1.37066c-0.11749,-0.19581 0,-0.35246 0.19581,-0.35246c0.58743,0 0.54827,-4.66025 0,-6.89247c-0.39162,-1.44899 -0.70491,-1.84061 -1.80144,-2.31055c-0.74407,-0.31329 -1.52731,-0.46994 -1.72312,-0.35245c-0.74407,0.43078 -0.31329,2.81965 1.01821,5.44349c1.3315,2.62384 1.05737,2.58467 -0.93988,-0.11749l-0.78323,-1.05737l-0.03916,2.34971c0,4.93438 1.56647,7.08828 3.48539,4.66025z"/></g></g></svg>