<svg version="1.1" xmlns="http://www.w3.org/2000/svg" xmlns:xlink="http://www.w3.org/1999/xlink" width="252.74607" height="28.08089" viewBox="0,0,252.74607,28.08089"><g transform="translate(-193.62697,-165.95956)"><g data-paper-data="{&quot;isPaintingLayer&quot;:true}" fill="#1d9494" fill-rule="nonzero" stroke="none" stroke-width="1" stroke-linecap="butt" stroke-linejoin="miter" stroke-miterlimit="10" stroke-dasharray="" stroke-dashoffset="0" style="mix-blend-mode: normal"><path d="M381.99303,166.26095c1.72,-0.26 3.46,-0.28 5.19,-0.13c0.48,1.27 0.97,2.54 1.47,3.81c2.57,0.35 6.47,-0.92 7.58,2.21c0.69,1.99 -0.24,3.82 -1.84,5.02c-2.02,-0.06 -4.04,-0.06 -6.06,-0.05c-0.08,3.08 -0.08,6.16 -0.09,9.25c2.69,0.11 5.36,0.47 7.97,1.12c0.05,1.79 0.06,3.57 0.06,5.36c-3.32,1.31 -7.07,1.66 -10.39,0.14c-0.14,-2.51 -2.09,-3.68 -4.29,-4.28c-0.51,-3.79 -0.35,-7.62 -0.75,-11.42c-1.19,-0.42 -2.38,-0.85 -3.56,-1.29c-0.01,-1.8 0.09,-3.59 0.34,-5.37c2.64,-0.08 3.84,-2.02 4.37,-4.37M382.66303,167.35095c0.1,1.39 0.18,2.78 0.25,4.17c-1.4,0.12 -2.81,0.21 -4.21,0.29c-0.01,1.19 -0.02,2.39 -0.02,3.58c1.38,0.01 2.76,0.02 4.15,0.03c0.06,4.21 0.11,8.43 -0.11,12.64c0.94,-0.03 2.82,-0.09 3.76,-0.12c-0.04,-4.18 -0.04,-8.36 0.02,-12.54c2.73,-0.02 5.47,-0.01 8.2,0c0,-1.23 0,-2.45 0,-3.68c-2.69,0.01 -5.37,0.02 -8.06,0.06c-0.08,-1.45 -0.14,-2.91 -0.2,-4.37c-0.94,-0.01 -2.83,-0.04 -3.78,-0.06M387.12303,188.50095c-0.1,0.92 -0.3,2.77 -0.4,3.7c2.66,-0.02 5.33,-0.02 7.99,0c0,-0.95 -0.01,-2.86 -0.01,-3.81c-2.53,0.07 -5.06,0.1 -7.58,0.11z" opacity="0.68"/><path d="M194.74303,166.30095c4.22,-0.2 8.49,-0.52 12.69,0.03c1.18,0.72 1.18,2.37 1.76,3.5c1.14,0.47 2.25,1 3.41,1.43c0.93,3.22 0.67,6.54 -0.36,9.7c-0.68,0.05 -2.03,0.14 -2.71,0.19c-0.49,1.28 -0.97,2.57 -1.44,3.86c-2.5,0.22 -5.01,0.43 -7.45,1.03c0.01,2.26 -0.07,4.53 -0.25,6.78c-1.12,0.39 -2.25,0.78 -3.37,1.18c-0.58,-0.25 -1.74,-0.76 -2.32,-1.01c-0.24,-0.55 -0.71,-1.65 -0.95,-2.2c0.44,-8.14 -1.07,-16.52 0.99,-24.49M195.37303,167.35095c0.06,8.31 0.07,16.61 -0.01,24.92c1,0 3,0.01 4,0.01c-0.17,-2.78 -0.21,-5.58 -0.16,-8.37c2.78,-0.03 5.56,-0.01 8.34,0.17c-0.05,-1.01 -0.14,-3.02 -0.18,-4.02c-2.72,0.03 -5.43,0.04 -8.14,0.04c-0.06,-2.92 -0.06,-5.85 0.07,-8.77c2.68,0.06 5.36,0.08 8.05,0.11c0.05,-1.04 0.16,-3.11 0.21,-4.15c-4.05,0.4 -8.13,0.36 -12.18,0.06M207.69303,171.84095c0.02,2.58 0.03,5.16 0.04,7.74c0.96,0.13 2.88,0.38 3.84,0.51c-0.09,-2.78 -0.1,-5.55 -0.07,-8.32c-0.95,0.02 -2.85,0.05 -3.81,0.07M200.71303,173.11095c-0.03,1.75 -0.04,3.5 -0.02,5.25c1.85,0.01 3.71,0 5.57,-0.04c-0.01,-1.74 -0.02,-3.47 -0.04,-5.2c-1.84,-0.03 -3.67,-0.03 -5.51,-0.01z" opacity="0.78"/><path d="M248.98303,170.33095c2.86,-0.02 6.2,-0.95 8.8,0.35c0.69,2.35 2.34,3.77 4.6,4.55c0.71,1.84 0.15,3.8 -0.07,5.68c-0.72,0.04 -2.17,0.12 -2.89,0.16c-0.48,1.32 -0.95,2.64 -1.42,3.96c-2.48,0.42 -5.26,-0.23 -7.49,1.16c0.91,0.08 2.72,0.23 3.62,0.3c1.43,0.34 2.87,0.66 4.3,0.99c0.12,1.78 0.15,3.56 0.1,5.34c-0.63,0.26 -1.87,0.79 -2.5,1.05c-2.21,0.02 -4.41,0.01 -6.62,0.01l0.03,-1.65c2.65,0.01 5.31,0 7.97,0.06c0.01,-1.02 0.04,-3.06 0.05,-4.08c-2.64,0.17 -5.29,0.19 -7.93,0.15c-0.1,1.56 -0.22,3.12 -0.36,4.68c-0.48,-0.84 -1.43,-2.52 -1.91,-3.37c-0.83,-0.23 -1.67,-0.46 -2.51,-0.68c-0.25,-0.56 -0.75,-1.68 -1,-2.23c0.07,-3.4 -0.37,-6.86 0.28,-10.2c0.17,-1.22 1.22,-1.75 2.21,-2.2c1.83,-0.53 2,-2.58 2.74,-4.03M249.38303,171.35095c0.03,1.37 0.06,2.73 0.09,4.1c2.59,-0.03 5.19,-0.03 7.79,-0.02c0.09,-1.39 0.19,-2.77 0.3,-4.16c-2.72,0.35 -5.46,0.36 -8.18,0.08M257.62303,175.97095c0.01,1.16 0.02,2.32 0.03,3.48c0.97,0.18 2.93,0.54 3.91,0.71c-0.03,-1.67 -0.03,-3.34 -0.03,-5.01c-0.98,0.2 -2.93,0.62 -3.91,0.82M245.33303,175.80095c0.02,4.12 0.03,8.24 -0.02,12.36c0.95,-0.04 2.84,-0.13 3.79,-0.18c0.02,-1.38 0.04,-2.75 0.07,-4.13c2.79,-0.05 5.58,-0.02 8.36,0.22c-0.06,-1.03 -0.19,-3.1 -0.26,-4.13c-2.69,0.02 -5.37,0.04 -8.06,0.07c-0.05,-1.38 -0.08,-2.76 -0.11,-4.14c-0.94,-0.02 -2.83,-0.05 -3.77,-0.07M250.51303,178.64095c1.93,0.03 3.86,0.03 5.79,-0.03c-0.03,-2.96 -5.93,-2.94 -5.79,0.03z" opacity="0.78"/><path d="M331.93303,166.59095c3.61,-0.95 7.41,-0.56 11.1,-0.51c1.55,-0.19 2.5,1.14 3.58,1.99c-0.1,1.95 -0.45,3.93 -2.22,5.07c-2.17,-0.07 -4.34,-0.02 -6.5,0.15c1.73,1.65 4.37,0.73 6.5,0.91c2.65,1.51 2.27,4.65 0.92,6.92c-2.39,0.11 -4.77,0.22 -7.15,0.33c-0.32,2.31 1.35,5.45 -1.02,7h-0.73c0.14,-2.91 0.21,-5.83 0.22,-8.74c2.71,-0.03 5.43,0 8.15,0.06c0.01,-0.95 0.03,-2.86 0.04,-3.82c-2.73,0 -5.47,-0.01 -8.21,-0.03c0,-1.51 0,-3.02 0,-4.53c2.74,-0.01 5.48,-0.01 8.22,-0.01c-0.02,-0.97 -0.05,-2.91 -0.07,-3.87c-3.97,0.25 -7.95,0.25 -11.93,0.27c0.11,8.14 0.18,16.3 -0.05,24.44c4,-0.04 7.99,-0.04 11.98,0.01c0.04,-0.9 0.11,-2.71 0.15,-3.62c0.35,1.54 0.66,3.09 0.97,4.64c-4.69,0.92 -9.7,1.25 -14.3,-0.3c-0.49,-6.41 -0.17,-12.84 -0.28,-19.26c0.05,-2.37 -0.14,-4.82 0.63,-7.1z" opacity="0.72"/><path d="M219.92303,170.29095c1.44,-0.06 2.88,-0.17 4.3,0.01c1.13,1.24 1.39,2.93 1.96,4.44c0.57,-1.47 1.19,-2.93 1.78,-4.4c3.11,-0.32 6.25,-0.29 9.37,0.02c0.21,1.89 0.33,3.78 0.36,5.68c-2.35,1.15 -4.99,0.94 -7.52,1.18c-0.33,0.08 -0.98,0.24 -1.31,0.33c-0.51,4.93 -0.34,9.92 0.43,14.82l0.1,0.79c-1.87,0.19 -3.76,0.24 -5.64,0.12c-0.24,-0.64 -0.73,-1.92 -0.97,-2.56c-0.06,-4.46 -0.03,-8.93 -0.03,-13.39c-1.32,-0.52 -2.63,-1.07 -3.95,-1.58c-0.02,-1.05 -0.04,-2.09 -0.06,-3.14c0.3,-0.58 0.89,-1.74 1.18,-2.32M220.30303,171.41095c0,1.02 0,3.04 0,4.06c0.93,-0.02 2.8,-0.06 3.73,-0.08c0.1,-1.02 0.29,-3.05 0.39,-4.07c-1.03,0.02 -3.09,0.07 -4.12,0.09M228.37303,171.29095c0.07,1.39 0.12,2.78 0.18,4.17c2.62,-0.04 5.24,-0.04 7.87,-0.01c0.04,-1.39 0.09,-2.78 0.15,-4.18c-2.73,0.34 -5.47,0.34 -8.2,0.02M224.38303,175.79095c0,5.49 0.04,10.99 -0.04,16.49c1.01,0 3.04,0.02 4.05,0.02c-0.45,-5.47 -0.32,-10.97 -0.16,-16.45c-0.96,-0.02 -2.89,-0.05 -3.85,-0.06z" opacity="0.8"/><path d="M427.60303,171.22095c1.78,-2.13 6.43,-1.49 6.28,1.91c0.33,0.1 0.99,0.29 1.33,0.39c0.44,-1.16 0.53,-3.27 2.2,-3.3c2.54,-0.28 5.1,-0.1 7.64,0.08c0.33,0.57 0.99,1.73 1.32,2.3c-0.11,1.3 -0.12,2.73 -1.54,3.35c-0.06,-1.53 -0.1,-3.06 -0.11,-4.59c-2.74,0.23 -5.48,0.22 -8.2,-0.09c0.09,1.03 0.28,3.11 0.38,4.15c2.59,0 5.2,0.01 7.8,0.01l-0.07,1.56c-2.13,0.03 -4.25,0.05 -6.38,0.07c-0.26,5.01 0.48,10.09 -0.56,15.04c-0.42,-5.46 0.2,-11.02 -1.1,-16.39c-0.97,0.04 -2.91,0.13 -3.88,0.17c0,5.52 0.11,11.03 -0.14,16.55c1.19,0.39 2.39,0.77 3.6,1.11c-1.56,0.13 -3.09,-0.2 -4.6,-0.53c-0.45,-5.17 -0.22,-10.36 -0.31,-15.53c-1.28,-0.53 -2.56,-1.06 -3.86,-1.54c-0.02,-1.57 -0.17,-3.17 0.2,-4.72M428.43303,171.30095c0.07,1.41 0.15,2.82 0.23,4.24c0.93,-0.03 2.8,-0.08 3.73,-0.11c0.06,-1.35 0.12,-2.71 0.19,-4.06c-1.03,-0.02 -3.11,-0.06 -4.15,-0.07z" opacity="0.8"/><path d="M273.88303,170.29095c4.47,-0.38 8.98,-0.38 13.45,0.06c0.26,2.11 0.99,4.48 -0.45,6.34c-3.54,0.7 -7.18,0.36 -10.76,0.39c0,0.31 0.01,0.92 0.01,1.23c1.7,-0.01 3.39,-0.02 5.09,-0.04c0.53,0.31 1.58,0.93 2.11,1.24c0.15,0.61 0.44,1.83 0.58,2.43c1.2,0.65 2.68,0.98 3.59,2.07c0.54,1.53 0.09,3.16 -0.05,4.72c-2.32,0.52 -4.13,1.88 -4.37,4.39c-4.39,1.38 -9.17,1.02 -13.63,0.14c-0.52,-1.92 -1.43,-4.21 0.38,-5.74c3.6,-1.87 7.88,-0.36 11.62,-1.75c-2.5,-0.4 -5.04,-0.44 -7.55,-0.67c-0.58,-2.09 -1.76,-3.92 -3.87,-4.71c-1.78,-0.69 -1.16,-2.87 -1.54,-4.34c1.19,-0.91 2.46,-1.72 3.91,-2.16c0.51,-1.2 1,-2.4 1.48,-3.6M274.39303,171.41095c0.01,1 0.03,3.01 0.05,4.02c3.96,-0.04 7.93,-0.04 11.9,0c0.04,-1.02 0.12,-3.07 0.16,-4.09c-4.01,0.58 -8.09,0.51 -12.11,0.07M270.37303,175.57095c-0.05,1.46 -0.1,2.93 -0.14,4.39c0.95,-0.12 2.84,-0.36 3.79,-0.49c-0.01,-1.2 -0.01,-2.4 -0.01,-3.6c-0.91,-0.07 -2.73,-0.23 -3.64,-0.3M274.42303,179.97095c-0.01,0.99 -0.02,2.98 -0.03,3.97c2.57,-0.13 5.16,-0.17 7.74,-0.2c0.06,-0.94 0.18,-2.83 0.25,-3.77c-2.66,0.02 -5.31,0.02 -7.96,0M282.62303,184.22095c0.01,0.94 0.02,2.81 0.03,3.75c0.95,0.04 2.84,0.12 3.78,0.16c0,-1 -0.02,-3 -0.02,-4c-0.95,0.02 -2.84,0.07 -3.79,0.09M270.30303,188.33095c0,0.98 0.01,2.94 0.01,3.92c4.03,-0.07 8.06,-0.07 12.09,0.01c-0.07,-0.96 -0.21,-2.88 -0.27,-3.83c-3.95,0.01 -7.89,0.03 -11.83,-0.1z" opacity="0.73"/><path d="M298.91303,170.35095c4.47,-0.32 8.96,-0.31 13.42,0.04c0.17,1.82 0.25,3.65 0.24,5.48c-0.62,0.28 -1.86,0.83 -2.48,1.11c-3,0.04 -6,0.07 -9,0.04c-0.01,0.33 -0.02,0.99 -0.03,1.31c1.66,0.03 3.31,0.04 4.97,0.05c0.58,0.28 1.73,0.84 2.3,1.13c0.08,0.65 0.23,1.96 0.31,2.62c1.27,0.49 2.54,0.97 3.83,1.41c0.09,1.73 0.08,3.47 -0.02,5.2c-1.31,0.46 -2.61,0.94 -3.9,1.43c-0.05,0.67 -0.15,2.01 -0.2,2.68c-1.09,0.33 -2.17,0.67 -3.25,1.01c-3.59,0.12 -7.2,0.07 -10.71,-0.78c-0.11,-1.95 -0.08,-3.91 0.1,-5.87c3.56,-0.33 7.13,-0.08 10.69,-0.35c0.25,-0.36 0.75,-1.08 1,-1.44c-2.44,-0.13 -4.88,-0.21 -7.31,-0.39c-0.44,-1.32 -0.92,-2.63 -1.37,-3.95c-0.68,-0.03 -2.04,-0.11 -2.72,-0.14c-0.44,-1.65 -0.89,-3.3 -1.3,-4.96c0.46,0.04 1.38,0.11 1.84,0.15c-0.02,1.36 -0.03,2.72 -0.05,4.08c0.99,-0.21 2.96,-0.63 3.95,-0.84c-0.01,-1.18 -0.02,-2.37 -0.02,-3.55c-0.97,0.01 -2.92,0.04 -3.9,0.06l0.13,-1.32c2.53,0.2 2.91,-2.38 3.48,-4.21M299.30303,171.26095c0.01,1.05 0.03,3.16 0.04,4.22c4.04,-0.05 8.07,-0.06 12.11,0c0.04,-1.07 0.13,-3.22 0.17,-4.29c-4.09,0.41 -8.22,0.36 -12.32,0.07M299.34303,179.90095c-0.02,1.05 -0.04,3.14 -0.05,4.19c2.66,-0.15 5.33,-0.18 8,-0.17c0.06,-1 0.16,-3.01 0.21,-4.02c-2.72,0.04 -5.44,0.04 -8.16,0M307.52303,184.14095c0,0.98 0.01,2.94 0.01,3.92c1,0.05 3.02,0.15 4.02,0.2c-0.01,-1.06 -0.02,-3.18 -0.03,-4.25c-1,0.04 -3,0.1 -4,0.13M295.23303,192.33095c4.1,-0.07 8.21,-0.08 12.31,0.01c-0.07,-1.02 -0.19,-3.05 -0.25,-4.06c-4.01,0.03 -8.01,0.08 -12.01,-0.11c-0.01,1.39 -0.03,2.77 -0.05,4.16z" opacity="0.88"/><path d="M348.60303,171.26095c1.05,-1.67 3.27,-1.09 4.9,-0.93c1.18,1.23 1.67,2.94 2.42,4.44c0.5,-1.51 0.56,-3.29 1.82,-4.43c2.78,-0.45 5.63,-0.19 8.44,-0.05c0.44,1.25 0.91,2.48 1.38,3.72c1.24,0.5 2.47,1.01 3.72,1.48c0.21,5.82 0.24,11.65 -0.04,17.47c-2.15,0.52 -4.34,0.53 -6.49,0.02c-0.29,-5.29 -0.14,-10.58 -0.19,-15.87c-1.77,-0.05 -3.54,-0.08 -5.3,-0.09c-0.23,5.41 0.52,10.93 -0.87,16.25c-1.93,0.12 -3.86,0.08 -5.77,-0.13c-0.5,-5.22 -0.23,-10.46 -0.33,-15.69c-1.28,-0.51 -2.55,-1.04 -3.84,-1.52c-0.04,-1.55 -0.22,-3.14 0.15,-4.67M349.43303,171.28095c0.07,1.4 0.13,2.79 0.18,4.18c0.96,0 2.86,0.01 3.81,0.01c0.05,-1.38 0.11,-2.75 0.18,-4.12c-1.04,-0.02 -3.13,-0.05 -4.17,-0.07M357.54303,171.28095c0.12,1.38 0.23,2.76 0.33,4.15c2.63,0 5.27,0 7.9,0.03c0,-1.37 -0.01,-2.74 0,-4.11c-2.75,0.21 -5.5,0.2 -8.23,-0.07M353.70303,175.85095c-0.02,5.48 0.13,10.97 -0.13,16.46c1.01,-0.01 3.03,-0.01 4.04,-0.02c-0.11,-5.5 -0.05,-11 -0.04,-16.5c-0.97,0.01 -2.91,0.04 -3.87,0.06M366.15303,175.78095c-0.02,5.5 0.02,11 -0.04,16.5c1.25,-0.01 2.49,-0.01 3.74,-0.01c0.16,-5.45 -0.49,-10.95 0.48,-16.35c-1.4,-0.05 -2.79,-0.09 -4.18,-0.14z" opacity="0.82"/><path d="M406.90303,170.39095c3.07,-0.41 6.17,-0.42 9.25,-0.13c0.48,1.23 0.96,2.45 1.46,3.67c1.15,0.45 2.61,0.6 3.32,1.75c1.09,1.73 -0.1,3.64 -0.68,5.31c-0.65,0.07 -1.94,0.19 -2.59,0.26c-0.48,1.28 -0.96,2.57 -1.44,3.86c-2.54,0.19 -5.14,0.17 -7.58,1c2.5,0.42 5.33,-0.04 7.54,1.44c1.78,1.48 0.81,3.83 0.35,5.68c-3.23,0.89 -6.69,1.09 -9.85,-0.18c-0.09,-0.69 -0.26,-2.06 -0.35,-2.75c-1.23,-0.51 -2.46,-1.02 -3.69,-1.51c-0.86,-4.18 -1.33,-8.57 -0.2,-12.74c0.32,-1.69 2.35,-1.65 3.6,-2.2c0.29,-1.15 0.57,-2.31 0.86,-3.46M407.48303,171.25095c0.17,1.39 0.33,2.77 0.48,4.16c2.55,-0.01 5.11,-0.01 7.67,0.01c-0.01,-1.22 0,-2.44 0,-3.67c-2.73,0.05 -5.46,-0.02 -8.15,-0.5M416.11303,175.84095c-0.01,1.24 -0.01,2.47 -0.02,3.7c1.21,0.01 2.42,0.01 3.63,0.02c-0.01,-1.24 0,-2.48 0,-3.72c-1.21,0 -2.41,0 -3.61,0M403.65303,175.85095c0.12,4.09 0.14,8.18 -0.06,12.26c0.96,-0.03 2.87,-0.1 3.82,-0.13c0,-1.39 0,-2.78 0.01,-4.17c2.74,-0.06 5.48,-0.03 8.22,0.11c0,-0.99 -0.01,-2.97 -0.02,-3.96c-2.71,0.02 -5.41,0.04 -8.12,0.06c-0.06,-1.4 -0.11,-2.79 -0.14,-4.19c-0.93,0 -2.78,0.01 -3.71,0.02M409.27303,177.01095c-0.01,0.34 -0.03,1 -0.04,1.34c1.95,-0.06 3.91,-0.16 5.85,-0.42c-1.79,-0.95 -3.85,-0.84 -5.81,-0.92M407.95303,188.46095c-0.08,0.95 -0.25,2.84 -0.33,3.79c2.67,-0.05 5.34,-0.05 8.01,-0.01c0,-0.98 0.01,-2.93 0.01,-3.91c-2.56,0.08 -5.13,0.11 -7.69,0.13z" opacity="0.73"/><path d="M270.37303,175.57095c0.91,0.07 2.73,0.23 3.64,0.3c0,1.2 0,2.4 0.01,3.6c-0.95,0.13 -2.84,0.37 -3.79,0.49c0.04,-1.46 0.09,-2.93 0.14,-4.39z" opacity="0.07"/><path d="M257.62303,175.97095c0.98,-0.2 2.93,-0.62 3.91,-0.82c0,1.67 0,3.34 0.03,5.01c-0.98,-0.17 -2.94,-0.53 -3.91,-0.71c-0.01,-1.16 -0.02,-2.32 -0.03,-3.48z" opacity="0.05"/><path d="M436.59303,175.71095c1.3,5.37 0.68,10.93 1.1,16.39c0.02,0.32 0.05,0.95 0.07,1.27c-0.4,0.04 -1.19,0.13 -1.59,0.17c-1.21,-0.34 -2.41,-0.72 -3.6,-1.11c0.95,-0.11 2.86,-0.34 3.82,-0.45c-0.03,-5.42 -0.21,-10.86 0.2,-16.27z" opacity="0.58"/><path d="M228.86303,177.55095c0.33,-0.09 0.98,-0.25 1.31,-0.33c-0.35,5.03 0.74,10.27 -0.88,15.15c-0.77,-4.9 -0.94,-9.89 -0.43,-14.82z" opacity="0.58"/><path d="M337.14303,188.45095c2.37,-1.55 0.7,-4.69 1.02,-7c-0.01,1.89 0.57,3.66 1.94,5c2.19,0.08 5,-0.17 6.28,2.09c0.3,1.59 -0.17,3.17 -0.5,4.71c-0.31,-1.55 -0.62,-3.1 -0.97,-4.64c-2.6,0.03 -5.18,-0.04 -7.77,-0.16z" opacity="0.58"/><path d="M250.51303,178.64095c-0.14,-2.97 5.76,-2.99 5.79,-0.03c-1.93,0.06 -3.86,0.06 -5.79,0.03z" opacity="0.33"/></g></g></svg>