<svg version="1.1" xmlns="http://www.w3.org/2000/svg" xmlns:xlink="http://www.w3.org/1999/xlink" width="14.81333" height="10.55062" viewBox="0,0,14.81333,10.55062"><g transform="translate(-232.59334,-174.72469)"><g data-paper-data="{&quot;isPaintingLayer&quot;:true}" fill="#000000" fill-rule="nonzero" stroke="none" stroke-width="1" stroke-linecap="butt" stroke-linejoin="miter" stroke-miterlimit="10" stroke-dasharray="" stroke-dashoffset="0" style="mix-blend-mode: normal"><g><path d="M236.27455,184.7606c-2.81965,-0.54827 -3.32875,-0.8224 -3.32875,-1.84061c0,-1.37066 2.70216,-2.19306 8.26313,-2.46719c4.5036,-0.23497 4.97354,-0.19582 5.60013,0.5091c0.86156,0.93988 0.5091,2.50635 -0.8224,3.56372c-0.8224,0.62659 -1.56647,0.78323 -4.19031,0.74407c-1.72312,-0.03916 -4.22947,-0.23497 -5.52181,-0.5091z"/><path d="M235.92209,179.04298c-1.52731,-0.19581 -2.50635,-0.54826 -2.85881,-1.0182c-0.62659,-0.86156 -0.62659,-1.01821 0,-1.87976c0.97904,-1.3315 12.57092,-1.99725 13.74578,-0.78324c0.78323,0.74407 0.78324,1.72312 0.07832,2.70216c-0.86156,1.17486 -5.8351,1.64479 -10.96529,0.97904z"/></g></g></g></svg>