<svg version="1.1" xmlns="http://www.w3.org/2000/svg" xmlns:xlink="http://www.w3.org/1999/xlink" width="9.68532" height="21.72099" viewBox="0,0,9.68532,21.72099"><g transform="translate(-235.15734,-169.13951)"><g data-paper-data="{&quot;isPaintingLayer&quot;:true}" fill="#000000" fill-rule="nonzero" stroke="none" stroke-width="1" stroke-linecap="butt" stroke-linejoin="miter" stroke-miterlimit="10" stroke-dasharray="" stroke-dashoffset="0" style="mix-blend-mode: normal"><path d="M240.30426,189.72608c-2.62384,-1.48815 -3.91618,-3.09378 -4.69942,-5.75678c-0.78323,-2.663 -0.54826,-4.89522 0.78324,-7.79319c1.37066,-3.01546 3.28959,-5.16935 5.48264,-6.30504c3.09378,-1.56647 4.11198,-0.43078 1.40982,1.64479c-0.86156,0.66575 -2.31054,2.31055 -3.21126,3.72037c-1.60563,2.38887 -1.68395,2.663 -1.68395,5.326c0,2.58468 0.11748,2.97629 1.21401,4.34695c0.66575,0.8224 2.11473,1.99725 3.21126,2.663c2.1539,1.21401 2.58468,2.23222 1.29234,2.93713c-1.13569,0.58743 -1.60563,0.5091 -3.79869,-0.78324z"/></g></g></svg>