<svg version="1.1" xmlns="http://www.w3.org/2000/svg" xmlns:xlink="http://www.w3.org/1999/xlink" width="19.86175" height="24.73796" viewBox="0,0,19.86175,24.73796"><g transform="translate(-230.06913,-167.63102)"><g data-paper-data="{&quot;isPaintingLayer&quot;:true}" fill-rule="nonzero" stroke="none" stroke-width="1" stroke-linecap="butt" stroke-linejoin="miter" stroke-miterlimit="10" stroke-dasharray="" stroke-dashoffset="0" style="mix-blend-mode: normal"><g><path d="M230.3041,191.50744c-0.11749,-0.5091 -0.23497,-1.76228 -0.23497,-2.81965v-1.91893l5.01271,-5.01271c2.74132,-2.78048 5.05187,-5.24768 5.09103,-5.44349c0.07832,-0.23497 -1.05737,-0.39162 -2.93713,-0.39162c-3.1721,0 -5.8351,-0.46994 -6.46169,-1.09653c-0.19581,-0.19581 -0.11749,-1.21402 0.23497,-2.46719c0.31329,-1.21401 0.46995,-2.62384 0.35246,-3.17211c-0.11749,-0.54827 0,-1.13569 0.27413,-1.29234c0.78323,-0.5091 8.61559,-0.23497 13.39332,0.46994c5.36516,0.74407 5.09103,0.39162 4.73857,6.03091c-0.23497,3.72037 -0.27413,3.83786 -1.44899,4.69942c-1.95809,1.44899 -5.326,4.38612 -5.326,4.69941c0,0.11749 1.3315,0.35245 2.9763,0.43078c1.91893,0.11749 3.09378,0.39162 3.32875,0.74407c0.23497,0.31329 0.3133,1.8406 0.27414,3.40707c-0.11749,2.31054 -0.27413,3.01546 -0.90072,3.44624c-0.58743,0.43078 -2.58468,0.54827 -9.43799,0.54827c-8.65475,0 -8.69391,0 -8.92888,-0.86156z" fill="#000000"/><path d="M232.49716,188.8836c0.07832,-0.90072 1.48815,-2.54551 5.91343,-7.04912c7.1666,-7.32325 7.24493,-7.51906 2.03641,-7.989c-1.91893,-0.15665 -4.46444,-0.39162 -5.60014,-0.5091l-2.03641,-0.19581l0.07832,-1.60563l0.11749,-1.60563l5.09103,0.27413c2.81965,0.11749 6.07007,0.35245 7.32325,0.46994l2.19306,0.27414l-0.19581,2.97629l-0.23497,2.9763l-1.95809,1.76228c-1.09653,0.97904 -3.28959,2.85881 -4.93438,4.22947c-4.22947,3.52456 -4.11198,3.75953 2.03641,3.91618l4.97354,0.11748v1.52731v1.56647h-7.4799h-7.44074z" fill="#f9f9f9"/></g></g></g></svg>