<svg version="1.1" xmlns="http://www.w3.org/2000/svg" xmlns:xlink="http://www.w3.org/1999/xlink" width="539.37576" height="99.08742" viewBox="0,0,539.37576,99.08742"><defs><linearGradient x1="-24.69252" y1="314.53826" x2="514.67731" y2="314.53826" gradientUnits="userSpaceOnUse" id="color-1"><stop offset="0.012" stop-color="#a7a9ac"/><stop offset="1" stop-color="#414042"/></linearGradient><linearGradient x1="244.98706" y1="271.1799" x2="244.98706" y2="357.89046" gradientUnits="userSpaceOnUse" id="color-2"><stop offset="0" stop-color="#d1d2d3"/><stop offset="1" stop-color="#a4a5a8"/></linearGradient></defs><g transform="translate(24.69785,-264.99419)"><g data-paper-data="{&quot;isPaintingLayer&quot;:true}" fill-rule="nonzero" stroke="none" stroke-width="1" stroke-linecap="butt" stroke-linejoin="miter" stroke-miterlimit="10" stroke-dasharray="" stroke-dashoffset="0" style="mix-blend-mode: normal"><path d="M514.67791,348.48592c0,8.61252 -22.8432,15.59568 -51.00305,15.59568h-437.37559c-28.16577,0 -50.99712,-6.98498 -50.99712,-15.59568v-67.89787c0,-8.61252 22.83135,-15.59387 50.99712,-15.59387h437.36966c28.17763,0 51.00305,6.98136 51.00305,15.59387v67.89787z" fill="url(#color-1)"/><path d="M494.43672,280.58806v67.89605c0,5.18708 -13.79246,9.40635 -30.76779,9.40635h-437.36966c-16.95755,0 -30.76186,-4.21926 -30.76186,-9.40635v-67.89787c0,-5.18708 13.80431,-9.40635 30.76186,-9.40635h437.36966c16.97533,0 30.76779,4.22107 30.76779,9.40816z" fill="url(#color-2)"/></g></g></svg>