<svg version="1.1" xmlns="http://www.w3.org/2000/svg" xmlns:xlink="http://www.w3.org/1999/xlink" width="58.98348" height="76.80207" viewBox="0,0,58.98348,76.80207"><g transform="translate(-204.06655,-131.04884)"><g data-paper-data="{&quot;isPaintingLayer&quot;:true}" fill-rule="nonzero" stroke-linecap="butt" stroke-linejoin="miter" stroke-miterlimit="10" stroke-dasharray="" stroke-dashoffset="0" style="mix-blend-mode: normal"><path d="M239.44134,180.53172c0,14.55073 0.87692,26.06919 0.39869,26.06919c-14.47798,0 -26.21469,-11.7957 -26.21469,-26.34642c0,-0.27375 25.81601,0.27723 25.81601,0.27723z" data-paper-data="{&quot;index&quot;:null}" fill="#7b5400" stroke="#7b5400" stroke-width="2.5"/><path d="M259.80003,179.00001c0,11.04569 -8.90954,20 -19.9,20c-10.99046,0 -19.9,-8.95431 -19.9,-20c0,-11.04569 8.90954,-20 19.9,-20c10.99047,0 19.9,8.95431 19.9,20z" data-paper-data="{&quot;origPos&quot;:null}" fill="#000000" stroke="#9a6a00" stroke-width="1.5"/><text transform="translate(233.40005,185.60001) scale(0.5,0.5)" font-size="40" xml:space="preserve" data-paper-data="{&quot;origPos&quot;:null}" fill="#ffffff" fill-rule="nonzero" stroke="none" stroke-width="1" stroke-linecap="butt" stroke-linejoin="miter" stroke-miterlimit="10" stroke-dasharray="" stroke-dashoffset="0" font-family="Handwriting" font-weight="normal" text-anchor="start" style="mix-blend-mode: normal"><tspan x="0" dy="0">0</tspan></text><path d="M261.80003,179.02011c0,12.16136 -9.80944,22.0201 -21.91,22.0201c-12.10056,0 -21.91,-9.85873 -21.91,-22.0201c0,-12.16136 9.80944,-22.0201 21.91,-22.0201c12.10056,0 21.91,9.85874 21.91,22.0201z" data-paper-data="{&quot;origPos&quot;:null}" fill="none" stroke="#7b5400" stroke-width="2.5"/><path d="M244.45003,158.40002c0,1.25 -2.48744,0.17678 -2.48744,0.17678l-0.1,-0.7c0.45252,-0.85231 -1.38416,-1.69834 -1.85496,-2.02785c-1.51722,-1.06188 -2.10302,1.54269 -2.38737,2.82223c0,0 -0.27116,1.22023 -1.4914,0.94907c-1.22023,-0.27116 -0.94907,-1.4914 -0.94907,-1.4914c0.34501,-1.55253 0.7374,-3.78667 2.43937,-4.50492c3.08054,-1.30003 5.99682,0.94762 6.71831,3.89931l0.1,0.7c0,0 0.01256,-1.07322 0.01256,0.17678z" data-paper-data="{&quot;origPos&quot;:null}" fill="#9a6a00" stroke="none" stroke-width="0.5"/><text transform="translate(212.92154,166.83542) rotate(-22.42607) scale(0.5,0.5)" font-size="40" xml:space="preserve" data-paper-data="{&quot;origPos&quot;:null,&quot;origRot&quot;:-2.67496}" fill="#ffffff" fill-rule="nonzero" stroke="#e3e3e3" stroke-width="2" stroke-linecap="butt" stroke-linejoin="miter" stroke-miterlimit="10" stroke-dasharray="" stroke-dashoffset="0" font-family="Sans Serif" font-weight="normal" text-anchor="start" style="mix-blend-mode: normal"><tspan x="0" dy="0">LIFE</tspan></text></g></g></svg>