<svg version="1.1" xmlns="http://www.w3.org/2000/svg" xmlns:xlink="http://www.w3.org/1999/xlink" width="825.73147" height="343.7489" viewBox="0,0,825.73147,343.7489"><defs><linearGradient x1="-195.11879" y1="529.69013" x2="-195.11879" y2="230.15047" gradientUnits="userSpaceOnUse" id="color-1"><stop offset="0" stop-color="#ffffff"/><stop offset="1" stop-color="#cccccc"/></linearGradient><radialGradient cx="94.00919" cy="380.224" r="282.49769" gradientUnits="userSpaceOnUse" id="color-2"><stop offset="0" stop-color="#ffffff"/><stop offset="1" stop-color="#cccccc"/></radialGradient><radialGradient cx="207.14734" cy="374.35907" r="239.80685" gradientUnits="userSpaceOnUse" id="color-3"><stop offset="0" stop-color="#cccccc"/><stop offset="1" stop-color="#929cbd"/></radialGradient><radialGradient cx="441.97047" cy="334.5372" r="282.49769" gradientUnits="userSpaceOnUse" id="color-4"><stop offset="0" stop-color="#d7d7d7"/><stop offset="1" stop-color="#909abc"/></radialGradient><radialGradient cx="446.97047" cy="339.5372" r="282.49769" gradientUnits="userSpaceOnUse" id="color-5"><stop offset="0" stop-color="#d7d7d7"/><stop offset="1" stop-color="#909abc"/></radialGradient></defs><g transform="translate(195.11874,-185.94121)"><g data-paper-data="{&quot;isPaintingLayer&quot;:true}" fill-rule="nonzero" stroke="none" stroke-linecap="round" stroke-linejoin="miter" stroke-miterlimit="10" stroke-dasharray="" stroke-dashoffset="0" style="mix-blend-mode: normal"><path d="M-35.43653,463.05223c-26.5346,-8.39569 -55.56729,4.65278 -82.86882,0c-15.93057,-2.73986 -38.36685,-1.48269 -44.11409,-17.61373c-7.58993,-23.76333 20.29677,-50.16416 14.01764,-72.41091c-6.14289,-21.73323 -40.26354,-20.75947 -45.76337,-42.32117c-3.7722,-18.5529 3.9702,-42.25799 17.52197,-51.12838c22.26334,-14.57493 50.70239,-6.595 75.85982,-10.51897c50.72321,-10.17662 100.59267,-28.12282 151.92575,-31.8022c54.9327,-3.93844 115.22054,-18.02949 165.08188,9.53074c35.60864,19.72218 68.45941,67.11719 68.26988,113.27444c-0.18141,44.91456 -41.00577,76.24699 -69.26341,104.70263c-7.06229,8.23405 -21.05523,-13.49388 -26.59212,-5.13737c-10.04321,15.16716 9.48239,51.11321 -5.1536,58.22244c-41.6527,17.80432 -89.81958,12.90165 -131.93004,2.44621c-32.42196,-8.0484 -55.03576,-46.99371 -86.99149,-57.24374z" data-paper-data="{&quot;index&quot;:null}" fill="url(#color-1)" stroke-width="1.28185"/><path d="M-22.35981,442.34041c-24.87543,-7.87087 -54.14918,12.68707 -77.68733,0c-12.71213,-6.83888 -7.38205,-31.81349 -5.79771,-48.16088c-1.20952,-13.93435 14.38964,-29.43751 6.95712,-40.59247c-11.66849,-16.79668 -43.50104,-2.31174 -52.95096,-19.26442c-6.80253,-12.43895 4.08138,-35.47381 15.84657,-40.59247c25.40872,-10.95767 57.17563,8.39816 84.83786,1.60552c27.34529,-6.71041 47.50512,-35.18052 74.01572,-44.03292c36.80298,-11.86578 70.64128,-16.90644 105.90227,-19.49348c28.64375,-1.33481 54.416,5.04984 84.80292,7.78829c7.60264,0.68788 -10.09933,-6.12348 -5.37631,2.99044c22.1504,35.47381 66.56378,59.39843 69.3774,103.20158c2.01387,31.38714 -32.7329,51.8392 -57.00939,66.0492c-14.71787,9.01263 -34.23253,-3.23397 -51.21168,-1.60552c-10.65203,1.1054 -21.4664,-0.32117 -29.95421,5.27466c-9.10616,7.77452 -14.89187,21.25041 -18.93866,31.87808c-5.25278,13.76459 2.28033,35.66616 -9.27627,44.03256c-13.69365,11.67308 -33.78042,11.01273 -51.98461,4.58678c-29.74563,-10.56803 -51.59462,-44.05586 -81.55271,-53.66495z" data-paper-data="{&quot;index&quot;:null}" fill="url(#color-2)" stroke-width="1.2017"/><path d="M127.02271,457.49094c-26.53459,-8.39569 -55.56728,4.65278 -82.86882,0c-15.93057,-2.73986 -38.36684,-1.48269 -44.11409,-17.61373c-7.58993,-23.76333 20.29676,-50.16415 14.01764,-72.4109c-6.14289,-21.73323 -40.26354,-20.75947 -45.76337,-42.32117c-3.77221,-18.5529 3.97021,-42.25799 17.52197,-51.12839c22.26334,-14.57493 50.70238,-6.595 75.85982,-10.51897c50.72321,-10.17662 100.59267,-28.12282 151.92576,-31.8022c54.93271,-3.93843 115.22054,-18.02949 165.08188,9.53074c35.60863,19.72219 68.45941,67.11719 68.26988,113.27444c-0.18141,44.91456 -41.00576,76.24699 -69.2634,104.70263c-7.06229,8.23404 -21.05523,-13.49388 -26.59213,-5.13737c-10.04321,15.16717 9.48239,51.11321 -5.1536,58.22244c-41.6527,17.80432 -89.81959,12.90166 -131.93005,2.44622c-32.42195,-8.0484 -55.03576,-46.99372 -86.99149,-57.24375z" data-paper-data="{&quot;index&quot;:null}" fill="url(#color-3)" stroke-width="1.28185"/><path d="M325.60147,396.65361c-24.87543,-7.87088 -54.14918,12.68707 -77.68733,0c-12.71213,-6.83888 -7.38206,-31.81349 -5.79772,-48.16088c-1.20952,-13.93435 14.38964,-29.43751 6.95712,-40.59248c-11.66849,-16.79668 -43.50103,-2.31174 -52.95096,-19.26442c-6.80253,-12.43895 4.08138,-35.47382 15.84657,-40.59248c25.40873,-10.95767 57.17563,8.39817 84.83786,1.60552c27.34529,-6.71042 47.50512,-35.18052 74.01572,-44.03292c36.80298,-11.86578 70.64128,-16.90645 105.90227,-19.49348c28.64376,-1.33481 54.416,5.04984 84.80291,7.78829c7.60264,0.68787 -10.09932,-6.12347 -5.37631,2.99045c22.1504,35.47382 66.56378,59.39842 69.3774,103.20158c2.01387,31.38714 -32.7329,51.8392 -57.00939,66.0492c-14.71787,9.01263 -34.23253,-3.23397 -51.21168,-1.60551c-10.65203,1.1054 -21.4664,-0.32118 -29.95422,5.27466c-9.10615,7.77452 -14.89187,21.25041 -18.93866,31.87808c-5.25278,13.76459 2.28033,35.66616 -9.27627,44.03256c-13.69365,11.67308 -33.78042,11.01273 -51.98461,4.58679c-29.74563,-10.56802 -51.59462,-44.05586 -81.55271,-53.66495z" data-paper-data="{&quot;index&quot;:null}" fill="url(#color-4)" stroke-width="1.20171"/><path d="M330.60147,401.65361c-24.87543,-7.87088 -54.14918,12.68707 -77.68733,0c-12.71213,-6.83888 -7.38206,-31.81349 -5.79772,-48.16088c-1.20952,-13.93435 14.38964,-29.43751 6.95712,-40.59248c-11.66849,-16.79668 -43.50103,-2.31174 -52.95096,-19.26442c-6.80253,-12.43895 4.08138,-35.47382 15.84657,-40.59248c25.40873,-10.95767 57.17563,8.39817 84.83786,1.60552c27.34529,-6.71042 47.50512,-35.18052 74.01572,-44.03292c36.80298,-11.86578 70.64128,-16.90645 105.90227,-19.49348c28.64376,-1.33481 54.416,5.04984 84.80291,7.78829c7.60264,0.68787 -10.09932,-6.12347 -5.37631,2.99045c22.1504,35.47382 66.56378,59.39842 69.3774,103.20158c2.01387,31.38714 -32.7329,51.8392 -57.00939,66.0492c-14.71787,9.01263 -34.23253,-3.23397 -51.21168,-1.60551c-10.65203,1.1054 -21.4664,-0.32118 -29.95422,5.27466c-9.10615,7.77452 -14.89187,21.25041 -18.93866,31.87808c-5.25278,13.76459 2.28033,35.66616 -9.27627,44.03256c-13.69365,11.67308 -33.78042,11.01273 -51.98461,4.58679c-29.74563,-10.56802 -51.59462,-44.05586 -81.55271,-53.66495z" data-paper-data="{&quot;index&quot;:null}" fill="url(#color-5)" stroke-width="1.20171"/></g></g></svg>