<svg version="1.1" xmlns="http://www.w3.org/2000/svg" xmlns:xlink="http://www.w3.org/1999/xlink" width="15.25824" height="21.39924" viewBox="0,0,15.25824,21.39924"><defs><radialGradient cx="240.11737" cy="170.77384" r="5.83521" gradientUnits="userSpaceOnUse" id="color-1"><stop offset="0" stop-color="#21baff"/><stop offset="1" stop-color="#ccf1ff"/></radialGradient><radialGradient cx="240.11737" cy="187.02384" r="5.83521" gradientUnits="userSpaceOnUse" id="color-2"><stop offset="0" stop-color="#21baff"/><stop offset="1" stop-color="#ccf1ff"/></radialGradient></defs><g transform="translate(-231.98243,-168.32422)"><g data-paper-data="{&quot;isPaintingLayer&quot;:true}" fill-rule="nonzero" stroke-linejoin="miter" stroke-miterlimit="10" stroke-dasharray="" stroke-dashoffset="0" style="mix-blend-mode: normal"><path d="M245.39727,170.69922c0,4.62538 -2.61249,8.375 -5.83517,8.375c-3.22268,0 -5.83517,-3.74962 -5.83517,-8.375c0,-4.62538 -0.06833,-0.17785 5.74872,-0.125c5.9881,0.05441 5.92162,-4.50038 5.92162,0.125z" data-paper-data="{&quot;origPos&quot;:null}" fill="url(#color-1)" stroke="none" stroke-width="0" stroke-linecap="butt"/><path d="M233.33133,169.57422h12.65934" data-paper-data="{&quot;origPos&quot;:null}" fill="none" stroke="#b57d00" stroke-width="2.5" stroke-linecap="round"/><path d="M239.37676,187.47346c-5.81705,0.05285 -5.74872,4.50038 -5.74872,-0.125c0,-4.62538 2.61249,-8.375 5.83517,-8.375c3.22268,0 5.83517,3.74962 5.83517,8.375c0,4.62538 0.06648,0.07059 -5.92162,0.125z" data-paper-data="{&quot;origPos&quot;:null,&quot;index&quot;:null}" fill="url(#color-2)" stroke="none" stroke-width="0" stroke-linecap="butt"/><path d="M233.23243,188.47346h12.65934" data-paper-data="{&quot;origPos&quot;:null,&quot;index&quot;:null}" fill="none" stroke="#b57d00" stroke-width="2.5" stroke-linecap="round"/><path d="M233.62804,170.32422v17.125" data-paper-data="{&quot;origPos&quot;:null}" fill="none" stroke="#b68600" stroke-width="0.5" stroke-linecap="round"/><path d="M245.59507,170.19922v17.125" data-paper-data="{&quot;origPos&quot;:null}" fill="none" stroke="#b68600" stroke-width="0.5" stroke-linecap="round"/><path d="M239.52203,170.44922v17.375" data-paper-data="{&quot;origPos&quot;:null}" fill="none" stroke="#b68600" stroke-width="0.5" stroke-linecap="round"/><path d="M240.31324,179.10547c0,0.50051 -0.35424,0.90625 -0.79121,0.90625c-0.43697,0 -0.79121,-0.40574 -0.79121,-0.90625c0,-0.50051 0.35424,-0.90625 0.79121,-0.90625c0.43697,0 0.79121,0.40574 0.79121,0.90625z" data-paper-data="{&quot;origPos&quot;:null}" fill="#ffa100" stroke="#d89f00" stroke-width="0.5" stroke-linecap="butt"/><path d="M246.38628,173.66797c0,0.50051 -0.35424,0.90625 -0.79121,0.90625c-0.43697,0 -0.79121,-0.40574 -0.79121,-0.90625c0,-0.50051 0.35424,-0.90625 0.79121,-0.90625c0.43697,0 0.79121,0.40574 0.79121,0.90625z" data-paper-data="{&quot;origPos&quot;:null}" fill="#00ceff" stroke="#d89f00" stroke-width="0.5" stroke-linecap="butt"/><path d="M234.4687,173.60547c0,0.50051 -0.35424,0.90625 -0.79121,0.90625c-0.43697,0 -0.79121,-0.40574 -0.79121,-0.90625c0,-0.50051 0.35424,-0.90625 0.79121,-0.90625c0.43697,0 0.79121,0.40574 0.79121,0.90625z" data-paper-data="{&quot;origPos&quot;:null}" fill="#ff0000" stroke="#d89f00" stroke-width="0.5" stroke-linecap="butt"/><path d="M234.4687,183.91797c0,0.50051 -0.35424,0.90625 -0.79121,0.90625c-0.43697,0 -0.79121,-0.40574 -0.79121,-0.90625c0,-0.50051 0.35424,-0.90625 0.79121,-0.90625c0.43697,0 0.79121,0.40574 0.79121,0.90625z" data-paper-data="{&quot;origPos&quot;:null}" fill="#21ff00" stroke="#d89f00" stroke-width="0.5" stroke-linecap="butt"/><path d="M246.38628,183.98047c0,0.50051 -0.35424,0.90625 -0.79121,0.90625c-0.43697,0 -0.79121,-0.40574 -0.79121,-0.90625c0,-0.50051 0.35424,-0.90625 0.79121,-0.90625c0.43697,0 0.79121,0.40574 0.79121,0.90625z" data-paper-data="{&quot;origPos&quot;:null}" fill="#fff300" stroke="#d89f00" stroke-width="0.5" stroke-linecap="butt"/><path d="M234.43088,179.04665c0,0.50051 -0.35423,0.90625 -0.79121,0.90625c-0.43697,0 -0.79121,-0.40574 -0.79121,-0.90625c0,-0.50051 0.35423,-0.90625 0.79121,-0.90625c0.43697,0 0.79121,0.40574 0.79121,0.90625z" data-paper-data="{&quot;origPos&quot;:null}" fill="#a100ff" stroke="#d89f00" stroke-width="0.5" stroke-linecap="butt"/><path d="M246.37206,179.34076c0,0.50051 -0.35423,0.90625 -0.7912,0.90625c-0.43697,0 -0.79121,-0.40574 -0.79121,-0.90625c0,-0.50051 0.35424,-0.90625 0.79121,-0.90625c0.43697,0 0.7912,0.40574 0.7912,0.90625z" data-paper-data="{&quot;origPos&quot;:null}" fill="#a100ff" stroke="#d89f00" stroke-width="0.5" stroke-linecap="butt"/><path d="M244.07378,173.10547c0,0.84569 -0.65758,1.53125 -1.46875,1.53125c-0.81117,0 -1.46875,-0.68556 -1.46875,-1.53125c0,-0.84569 0.65758,-1.53125 1.46875,-1.53125c0.81117,0 1.46875,0.68556 1.46875,1.53125z" data-paper-data="{&quot;origPos&quot;:null}" fill="#7cdcff" stroke="none" stroke-width="0" stroke-linecap="butt"/><path d="M237.88628,185.10547c0,0.84569 -0.65758,1.53125 -1.46875,1.53125c-0.81117,0 -1.46875,-0.68556 -1.46875,-1.53125c0,-0.84569 0.65758,-1.53125 1.46875,-1.53125c0.81117,0 1.46875,0.68556 1.46875,1.53125z" data-paper-data="{&quot;origPos&quot;:null}" fill="#7cdcff" stroke="none" stroke-width="0" stroke-linecap="butt"/></g></g></svg>