<svg version="1.1" xmlns="http://www.w3.org/2000/svg" xmlns:xlink="http://www.w3.org/1999/xlink" width="527" height="391.08776" viewBox="0,0,527,391.08776"><defs><linearGradient x1="224.25769" y1="106.85966" x2="224.25769" y2="112.58273" gradientUnits="userSpaceOnUse" id="color-1"><stop offset="0" stop-color="#ffffff"/><stop offset="1" stop-color="#ebebeb"/></linearGradient><linearGradient x1="224.96538" y1="225.60581" x2="224.96538" y2="231.32888" gradientUnits="userSpaceOnUse" id="color-2"><stop offset="0" stop-color="#ffffff"/><stop offset="1" stop-color="#ebebeb"/></linearGradient><linearGradient x1="104.77308" y1="249.92119" x2="104.77308" y2="255.64426" gradientUnits="userSpaceOnUse" id="color-3"><stop offset="0" stop-color="#ffffff"/><stop offset="1" stop-color="#ebebeb"/></linearGradient><linearGradient x1="90.73136" y1="19.01753" x2="90.73136" y2="24.74061" gradientUnits="userSpaceOnUse" id="color-4"><stop offset="0" stop-color="#ffffff"/><stop offset="1" stop-color="#ebebeb"/></linearGradient><linearGradient x1="436.88929" y1="15.91228" x2="436.88929" y2="21.63535" gradientUnits="userSpaceOnUse" id="color-5"><stop offset="0" stop-color="#ffffff"/><stop offset="1" stop-color="#ebebeb"/></linearGradient><linearGradient x1="383.85176" y1="179.17696" x2="383.85176" y2="184.90002" gradientUnits="userSpaceOnUse" id="color-6"><stop offset="0" stop-color="#ffffff"/><stop offset="1" stop-color="#ebebeb"/></linearGradient></defs><g transform="translate(21,-15.91226)"><g data-paper-data="{&quot;isPaintingLayer&quot;:true}" fill-rule="nonzero" stroke="none" stroke-width="0" stroke-linecap="butt" stroke-linejoin="miter" stroke-miterlimit="10" stroke-dasharray="" stroke-dashoffset="0" style="mix-blend-mode: normal"><path d="M69.84615,294.67694v-43.8371h69.86923v43.8371z" fill="#0a0c27"/><path d="M190.02308,269.63079v-43.83711h69.86923v43.83711z" fill="#0a0c27"/><path d="M189.29231,150.86156v-43.8371h69.86923v43.8371z" fill="#0a0c27"/><path d="M189.20385,112.58273v-5.72308h70.10769v5.72308z" fill="url(#color-1)"/><path d="M189.91154,231.32888v-5.72307h70.10769v5.72307z" fill="url(#color-2)"/><path d="M69.71923,255.64426v-5.72308h70.10769v5.72308z" fill="url(#color-3)"/><path d="M-21,407.00003v-140h527v140z" fill="#0a0c27"/><path d="M55.76598,63.01944v-43.8371h69.86923v43.8371z" fill="#0a0c27"/><path d="M55.67752,24.74061v-5.72308h70.10769v5.72308z" fill="url(#color-4)"/><path d="M401.92391,59.91418v-43.8371h69.86923v43.8371z" fill="#0a0c27"/><path d="M401.83545,21.63535v-5.72308h70.10769v5.72308z" fill="url(#color-5)"/><path d="M348.91715,223.20963v-43.8371h69.86923v43.8371z" fill="#0a0c27"/><path d="M348.79792,184.90002v-5.72307h70.1077v5.72307z" fill="url(#color-6)"/></g></g></svg>