<svg version="1.1" xmlns="http://www.w3.org/2000/svg" xmlns:xlink="http://www.w3.org/1999/xlink" width="58.98346" height="76.80208" viewBox="0,0,58.98346,76.80208"><defs><radialGradient cx="247.23909" cy="189.55865" r="20.41575" gradientUnits="userSpaceOnUse" id="color-1"><stop offset="0" stop-color="#465fb8"/><stop offset="1" stop-color="#001a7a"/></radialGradient></defs><g transform="translate(-210.50826,-141.59898)"><g data-paper-data="{&quot;isPaintingLayer&quot;:true}" fill-rule="nonzero" stroke-linecap="butt" stroke-linejoin="miter" stroke-miterlimit="10" stroke-dasharray="" stroke-dashoffset="0" style="mix-blend-mode: normal"><path d="M245.88305,191.08186c0,14.55073 0.87692,26.0692 0.39869,26.0692c-14.47798,0 -26.21469,-11.7957 -26.21469,-26.34642c0,-0.27375 25.81601,0.27722 25.81601,0.27722z" data-paper-data="{&quot;index&quot;:null}" fill="#7b5400" stroke="#7b5400" stroke-width="2.5"/><path d="M266.89327,189.86277c0,11.2753 -9.09475,20.41575 -20.31367,20.41575c-11.21892,0 -20.31367,-9.14045 -20.31367,-20.41575c0,-11.2753 9.09475,-20.41575 20.31367,-20.41575c11.21893,0 20.31367,9.14045 20.31367,20.41575z" data-paper-data="{&quot;origPos&quot;:null}" fill="url(#color-1)" stroke="#9a6a00" stroke-width="1.5"/><path d="M268.24172,189.57024c0,12.16136 -9.80944,22.0201 -21.91,22.0201c-12.10056,0 -21.91,-9.85873 -21.91,-22.0201c0,-12.16136 9.80944,-22.0201 21.91,-22.0201c12.10056,0 21.91,9.85874 21.91,22.0201z" data-paper-data="{&quot;origPos&quot;:null}" fill="none" stroke="#7b5400" stroke-width="2.5"/><path d="M246.96328,176.29813c-0.042,-1.28957 0.26586,-1.98866 0.26586,-1.98866c8.66189,-1.73781 15.49504,5.84096 15.49504,13.68308c0,1.92067 -5.36315,-0.09484 -3.23069,-0.18339c5.02324,-0.20859 -3.35767,2.54371 -3.2734,-0.07478c0.25687,-7.98137 -5.32841,-8.73084 -9.75614,-9.55234c-1.31572,-0.24411 0.61176,1.56845 0.49932,-1.88391z" data-paper-data="{&quot;origPos&quot;:null,&quot;index&quot;:null}" fill="#00ff48" stroke="none" stroke-width="0"/><path d="M246.26274,178.55751c-4.42772,0.82149 -10.013,1.57098 -9.75614,9.55234c0.08427,2.61849 -8.29664,-0.13381 -3.2734,0.07478c2.13246,0.08855 -3.23069,2.10406 -3.23069,0.18339c0,-7.84213 6.83316,-15.42089 15.49505,-13.68308c0,0 0.30786,0.69909 0.26586,1.98866c-0.11244,3.45236 1.81504,1.63979 0.49932,1.8839z" data-paper-data="{&quot;origPos&quot;:null,&quot;index&quot;:null}" fill="#00ff48" stroke="none" stroke-width="0"/><path d="M245.7634,202.83189c0.042,1.28957 -0.26586,1.98866 -0.26586,1.98866c-8.66189,1.73781 -15.49505,-5.84095 -15.49505,-13.68308c0,-1.92067 5.36315,0.09484 3.23069,0.18339c-5.02324,0.20859 3.35767,-2.54371 3.2734,0.07478c-0.25687,7.98137 5.32842,8.73084 9.75614,9.55234c1.31572,0.24411 -0.61176,-1.56846 -0.49932,1.8839z" data-paper-data="{&quot;origPos&quot;:null,&quot;index&quot;:null}" fill="#00ff48" stroke="none" stroke-width="0"/><path d="M246.46397,200.74799c4.42773,-0.82149 10.01301,-1.57097 9.75614,-9.55234c-0.08427,-2.61849 8.29664,0.13381 3.2734,-0.07478c-2.13246,-0.08855 3.23069,-2.10406 3.23069,-0.18339c0,7.84213 -6.83316,15.42088 -15.49505,13.68308c0,0 -0.30786,-0.69909 -0.26586,-1.98866c0.11244,-3.45236 -1.81504,-1.63979 -0.49932,-1.8839z" data-paper-data="{&quot;origPos&quot;:null,&quot;index&quot;:null}" fill="#00ff48" stroke="none" stroke-width="0"/><text transform="translate(240.71534,196.15013) scale(0.5,0.5)" font-size="40" xml:space="preserve" fill="#00ff48" fill-rule="nonzero" stroke="none" stroke-width="1" stroke-linecap="butt" stroke-linejoin="miter" stroke-miterlimit="10" stroke-dasharray="" stroke-dashoffset="0" font-family="Handwriting" font-weight="normal" text-anchor="start" style="mix-blend-mode: normal"><tspan x="0" dy="0">8</tspan></text><path d="M250.89172,168.95014c0,1.25 -2.48744,0.17678 -2.48744,0.17678l-0.1,-0.7c0.45252,-0.85231 -1.38416,-1.69834 -1.85496,-2.02785c-1.51722,-1.06188 -2.10302,1.54269 -2.38737,2.82223c0,0 -0.27116,1.22023 -1.4914,0.94907c-1.22023,-0.27116 -0.94907,-1.4914 -0.94907,-1.4914c0.34501,-1.55253 0.7374,-3.78667 2.43937,-4.50492c3.08054,-1.30003 5.99682,0.94762 6.71831,3.89931l0.1,0.7c0,0 0.01256,-1.07322 0.01256,0.17678z" fill="#9a6a00" stroke="none" stroke-width="0.5"/><text transform="translate(219.36325,177.38556) rotate(-22.42607) scale(0.5,0.5)" font-size="40" xml:space="preserve" data-paper-data="{&quot;origPos&quot;:null,&quot;origRot&quot;:-2.67496}" fill="#ffffff" fill-rule="nonzero" stroke="#e3e3e3" stroke-width="2" stroke-linecap="butt" stroke-linejoin="miter" stroke-miterlimit="10" stroke-dasharray="" stroke-dashoffset="0" font-family="Sans Serif" font-weight="normal" text-anchor="start" style="mix-blend-mode: normal"><tspan x="0" dy="0">LIFE</tspan></text></g></g></svg>