<svg version="1.1" xmlns="http://www.w3.org/2000/svg" xmlns:xlink="http://www.w3.org/1999/xlink" width="219.5" height="179.26768" viewBox="0,0,219.5,179.26768"><g transform="translate(-38.79649,-14.32678)"><g data-paper-data="{&quot;isPaintingLayer&quot;:true}" fill-rule="nonzero" stroke-linejoin="miter" stroke-miterlimit="10" stroke-dasharray="" stroke-dashoffset="0" style="mix-blend-mode: normal"><path d="M252.59217,180c0,6.81766 -5.63771,12.34446 -12.59217,12.34446c-6.95446,0 -12.59217,-5.5268 -12.59217,-12.34446c0,-6.81766 5.63771,-12.34446 12.59217,-12.34446c6.95446,0 12.59217,5.5268 12.59217,12.34446z" fill="none" stroke="#ffffff" stroke-width="2.5" stroke-linecap="butt"/><path d="M242.02703,180c0,1.19413 -0.90753,2.16216 -2.02703,2.16216c-1.1195,0 -2.02703,-0.96803 -2.02703,-2.16216c0,-1.19413 0.90753,-2.16216 2.02703,-2.16216c1.1195,0 2.02703,0.96803 2.02703,2.16216z" fill="none" stroke="#ffffff" stroke-width="1" stroke-linecap="butt"/><path d="M230.29073,164.29567l-77.88018,-117.97235" fill="none" stroke="#ffffff" stroke-width="2" stroke-linecap="round"/><text transform="translate(39.04649,31.57678) scale(0.5,0.5)" font-size="40" xml:space="preserve" fill="#ffffff" fill-rule="nonzero" stroke="none" stroke-width="1" stroke-linecap="butt" stroke-linejoin="miter" stroke-miterlimit="10" stroke-dasharray="" stroke-dashoffset="0" font-family="&quot;ヒラギノ角ゴ Pro W3&quot;, &quot;Hiragino Kaku Gothic Pro&quot;, Osaka, &quot;メイリオ&quot;, Meiryo, &quot;ＭＳ Ｐゴシック&quot;, &quot;MS PGothic&quot;" font-weight="normal" text-anchor="start" style="mix-blend-mode: normal"><tspan x="0" dy="0">(Hover here for fun facts!)</tspan></text></g></g></svg>